<svg xmlns="http://www.w3.org/2000/svg" xmlns:xlink="http://www.w3.org/1999/xlink" viewBox="0 0 168.21 246.04"><defs><style>.a{fill:#fff;stroke:#000;}.b{fill:#df0000;}.c{fill:url(#a);}.d{fill:url(#b);}.e,.f{font-size:100px;font-family:Arial;font-weight:700;}.f{fill:#e50000;}</style><radialGradient id="a" cx="-254.15" cy="549.84" r="8" gradientTransform="matrix(-6.68, 0.03, 0.05, 10.18, -1643.17, -5446.05)" gradientUnits="userSpaceOnUse"><stop offset="0" stop-color="#df0000"/><stop offset="1" stop-color="#df0000" stop-opacity="0.64"/></radialGradient><radialGradient id="b" cx="14.48" cy="1900.2" r="81.9" gradientTransform="matrix(-0.26, 0.2, 0.13, 0.15, -165.11, -128.55)" gradientUnits="userSpaceOnUse"><stop offset="0" stop-color="#fff" stop-opacity="0.44"/><stop offset="1" stop-opacity="0"/></radialGradient></defs><title>10D</title><path class="a" d="M166.59,235.55a6.89,6.89,0,0,1-6.87,6.87H6.86A6.88,6.88,0,0,1,0,235.55V7.12A6.89,6.89,0,0,1,6.86.25H159.72a6.89,6.89,0,0,1,6.87,6.87V235.55Z" transform="translate(1.12 3.12)"/><path class="b" d="M134.14,31.34A95.56,95.56,0,0,1,123,11.5a95.56,95.56,0,0,1-11.14,19.84A81.25,81.25,0,0,1,95.52,47.57a81.1,81.1,0,0,1,16.34,16.24A95.49,95.49,0,0,1,123,83.64a95.49,95.49,0,0,1,11.14-19.83,81.1,81.1,0,0,1,16.34-16.24A81.25,81.25,0,0,1,134.14,31.34Z" transform="translate(1.12 3.12)"/><path class="c" d="M103.59,139.59a149.73,149.73,0,0,1-19.3-31.76A149.73,149.73,0,0,1,65,139.59a136.65,136.65,0,0,1-28.31,26,136.4,136.4,0,0,1,28.31,26,149.62,149.62,0,0,1,19.3,31.76,149.62,149.62,0,0,1,19.3-31.76,136.4,136.4,0,0,1,28.31-26A136.65,136.65,0,0,1,103.59,139.59Z" transform="translate(1.12 3.12)"/><path class="d" d="M79.35,125.87s6,22.34-.57,30.14c-7.35,8.77-34.4,7.94-34.4,7.94s16.79-8.59,22.88-15.3C73.1,142.23,79.35,125.87,79.35,125.87Z" transform="translate(1.12 3.12)"/><text class="e" transform="translate(38 85.79)">0</text><text class="f" transform="translate(0 85.79)">1</text><text class="f" transform="translate(38 85.79)">0</text></svg>