<svg xmlns="http://www.w3.org/2000/svg" xmlns:xlink="http://www.w3.org/1999/xlink" viewBox="0 0 169.21 246.04"><defs><style>.a{fill:#fff;stroke:#000;}.b{fill:url(#a);}.c{fill:url(#b);}.d{fill:url(#c);}.e{fill:url(#d);}.f{fill:#fffeff;}.g{font-size:100px;font-family:Arial;font-weight:700;}</style><radialGradient id="a" cx="-243.48" cy="548.49" r="8.25" gradientTransform="matrix(-9.72, -0.13, -0.19, 13.47, -2180.3, -7284.52)" gradientUnits="userSpaceOnUse"><stop offset="0"/><stop offset="1" stop-opacity="0.65"/></radialGradient><radialGradient id="b" cx="-444.77" cy="-1164.71" r="84.45" gradientTransform="matrix(0.2, -0.48, -0.25, -0.09, -157.93, -143.62)" gradientUnits="userSpaceOnUse"><stop offset="0" stop-color="#fff" stop-opacity="0.44"/><stop offset="1" stop-opacity="0"/></radialGradient><radialGradient id="c" cx="-143.05" cy="-892.67" r="84.45" gradientTransform="matrix(0.43, -0.45, -0.28, -0.28, -131.6, -162.07)" gradientUnits="userSpaceOnUse"><stop offset="0" stop-color="#fff" stop-opacity="0.49"/><stop offset="1" stop-opacity="0"/></radialGradient><radialGradient id="d" cx="-171.91" cy="-1382.87" r="84.45" gradientTransform="matrix(0.39, -0.36, -0.19, -0.18, -118.6, -177.75)" gradientUnits="userSpaceOnUse"><stop offset="0" stop-color="#fff" stop-opacity="0.24"/><stop offset="1" stop-opacity="0"/></radialGradient></defs><title>10S</title><path class="a" d="M166.59,235.55a6.89,6.89,0,0,1-6.87,6.87H6.86A6.88,6.88,0,0,1,0,235.55V7.12A6.89,6.89,0,0,1,6.86.25H159.72a6.89,6.89,0,0,1,6.87,6.87V235.55Z" transform="translate(2.12 3.12)"/><path class="b" d="M134.58,179.84c-1.53-22.74-49-65.55-50.52-76.26-1.53,10.7-49,53.51-50.52,76.26C32.46,195.92,44.25,202.58,55,202.58c11.61-.12,21.19-15.7,24.49-18.73,1.53,4-10.14,37.46-13.78,37.46h36.75c-3.64,0-15.31-33.45-13.78-37.46,2.89,2.78,11.37,18.26,24.5,18.73C123.86,202.58,135.65,195.92,134.58,179.84Z" transform="translate(2.12 3.12)"/><path class="c" d="M47.83,207.51s-21.72-17.1-19.08-32.08c3-16.83,30-53.09,30-53.09s-4.05,42.87-7,56.06C49,191,47.83,207.51,47.83,207.51Z" transform="translate(2.12 3.12)"/><path class="d" d="M52,196.08s-21.13-36-12.07-52.35c10.18-18.35,58.43-43.35,58.43-43.35s-21.47,49.2-30.25,63.14C59.69,176.84,52,196.08,52,196.08Z" transform="translate(2.12 3.12)"/><path class="e" d="M65.12,164.82S52.61,140.56,61.39,128c9.87-14.15,49.95-36.35,49.95-36.35s-21.93,37.43-30.23,48.26C73.17,150.24,65.12,164.82,65.12,164.82Z" transform="translate(2.12 3.12)"/><path class="f" d="M14,81.33V240.55H148.86V81.33H14Zm70.05,22.25c1.53,10.71,49,53.52,50.52,76.26,1.07,16.08-10.71,22.74-21.42,22.74-13.13-.47-21.61-15.95-24.5-18.73-1.53,4,10.14,37.46,13.78,37.46H65.68c3.64,0,15.31-33.45,13.78-37.46-3.3,3-12.89,18.61-24.5,18.73-10.72,0-22.5-6.66-21.43-22.74C35.06,157.09,82.52,114.28,84.05,103.58Z" transform="translate(2.12 3.12)"/><path d="M150.46,55.54c-0.8-12.24-25.57-35.28-26.36-41-0.8,5.76-25.57,28.8-26.36,41-0.56,8.65,5.59,12.24,11.19,12.24C115,67.72,120,59.33,121.7,57.7c0.8,2.16-5.29,20.16-7.19,20.16h19.18c-1.9,0-8-18-7.19-20.16,1.51,1.5,5.93,9.83,12.78,10.08C144.87,67.78,151,64.2,150.46,55.54Z" transform="translate(2.12 3.12)"/><text class="g" transform="translate(0 85.79)">1</text><text class="g" transform="translate(39 85.79)">0</text></svg>