<svg xmlns="http://www.w3.org/2000/svg" xmlns:xlink="http://www.w3.org/1999/xlink" viewBox="0 0 167.59 246.04"><defs><style>.a{fill:#fff;stroke:#000;}.b{fill:#df0000;}.c{fill:url(#a);}.d{fill:url(#b);}.e{fill:url(#c);}.f{font-size:100px;fill:#e50000;font-family:Arial;font-weight:700;}</style><radialGradient id="a" cx="-253.76" cy="553.07" r="7.02" gradientTransform="matrix(-6.83, 0, 0, 10.99, -1649.13, -5927.08)" gradientUnits="userSpaceOnUse"><stop offset="0" stop-color="#df0000"/><stop offset="1" stop-color="#df0000" stop-opacity="0.67"/></radialGradient><radialGradient id="b" cx="32.35" cy="-1719.76" r="71.89" gradientTransform="matrix(0.34, -0.2, -0.12, -0.2, -159.39, -203.2)" gradientUnits="userSpaceOnUse"><stop offset="0" stop-color="#fff" stop-opacity="0.31"/><stop offset="1" stop-opacity="0"/></radialGradient><radialGradient id="c" cx="323.22" cy="-1799.91" r="71.89" gradientTransform="matrix(0.29, -0.12, -0.06, -0.21, -105.27, -200.52)" gradientUnits="userSpaceOnUse"><stop offset="0" stop-color="#fff" stop-opacity="0.29"/><stop offset="1" stop-opacity="0"/></radialGradient></defs><title>4H</title><path class="a" d="M166.59,235.55a6.89,6.89,0,0,1-6.87,6.87H6.86A6.88,6.88,0,0,1,0,235.55V7.12A6.89,6.89,0,0,1,6.86.25H159.72a6.89,6.89,0,0,1,6.87,6.87V235.55Z" transform="translate(0.5 3.12)"/><path class="b" d="M129.17,26.5c-11,0-12.48,11.05-12.48,11.05S115.22,26.5,104.21,26.5c-7.71,0-14.68,5-14.68,14.3,0,12.35,22.34,24.77,27.17,42.91,4.59-18.12,27.17-30.56,27.17-42.91C143.86,31.45,136.88,26.5,129.17,26.5Z" transform="translate(0.5 3.12)"/><path class="c" d="M106.17,128.81c-19.43,0-22,19.5-22,19.5s-2.59-19.5-22-19.5c-13.6,0-25.91,8.74-25.91,25.23,0,21.79,39.42,43.7,47.93,75.7,8.1-32,47.93-53.91,47.93-75.7C132.07,137.55,119.77,128.81,106.17,128.81Z" transform="translate(0.5 3.12)"/><path class="d" d="M37.44,169.39s-2.07-25.22,5.86-32.63c8.92-8.33,35.91-3,35.91-3s-18.35,6.6-25.65,12.9C46.59,152.65,37.44,169.39,37.44,169.39Z" transform="translate(0.5 3.12)"/><path class="e" d="M83.38,161.87s3.8-23.47,11.55-28.42c8.71-5.57,28.55,5.4,28.55,5.4s-14.68,5.3-21.71,9.38C95.06,152.14,83.38,161.87,83.38,161.87Z" transform="translate(0.5 3.12)"/><text class="f" transform="translate(9.38 85.79)">4</text></svg>