<svg xmlns="http://www.w3.org/2000/svg" xmlns:xlink="http://www.w3.org/1999/xlink" viewBox="0 0 167.59 246.04"><defs><style>.a{fill:#fff;stroke:#000;}.b{fill:url(#a);}.c{fill:url(#b);}.d{fill:url(#c);}.e{fill:url(#d);}.f{fill:#fffeff;}.g{fill:url(#e);}.h{fill:url(#f);}.i{fill:url(#g);}.j{fill:url(#h);}.k{font-size:100px;font-family:Arial;font-weight:700;}</style><radialGradient id="a" cx="-243.48" cy="548.49" r="8.25" gradientTransform="matrix(-9.72, -0.13, -0.19, 13.47, -2180.3, -7284.52)" gradientUnits="userSpaceOnUse"><stop offset="0"/><stop offset="1" stop-opacity="0.65"/></radialGradient><radialGradient id="b" cx="-444.77" cy="-1164.71" r="84.45" gradientTransform="matrix(0.2, -0.48, -0.25, -0.09, -157.93, -143.62)" gradientUnits="userSpaceOnUse"><stop offset="0" stop-color="#fff" stop-opacity="0.44"/><stop offset="1" stop-opacity="0"/></radialGradient><radialGradient id="c" cx="-143.05" cy="-892.67" r="84.45" gradientTransform="matrix(0.43, -0.45, -0.28, -0.28, -131.6, -162.07)" gradientUnits="userSpaceOnUse"><stop offset="0" stop-color="#fff" stop-opacity="0.49"/><stop offset="1" stop-opacity="0"/></radialGradient><radialGradient id="d" cx="-171.91" cy="-1382.87" r="84.45" gradientTransform="matrix(0.39, -0.36, -0.19, -0.18, -118.6, -177.75)" gradientUnits="userSpaceOnUse"><stop offset="0" stop-color="#fff" stop-opacity="0.24"/><stop offset="1" stop-opacity="0"/></radialGradient><radialGradient id="e" cx="-196.17" cy="523.49" r="9.44" gradientTransform="matrix(-9.32, 0.11, 0.16, 13.68, -1826.99, -7007.87)" gradientUnits="userSpaceOnUse"><stop offset="0"/><stop offset="1" stop-opacity="0.66"/></radialGradient><radialGradient id="f" cx="91.98" cy="-2040.75" r="81.41" gradientTransform="matrix(0.26, -0.17, -0.09, -0.17, -168.23, -163.14)" gradientUnits="userSpaceOnUse"><stop offset="0" stop-color="#fff" stop-opacity="0.53"/><stop offset="1" stop-opacity="0"/></radialGradient><radialGradient id="g" cx="91.01" cy="-2041.43" r="81.41" gradientTransform="matrix(0.26, -0.17, -0.09, -0.17, -136.36, -208.68)" gradientUnits="userSpaceOnUse"><stop offset="0" stop-color="#fff" stop-opacity="0.52"/><stop offset="1" stop-opacity="0"/></radialGradient><radialGradient id="h" cx="616.1" cy="-1298.7" r="81.41" gradientTransform="matrix(0.39, -0.02, 0.02, -0.25, -90.44, -154.76)" gradientUnits="userSpaceOnUse"><stop offset="0" stop-color="#fff" stop-opacity="0.7"/><stop offset="1" stop-opacity="0"/></radialGradient></defs><title>5C</title><path class="a" d="M166.59,235.55a6.89,6.89,0,0,1-6.87,6.87H6.86A6.88,6.88,0,0,1,0,235.55V7.12A6.89,6.89,0,0,1,6.86.25H159.72a6.89,6.89,0,0,1,6.87,6.87V235.55Z" transform="translate(0.5 3.12)"/><path class="b" d="M134.58,179.84c-1.53-22.74-49-65.55-50.52-76.26-1.53,10.7-49,53.51-50.52,76.26C32.46,195.92,44.25,202.58,55,202.58c11.61-.12,21.19-15.7,24.49-18.73,1.53,4-10.14,37.46-13.78,37.46h36.75c-3.64,0-15.31-33.45-13.78-37.46,2.89,2.78,11.37,18.26,24.5,18.73C123.86,202.58,135.65,195.92,134.58,179.84Z" transform="translate(0.5 3.12)"/><path class="c" d="M47.83,207.51s-21.72-17.1-19.08-32.08c3-16.83,30-53.09,30-53.09s-4.05,42.87-7,56.06C49,191,47.83,207.51,47.83,207.51Z" transform="translate(0.5 3.12)"/><path class="d" d="M52,196.08s-21.13-36-12.07-52.35c10.18-18.35,58.43-43.35,58.43-43.35s-21.47,49.2-30.25,63.14C59.69,176.84,52,196.08,52,196.08Z" transform="translate(0.5 3.12)"/><path class="e" d="M65.12,164.82S52.61,140.56,61.39,128c9.87-14.15,49.95-36.35,49.95-36.35s-21.93,37.43-30.23,48.26C73.17,150.24,65.12,164.82,65.12,164.82Z" transform="translate(0.5 3.12)"/><path class="f" d="M14,81.33V240.55H148.86V81.33H14Zm70.05,22.25c1.53,10.71,49,53.52,50.52,76.26,1.07,16.08-10.71,22.74-21.42,22.74-13.13-.47-21.61-15.95-24.5-18.73-1.53,4,10.14,37.46,13.78,37.46H65.68c3.64,0,15.31-33.45,13.78-37.46-3.3,3-12.89,18.61-24.5,18.73-10.72,0-22.5-6.66-21.43-22.74C35.06,157.09,82.52,114.28,84.05,103.58Z" transform="translate(0.5 3.12)"/><path class="g" d="M97.35,159.92s14.1-11.28,14.1-26.91c0-9.15-8.13-24.35-26.91-24.35S57.62,123.86,57.62,133c0,15.63,14.1,26.91,14.1,26.91-15.66-12.2-43.57-3.87-43.57,20.51,0,12.2,10,25.63,25.63,25.63,18.79,0,26.91-20.51,26.91-20.51s2.39,23.38-11.53,35.89H99.92C86,208.94,88.38,185.55,88.38,185.55s8.13,20.51,26.91,20.51c15.66,0,25.63-13.43,25.63-25.63C140.93,156.05,113,147.73,97.35,159.92Z" transform="translate(0.5 3.12)"/><path class="h" d="M29.19,190.23s-1.83-23.49,5.19-30.39C42.29,152.08,66.2,157,66.2,157s-16.26,6.14-22.73,12C37.3,174.64,29.19,190.23,29.19,190.23Z" transform="translate(0.5 3.12)"/><path class="i" d="M60.87,145S59,121.48,66.07,114.58c7.9-7.76,31.82-2.83,31.82-2.83s-16.26,6.14-22.73,12C69,129.38,60.87,145,60.87,145Z" transform="translate(0.5 3.12)"/><path class="j" d="M82.85,187.32s14.49-27.77,26.54-31.14c13.54-3.79,34.73,17,34.73,17s-21-3.34-31.78-.79C102.06,174.79,82.85,187.32,82.85,187.32Z" transform="translate(0.5 3.12)"/><path class="f" d="M16,88.59V239H152.7V88.59H16Zm68.49,20c18.79,0,26.92,15.2,26.92,24.35,0,15.63-14.1,26.91-14.1,26.91,15.66-12.2,43.57-3.87,43.57,20.51,0,12.2-10,25.63-25.63,25.63-18.79,0-26.91-20.51-26.91-20.51S86,208.86,99.87,221.37H69.11C83,208.86,80.65,185.48,80.65,185.48S72.53,206,53.74,206c-15.66,0-25.63-13.43-25.63-25.63,0-24.38,27.91-32.71,43.57-20.51,0,0-14.1-11.28-14.1-26.91C57.58,123.79,65.71,108.59,84.49,108.59Z" transform="translate(0.5 3.12)"/><path d="M122.6,44.85s6.64-5.35,6.64-12.76a12.73,12.73,0,0,0-25.36,0c0,7.41,6.64,12.76,6.64,12.76C103.15,39.07,90,43,90,54.57a12.23,12.23,0,0,0,12.07,12.15c8.85,0,12.68-9.72,12.68-9.72s1.12,11.08-5.43,17h14.49c-6.56-5.93-5.43-17-5.43-17s3.83,9.72,12.68,9.72a12.23,12.23,0,0,0,12.07-12.15C143.13,43,130,39.07,122.6,44.85Z" transform="translate(0.5 3.12)"/><text class="k" transform="translate(9.38 85.79)">5</text></svg>