<svg xmlns="http://www.w3.org/2000/svg" xmlns:xlink="http://www.w3.org/1999/xlink" viewBox="0 0 167.59 246.04"><defs><style>.a{fill:#fff;stroke:#000;}.b{font-size:100px;font-family:Arial;font-weight:700;letter-spacing:-3px;}.c{fill:url(#a);}.d{fill:url(#b);}.e{fill:url(#c);}.f{fill:url(#d);}.g{fill:url(#e);}</style><linearGradient id="a" x1="84.43" y1="119.12" x2="84.43" y2="210.83" gradientUnits="userSpaceOnUse"><stop offset="0" stop-color="#bfbfbf"/><stop offset="0.05" stop-color="#a9a9a9"/><stop offset="0.17" stop-color="#7d7d7d"/><stop offset="0.29" stop-color="#565656"/><stop offset="0.41" stop-color="#373737"/><stop offset="0.54" stop-color="#1f1f1f"/><stop offset="0.67" stop-color="#0d0d0d"/><stop offset="0.82" stop-color="#030303"/><stop offset="1"/></linearGradient><linearGradient id="b" x1="84.43" y1="119.91" x2="84.43" y2="210.14" gradientUnits="userSpaceOnUse"><stop offset="0" stop-color="#616161"/><stop offset="0.4" stop-color="#303030"/><stop offset="0.4"/><stop offset="0.63" stop-color="#030303"/><stop offset="0.8" stop-color="#0c0c0c"/><stop offset="0.95" stop-color="#1c1c1c"/><stop offset="1" stop-color="#242424"/></linearGradient><linearGradient id="c" x1="84.43" y1="122.28" x2="84.43" y2="208.04" gradientUnits="userSpaceOnUse"><stop offset="0"/><stop offset="0.39" stop-color="#020202"/><stop offset="0.54" stop-color="#090909"/><stop offset="0.64" stop-color="#141414"/><stop offset="0.72" stop-color="#252525"/><stop offset="0.79" stop-color="#3b3b3b"/><stop offset="0.85" stop-color="#575757"/><stop offset="0.91" stop-color="#777"/><stop offset="0.96" stop-color="#9b9b9b"/><stop offset="1" stop-color="#bfbfbf"/></linearGradient><linearGradient id="d" x1="47.3" y1="167.82" x2="140.89" y2="167.82" gradientUnits="userSpaceOnUse"><stop offset="0" stop-color="#ffebab"/><stop offset="0.17" stop-color="#f8cc90"/><stop offset="0.4" stop-color="#ee9b66"/><stop offset="0.4" stop-color="#ee9963"/><stop offset="0.4" stop-color="#ed9259"/><stop offset="0.4" stop-color="#eb8748"/><stop offset="0.4" stop-color="#e87830"/><stop offset="0.4" stop-color="#e56411"/><stop offset="0.4" stop-color="#e35900"/><stop offset="0.52" stop-color="#ea6700"/><stop offset="0.75" stop-color="#fe8d00"/><stop offset="0.76" stop-color="#ff8f00"/><stop offset="0.83" stop-color="#ff9300"/><stop offset="0.9" stop-color="#ffa000"/><stop offset="0.97" stop-color="#ffb600"/><stop offset="1" stop-color="#ffc200"/></linearGradient><linearGradient id="e" x1="48.88" y1="167.82" x2="138.54" y2="167.82" gradientUnits="userSpaceOnUse"><stop offset="0" stop-color="#fff9c4"/><stop offset="0.14" stop-color="#ffeda5"/><stop offset="0.4" stop-color="#ffd466"/><stop offset="0.4" stop-color="#ffd363"/><stop offset="0.4" stop-color="#ffd059"/><stop offset="0.4" stop-color="#ffcc48"/><stop offset="0.4" stop-color="#ffc530"/><stop offset="0.4" stop-color="#ffbd11"/><stop offset="0.4" stop-color="#ffb800"/><stop offset="0.5" stop-color="#ffbd00"/><stop offset="0.63" stop-color="#fc0"/><stop offset="0.76" stop-color="#ffe300"/><stop offset="0.79" stop-color="#ffe404"/><stop offset="0.83" stop-color="#fde611"/><stop offset="0.87" stop-color="#fce927"/><stop offset="0.91" stop-color="#f9ee45"/><stop offset="0.95" stop-color="#f5f56c"/><stop offset="0.99" stop-color="#f1fd9a"/><stop offset="1" stop-color="#f0ffa8"/></linearGradient></defs><title>AC</title><path class="a" d="M166.59,235.55a6.89,6.89,0,0,1-6.87,6.87H6.86A6.88,6.88,0,0,1,0,235.55V7.12A6.89,6.89,0,0,1,6.86.25H159.72a6.89,6.89,0,0,1,6.87,6.87V235.55Z" transform="translate(0.5 3.12)"/><path d="M122.6,44.85s6.64-5.35,6.64-12.76a12.73,12.73,0,0,0-25.36,0c0,7.41,6.64,12.76,6.64,12.76C103.15,39.07,90,43,90,54.57a12.23,12.23,0,0,0,12.07,12.15c8.85,0,12.68-9.72,12.68-9.72s1.12,11.08-5.43,17h14.49c-6.56-5.93-5.43-17-5.43-17s3.83,9.72,12.68,9.72a12.23,12.23,0,0,0,12.07-12.15C143.13,43,130,39.07,122.6,44.85Z" transform="translate(0.5 3.12)"/><text class="b" transform="translate(6.94 85.79)">A</text><path class="c" d="M84.43,230.21a7.08,7.08,0,0,1-2.82-.59c-20.81-9-51.37-32.55-50.28-60.3,0.26-6.66,3.69-10.94,6.2-14.07s3.45-4.42,3.38-7.17c-0.13-5.51-2.15-9.75-6.55-13.75a7.08,7.08,0,0,1-.29-10.22l16.32-16.58a7.09,7.09,0,0,1,5-2.11h58a7.09,7.09,0,0,1,5,2.11l16.32,16.58a7.09,7.09,0,0,1-.29,10.22c-4.4,4-6.42,8.23-6.55,13.75-0.06,2.75,1,4.19,3.38,7.17s5.94,7.41,6.2,14.06c1.06,27.18-26.37,49.44-50.18,60.25a7.06,7.06,0,0,1-2.93.63h0Z" transform="translate(0.5 3.12)"/><path class="d" d="M84.43,229.2a6.07,6.07,0,0,1-2.42-.5c-20.55-8.93-50.74-32.09-49.68-59.33,0.25-6.33,3.43-10.29,6-13.47,2.42-3,3.68-4.73,3.6-7.83-0.13-5.74-2.32-10.34-6.88-14.47a6.07,6.07,0,0,1-.25-8.76l16.32-16.58a6.07,6.07,0,0,1,4.33-1.81h58a6.07,6.07,0,0,1,4.33,1.81l16.32,16.58a6.07,6.07,0,0,1-.25,8.76c-4.57,4.14-6.75,8.74-6.88,14.47-0.07,3.09,1.19,4.81,3.61,7.83,2.55,3.18,5.73,7.15,6,13.47,1,26.68-26.06,48.61-49.59,59.29a6.08,6.08,0,0,1-2.51.54h0Z" transform="translate(0.5 3.12)"/><path class="e" d="M84.43,226.17a3,3,0,0,1-1.21-.25c-19.79-8.59-48.86-30.71-47.85-56.42,0.21-5.33,2.92-8.71,5.31-11.69s4.37-5.45,4.27-9.8c-0.15-6.63-2.66-11.92-7.88-16.65a3,3,0,0,1-.12-4.38l16.32-16.58a3,3,0,0,1,2.16-.91h58a3,3,0,0,1,2.16.91L131.91,127a3,3,0,0,1-.13,4.38c-5.22,4.73-7.73,10-7.88,16.65-0.1,4.34,1.93,6.87,4.27,9.8s5.1,6.37,5.31,11.69c0.92,23.56-23.34,45.3-47.81,56.41a3,3,0,0,1-1.26.27h0Z" transform="translate(0.5 3.12)"/><path class="f" d="M84.43,225.15a2,2,0,0,1-.8-0.17,101.85,101.85,0,0,1-31.87-22.13c-10.48-11-15.79-22.48-15.37-33.33,0.2-5,2.8-8.24,5.09-11.1,2.47-3.08,4.6-5.74,4.49-10.45-0.16-6.83-2.84-12.51-8.21-17.38a2,2,0,0,1-.08-2.92L54,111.1a2,2,0,0,1,1.44-.6h58a2,2,0,0,1,1.44.6l16.32,16.58a2,2,0,0,1-.09,2.92c-5.37,4.86-8.05,10.55-8.21,17.38-0.11,4.71,2,7.37,4.49,10.45,2.29,2.86,4.9,6.11,5.09,11.1C133.38,192.62,109.42,214,85.27,225a2,2,0,0,1-.84.18h0Z" transform="translate(0.5 3.12)"/><path class="g" d="M55.44,112.52L39.11,129.1c6.27,5.68,8.72,12,8.88,18.83,0.24,10.36-9.23,12.55-9.59,21.68-0.89,22.68,25,44.41,46,53.52,22.76-10.33,46.92-30.84,46-53.52-0.36-9.12-9.82-11.31-9.59-21.68,0.16-6.83,2.6-13.15,8.88-18.83l-16.32-16.58h-58Z" transform="translate(0.5 3.12)"/></svg>