<svg xmlns="http://www.w3.org/2000/svg" viewBox="0 0 167.59 246.04"><defs><style>.a{fill:#fff;stroke:#000;}.b{font-size:100px;font-family:Arial;font-weight:700;}.c{fill:#e2d200;}.d{fill:#1156a1;}.e{fill:#df0000;}</style></defs><title>JC</title><path class="a" d="M166.59,235.55a6.89,6.89,0,0,1-6.87,6.87H6.86A6.88,6.88,0,0,1,0,235.55V7.12A6.89,6.89,0,0,1,6.86.25H159.72a6.89,6.89,0,0,1,6.87,6.87V235.55Z" transform="translate(0.5 3.12)"/><path d="M122.6,44.85s6.64-5.35,6.64-12.76a12.73,12.73,0,0,0-25.36,0c0,7.41,6.64,12.76,6.64,12.76C103.15,39.07,90,43,90,54.57a12.23,12.23,0,0,0,12.07,12.15c8.85,0,12.68-9.72,12.68-9.72s1.12,11.08-5.43,17h14.49c-6.56-5.93-5.43-17-5.43-17s3.83,9.72,12.68,9.72a12.23,12.23,0,0,0,12.07-12.15C143.13,43,130,39.07,122.6,44.85Z" transform="translate(0.5 3.12)"/><text class="b" transform="translate(9.38 85.79)">J</text><path class="c" d="M33.39,160.9c1.74-.86,6.77-3.18,8.6-4,3.15-1.35,3.58-1.57,3.58-1.78a6,6,0,0,0-.53-1.27,8.52,8.52,0,0,1-.53-5A8.2,8.2,0,0,1,47,145.19a7,7,0,0,1,5.07-1.37l1.79,0.07,0.35-1.16c0.58-1.91,2.42-13.17,2.66-16.33l0.11-1.5-2.47-4.08c-1.36-2.24-2.77-4.55-3.14-5.13s-1.84-3-3.27-5.47l-3.83-6.48c-0.67-1.13-1.23-2.1-1.23-2.16s18.84-.1,41.86-0.1,41.86,0.05,41.86.11a12.74,12.74,0,0,1-.63,1.36c-0.71,1.42-.78,1.93-0.29,2.33a37.76,37.76,0,0,1,3.1,4.55c0.34,0.66,1.12,3,2.57,7.53q1.67,5.29,3.08,6.76c0.76,0.8.73,1.43-.11,2.05-0.54.4-.87,0.44-3.37,0.43s-2.88-.06-4.2-0.6a17.45,17.45,0,0,1-7.23-5.73,5.69,5.69,0,0,0-1.14-1.33,17.6,17.6,0,0,0-1.66,2.93,25.67,25.67,0,0,1-1.68,3.06,15.43,15.43,0,0,0-.22,3.86c0,3.26.06,3.94,0.49,5.51a60.13,60.13,0,0,0,3,8.39c0.52,0.89.57,0.91,1.38,0.81A3.85,3.85,0,0,1,124,145.9a4.34,4.34,0,0,1-.47,3.62,3.06,3.06,0,0,1-1.74,1.76,3.74,3.74,0,0,1-3.65,0,8.63,8.63,0,0,1-3.06-3,3.48,3.48,0,0,0-.65-0.89c-0.66-.55-0.34.49,1.33,4.3,2.32,5.3,2.53,5.75,2.81,5.92a5.9,5.9,0,0,0,1.62.17c2.68,0,3.79,1.2,3.79,4,0,1.65-.32,2.4-1.37,3.2a2.63,2.63,0,0,0-.74.71,11.74,11.74,0,0,0,2.05,1.28c1.13,0.62,3.57,2,5.42,3.09a33.47,33.47,0,0,0,4.5,2.29m-14,48c-0.54-.38-1.35-1-1.79-1.31L116,217.42a3.77,3.77,0,0,1-1.26-1.31,26.68,26.68,0,0,1,1.68-3.61,16,16,0,0,0,1.68-3.91c0-.55-0.23-0.89-1.32-1.9-0.73-.68-1.6-1.44-1.95-1.7a6.5,6.5,0,0,1-2.2-2.32,19.56,19.56,0,0,1,2.1-3.17,24.34,24.34,0,0,0,2.1-3.08c0-.31-1.59-2.26-4.36-5.33a6.89,6.89,0,0,1-1.1-1.44,3.43,3.43,0,0,1,.7-1c0.38-.43,1.47-1.71,2.42-2.84,2-2.41,2.15-2.95,1.08-4.42a60.32,60.32,0,0,1-3.59-5.55c-0.19-.51,0-0.72,2.46-3.24l2.67-2.7,0.1-1.15a3.06,3.06,0,0,0-.57-2.31c-0.87-1.52-2.33-2.77-2.33-2a11.69,11.69,0,0,0,1,1.95c1.18,2,1.33,2.33,1.17,2.75a25.71,25.71,0,0,1-2.64,2.54c-2.42,2.15-2.53,2.22-2.92,1.87a74.46,74.46,0,0,1-4.83-7c0-.43-0.38-0.44-0.92,0a1.4,1.4,0,0,0-.55.74,34.24,34.24,0,0,0,2.52,3.9,23.51,23.51,0,0,1,2.52,4.07,2.72,2.72,0,0,1-1.21,1.47c-0.67.55-2.09,1.8-3.16,2.78l-1.95,1.79v2.35l2.95,3a22.83,22.83,0,0,1,2.95,3.31c0,0.38-1.33,2-3.8,4.78a13.61,13.61,0,0,0-1.75,2.23c-0.18.57,0.06,0.84,3,3.32l3,2.52a1.6,1.6,0,0,1,.58.89,21.78,21.78,0,0,1-2.52,3.51,22.37,22.37,0,0,0-2.52,3.5c0,0.49,1,1.32,4.37,3.79a24.24,24.24,0,0,1,2.88,2.28c0.11,0.26-1,2.62-3.25,6.63-1.31,2.39-1,3.15,1.68,4.6a33.83,33.83,0,0,1,5.35,3.26m-2.78-3.69c-1.76-1-3.31-1.95-3.44-2.08s0.15-1,1.2-3l1.83-3.58c0.71-1.4.73-1.39,3.34,0.38,2.85,1.93,4,2.79,4,3s-0.63,1.58-1.4,3.3c-1.31,2.9-1.85,3.86-2.15,3.84C116.83,229.39,115.33,228.56,113.57,227.55Zm2.16-3a0.75,0.75,0,0,0,.48-1,1.14,1.14,0,0,0-.64-1.07,0.88,0.88,0,0,0-1.16,0,1.17,1.17,0,0,0-.23,2A1.22,1.22,0,0,0,115.73,224.53Zm-3.81-10.6c-0.8-.64-1.83-1.41-2.29-1.72-1.62-1.08-2.63-2-2.63-2.34a37,37,0,0,1,4.32-5.65c0.55-.18,5.64,3.82,5.74,4.51s-2.83,5.89-3.35,6.17C113.45,215,113,214.79,111.91,213.93Zm1.06-3.79c0.67-.67.17-2.19-0.73-2.19a2,2,0,0,0-1.47,1.23A1.34,1.34,0,0,0,113,210.14Zm-3.19-9.33c-0.78-.69-2.08-1.85-2.88-2.58-1.71-1.58-1.76-1.28.73-4.31,1.71-2.08,2.41-2.8,2.72-2.8a29.54,29.54,0,0,1,2.61,2.62c1.64,1.76,2.44,2.78,2.44,3.1,0,0.49-3.62,5.21-4,5.21A9.23,9.23,0,0,1,109.79,200.81Zm1.53-3.48a0.9,0.9,0,0,0-.08-1.54,1.21,1.21,0,0,0-1.93,1C109.31,197.88,110.47,198.18,111.32,197.34Zm-3.71-11.6a20.22,20.22,0,0,1-2.67-3.32c0-.35.58-1.1,2.68-3.16,1.7-1.67,2.87-2.66,3.09-2.62A4.61,4.61,0,0,1,112,178c2.21,3.07,3.24,4.65,3.24,5,0,0.61-4.23,5.64-4.74,5.64A25.06,25.06,0,0,1,107.61,185.74Zm3.47-2.31a1.31,1.31,0,0,0-.14-1.87,1.17,1.17,0,0,0-1.75.19c-0.63.63-.63,0.75-0.08,1.45A1.35,1.35,0,0,0,111.08,183.43Zm2.86,50.81c1.33-3,1.44-2.73-1.81-4.38-2.47-1.26-2.72-1.3-2.52-.5a1.11,1.11,0,0,0,1,1.11,2.35,2.35,0,0,1,1.13.75,2,2,0,0,1,.71,1.74,3,3,0,0,1-.42,1.62m-0.67-2c0-.3,0-0.46-0.25-0.46-0.41,0-.59.3-0.42,0.73S111.29,233.16,111.38,232.6Zm-1.56-12.76a13.54,13.54,0,0,0,1.18-2.6,1.22,1.22,0,0,0-.58-0.78c-0.32-.21-1.32-0.93-2.23-1.6a9.3,9.3,0,0,0-1.95-1.23c-0.2,0-.29.27-0.29,0.84a1.22,1.22,0,0,0,.79,1.34c1.51,1,1.8,1.44,1.69,2.76a3.62,3.62,0,0,1-.55,1.79,1.8,1.8,0,0,0-.23,2l0.23,0.59,0.39-.47A28.83,28.83,0,0,0,109.82,219.84Zm-2.39-2.08c-0.23-.62-0.86-0.72-0.86-0.14a2.27,2.27,0,0,0,.24.89c0.23,0.42.25,0.42,0.51,0.07A0.87,0.87,0,0,0,107.43,217.76Zm12.82,0.82a1.83,1.83,0,0,0-1.12-1.67c-1.47-.61-1.85-2.25-0.88-3.81,0.58-.94.68-1.58,0.24-1.58S116,215.6,116.16,216a25,25,0,0,0,3.93,2.9A0.26,0.26,0,0,0,120.25,218.59ZM119.37,215c-0.09-.72-0.59-0.92-0.59-0.23,0,0.53.15,0.79,0.47,0.79A0.52,0.52,0,0,0,119.37,215Zm-11.64-10a3.45,3.45,0,0,0,.81-1.51c-0.19-.51-4.11-3.51-4.42-3.39-0.49.19-.09,1.14,0.89,2.13a4.61,4.61,0,0,1,1,1.45,2.69,2.69,0,0,1-.65,2.43,1.49,1.49,0,0,0-.36,1.77C105.22,208,106.25,206.89,107.73,204.94Zm9.74,0.13a1.47,1.47,0,0,0-.7-0.7,2.76,2.76,0,0,1-1.3-2.69,1.22,1.22,0,0,0-.09-0.89,4.08,4.08,0,0,0-1.24,1.9c0,0.37.71,1.1,2,2.07C117.1,205.48,117.58,205.59,117.48,205.07Zm-12.37-1a0.87,0.87,0,0,0-.23-0.65c-0.35-.22-0.67.23-0.51,0.73S105.1,204.71,105.1,204.07Zm12.06-1.58c0-.9-0.38-1.24-0.68-0.67a1.11,1.11,0,0,0,0,1C116.75,203.55,117.21,203.34,117.17,202.49Zm-68-19.06c0-1.07-.15-1.29-2.42-3.67-1.84-1.93-2.63-3-2.63-3.44a5.87,5.87,0,0,1,1.51-2c3.72-3.89,3.75-3.92,3.75-4.87s-0.11-1-2.73-3.64a30.07,30.07,0,0,1-2.73-3A20.9,20.9,0,0,1,46,160.4c1.16-1.21,2.27-2.43,2.46-2.71,0.31-.46.31-0.52-0.06-0.79a1.48,1.48,0,0,0-.63-0.29,19.41,19.41,0,0,0-2.51,2.31,18.43,18.43,0,0,1-2.52,2.31,4.13,4.13,0,0,1-1.18-1,2.3,2.3,0,0,0-1.36-.89c-0.74.11-.59,0.75,0.4,1.81a4.07,4.07,0,0,1,1,1.36,25.72,25.72,0,0,1-3.05,3.5,31,31,0,0,0-3,3.43,30.46,30.46,0,0,0,3.05,3.38,18.81,18.81,0,0,1,3,3.53m1.22,1.45-2.88-5.4a21.31,21.31,0,0,1-2.54-2.95,14.63,14.63,0,0,1,2.05-2.44c2.39-2.51,3.05-3.1,3.46-3.1a37.42,37.42,0,0,1,5.43,5.47,43.21,43.21,0,0,1-5.6,5.68A22.26,22.26,0,0,1,39.91,172.47Zm3.47-1.92a1.34,1.34,0,0,0,.46-1.68,1.31,1.31,0,0,0-2.14-.22,1,1,0,0,0,.1,1.51A1.21,1.21,0,0,0,43.38,170.55Zm73.27,29.08c0.07-.34,0-0.36-0.26-0.11s-0.45.72-.08,0.6A0.67,0.67,0,0,0,116.64,199.63Zm-11-6.88c2.57-3,2.55-2.57.27-4.9a12.81,12.81,0,0,0-2.22-2c-0.18,0-.28.28-0.28,0.8A1.55,1.55,0,0,0,104,188a2.9,2.9,0,0,1,.16,4.33,1.77,1.77,0,0,0-.58,2,0.5,0.5,0,0,0,.27.33A17.83,17.83,0,0,0,105.65,192.75Zm10.6,0.38a1.48,1.48,0,0,0-.63-0.75,3,3,0,0,1-1.26-2.59,2.21,2.21,0,0,1,1.25-2.14,0.89,0.89,0,0,0,.41-1.26c-0.15-.15-0.4,0-0.78.51s-1,1.19-1.47,1.76a3.25,3.25,0,0,0-.84,1.32,20.34,20.34,0,0,0,3.16,3.45A0.27,0.27,0,0,0,116.25,193.13Zm-12.31-3a0.77,0.77,0,0,0-.26-0.68c-0.18-.06-0.26.16-0.26,0.68s0.08,0.74.26,0.68A0.77,0.77,0,0,0,103.95,190.17Zm12.26,0.09a1.49,1.49,0,0,0-.15-0.83c-0.18-.28-0.25-0.27-0.57,0a0.63,0.63,0,0,0-.11.91C115.67,191,116.12,191,116.2,190.26ZM49.14,179.77a1.45,1.45,0,0,0-.64-0.86,4.28,4.28,0,0,1-1.07-1.31c-0.59-1.15-.31-2.08,1-3.29,0.88-.83,1.15-1.43.8-1.78-0.2-.2-3.85,3.46-3.85,3.85a21,21,0,0,0,3.62,3.8A0.39,0.39,0,0,0,49.14,179.77Zm67.11-.68a2.68,2.68,0,0,0-.7-1.21,3.09,3.09,0,0,1-.77-2.95,3.38,3.38,0,0,1,.9-0.87,5.72,5.72,0,0,0,.95-0.79c0.33-.41.34-0.87,0-0.87a16.54,16.54,0,0,0-3.19,3c-0.12.24,0.2,0.92,1.13,2.37C115.83,179.68,116.25,180,116.25,179.09Zm-10.92-1.24c1.77-1.4,2.93-2.53,2.93-2.84a51.06,51.06,0,0,0-3.41-5c-0.28-.3-0.8.48-0.8,1.21a1.57,1.57,0,0,0,.49,1.06,2.51,2.51,0,0,1,.88,2.6,2.06,2.06,0,0,1-1,1.79c-0.78.63-1.23,1.61-.95,2.07S103.92,179,105.33,177.84Zm-56-.81a3.1,3.1,0,0,0-.06-1c-0.1-.41-0.19-0.47-0.42-0.29a1.27,1.27,0,0,0-.3,1.46C48.76,177.79,49.22,177.69,49.32,177Zm67.14-.93c0-.83-0.17-1.06-0.56-0.74a1.18,1.18,0,0,0-.14,1.3C116.13,177,116.46,176.77,116.46,176.11Zm-23.57-2.93A49.45,49.45,0,0,0,97.4,170a1.33,1.33,0,0,0-1-.24,24.5,24.5,0,0,1-4.9-.59,33.16,33.16,0,0,1-5.81-2.56l-3-1.81c-1.08-.66-2.48-1.58-3.11-2.05a5.9,5.9,0,0,0-1.35-.85,21.21,21.21,0,0,0-3.8,4.19c0.07,0.11,1.33,1.13,2.8,2.26,6.77,5.2,10.41,7.85,10.75,7.85A44,44,0,0,0,92.89,173.18Zm11.74,0.9a0.56,0.56,0,0,0-.43-0.39c-0.28-.05-0.37.07-0.37,0.54a1.49,1.49,0,0,0,.15.76C104.2,175.21,104.71,174.48,104.63,174.08Zm7.58-5.8a1.12,1.12,0,0,0-.81-2,1.17,1.17,0,0,0-1.24,1.16A1.21,1.21,0,0,0,112.21,168.28Zm-12.63-.39a21.22,21.22,0,0,0,2.9-1.17,15.81,15.81,0,0,0,6.47-6.48,35.08,35.08,0,0,0,2.79-7.84A103,103,0,0,0,113,141.23c0.13-2.92.07-3-1.44-2.59a12.32,12.32,0,0,1-4.83.1,2.29,2.29,0,0,0-1-.08c-0.3.18,0.85,1.25,2.51,2.33s1.92,1.52,1.06,1.52a13.12,13.12,0,0,1-4.08-2.32c-0.8-.7-1-0.76-1.19-0.34a20.59,20.59,0,0,0,1.29,5.12,15.54,15.54,0,0,1,.69,2.46c0.37,2,0,2.73-2.22,4.27a27.51,27.51,0,0,0-2.46,1.9,1.06,1.06,0,0,1-.9.51c-0.23-.37,1.08-2.18,2.61-3.62,1.37-1.28,1.47-1.44,1.47-2.25a31.31,31.31,0,0,0-1.33-6.15,17,17,0,0,1-.9-6.67,7.47,7.47,0,0,1,2.58-5.57,6.9,6.9,0,0,1,7.08-2,3.6,3.6,0,0,0,1.62.18,7.24,7.24,0,0,0,.24-3.2c-0.3-.46-6.34-1.32-13.39-1.92-4.35-.37-14.62-0.72-14.84-0.51s-1.28,6.45-1,6.7,0.72,0,1.84-.38c4-1.48,6.13-1.89,8.41-1.6s4.47,1.65,4.47,2.85c0,0.52,0,.55-0.79.45a19.57,19.57,0,0,1-2.26-.55c-2.13-.64-4.35-0.59-7.54.17s-4.56,1.33-4.56,1.9,0.49,0.55,1.34,0a12.89,12.89,0,0,1,7.93-1.31c2.54,0.47,3.79,1.16,5,2.75l0.48,0.64-0.64.67c-0.73.76-.71,0.69-0.43,1.65s0,1.19-1.92,2.46a16.47,16.47,0,0,1-6.47,2.6c-1.88.26-2.34,0.2-2.34-.3a1,1,0,0,1,.89-0.53c1.44-.35,3.81-1,4.43-1.26,0.91-.35.67-0.65-0.53-0.65a12.27,12.27,0,0,1-5.12-1.46,4.08,4.08,0,0,0-2.08-.64c-1.08,0-1.06,0-1.27,2.42a101.31,101.31,0,0,1-3.77,19.25,12,12,0,0,0-.54,1.93,5,5,0,0,0,1.73,1.53c6.81,4.61,8.59,5.53,12.25,6.29A29.24,29.24,0,0,0,99.58,167.89Zm-2.89-4.61a1.24,1.24,0,0,1,.42-0.66,1.34,1.34,0,0,0,.42-0.55,2.5,2.5,0,0,0-1.1-.5c-1.43-.42-1.72-0.62-1.56-1s0.42-.35,2.78.13a5.05,5.05,0,0,0,2.78-.23,15.69,15.69,0,0,1,2.14-.45c0.71,0,.48.6-0.42,1.05a2.24,2.24,0,0,0-.84.58,1.62,1.62,0,0,0,.65.52c1.13,0.64.68,0.9-1.41,0.82a6.2,6.2,0,0,0-2.69.26C96.88,163.63,96.69,163.64,96.69,163.28ZM91,158.62c-0.23-.27-0.18-0.47.29-1.17a9.23,9.23,0,0,0,.76-1.37c0.28-.73.72-0.84,1.68-0.41a2,2,0,0,0,1.76.11,7.12,7.12,0,0,1,3.44.11,2.77,2.77,0,0,0,1.56-.21,4,4,0,0,1,2.19-.21,4.74,4.74,0,0,0,2.06-.13,1.61,1.61,0,0,1,.87-0.16,9.51,9.51,0,0,1,.44,1.65c0.28,1.34.28,1.58,0,1.84s-0.39.24-.94-0.17a4.4,4.4,0,0,0-4-.24,7,7,0,0,1-4.72.34,7.68,7.68,0,0,0-3.38-.11c-0.67.14-1.34,0.3-1.49,0.36A0.56,0.56,0,0,1,91,158.62Zm4.29-6.93c-1.13-.49-1.56-1.26-1.56-2.79A5.37,5.37,0,0,1,94,147c0.43-.82,1.87-1.78,2.42-1.61s0.54,0.49-.51,1.47a2.09,2.09,0,0,0-.94,1.5,1.15,1.15,0,0,0,.9,1.33c0.68,0.26,1.11.1,2.54-.93,1.27-.92,2.34-1,3.06-0.23a0.73,0.73,0,0,1,.19,1.1c-0.22.45-.65,0.73-1.86,1.19l-2.31.89A2.44,2.44,0,0,1,95.3,151.69ZM38,164.94c1.71-1.73,2.32-2.49,2.2-2.7a8.7,8.7,0,0,0-1.09-1.11c-0.68-.6-1-0.76-1.23-0.62-0.39.24-.39,0.22-0.06,1.29,0.25,0.83.23,1-.34,2.09a3.11,3.11,0,0,1-1.4,1.61,1,1,0,0,0-.79,1.11,0.9,0.9,0,0,0,.17.72A27.23,27.23,0,0,0,38,164.94Zm11.38,0.71a0.83,0.83,0,0,0-.7-0.93c-1.7-.71-1.56-3.66.2-4.33a0.77,0.77,0,0,0,.5-0.93c0-.47-0.1-0.74-0.28-0.74a25.34,25.34,0,0,0-3.69,3.84,18.24,18.24,0,0,0,3.7,3.73C49.24,166.29,49.35,166,49.35,165.65Zm59.8-1.94c1.21-.91,1.44-1.47.66-1.59-0.4-.06-0.92.46-2.25,2.22C107.13,164.93,108,164.58,109.16,163.72Zm-72.6-.34c0.52-1-.07-2.2-1-1.86-0.27.1-.34,0.42-0.34,1.42,0,1.21,0,1.28.47,1.22A1.31,1.31,0,0,0,36.56,163.38Zm12.75-.83c0-.66,0-0.88-0.24-0.88s-0.63.91-.45,1.5S49.24,163.48,49.31,162.54Zm61.45-25.19c0.64-.54.86-1.14,0.41-1.14a1.39,1.39,0,0,0-.65.53,1.47,1.47,0,0,1-2.5-.45,0.54,0.54,0,0,0-.45-0.45c-0.5.17-.4,0.61,0.32,1.32A1.91,1.91,0,0,0,110.77,137.35Zm-4.08-.1a1.22,1.22,0,0,0-1-1.25c-0.64,0-1.3.5-1.1,0.82C104.9,137.37,106.42,137.68,106.69,137.25Zm-14.34-.19c0.62-.24,1.28-1.15,1.07-1.49-0.09-.14-0.46.11-1,0.66C91.41,137.37,91.4,137.42,92.35,137.06Zm2.76,0a0.69,0.69,0,0,0,0-1.31c-0.3-.19-0.44-0.15-0.68.18s-0.41,1.38-.1,1.38A2.84,2.84,0,0,0,95.11,137Zm17.74-.27c0-.24,0-0.34-0.21-0.28a0.66,0.66,0,0,0-.36.47c0,0.24,0,.34.21,0.28A0.66,0.66,0,0,0,112.85,136.75Zm-22.53-.54c-0.42-.85-1-1.14-1-0.49a2,2,0,0,0,1.17,1.33C90.66,137.05,90.61,136.78,90.33,136.21Zm-2,.26a1.05,1.05,0,0,0-.09-0.63,0.76,0.76,0,0,0-.92-0.47c-0.49,0-.74.1-0.74,0.29C86.59,136.23,88.08,136.92,88.34,136.47ZM85.52,134a17.09,17.09,0,0,1,5.8-1.45,15.1,15.1,0,0,1,3.2.49c1.93,0.5,2.64.46,1.85-.12-1.11-.81-4.62-1.22-7.19-0.83-2.77.42-5.59,1.63-5.22,2.23C84.15,134.63,84.41,134.58,85.52,134ZM107,133.7a10.26,10.26,0,0,1,4.56.12,1.71,1.71,0,0,0,1.38.11c0.59-.59-1-1.3-3.07-1.32s-5.19.81-5.19,1.35C104.68,134.16,105,134.12,107,133.7Zm-1-1.57a7.15,7.15,0,0,1,5-.64c2.22,0.59,2.28.6,2.42,0.22,0.49-1.29-3.22-2.1-5.88-1.29-1.14.35-2.87,1.57-2.87,2C104.68,132.7,104.7,132.7,106,132.12Z" transform="translate(0.5 3.12)"/><path class="d" d="M33.39,160.9c1.74-.86,6.77-3.18,8.6-4,3.15-1.35,3.58-1.57,3.58-1.78a6.45,6.45,0,0,0-.56-1.33,5.36,5.36,0,0,1-.58-3.1c0-2.34.29-3.15,1.73-4.59a6.75,6.75,0,0,1,5.29-2,11.79,11.79,0,0,0,2.26-.18c0.49-.3,1.18-3.71,2.41-11.8,0.35-2.33.69-4.9,0.75-5.73l0.11-1.5-2.47-4.08c-1.36-2.24-2.77-4.55-3.14-5.13s-1.84-3-3.27-5.47l-3.83-6.48c-0.67-1.13-1.23-2.1-1.23-2.16s18.84-.1,41.86-0.1,41.86,0.05,41.86.11a12.74,12.74,0,0,1-.63,1.36c-0.71,1.42-.78,1.93-0.29,2.33a37.76,37.76,0,0,1,3.1,4.55c0.34,0.66,1.12,3,2.57,7.53q1.67,5.29,3.08,6.76c0.76,0.8.73,1.43-.11,2.05-0.54.4-.87,0.44-3.37,0.43s-2.88-.06-4.2-0.6a17.45,17.45,0,0,1-7.23-5.73,5.69,5.69,0,0,0-1.14-1.33,17.6,17.6,0,0,0-1.66,2.93,25.67,25.67,0,0,1-1.68,3.06,15.43,15.43,0,0,0-.22,3.86c0,3.26.06,3.94,0.49,5.51a60.13,60.13,0,0,0,3,8.39c0.52,0.89.57,0.91,1.38,0.81A3.85,3.85,0,0,1,124,145.9a4.34,4.34,0,0,1-.47,3.62,3.06,3.06,0,0,1-1.74,1.76,3.74,3.74,0,0,1-3.65,0,8.63,8.63,0,0,1-3.06-3,3.48,3.48,0,0,0-.65-0.89c-0.66-.55-0.34.49,1.33,4.3,2.32,5.3,2.53,5.75,2.81,5.92a5.9,5.9,0,0,0,1.62.17c2.68,0,3.79,1.2,3.79,4,0,1.65-.32,2.4-1.37,3.2a2.63,2.63,0,0,0-.74.71,11.74,11.74,0,0,0,2.05,1.28c1.13,0.62,3.57,2,5.42,3.09a33.47,33.47,0,0,0,4.5,2.29m-14,48c-0.54-.38-1.35-1-1.79-1.31L116,217.42a3.77,3.77,0,0,1-1.26-1.31,26.68,26.68,0,0,1,1.68-3.61,16,16,0,0,0,1.68-3.91c0-.55-0.23-0.89-1.32-1.9-0.73-.68-1.6-1.44-1.95-1.7a6.5,6.5,0,0,1-2.2-2.32,19.56,19.56,0,0,1,2.1-3.17,24.34,24.34,0,0,0,2.1-3.08c0-.31-1.59-2.26-4.36-5.33a6.89,6.89,0,0,1-1.1-1.44,3.43,3.43,0,0,1,.7-1c0.38-.43,1.47-1.71,2.42-2.84,2-2.41,2.15-2.95,1.08-4.42a60.32,60.32,0,0,1-3.59-5.55c-0.19-.51,0-0.72,2.46-3.24l2.67-2.7,0.1-1.15a3.06,3.06,0,0,0-.57-2.31c-0.87-1.52-2.33-2.77-2.33-2a11.69,11.69,0,0,0,1,1.95c1.18,2,1.33,2.33,1.17,2.75a25.71,25.71,0,0,1-2.64,2.54c-2.42,2.15-2.53,2.22-2.92,1.87a74.46,74.46,0,0,1-4.83-7c0-.43-0.38-0.44-0.92,0a1.4,1.4,0,0,0-.55.74,34.24,34.24,0,0,0,2.52,3.9,23.51,23.51,0,0,1,2.52,4.07,2.72,2.72,0,0,1-1.21,1.47c-0.67.55-2.09,1.8-3.16,2.78l-1.95,1.79v2.35l2.95,3a22.83,22.83,0,0,1,2.95,3.31c0,0.38-1.33,2-3.8,4.78a13.61,13.61,0,0,0-1.75,2.23c-0.18.57,0.06,0.84,3,3.32l3,2.52a1.6,1.6,0,0,1,.58.89,21.78,21.78,0,0,1-2.52,3.51,22.37,22.37,0,0,0-2.52,3.5c0,0.49,1,1.32,4.37,3.79a24.24,24.24,0,0,1,2.88,2.28c0.11,0.26-1,2.62-3.25,6.63-1.31,2.39-1,3.15,1.68,4.6a33.83,33.83,0,0,1,5.35,3.26m-2.78-3.69c-1.76-1-3.31-1.95-3.44-2.08s0.15-1,1.2-3l1.83-3.58c0.71-1.4.73-1.39,3.34,0.38,2.85,1.93,4,2.79,4,3s-0.63,1.58-1.4,3.3c-1.31,2.9-1.85,3.86-2.15,3.84C116.83,229.39,115.33,228.56,113.57,227.55Zm2.16-3a0.75,0.75,0,0,0,.48-1,1.14,1.14,0,0,0-.64-1.07,0.88,0.88,0,0,0-1.16,0,1.17,1.17,0,0,0-.23,2A1.22,1.22,0,0,0,115.73,224.53Zm-3.81-10.6c-0.8-.64-1.83-1.41-2.29-1.72-1.62-1.08-2.63-2-2.63-2.34a37,37,0,0,1,4.32-5.65c0.55-.18,5.64,3.82,5.74,4.51s-2.83,5.89-3.35,6.17C113.45,215,113,214.79,111.91,213.93Zm1.06-3.79c0.67-.67.17-2.19-0.73-2.19a2,2,0,0,0-1.47,1.23A1.34,1.34,0,0,0,113,210.14Zm-3.19-9.33c-0.78-.69-2.08-1.85-2.88-2.58-1.71-1.58-1.76-1.28.73-4.31,1.71-2.08,2.41-2.8,2.72-2.8a29.54,29.54,0,0,1,2.61,2.62c1.64,1.76,2.44,2.78,2.44,3.1,0,0.49-3.62,5.21-4,5.21A9.23,9.23,0,0,1,109.79,200.81Zm1.53-3.48a0.9,0.9,0,0,0-.08-1.54,1.21,1.21,0,0,0-1.93,1C109.31,197.88,110.47,198.18,111.32,197.34Zm-3.71-11.6a20.22,20.22,0,0,1-2.67-3.32c0-.35.58-1.1,2.68-3.16,1.7-1.67,2.87-2.66,3.09-2.62A4.61,4.61,0,0,1,112,178c2.21,3.07,3.24,4.65,3.24,5,0,0.61-4.23,5.64-4.74,5.64A25.06,25.06,0,0,1,107.61,185.74Zm3.47-2.31a1.31,1.31,0,0,0-.14-1.87,1.17,1.17,0,0,0-1.75.19c-0.63.63-.63,0.75-0.08,1.45A1.35,1.35,0,0,0,111.08,183.43Zm-0.54,52.76-6.65-7.52a28.72,28.72,0,0,0,3.41-2.35,1.62,1.62,0,0,0-.64-1.53m7.29,9.46c1.33-3,1.44-2.73-1.81-4.38-2.47-1.26-2.72-1.3-2.52-.5a1.11,1.11,0,0,0,1,1.11,2.35,2.35,0,0,1,1.13.75,2,2,0,0,1,.71,1.74,3,3,0,0,1-.42,1.62m-0.67-2c0-.3,0-0.46-0.25-0.46-0.41,0-.59.3-0.42,0.73S111.29,233.16,111.38,232.6Zm-9.64-6.47a0.48,0.48,0,0,0-.42.12,1,1,0,0,0-.42.33,0.48,0.48,0,0,0,.42-0.12A1,1,0,0,0,101.74,226.13Zm8.08-6.29a13.54,13.54,0,0,0,1.18-2.6,1.22,1.22,0,0,0-.58-0.78c-0.32-.21-1.32-0.93-2.23-1.6a9.3,9.3,0,0,0-1.95-1.23c-0.2,0-.29.27-0.29,0.84a1.22,1.22,0,0,0,.79,1.34c1.51,1,1.8,1.44,1.69,2.76a3.62,3.62,0,0,1-.55,1.79,1.8,1.8,0,0,0-.23,2l0.23,0.59,0.39-.47A28.83,28.83,0,0,0,109.82,219.84Zm-2.39-2.08c-0.23-.62-0.86-0.72-0.86-0.14a2.27,2.27,0,0,0,.24.89c0.23,0.42.25,0.42,0.51,0.07A0.87,0.87,0,0,0,107.43,217.76Zm12.82,0.82a1.83,1.83,0,0,0-1.12-1.67c-1.47-.61-1.85-2.25-0.88-3.81,0.58-.94.68-1.58,0.24-1.58S116,215.6,116.16,216a25,25,0,0,0,3.93,2.9A0.26,0.26,0,0,0,120.25,218.59ZM119.37,215c-0.09-.72-0.59-0.92-0.59-0.23,0,0.53.15,0.79,0.47,0.79A0.52,0.52,0,0,0,119.37,215Zm-11.64-10a3.45,3.45,0,0,0,.81-1.51c-0.19-.51-4.11-3.51-4.42-3.39-0.49.19-.09,1.14,0.89,2.13a4.61,4.61,0,0,1,1,1.45,2.69,2.69,0,0,1-.65,2.43,1.49,1.49,0,0,0-.36,1.77C105.22,208,106.25,206.89,107.73,204.94Zm9.74,0.13a1.47,1.47,0,0,0-.7-0.7,2.76,2.76,0,0,1-1.3-2.69,1.22,1.22,0,0,0-.09-0.89,4.08,4.08,0,0,0-1.24,1.9c0,0.37.71,1.1,2,2.07C117.1,205.48,117.58,205.59,117.48,205.07Zm-12.37-1a0.87,0.87,0,0,0-.23-0.65c-0.35-.22-0.67.23-0.51,0.73S105.1,204.71,105.1,204.07Zm12.16-1.4a1.49,1.49,0,0,0-.24-0.92c-0.29-.4-0.3-0.4-0.53,0a1.12,1.12,0,0,0,0,1C116.72,203.46,117.17,203.39,117.26,202.67ZM49.14,183.43c0-1.07-.15-1.29-2.42-3.67-1.84-1.93-2.63-3-2.63-3.44a5.87,5.87,0,0,1,1.51-2c3.72-3.89,3.75-3.92,3.75-4.87s-0.11-1-2.73-3.64a30.07,30.07,0,0,1-2.73-3A20.9,20.9,0,0,1,46,160.4c1.16-1.21,2.27-2.43,2.46-2.71,0.31-.46.31-0.52-0.06-0.79a1.48,1.48,0,0,0-.63-0.29,19.41,19.41,0,0,0-2.51,2.31,18.43,18.43,0,0,1-2.52,2.31,4.13,4.13,0,0,1-1.18-1,2.3,2.3,0,0,0-1.36-.89c-0.74.11-.59,0.75,0.4,1.81a4.07,4.07,0,0,1,1,1.36,25.72,25.72,0,0,1-3.05,3.5,31,31,0,0,0-3,3.43,30.46,30.46,0,0,0,3.05,3.38,18.81,18.81,0,0,1,3,3.53m1.22,1.45-2.88-5.4a21.31,21.31,0,0,1-2.54-2.95,14.63,14.63,0,0,1,2.05-2.44c2.39-2.51,3.05-3.1,3.46-3.1a37.42,37.42,0,0,1,5.43,5.47,43.21,43.21,0,0,1-5.6,5.68A22.26,22.26,0,0,1,39.91,172.47Zm3.47-1.92a1.34,1.34,0,0,0,.46-1.68,1.31,1.31,0,0,0-2.14-.22,1,1,0,0,0,.1,1.51A1.21,1.21,0,0,0,43.38,170.55Zm73.27,29.08c0.07-.34,0-0.36-0.26-0.11s-0.45.72-.08,0.6A0.67,0.67,0,0,0,116.64,199.63Zm5.42-5.59a10.51,10.51,0,0,0,2-1.1c0.08-.13.86-1.2,1.74-2.38a13.81,13.81,0,0,0,1.59-2.46,5.14,5.14,0,0,0-1.68-1.32,5.31,5.31,0,0,1-1.68-1.31,7.7,7.7,0,0,1,1.47-1.82,5.31,5.31,0,0,0,1.47-2,7.78,7.78,0,0,0-1.37-2.22,12.1,12.1,0,0,1-1.37-2,7,7,0,0,1,1.58-1.39,4,4,0,0,0,1.58-1.57,11.17,11.17,0,0,0-1.33-2.46c-0.73-1.13-1.55-2.45-1.82-2.94a3.89,3.89,0,0,0-1.91-1.63,9.37,9.37,0,0,0-1.65-.74c-0.44,0-.23.62,0.66,2,2.7,4.14,3,4.64,2.74,5a11.29,11.29,0,0,1-1.64,1.43,5.31,5.31,0,0,0-1.53,1.55c-0.06.43,0.87,1.81,2.31,3.39a3.66,3.66,0,0,1,.8,1.16,12.93,12.93,0,0,1-1.91,2.21,9.11,9.11,0,0,0-1.83,2.21,9.73,9.73,0,0,0,1.86,1.49,5.57,5.57,0,0,1,1.84,1.64c0,0.28-.5,1.12-1.59,2.47a20.16,20.16,0,0,0-2.58,3.49C119.83,195,120.21,194.9,122.06,194Zm-16.41-1.28c2.57-3,2.55-2.57.27-4.9a12.81,12.81,0,0,0-2.22-2c-0.18,0-.28.28-0.28,0.8A1.55,1.55,0,0,0,104,188a2.9,2.9,0,0,1,.16,4.33,1.77,1.77,0,0,0-.58,2,0.5,0.5,0,0,0,.27.33A17.83,17.83,0,0,0,105.65,192.75Zm15-.79a16.12,16.12,0,0,0,2-2.89,5.37,5.37,0,0,0-1.89-1.62,7.28,7.28,0,0,1-2-1.65c-0.05-.26.55-1,1.84-2.34a10.58,10.58,0,0,0,1.91-2.31,10.28,10.28,0,0,0-1.47-2.28,14,14,0,0,1-1.47-2.14c0-.43.37-0.79,1.81-1.78a4.47,4.47,0,0,0,1.51-1.42,23.38,23.38,0,0,0-3.27-5.27c-0.48-.37-0.63-0.19-0.9,1.11a2,2,0,0,0,.41,2.17,5.8,5.8,0,0,1,.65,1.2,3.27,3.27,0,0,1-.83.93l-0.84.74L118,176.75l-0.14,2.35,0.87,1a5.19,5.19,0,0,1,.87,1.18,5.4,5.4,0,0,1-.95,1.2l-0.95,1v4.67l0.84,0.68a3,3,0,0,1,.84.87,3.54,3.54,0,0,1-.62,1c-0.94,1.19-1.14,1.76-1,2.84,0.23,1.52.64,1.29,2.88-1.57h0Zm-32.15,1.76c0.71-.36,10.69-7,12.4-8.22,1-.72,1-0.73,1-2a2.89,2.89,0,0,0-.2-1.36c-0.22-.14-1.18.46-8.32,5.2a49.3,49.3,0,0,1-5.7,3.46,1.44,1.44,0,0,1-1.37-.51c-0.39-.34-6.07-4.62-12.6-9.5s-13.1-9.8-14.58-10.92a21.71,21.71,0,0,0-3.1-2.11c-0.36-.06-0.41.06-0.41,0.87,0,1.17-.43.79,9.45,8.36l7,5.4,5.69,4.35c1.74,1.33,4.2,3.23,5.47,4.23C87.72,194.46,87.41,194.3,88.55,193.72Zm27.71-.59a1.48,1.48,0,0,0-.63-0.75,3,3,0,0,1-1.26-2.59,2.21,2.21,0,0,1,1.25-2.14,0.89,0.89,0,0,0,.41-1.26c-0.15-.15-0.4,0-0.78.51s-1,1.19-1.47,1.76a3.25,3.25,0,0,0-.84,1.32,20.34,20.34,0,0,0,3.16,3.45A0.27,0.27,0,0,0,116.25,193.13Zm-12.31-3a0.77,0.77,0,0,0-.26-0.68c-0.18-.06-0.26.16-0.26,0.68s0.08,0.74.26,0.68A0.77,0.77,0,0,0,103.95,190.17Zm12.26,0.09a1.49,1.49,0,0,0-.15-0.83c-0.18-.28-0.25-0.27-0.57,0a0.63,0.63,0,0,0-.11.91C115.67,191,116.12,191,116.2,190.26ZM133.64,188a10.14,10.14,0,0,0-.34-2.53,22.21,22.21,0,0,1-.33-8.37l0.46-2.53c0.1-.57,0-0.71-0.74-1.23a2.33,2.33,0,0,0-1.1-.51c-0.42.14-1.23,2.71-1.48,4.69a30.59,30.59,0,0,0,.24,7.4,13.9,13.9,0,0,0,1.32,4.32C132,189.49,133.5,188.57,133.64,188Zm-39.74-2.6c0.84-.29,1.12-1,1.44-3.33a5.44,5.44,0,0,1,.55-2.15c0.4-.26,1.09-0.23,3.11.13,1.65,0.29,1.82.29,2.42-.06s0.66-.49.81-1.94c0.21-2,.12-3.61-0.22-3.72s-0.79,1-1,2.37c-0.23,1.6-.28,1.63-2.83,1.48-3.58-.21-4,0.11-4.57,3.16a9.22,9.22,0,0,1-.51,2.07,40.43,40.43,0,0,1-5.36.22c-4.45,0-5.21,0-5.47-.31a6.6,6.6,0,0,1-.51-2.19c-0.34-3-.84-3.39-3.83-3.16-2.09.16-2.81,0-3.11-.52a10.54,10.54,0,0,1-.42-2.19c-0.32-2.83-.53-3-4.22-3.16-2.67-.13-2.82-0.25-3-2.49C67,168,66.62,167.06,66,166.72a8.32,8.32,0,0,0-3.8,0c-1.57.34-2,0-2.21-1.75-0.22-1.94-.55-2.6-1.46-2.9a3.17,3.17,0,0,0-2.65.32,1.14,1.14,0,0,0-.17.77c0.06,0.43.19,0.48,1.06,0.48a2.49,2.49,0,0,1,1.2.21,5.78,5.78,0,0,1,.43,1.75,9.33,9.33,0,0,0,.43,1.93c0.36,0.67,1.59.9,3.57,0.66a6,6,0,0,1,2.12,0c0.37,0.2.7,1.4,0.92,3.3,0.17,1.47.27,1.7,0.93,2a7.13,7.13,0,0,0,3,.17c2.42-.11,2.44-0.11,2.86.43a4,4,0,0,1,.57,2,9.81,9.81,0,0,0,.42,2.17c0.51,1.22.76,1.3,3.62,1.23,2.51-.06,2.6,0,2.9.42a6.59,6.59,0,0,1,.42,2.2c0.19,3.08.54,3.3,5,3.12a35.43,35.43,0,0,1,4.57.07A10.53,10.53,0,0,0,93.89,185.43Zm1.42-8.94,7.42-5,0.12-1.16c0.2-2-.08-2.16-1.56-1.09-1.26.92-8.45,5.7-11,7.29a11.45,11.45,0,0,1-2.42,1.29c-0.36,0-1.86-1.09-11-8l-4.27-3.23-1,.13c-1.74.24-2.14,0.36-2.14,0.63a12,12,0,0,0,2.26,2c6.16,4.77,8,6.21,11.72,9,2.19,1.65,4.07,3,4.18,3S91.23,179.21,95.31,176.49Zm-46.17,3.29a1.45,1.45,0,0,0-.64-0.86,4.28,4.28,0,0,1-1.07-1.31c-0.59-1.15-.31-2.08,1-3.29,0.88-.83,1.15-1.43.8-1.78-0.2-.2-3.85,3.46-3.85,3.85a21,21,0,0,0,3.62,3.8A0.39,0.39,0,0,0,49.14,179.77Zm67.11-.68a2.68,2.68,0,0,0-.7-1.21,3.09,3.09,0,0,1-.77-2.95,3.38,3.38,0,0,1,.9-0.87,5.72,5.72,0,0,0,.95-0.79c0.33-.41.34-0.87,0-0.87a16.54,16.54,0,0,0-3.19,3c-0.12.24,0.2,0.92,1.13,2.37C115.83,179.68,116.25,180,116.25,179.09Zm-10.92-1.24c1.77-1.4,2.93-2.53,2.93-2.84a51.06,51.06,0,0,0-3.41-5c-0.28-.3-0.8.48-0.8,1.21a1.57,1.57,0,0,0,.49,1.06,2.51,2.51,0,0,1,.88,2.6,2.06,2.06,0,0,1-1,1.79c-0.78.63-1.23,1.61-.95,2.07S103.92,179,105.33,177.84Zm-56-.81a3.1,3.1,0,0,0-.06-1c-0.1-.41-0.19-0.47-0.42-0.29a1.27,1.27,0,0,0-.3,1.46C48.76,177.79,49.22,177.69,49.32,177Zm67.14-.93c0-.83-0.17-1.06-0.56-0.74a1.18,1.18,0,0,0-.14,1.3C116.13,177,116.46,176.77,116.46,176.11Zm-25.64-1.49c2.32-1.51,4.15-2.75,5.89-4,0.82-.58.93-1.12,0.18-0.93a24.64,24.64,0,0,1-5.09-.5,33,33,0,0,1-6.1-2.64l-3-1.8c-1.08-.66-2.48-1.58-3.11-2.05a5.9,5.9,0,0,0-1.35-.85,21.21,21.21,0,0,0-3.8,4.19c0.07,0.11,1.33,1.13,2.8,2.26,6.8,5.22,10.41,7.85,10.76,7.85A14.86,14.86,0,0,0,90.82,174.62Zm13.81-.53a0.56,0.56,0,0,0-.43-0.39c-0.28-.05-0.37.07-0.37,0.54a1.49,1.49,0,0,0,.15.76C104.2,175.21,104.71,174.48,104.63,174.08Zm7.58-5.8a1.12,1.12,0,0,0-.81-2,1.17,1.17,0,0,0-1.24,1.16A1.21,1.21,0,0,0,112.21,168.28Zm-12.63-.39a21.22,21.22,0,0,0,2.9-1.17,15.81,15.81,0,0,0,6.47-6.48,35.08,35.08,0,0,0,2.79-7.84A103,103,0,0,0,113,141.23c0.13-2.92.07-3-1.44-2.59a12.32,12.32,0,0,1-4.83.1,2.29,2.29,0,0,0-1-.08c-0.3.18,0.85,1.25,2.51,2.33s1.92,1.52,1.06,1.52a13.12,13.12,0,0,1-4.08-2.32c-0.8-.7-1-0.76-1.19-0.34a20.59,20.59,0,0,0,1.29,5.12,15.54,15.54,0,0,1,.69,2.46c0.37,2,0,2.73-2.22,4.27a27.51,27.51,0,0,0-2.46,1.9,1.06,1.06,0,0,1-.9.51c-0.23-.37,1.08-2.18,2.61-3.62,1.37-1.28,1.47-1.44,1.47-2.25a31.31,31.31,0,0,0-1.33-6.15,17,17,0,0,1-.9-6.67,7.47,7.47,0,0,1,2.58-5.57,6.9,6.9,0,0,1,7.08-2,3.6,3.6,0,0,0,1.62.18,7.24,7.24,0,0,0,.24-3.2c-0.3-.46-6.34-1.32-13.39-1.92-4.35-.37-14.62-0.72-14.84-0.51s-1.28,6.45-1,6.7,0.72,0,1.84-.38c4-1.48,6.13-1.89,8.41-1.6s4.47,1.65,4.47,2.85c0,0.52,0,.55-0.79.45a19.57,19.57,0,0,1-2.26-.55c-2.13-.64-4.35-0.59-7.54.17s-4.56,1.33-4.56,1.9,0.49,0.55,1.34,0a12.89,12.89,0,0,1,7.93-1.31c2.54,0.47,3.79,1.16,5,2.75l0.48,0.64-0.64.67c-0.73.76-.71,0.69-0.43,1.65s0,1.19-1.92,2.46a16.47,16.47,0,0,1-6.47,2.6c-1.88.26-2.34,0.2-2.34-.3a1,1,0,0,1,.89-0.53c1.44-.35,3.81-1,4.43-1.26,0.91-.35.67-0.65-0.53-0.65a12.27,12.27,0,0,1-5.12-1.46,4.08,4.08,0,0,0-2.08-.64c-1.08,0-1.06,0-1.27,2.42a101.31,101.31,0,0,1-3.77,19.25,12,12,0,0,0-.54,1.93,5,5,0,0,0,1.73,1.53c6.81,4.61,8.59,5.53,12.25,6.29A29.24,29.24,0,0,0,99.58,167.89Zm-2.89-4.61a1.24,1.24,0,0,1,.42-0.66,1.34,1.34,0,0,0,.42-0.55,2.5,2.5,0,0,0-1.1-.5c-1.43-.42-1.72-0.62-1.56-1s0.42-.35,2.78.13a5.05,5.05,0,0,0,2.78-.23,15.69,15.69,0,0,1,2.14-.45c0.71,0,.48.6-0.42,1.05a2.24,2.24,0,0,0-.84.58,1.62,1.62,0,0,0,.65.52c1.13,0.64.68,0.9-1.41,0.82a6.2,6.2,0,0,0-2.69.26C96.88,163.63,96.69,163.64,96.69,163.28ZM91,158.62c-0.23-.27-0.18-0.47.29-1.17a9.23,9.23,0,0,0,.76-1.37c0.28-.73.72-0.84,1.68-0.41a2,2,0,0,0,1.76.11,7.12,7.12,0,0,1,3.44.11,2.77,2.77,0,0,0,1.56-.21,4,4,0,0,1,2.19-.21,4.74,4.74,0,0,0,2.06-.13,1.61,1.61,0,0,1,.87-0.16,9.51,9.51,0,0,1,.44,1.65c0.28,1.34.28,1.58,0,1.84s-0.39.24-.94-0.17a4.4,4.4,0,0,0-4-.24,7,7,0,0,1-4.72.34,7.68,7.68,0,0,0-3.38-.11c-0.67.14-1.34,0.3-1.49,0.36A0.56,0.56,0,0,1,91,158.62Zm4.29-6.93c-1.13-.49-1.56-1.26-1.56-2.79A5.37,5.37,0,0,1,94,147c0.43-.82,1.87-1.78,2.42-1.61s0.54,0.49-.51,1.47a2.09,2.09,0,0,0-.94,1.5,1.15,1.15,0,0,0,.9,1.33c0.68,0.26,1.11.1,2.54-.93,1.27-.92,2.34-1,3.06-0.23a0.73,0.73,0,0,1,.19,1.1c-0.22.45-.65,0.73-1.86,1.19l-2.31.89A2.44,2.44,0,0,1,95.3,151.69ZM38,164.94c1.71-1.73,2.32-2.49,2.2-2.7a8.7,8.7,0,0,0-1.09-1.11c-0.68-.6-1-0.76-1.23-0.62-0.39.24-.39,0.22-0.06,1.29,0.25,0.83.23,1-.34,2.09a3.11,3.11,0,0,1-1.4,1.61,1,1,0,0,0-.79,1.11,0.9,0.9,0,0,0,.17.72A27.23,27.23,0,0,0,38,164.94Zm11.38,0.71a0.83,0.83,0,0,0-.7-0.93c-1.7-.71-1.56-3.66.2-4.33a0.77,0.77,0,0,0,.5-0.93c0-.47-0.1-0.74-0.28-0.74a25.34,25.34,0,0,0-3.69,3.84,18.24,18.24,0,0,0,3.7,3.73C49.24,166.29,49.35,166,49.35,165.65Zm22.79,0a7.43,7.43,0,0,0,2.62-1.72,12,12,0,0,0,3.35-4.84,84.93,84.93,0,0,0,3.21-12.28c0.55-3.24,1.26-9.45,1.27-11a32.14,32.14,0,0,1,.31-3.37c0.17-1.19.46-3.43,0.64-5s0.42-3.25.52-3.79c0.21-1.13,0-1.5-.81-1.5s-1.1.27-1.31,2c-0.11.91-.33,2.56-0.5,3.66-0.41,2.71-.71,5.43-0.85,7.57a120.66,120.66,0,0,1-2.21,15.78c-1.11,4.87-2.67,8.39-4.75,10.7a4.85,4.85,0,0,1-3.71,1.71c-3,0-4-3.74-1.5-5.89,1.3-1.14,2.59-1.11,3.16.08a2.3,2.3,0,0,1-.35,2.55c-0.58.52-.74,0.25-0.43-0.71s0-1.71-.75-1.71c-1.14,0-2.4,2.13-2.06,3.48a2.36,2.36,0,0,0,2.09,1.35,4.73,4.73,0,0,0,4-3.7,4.12,4.12,0,0,0-2-4.19,4.67,4.67,0,0,0-3.46.09,9.56,9.56,0,0,0-3.37,3.52,8.58,8.58,0,0,0,.27,5.25C66.6,165.81,69.39,166.62,72.14,165.62Zm37-1.9c1.21-.91,1.44-1.47.66-1.59-0.4-.06-0.92.46-2.25,2.22C107.13,164.93,108,164.58,109.16,163.72ZM121.81,164a2.7,2.7,0,0,0,1.1-1.41,2,2,0,0,0,.07-1.83,2.57,2.57,0,0,0-3.79-1.42,1.53,1.53,0,0,1-1,.26,34.2,34.2,0,0,1-2.87-5.93c-0.87-2.23-1.61-3.65-1.92-3.66s-0.47,1-.5,2.83,0.51,3.53,2.19,7C117.09,164,119.44,165.46,121.81,164Zm-85.25-.61c0.52-1-.07-2.2-1-1.86-0.27.1-.34,0.42-0.34,1.42,0,1.21,0,1.28.47,1.22A1.31,1.31,0,0,0,36.56,163.38Zm12.75-.83c0-.66,0-0.88-0.24-0.88s-0.63.91-.45,1.5S49.24,163.48,49.31,162.54Zm14.46-1.67a4.78,4.78,0,0,1,.72-3.18A10.09,10.09,0,0,1,68.33,154c1.2-.68,1-1.1-0.54-1a6.06,6.06,0,0,0-5.27,4c-1,2.58-.94,3.7.19,5C63.62,163.13,63.78,162.95,63.78,160.88Zm51,0.94a1.65,1.65,0,0,0-.3-0.7,21.81,21.81,0,0,1-1.13-2.52,6.43,6.43,0,0,0-1.14-2.15c-0.37-.07-0.81.88-0.83,1.8a6,6,0,0,0,.46,1.83,2.55,2.55,0,0,0,1.24,1.59C114,162.13,114.78,162.21,114.78,161.82ZM61,159.51a6.28,6.28,0,0,1,.63-3,10,10,0,0,1,3.44-3.84c0.94-.6,1.1-0.79.9-1-0.81-1-3.21-.29-4.66,1.35A9.38,9.38,0,0,0,59,158.25a3.42,3.42,0,0,0,1,2.74C60.71,161.83,60.93,161.53,61,159.51Zm-2.94-.21a17.22,17.22,0,0,0,.17-1.74A8.85,8.85,0,0,1,62,151.24q2.13-1.56-.26-1.57c-0.78,0-1.27.25-2.56,1.32a8,8,0,0,0-2.59,4.5c-0.4,1.69-.25,2.68.57,3.72C57.69,159.9,57.94,159.92,58.07,159.3Zm-2.4-2.22a7.86,7.86,0,0,1,3.22-6.93A3.89,3.89,0,0,0,60,149c0-.39-1.25-0.44-2-0.08a7.88,7.88,0,0,0-3.4,3.33c-1.18,2.41-1.22,4.5-.1,6C55.45,159.41,55.66,159.2,55.66,157.08Zm-2.72-1.52a8.21,8.21,0,0,1,3.45-6.67,3.58,3.58,0,0,0,1.15-1.06c0-.46-1-0.54-2-0.17a6.87,6.87,0,0,0-4.54,5.4c-0.38,2.28.42,4.76,1.47,4.56C52.76,157.57,52.85,157.19,52.95,155.56Zm23.36-.26c1.08-2.94,2.5-11.1,3.25-18.67,0.34-3.42.64-6.12,0.92-8.31,0.6-4.66.69-5.58,0.58-5.88a1.46,1.46,0,0,0-1.8,0,8.8,8.8,0,0,0-.44,2.37c-0.11,1.14-.34,3.45-0.52,5.13l-0.55,5.15c-0.51,4.81-1.13,9.31-1.7,12.31a49,49,0,0,1-1.9,7c-0.27.51,0.78,2.71,1.26,2.61A4.09,4.09,0,0,0,76.3,155.3Zm-26.25-1.11a7.12,7.12,0,0,1,1.81-4.9,10.5,10.5,0,0,1,2-1.72,3.4,3.4,0,0,0,1.17-1c0-.62-1.86-0.6-3.2,0a6.26,6.26,0,0,0-3.52,5c-0.35,2.18.3,4.57,1.25,4.57C49.87,156.2,49.94,155.9,50.05,154.19Zm-2.78-2c0.22-3,1.43-5,3.69-6.1,1.49-.71,1.63-1.11.42-1.21a6.08,6.08,0,0,0-5.07,2.81,6.9,6.9,0,0,0-.74,4.51c0.25,1,1,2,1.35,1.83A4.58,4.58,0,0,0,47.27,152.18Zm26.47,0.59c1.23-3,2.35-9.28,3.18-17.93,0.24-2.55.63-6,.85-7.57s0.4-3.29.4-3.72a1.24,1.24,0,0,0-1-1.44c-0.77,0-1,.66-1.37,4-0.2,1.79-.49,4.21-0.64,5.36s-0.39,3.1-.52,4.31-0.37,3.06-.54,4.1-0.45,3-.63,4.42a34.33,34.33,0,0,1-1.5,7.15l-0.51,1.47,0.64,0.57A1.38,1.38,0,0,0,73,154,3,3,0,0,0,73.74,152.77ZM71.1,151a37.83,37.83,0,0,0,1.48-6.95c0.06-.46.25-1.93,0.42-3.26,0.29-2.18.44-3.37,1.16-8.63,0.91-6.71,1.14-9.23.88-9.55a1.5,1.5,0,0,0-1.91.37,21.91,21.91,0,0,0-.41,3c-0.13,1.39-.37,3.71-0.54,5.15s-0.41,3.53-.53,4.63a125.56,125.56,0,0,1-2.47,14.91c-0.34,1.08-.33,1.14.05,1.42C70.09,152.75,70.52,152.5,71.1,151Zm-2.86-.57a38.29,38.29,0,0,0,1.4-6.79c0.2-1.39.5-3.42,0.66-4.52,0.34-2.29,1.07-7.93,1.34-10.41,0.1-.93.21-2.63,0.25-3.79l0.07-2.1H71.14c-1,0-1,0-1.36,3.47-0.13,1.1-.42,3.56-0.65,5.47s-0.61,5.18-.84,7.26c-0.58,5.23-1.16,8.65-1.7,10.06-0.45,1.16-.45,1.21-0.07,1.62A1,1,0,0,0,68.24,150.47Zm53.82-1.06c2.07-2.26.29-5.3-2.55-4.36a1,1,0,0,1-1.07,0c-0.6-.5-1.82-3.21-2.63-5.85-1.27-4.14-1.62-4-1.7.51,0,2.64,0,3.34.34,4.31,0.93,2.72,2.28,4.82,3.67,5.72a2.61,2.61,0,0,0,2.11.54A2.1,2.1,0,0,0,122.06,149.41Zm-56.64-.1c0.76-1.48,1.3-4.22,1.91-9.73,0.16-1.45.39-3.24,0.51-4s0.32-2.41.46-3.68,0.42-3.58.64-5.12,0.4-3,.4-3.29c0-.61-0.4-0.77-1.33-0.51-0.65.18-.76,0.31-1,1.2a23.63,23.63,0,0,0-.34,2.47c-0.07.81-.36,3.65-0.64,6.31-0.93,8.71-1.45,12.15-2.21,14.62l-0.42,1.37L64,149.41C64.7,150,65.06,150,65.42,149.31Zm-2.7-.9c0.6-1,1.25-4.65,1.88-10.62,0.18-1.74.47-4.29,0.64-5.68,0.39-3.17.71-6.41,0.79-7.78l0.06-1.05-0.8,0a2,2,0,0,0-1,.23,8.65,8.65,0,0,0-.4,2.29c-0.1,1.14-.29,2.65-0.41,3.34s-0.5,3.39-.84,6c-1.12,8.61-1.28,9.63-1.66,11s-0.35,1.73.51,2.19A1,1,0,0,0,62.72,148.41Zm-2.56-2.77c0.19-.73.53-2.69,0.77-4.37s0.47-3.24.53-3.47,0.18-1.32.29-2.42,0.4-3.42.64-5.15c0.85-6.13.81-6.77-.41-6.49a1.36,1.36,0,0,0-1.05,1.61c0,0.45-.14,1.78-0.31,3s-0.45,3.22-.63,4.55c-0.66,5-1,7.13-1.6,10.1-0.34,1.68-.62,3.16-0.62,3.29a1.52,1.52,0,0,0,.67.67C59.38,147.5,59.75,147.23,60.16,145.63ZM57,144.92c0.61-1.05,1.6-7,2.27-13.65,0.12-1.16.36-3,.54-4.07,0.39-2.28.29-3-.39-3a1,1,0,0,0-1.06.69c-0.14.39-.56,3-1.1,6.88-0.3,2.19-.64,4.33-1.23,7.8-0.17,1-.47,2.37-0.66,3.05-0.53,1.87-.51,2.44.11,2.76A0.94,0.94,0,0,0,57,144.92Zm53.79-7.57c0.64-.54.86-1.14,0.41-1.14a1.39,1.39,0,0,0-.65.53,1.47,1.47,0,0,1-2.5-.45,0.54,0.54,0,0,0-.45-0.45c-0.5.17-.4,0.61,0.32,1.32A1.91,1.91,0,0,0,110.77,137.35Zm-4.08-.1a1.22,1.22,0,0,0-1-1.25c-0.64,0-1.3.5-1.1,0.82C104.9,137.37,106.42,137.68,106.69,137.25Zm-14.34-.19c0.62-.24,1.28-1.15,1.07-1.49-0.09-.14-0.46.11-1,0.66C91.41,137.37,91.4,137.42,92.35,137.06Zm2.76,0a0.69,0.69,0,0,0,0-1.31c-0.3-.19-0.44-0.15-0.68.18s-0.41,1.38-.1,1.38A2.84,2.84,0,0,0,95.11,137Zm17.74-.27c0-.24,0-0.34-0.21-0.28a0.66,0.66,0,0,0-.36.47c0,0.24,0,.34.21,0.28A0.66,0.66,0,0,0,112.85,136.75Zm-22.53-.54c-0.42-.85-1-1.14-1-0.49a2,2,0,0,0,1.17,1.33C90.66,137.05,90.61,136.78,90.33,136.21Zm-2,.26a1.05,1.05,0,0,0-.09-0.63,0.76,0.76,0,0,0-.92-0.47c-0.49,0-.74.1-0.74,0.29C86.59,136.23,88.08,136.92,88.34,136.47ZM85.52,134a17.09,17.09,0,0,1,5.8-1.45,15.1,15.1,0,0,1,3.2.49c1.93,0.5,2.64.46,1.85-.12-1.11-.81-4.62-1.22-7.19-0.83-2.77.42-5.59,1.63-5.22,2.23C84.15,134.63,84.41,134.58,85.52,134ZM107,133.7a10.26,10.26,0,0,1,4.56.12,1.71,1.71,0,0,0,1.38.11c0.59-.59-1-1.3-3.07-1.32s-5.19.81-5.19,1.35C104.68,134.16,105,134.12,107,133.7Zm-1-1.57a7.15,7.15,0,0,1,5-.64c2.22,0.59,2.28.6,2.42,0.22,0.49-1.29-3.22-2.1-5.88-1.29-1.14.35-2.87,1.57-2.87,2C104.68,132.7,104.7,132.7,106,132.12Zm27-6.93c0.38-.28.37-0.33-0.26-1.27a35.71,35.71,0,0,1-2.9-7.28c-1.36-4.29-2.08-6.16-2.85-7.36-0.94-1.46-2-2.74-2.38-2.74a1.4,1.4,0,0,0-.64.67l-0.39.67,0.56,0.45c0.7,0.56.7,0.64-.07,1-1,.41-0.79.88,0.74,1.64a4,4,0,0,1,1.37.89,1,1,0,0,1-.89.16c-1.38-.09-1.28.45,0.24,1.32a5.4,5.4,0,0,1,1.27.87,1,1,0,0,1-.68.21c-1.12.11-1,.66,0.35,1.46s1.41,1,.7,1.06-0.67.72,0.35,1.47,1.14,0.92.55,1.08-0.32.66,1,1.53c1,0.65,1.11.81,0.88,1.09s-0.1.48,0.87,1.35c1.26,1.13,1.1,1.28-.66.61a3.69,3.69,0,0,0-1.55-.3c-0.4.1-.51,0-0.8-0.88-0.56-1.66-1.33-2.21-1.86-1.35-0.41.65-.51,0.52-0.65-0.82s-0.71-3-1.1-3a1.2,1.2,0,0,0-.63.66c-0.26.51-.38,0.59-0.53,0.37a2.19,2.19,0,0,1-.19-0.92c0-1-.41-2.21-0.73-2.21a1.05,1.05,0,0,0-.53.74c-0.27.83-.63,1-0.63,0.26s-0.24-1.42-.5-1.42a2.19,2.19,0,0,0-.76,1l-0.52,1,0.52,1a26.26,26.26,0,0,0,5.57,5.63C127.61,125.12,131.94,126,133,125.19Z" transform="translate(0.5 3.12)"/><path class="e" d="M49.33,182.07c0-1.56,0-3,0-3.26s0-5.1.1-10.82c0.08-9.43.12-10.41,0.44-10.59s0.31-.24-0.12-0.7-0.4-.51-0.15-0.51,0.35-.41.45-2a7.12,7.12,0,0,1,1.81-4.9,10.5,10.5,0,0,1,2-1.72c1.28-.81,1.45-1.19.64-1.39-1.76-.44-4.44,1.07-5.46,3.07s-1.1,5-.16,6.46c0.5,0.76.16,0.63-1.71-.68-1.62-1.13-2.12-1.83-2.44-3.35a6.65,6.65,0,0,1,3.84-7.14,8.48,8.48,0,0,1,4.07-.33c1.74,0.39,1.72.46,3.34-9.26,0.34-2,.73-4.64.83-5.57,0-.35.17-1.39,0.3-2.31,0.68-4.91.68-4.74,0.15-5.45-0.27-.36-0.94-1.46-1.49-2.44s-1.35-2.36-1.78-3.05-1.32-2.21-2-3.37-1.42-2.44-1.68-2.84-1-1.59-1.58-2.63-1.62-2.71-2.25-3.7a19.56,19.56,0,0,1-1.13-1.95c0-.07,18-0.13,40-0.13h40l-0.73,1.42c-0.69,1.35-.78,2.15-0.24,2.15,0.36,0,1.84,1.6,2.65,2.88a27.35,27.35,0,0,1,3,7.22c1.51,4.81,3,8.2,3.93,9l0.56,0.47-0.49.42a5.27,5.27,0,0,1-1.55.73c-2.34.69-6.67-.69-9.4-3a22.64,22.64,0,0,1-4.28-5,1.2,1.2,0,0,0-.73-0.84,9.37,9.37,0,0,0-1.5,2.38c-1.41,2.75-1.19,2.66-5.07,2-7.85-1.28-23.18-2.27-26.83-1.74-0.69.1-1,.2-0.71,0.21,1.15,0.06,1.16.29,0.3,5.5-0.67,4.09-1.16,8.37-1.6,14.09-0.13,1.68-.37,3.9-0.55,4.94s-0.39,2.41-.49,3.05c-0.23,1.53-1.34,6.17-1.91,8L79.13,157c-0.36,1.2-1.31,3.12-1,2.1a6.71,6.71,0,0,1,.43-1.09,100.32,100.32,0,0,0,2.81-11.27c0.55-3.24,1.26-9.45,1.27-11a32.14,32.14,0,0,1,.31-3.37c0.17-1.19.46-3.43,0.64-5s0.42-3.25.52-3.79c0.21-1.13,0-1.5-.81-1.5s-1.1.27-1.31,2c-0.11.91-.33,2.56-0.5,3.66-0.41,2.71-.71,5.43-0.85,7.57a120.66,120.66,0,0,1-2.21,15.78c-1.11,4.87-2.67,8.39-4.75,10.7a4.85,4.85,0,0,1-3.71,1.71c-3,0-4-3.74-1.5-5.89,1.3-1.14,2.59-1.11,3.16.08a2.3,2.3,0,0,1-.35,2.55c-0.58.52-.74,0.25-0.43-0.71s0-1.71-.75-1.71c-1.14,0-2.4,2.13-2.06,3.48a2.36,2.36,0,0,0,2.09,1.35,4.73,4.73,0,0,0,4-3.7,4.12,4.12,0,0,0-2-4.19,4.67,4.67,0,0,0-3.46.09,9.56,9.56,0,0,0-3.37,3.52,8.58,8.58,0,0,0,.27,5.25A5,5,0,0,0,70,166.08,8.56,8.56,0,0,0,73.55,165c0.28-.22.28-0.2,0,0.15s-0.24.45,0.43,1.05c0.41,0.36,1.66,1.37,2.8,2.24l3.28,2.52a89.42,89.42,0,0,0,7.33,5.35l0.7,0.36,1.72-1.11c0.94-.61,2-1.36,2.45-1.66s1.4-1,2.21-1.46a45.77,45.77,0,0,0,4.93-3.52,11.42,11.42,0,0,1,2.12-1.31l1.34-.64,0.27,0.89a7.34,7.34,0,0,1,.07,3,149.22,149.22,0,0,0-.69,17.46c0,4.74.12,9.62,0.23,10.83,0.36,3.77,1,8.84,1.5,11.25,0.25,1.27.62,3.26,0.83,4.42s0.64,3.19,1,4.52a26.33,26.33,0,0,1,.61,3.26,4.18,4.18,0,0,0,.38,1.5,7.94,7.94,0,0,1,.55,1.47c0.53,2.12,2.21,7.5,3.1,10m-81.37-71.9c0.19-.07,1.11-0.57,2-1.1,2-1.16,3.43-1.8,3.6-1.63s0.1,3.28.08,7.13m75.5,68.17-6.65-7.52a28.72,28.72,0,0,0,3.41-2.35,1.62,1.62,0,0,0-.64-1.53m-5.27,1.87a6.06,6.06,0,0,0,1-.73c0-.19-1.17.39-1.73,0.86C99.78,227.51,100.21,227.43,101.38,226.65Zm2.14-1.45c0.24-.39-0.25-0.21-0.65.24s-0.4.45,0.06,0.21A1.88,1.88,0,0,0,103.53,225.2Zm-15-31.48c0.71-.36,10.69-7,12.4-8.22,1-.72,1-0.73,1-2a2.89,2.89,0,0,0-.2-1.36c-0.22-.14-1.18.46-8.32,5.2a49.3,49.3,0,0,1-5.7,3.46,1.44,1.44,0,0,1-1.37-.51c-0.39-.34-6.07-4.62-12.6-9.5s-13.1-9.8-14.58-10.92a21.71,21.71,0,0,0-3.1-2.11c-0.36-.06-0.41.06-0.41,0.87,0,1.17-.43.79,9.45,8.36l7,5.4,5.69,4.35c1.74,1.33,4.2,3.23,5.47,4.23C87.72,194.46,87.41,194.3,88.55,193.72Zm5.35-8.29c0.84-.29,1.12-1,1.44-3.33a5.44,5.44,0,0,1,.55-2.15c0.4-.26,1.09-0.23,3.11.13,1.65,0.29,1.82.29,2.42-.06s0.66-.49.81-1.94c0.21-2,.12-3.61-0.22-3.72s-0.79,1-1,2.37c-0.23,1.6-.28,1.63-2.83,1.48-3.58-.21-4,0.11-4.57,3.16a9.22,9.22,0,0,1-.51,2.07,40.43,40.43,0,0,1-5.36.22c-4.45,0-5.21,0-5.47-.31a6.6,6.6,0,0,1-.51-2.19c-0.34-3-.84-3.39-3.83-3.16-2.09.16-2.81,0-3.11-.52a10.54,10.54,0,0,1-.42-2.19c-0.32-2.83-.53-3-4.22-3.16-2.67-.13-2.82-0.25-3-2.49C67,168,66.62,167.06,66,166.72a8.32,8.32,0,0,0-3.8,0c-1.57.34-2,0-2.21-1.75-0.22-1.94-.55-2.6-1.46-2.9a3.17,3.17,0,0,0-2.65.32,1.14,1.14,0,0,0-.17.77c0.06,0.43.19,0.48,1.06,0.48a2.49,2.49,0,0,1,1.2.21,5.78,5.78,0,0,1,.43,1.75,9.33,9.33,0,0,0,.43,1.93c0.36,0.67,1.59.9,3.57,0.66a6,6,0,0,1,2.12,0c0.37,0.2.7,1.4,0.92,3.3,0.17,1.47.27,1.7,0.93,2a7.13,7.13,0,0,0,3,.17c2.42-.11,2.44-0.11,2.86.43a4,4,0,0,1,.57,2,9.81,9.81,0,0,0,.42,2.17c0.51,1.22.76,1.3,3.62,1.23,2.51-.06,2.6,0,2.9.42a6.59,6.59,0,0,1,.42,2.2c0.19,3.08.54,3.3,5,3.12a35.43,35.43,0,0,1,4.57.07A10.53,10.53,0,0,0,93.89,185.43Zm1.42-8.94,7.42-5,0.12-1.16c0.2-2-.08-2.16-1.56-1.09-1.26.92-8.45,5.7-11,7.29a11.45,11.45,0,0,1-2.42,1.29c-0.36,0-1.86-1.09-11-8l-4.27-3.23-1,.13c-1.74.24-2.14,0.36-2.14,0.63a12,12,0,0,0,2.26,2c6.16,4.77,8,6.21,11.72,9,2.19,1.65,4.07,3,4.18,3S91.23,179.21,95.31,176.49ZM63.78,160.88a4.78,4.78,0,0,1,.72-3.18A10.09,10.09,0,0,1,68.33,154c1.2-.68,1-1.1-0.54-1a6.06,6.06,0,0,0-5.27,4c-1,2.58-.94,3.7.19,5C63.62,163.13,63.78,162.95,63.78,160.88ZM61,159.51a6.28,6.28,0,0,1,.63-3,10,10,0,0,1,3.44-3.84c0.94-.6,1.1-0.79.9-1-0.81-1-3.21-.29-4.66,1.35A9.38,9.38,0,0,0,59,158.25a3.42,3.42,0,0,0,1,2.74C60.71,161.83,60.93,161.53,61,159.51Zm-2.94-.21a17.22,17.22,0,0,0,.17-1.74A8.85,8.85,0,0,1,62,151.24q2.13-1.56-.26-1.57c-0.78,0-1.27.25-2.56,1.32a8,8,0,0,0-2.59,4.5c-0.4,1.69-.25,2.68.57,3.72C57.69,159.9,57.94,159.92,58.07,159.3Zm-2.4-2.22a7.86,7.86,0,0,1,3.22-6.93A3.89,3.89,0,0,0,60,149c0-.39-1.25-0.44-2-0.08a7.88,7.88,0,0,0-3.4,3.33c-1.18,2.41-1.22,4.5-.1,6C55.45,159.41,55.66,159.2,55.66,157.08Zm-2.72-1.52a8.21,8.21,0,0,1,3.45-6.67,3.58,3.58,0,0,0,1.15-1.06c0-.46-1-0.54-2-0.17a6.87,6.87,0,0,0-4.54,5.4c-0.38,2.28.42,4.76,1.47,4.56C52.76,157.57,52.85,157.19,52.95,155.56Zm23.36-.26c1.08-2.94,2.5-11.1,3.25-18.67,0.34-3.42.64-6.12,0.92-8.31,0.6-4.66.69-5.58,0.58-5.88a1.46,1.46,0,0,0-1.8,0,8.8,8.8,0,0,0-.44,2.37c-0.11,1.14-.34,3.45-0.52,5.13l-0.55,5.15c-0.51,4.81-1.13,9.31-1.7,12.31a49,49,0,0,1-1.9,7c-0.27.51,0.78,2.71,1.26,2.61A4.09,4.09,0,0,0,76.3,155.3Zm-29-3.12c0.22-3,1.43-5,3.69-6.1,1.49-.71,1.63-1.11.42-1.21a6.08,6.08,0,0,0-5.07,2.81,6.9,6.9,0,0,0-.74,4.51c0.25,1,1,2,1.35,1.83A4.58,4.58,0,0,0,47.27,152.18Zm26.47,0.59c1.23-3,2.35-9.28,3.18-17.93,0.24-2.55.63-6,.85-7.57s0.4-3.29.4-3.72a1.24,1.24,0,0,0-1-1.44c-0.77,0-1,.66-1.37,4-0.2,1.79-.49,4.21-0.64,5.36s-0.39,3.1-.52,4.31-0.37,3.06-.54,4.1-0.45,3-.63,4.42a34.33,34.33,0,0,1-1.5,7.15l-0.51,1.47,0.64,0.57A1.38,1.38,0,0,0,73,154,3,3,0,0,0,73.74,152.77ZM71.1,151a37.83,37.83,0,0,0,1.48-6.95c0.06-.46.25-1.93,0.42-3.26,0.29-2.18.44-3.37,1.16-8.63,0.91-6.71,1.14-9.23.88-9.55a1.5,1.5,0,0,0-1.91.37,21.91,21.91,0,0,0-.41,3c-0.13,1.39-.37,3.71-0.54,5.15s-0.41,3.53-.53,4.63a125.56,125.56,0,0,1-2.47,14.91c-0.34,1.08-.33,1.14.05,1.42C70.09,152.75,70.52,152.5,71.1,151Zm-2.86-.57a38.29,38.29,0,0,0,1.4-6.79c0.2-1.39.5-3.42,0.66-4.52,0.34-2.29,1.07-7.93,1.34-10.41,0.1-.93.21-2.63,0.25-3.79l0.07-2.1H71.14c-1,0-1,0-1.36,3.47-0.13,1.1-.42,3.56-0.65,5.47s-0.61,5.18-.84,7.26c-0.58,5.23-1.16,8.65-1.7,10.06-0.45,1.16-.45,1.21-0.07,1.62A1,1,0,0,0,68.24,150.47Zm-2.82-1.17c0.76-1.48,1.3-4.22,1.91-9.73,0.16-1.45.39-3.24,0.51-4s0.32-2.41.46-3.68,0.42-3.58.64-5.12,0.4-3,.4-3.29c0-.61-0.4-0.77-1.33-0.51-0.65.18-.76,0.31-1,1.2a23.63,23.63,0,0,0-.34,2.47c-0.07.81-.36,3.65-0.64,6.31-0.93,8.71-1.45,12.15-2.21,14.62l-0.42,1.37L64,149.41C64.7,150,65.06,150,65.42,149.31Zm-2.7-.9c0.6-1,1.25-4.65,1.88-10.62,0.18-1.74.47-4.29,0.64-5.68,0.39-3.17.71-6.41,0.79-7.78l0.06-1.05-0.8,0a2,2,0,0,0-1,.23,8.65,8.65,0,0,0-.4,2.29c-0.1,1.14-.29,2.65-0.41,3.34s-0.5,3.39-.84,6c-1.12,8.61-1.28,9.63-1.66,11s-0.35,1.73.51,2.19A1,1,0,0,0,62.72,148.41Zm-2.56-2.77c0.19-.73.53-2.69,0.77-4.37s0.47-3.24.53-3.47,0.18-1.32.29-2.42,0.4-3.42.64-5.15c0.85-6.13.81-6.77-.41-6.49a1.36,1.36,0,0,0-1.05,1.61c0,0.45-.14,1.78-0.31,3s-0.45,3.22-.63,4.55c-0.66,5-1,7.13-1.6,10.1-0.34,1.68-.62,3.16-0.62,3.29a1.52,1.52,0,0,0,.67.67C59.38,147.5,59.75,147.23,60.16,145.63ZM57,144.92c0.61-1.05,1.6-7,2.27-13.65,0.12-1.16.36-3,.54-4.07,0.39-2.28.29-3-.39-3a1,1,0,0,0-1.06.69c-0.14.39-.56,3-1.1,6.88-0.3,2.19-.64,4.33-1.23,7.8-0.17,1-.47,2.37-0.66,3.05-0.53,1.87-.51,2.44.11,2.76A0.94,0.94,0,0,0,57,144.92Zm76-19.72c0.38-.28.37-0.33-0.26-1.27a35.71,35.71,0,0,1-2.9-7.28c-1.36-4.29-2.08-6.16-2.85-7.36-0.94-1.46-2-2.74-2.38-2.74a1.4,1.4,0,0,0-.64.67l-0.39.67,0.56,0.45c0.7,0.56.7,0.64-.07,1-1,.41-0.79.88,0.74,1.64a4,4,0,0,1,1.37.89,1,1,0,0,1-.89.16c-1.38-.09-1.28.45,0.24,1.32a5.4,5.4,0,0,1,1.27.87,1,1,0,0,1-.68.21c-1.12.11-1,.66,0.35,1.46s1.41,1,.7,1.06-0.67.72,0.35,1.47,1.14,0.92.55,1.08-0.32.66,1,1.53c1,0.65,1.11.81,0.88,1.09s-0.1.48,0.87,1.35c1.26,1.13,1.1,1.28-.66.61a3.69,3.69,0,0,0-1.55-.3c-0.4.1-.51,0-0.8-0.88-0.56-1.66-1.33-2.21-1.86-1.35-0.41.65-.51,0.52-0.65-0.82s-0.71-3-1.1-3a1.2,1.2,0,0,0-.63.66c-0.26.51-.38,0.59-0.53,0.37a2.19,2.19,0,0,1-.19-0.92c0-1-.41-2.21-0.73-2.21a1.05,1.05,0,0,0-.53.74c-0.27.83-.63,1-0.63,0.26s-0.24-1.42-.5-1.42a2.19,2.19,0,0,0-.76,1l-0.52,1,0.52,1a26.26,26.26,0,0,0,5.57,5.63C127.61,125.12,131.94,126,133,125.19ZM121.44,222c-0.18-.64-0.41-1.44-0.53-1.79-0.29-.89-0.88-3.33-1.19-4.94a14.35,14.35,0,0,0-.5-2,3.79,3.79,0,0,1-.24-1.16,5.33,5.33,0,0,0-.31-1.41,6.76,6.76,0,0,1-.31-1.85,4.08,4.08,0,0,0-.24-1.45,4.61,4.61,0,0,1-.31-1.41c0-.53-0.17-1.68-0.28-2.55s-0.3-2.34-.42-3.28-0.27-1.94-.35-2.24a1.8,1.8,0,0,1,.17-1.14,1.23,1.23,0,0,0,.1-1.13,14.4,14.4,0,0,1-.32-2.64c-0.1-1.89-.07-2.2.35-3l0.47-.91-0.53-.55c-0.52-.55-0.53-0.61-0.49-3.64,0-2.88.07-3.12,0.51-3.59a1.21,1.21,0,0,0,.05-1.84c-0.41-.58-0.48-1.16-0.34-2.84,0-.46.08-1.38,0.1-2a2.36,2.36,0,0,1,.66-1.92c0.7-.8.79-1.3,0.32-1.82s-0.08-4.73.55-5.4c0.35-.38.39-0.49,0.14-0.49a1.24,1.24,0,0,1-.7-0.42,1.28,1.28,0,0,0-.77-0.42,1.43,1.43,0,0,1-.81-0.42,1.39,1.39,0,0,0-.72-0.42,19.68,19.68,0,0,1-3.9-1.76,4.29,4.29,0,0,0-1.21-.52,2.8,2.8,0,0,1-1-.43,6.6,6.6,0,0,1,.61-1.87A41.1,41.1,0,0,0,112.8,148c0.13-1.05.16-1.11,0.44-.74a6.23,6.23,0,0,1,.61,1.44,7.39,7.39,0,0,0,.59,1.48,20.65,20.65,0,0,1,1,2c0.37,0.87,1,2.17,1.29,2.9a8.24,8.24,0,0,1,.62,1.6,2.12,2.12,0,0,0,.45.86c0.43,0.55.52,0.57,1.67,0.44,2.62-.3,4.41,1.33,4.09,3.71a5.4,5.4,0,0,1-.63,1.82,3.32,3.32,0,0,1-2.08,1.48,0.57,0.57,0,0,0-.48.41,19,19,0,0,0,2.35,1.3,8.37,8.37,0,0,1,2.44,1.56c0.2,0.44.58,0.7,2.7,1.84a11.67,11.67,0,0,1,1.36.82,1.57,1.57,0,0,0,.84.19,7.61,7.61,0,0,1,2.27.85c1.46,0.76,1.63.92,1.63,1.46a1.05,1.05,0,0,1-.21.74c-0.12.07-.21,0-0.21-0.06a3.74,3.74,0,0,0-1.91-1.26c-0.42.14-1.23,2.71-1.48,4.69a27.56,27.56,0,0,0,.88,10.14c0.49,1.59.69,1.82,1.33,1.52,0.37-.18.39-0.17,0.1,0.07M122.06,194a10.51,10.51,0,0,0,2-1.1c0.08-.13.86-1.2,1.74-2.38a13.81,13.81,0,0,0,1.59-2.46,5.14,5.14,0,0,0-1.68-1.32,5.31,5.31,0,0,1-1.68-1.31,7.7,7.7,0,0,1,1.47-1.82,5.31,5.31,0,0,0,1.47-2,7.78,7.78,0,0,0-1.37-2.22,12.1,12.1,0,0,1-1.37-2,7,7,0,0,1,1.58-1.39,4,4,0,0,0,1.58-1.57,11.17,11.17,0,0,0-1.33-2.46c-0.73-1.13-1.55-2.45-1.82-2.94a3.89,3.89,0,0,0-1.91-1.63,9.37,9.37,0,0,0-1.65-.74c-0.44,0-.23.62,0.66,2,2.7,4.14,3,4.64,2.74,5a11.29,11.29,0,0,1-1.64,1.43,5.31,5.31,0,0,0-1.53,1.55c-0.06.43,0.87,1.81,2.31,3.39a3.66,3.66,0,0,1,.8,1.16,12.93,12.93,0,0,1-1.91,2.21,9.11,9.11,0,0,0-1.83,2.21,9.73,9.73,0,0,0,1.86,1.49,5.57,5.57,0,0,1,1.84,1.64c0,0.28-.5,1.12-1.59,2.47a20.16,20.16,0,0,0-2.58,3.49C119.83,195,120.21,194.9,122.06,194ZM120.69,192a16.12,16.12,0,0,0,2-2.89,5.37,5.37,0,0,0-1.89-1.62,7.28,7.28,0,0,1-2-1.65c-0.05-.26.55-1,1.84-2.34a10.58,10.58,0,0,0,1.91-2.31,10.28,10.28,0,0,0-1.47-2.28,14,14,0,0,1-1.47-2.14c0-.43.37-0.79,1.81-1.78a4.47,4.47,0,0,0,1.51-1.42,23.38,23.38,0,0,0-3.27-5.27c-0.48-.37-0.63-0.19-0.9,1.11a2,2,0,0,0,.41,2.17,5.8,5.8,0,0,1,.65,1.2,3.27,3.27,0,0,1-.83.93l-0.84.74L118,176.75l-0.14,2.35,0.87,1a5.19,5.19,0,0,1,.87,1.18,5.4,5.4,0,0,1-.95,1.2l-0.95,1v4.67l0.84,0.68a3,3,0,0,1,.84.87,3.54,3.54,0,0,1-.62,1c-0.94,1.19-1.14,1.76-1,2.84,0.23,1.52.64,1.29,2.88-1.57h0Zm1.11-28a2.7,2.7,0,0,0,1.1-1.41,2,2,0,0,0,.07-1.83,2.57,2.57,0,0,0-3.79-1.42,1.53,1.53,0,0,1-1,.26,34.2,34.2,0,0,1-2.87-5.93c-0.87-2.23-1.61-3.65-1.92-3.66s-0.47,1-.5,2.83,0.51,3.53,2.19,7C117.09,164,119.44,165.46,121.81,164Zm-7-2.17a1.65,1.65,0,0,0-.3-0.7,21.81,21.81,0,0,1-1.13-2.52,6.43,6.43,0,0,0-1.14-2.15c-0.37-.07-0.81.88-0.83,1.8a6,6,0,0,0,.46,1.83,2.55,2.55,0,0,0,1.24,1.59C114,162.13,114.78,162.21,114.78,161.82ZM134,187.76c-0.13.13-.34-0.47-0.57-1.61m-0.53-8.7c0-.29,0-0.41.11-0.26m0.28-2a0.45,0.45,0,0,1,.21-0.33c0.12-.07.15,0,0.08,0.2C133.44,175.38,133.29,175.45,133.29,175.14ZM74.81,164a5.86,5.86,0,0,1,.84-0.93,3.65,3.65,0,0,1,.84-0.72,5.86,5.86,0,0,1-.84.93A3.65,3.65,0,0,1,74.81,164Zm2.64-3.41c0.08-.21.2-0.32,0.26-0.26a0.34,0.34,0,0,1-.14.38C77.36,160.88,77.34,160.85,77.45,160.55Zm40.8-10c-1.09-.51-2.11-1.64-3.3-3.6-1.57-2.6-1.85-4.27-1.55-9.31,0-.55.07-1.71,0.09-2.58a4.11,4.11,0,0,1,.18-1.58c0.35,0,1.77,2.91,2.5,5.11,1.7,5.16,1.88,5.41,3.84,5.35,1.66-.06,2.24.28,3.06,1.76a1.88,1.88,0,0,1,.2,2.1,5,5,0,0,1-1.72,2.68A4.47,4.47,0,0,1,118.25,150.54Zm3.81-1.13c2.07-2.26.29-5.3-2.55-4.36a1,1,0,0,1-1.07,0c-0.6-.5-1.82-3.21-2.63-5.85-1.27-4.14-1.62-4-1.7.51,0,2.64,0,3.34.34,4.31,0.93,2.72,2.28,4.82,3.67,5.72a2.61,2.61,0,0,0,2.11.54A2.1,2.1,0,0,0,122.06,149.41Z" transform="translate(0.5 3.12)"/><path d="M100.34,227.27c0.36-.19,1.23-0.74,1.92-1.22s1.86-1.27,2.58-1.75a3.84,3.84,0,0,0,1.44-1.35,5.45,5.45,0,0,0-.21-1.8c-1-3.91-2.65-13.29-2.4-13.53a15.3,15.3,0,0,1,.56,2.49l0.86,4.68c0.21,1.16.65,3.19,1,4.52a26.33,26.33,0,0,1,.61,3.26,4.18,4.18,0,0,0,.38,1.5,7.94,7.94,0,0,1,.55,1.47c0.53,2.12,2.21,7.5,3.1,10M49.33,182.07c0-1.56,0-3,0-3.26s0-5.1.1-10.82c0.08-9.43.12-10.41,0.44-10.59s0.31-.24-0.12-0.7-0.4-.51-0.15-0.51,0.35-.41.45-2a7.12,7.12,0,0,1,1.81-4.9,10.5,10.5,0,0,1,2-1.72c1.28-.81,1.45-1.19.64-1.39-1.76-.44-4.44,1.07-5.46,3.07s-1.1,5-.16,6.46c0.5,0.76.16,0.63-1.71-.68-1.62-1.13-2.12-1.83-2.44-3.35a6.65,6.65,0,0,1,3.84-7.14,8.48,8.48,0,0,1,4.07-.33c1.74,0.39,1.72.46,3.34-9.26,0.34-2,.73-4.64.83-5.57,0-.35.17-1.39,0.3-2.31,0.68-4.91.68-4.74,0.15-5.45-0.27-.36-0.94-1.46-1.49-2.44s-1.35-2.36-1.78-3.05-1.32-2.21-2-3.37-1.42-2.44-1.68-2.84-1-1.59-1.58-2.63-1.62-2.71-2.25-3.7a19.56,19.56,0,0,1-1.13-1.95,0.39,0.39,0,0,1,.39-0.13,1.74,1.74,0,0,1,1,1.15,23.74,23.74,0,0,0,1.47,2.47c0.91,1.32,4.95,8,6.74,11.14A45,45,0,0,0,57.81,121c0.46,0.5.47,0.5,3.74,0,2.28-.38,8.56-1.05,13-1.41,4.78-.38,22.12-0.37,25.67,0,2.72,0.29,9.33,1.12,12.35,1.54,1.41,0.2,1.79.19,2.07,0s5.23-10.06,7.94-16c1.61-3.52,1.65-3.58,2.16-3.58s0.48,0-.25,1.42-0.78,2.15-.24,2.15c0.36,0,1.84,1.6,2.65,2.88a27.35,27.35,0,0,1,3,7.22c1.51,4.81,3,8.2,3.93,9l0.56,0.47-0.49.42a5.27,5.27,0,0,1-1.55.73c-2.34.69-6.67-.69-9.4-3a22.64,22.64,0,0,1-4.28-5,1.2,1.2,0,0,0-.73-0.84,9.37,9.37,0,0,0-1.5,2.38c-1.41,2.75-1.19,2.66-5.07,2-7.85-1.28-23.18-2.27-26.83-1.74-0.69.1-1,.2-0.71,0.21,1.15,0.06,1.16.29,0.3,5.5-0.67,4.09-1.16,8.37-1.6,14.09-0.13,1.68-.37,3.9-0.55,4.94s-0.39,2.41-.49,3.05c-0.23,1.53-1.34,6.17-1.91,8L79.13,157c-0.36,1.2-1.31,3.12-1,2.1a6.71,6.71,0,0,1,.43-1.09,100.32,100.32,0,0,0,2.81-11.27c0.55-3.24,1.26-9.45,1.27-11a32.14,32.14,0,0,1,.31-3.37c0.17-1.19.46-3.43,0.64-5s0.42-3.25.52-3.79c0.21-1.13,0-1.5-.81-1.5s-1.1.27-1.31,2c-0.11.91-.33,2.56-0.5,3.66-0.41,2.71-.71,5.43-0.85,7.57a120.66,120.66,0,0,1-2.21,15.78c-1.11,4.87-2.67,8.39-4.75,10.7a4.85,4.85,0,0,1-3.71,1.71c-3,0-4-3.74-1.5-5.89,1.3-1.14,2.59-1.11,3.16.08a2.3,2.3,0,0,1-.35,2.55c-0.58.52-.74,0.25-0.43-0.71s0-1.71-.75-1.71c-1.14,0-2.4,2.13-2.06,3.48a2.36,2.36,0,0,0,2.09,1.35,4.73,4.73,0,0,0,4-3.7,4.12,4.12,0,0,0-2-4.19,4.67,4.67,0,0,0-3.46.09,9.56,9.56,0,0,0-3.37,3.52,8.58,8.58,0,0,0,.27,5.25A5,5,0,0,0,70,166.08,8.56,8.56,0,0,0,73.55,165c0.28-.22.28-0.2,0,0.15s-0.24.45,0.43,1.05c0.41,0.36,1.66,1.37,2.8,2.24l3.28,2.52a89.42,89.42,0,0,0,7.33,5.35l0.7,0.36,1.72-1.11c0.94-.61,2-1.36,2.45-1.66s1.4-1,2.21-1.46a45.77,45.77,0,0,0,4.93-3.52,11.42,11.42,0,0,1,2.12-1.31l1.34-.64,0.27,0.89a7.34,7.34,0,0,1,.07,3,149.32,149.32,0,0,0-.69,17.46c0,8.42.14,10.72,0.78,15.67,0.43,3.29.37,3.76-.12,0.95a101,101,0,0,1-1-11.18c0-2.32-.25-2.39-2.74-0.71l-1.68,1.12A36.49,36.49,0,0,0,92.4,198M29.33,163.61c0.19-.07,1.11-0.57,2-1.1,2-1.16,3.43-1.8,3.6-1.63s0.1,3.28.08,7.13m75.5,68.17-6.65-7.52a28.72,28.72,0,0,0,3.41-2.35,1.62,1.62,0,0,0-.64-1.53M66.81,185l-0.47-.4c-1.07-.92-3.61-3-5.52-4.43l-3.3-2.58c-1.32-1-1.61-1.17-1.75-.74m32.77,16.85c0.71-.36,10.69-7,12.4-8.22,1-.72,1-0.73,1-2a2.89,2.89,0,0,0-.2-1.36c-0.22-.14-1.18.46-8.32,5.2a49.3,49.3,0,0,1-5.7,3.46,1.44,1.44,0,0,1-1.37-.51c-0.39-.34-6.07-4.62-12.6-9.5s-13.1-9.8-14.58-10.92a21.71,21.71,0,0,0-3.1-2.11c-0.36-.06-0.41.06-0.41,0.87,0,1.17-.43.79,9.45,8.36l7,5.4,5.69,4.35c1.74,1.33,4.2,3.23,5.47,4.23C87.72,194.46,87.41,194.3,88.55,193.72Zm5.35-8.29c0.84-.29,1.12-1,1.44-3.33a5.44,5.44,0,0,1,.55-2.15c0.4-.26,1.09-0.23,3.11.13,1.65,0.29,1.82.29,2.42-.06s0.66-.49.81-1.94c0.21-2,.12-3.61-0.22-3.72s-0.79,1-1,2.37c-0.23,1.6-.28,1.63-2.83,1.48-3.58-.21-4,0.11-4.57,3.16a9.22,9.22,0,0,1-.51,2.07,40.43,40.43,0,0,1-5.36.22c-4.45,0-5.21,0-5.47-.31a6.6,6.6,0,0,1-.51-2.19c-0.34-3-.84-3.39-3.83-3.16-2.09.16-2.81,0-3.11-.52a10.54,10.54,0,0,1-.42-2.19c-0.32-2.83-.53-3-4.22-3.16-2.67-.13-2.82-0.25-3-2.49C67,168,66.62,167.06,66,166.72a8.32,8.32,0,0,0-3.8,0c-1.57.34-2,0-2.21-1.75-0.22-1.94-.55-2.6-1.46-2.9a3.17,3.17,0,0,0-2.65.32,1.14,1.14,0,0,0-.17.77c0.06,0.43.19,0.48,1.06,0.48a2.49,2.49,0,0,1,1.2.21,5.78,5.78,0,0,1,.43,1.75,9.33,9.33,0,0,0,.43,1.93c0.36,0.67,1.59.9,3.57,0.66a6,6,0,0,1,2.12,0c0.37,0.2.7,1.4,0.92,3.3,0.17,1.47.27,1.7,0.93,2a7.13,7.13,0,0,0,3,.17c2.42-.11,2.44-0.11,2.86.43a4,4,0,0,1,.57,2,9.81,9.81,0,0,0,.42,2.17c0.51,1.22.76,1.3,3.62,1.23,2.51-.06,2.6,0,2.9.42a6.59,6.59,0,0,1,.42,2.2c0.19,3.08.54,3.3,5,3.12a35.43,35.43,0,0,1,4.57.07A10.53,10.53,0,0,0,93.89,185.43Zm1.42-8.94,7.42-5,0.12-1.16c0.2-2-.08-2.16-1.56-1.09-1.26.92-8.45,5.7-11,7.29a11.45,11.45,0,0,1-2.42,1.29c-0.36,0-1.86-1.09-11-8l-4.27-3.23-1,.13c-1.74.24-2.14,0.36-2.14,0.63a12,12,0,0,0,2.26,2c6.16,4.77,8,6.21,11.72,9,2.19,1.65,4.07,3,4.18,3S91.23,179.21,95.31,176.49ZM63.78,160.88a4.78,4.78,0,0,1,.72-3.18A10.09,10.09,0,0,1,68.33,154c1.2-.68,1-1.1-0.54-1a6.06,6.06,0,0,0-5.27,4c-1,2.58-.94,3.7.19,5C63.62,163.13,63.78,162.95,63.78,160.88ZM61,159.51a6.28,6.28,0,0,1,.63-3,10,10,0,0,1,3.44-3.84c0.94-.6,1.1-0.79.9-1-0.81-1-3.21-.29-4.66,1.35A9.38,9.38,0,0,0,59,158.25a3.42,3.42,0,0,0,1,2.74C60.71,161.83,60.93,161.53,61,159.51Zm-2.94-.21a17.22,17.22,0,0,0,.17-1.74A8.85,8.85,0,0,1,62,151.24q2.13-1.56-.26-1.57c-0.78,0-1.27.25-2.56,1.32a8,8,0,0,0-2.59,4.5c-0.4,1.69-.25,2.68.57,3.72C57.69,159.9,57.94,159.92,58.07,159.3Zm-2.4-2.22a7.86,7.86,0,0,1,3.22-6.93A3.89,3.89,0,0,0,60,149c0-.39-1.25-0.44-2-0.08a7.88,7.88,0,0,0-3.4,3.33c-1.18,2.41-1.22,4.5-.1,6C55.45,159.41,55.66,159.2,55.66,157.08Zm-2.72-1.52a8.21,8.21,0,0,1,3.45-6.67,3.58,3.58,0,0,0,1.15-1.06c0-.46-1-0.54-2-0.17a6.87,6.87,0,0,0-4.54,5.4c-0.38,2.28.42,4.76,1.47,4.56C52.76,157.57,52.85,157.19,52.95,155.56Zm23.36-.26c1.08-2.94,2.5-11.1,3.25-18.67,0.34-3.42.64-6.12,0.92-8.31,0.6-4.66.69-5.58,0.58-5.88a1.46,1.46,0,0,0-1.8,0,8.8,8.8,0,0,0-.44,2.37c-0.11,1.14-.34,3.45-0.52,5.13l-0.55,5.15c-0.51,4.81-1.13,9.31-1.7,12.31a49,49,0,0,1-1.9,7c-0.27.51,0.78,2.71,1.26,2.61A4.09,4.09,0,0,0,76.3,155.3Zm-29-3.12c0.22-3,1.43-5,3.69-6.1,1.49-.71,1.63-1.11.42-1.21a6.08,6.08,0,0,0-5.07,2.81,6.9,6.9,0,0,0-.74,4.51c0.25,1,1,2,1.35,1.83A4.58,4.58,0,0,0,47.27,152.18Zm26.47,0.59c1.23-3,2.35-9.28,3.18-17.93,0.24-2.55.63-6,.85-7.57s0.4-3.29.4-3.72a1.24,1.24,0,0,0-1-1.44c-0.77,0-1,.66-1.37,4-0.2,1.79-.49,4.21-0.64,5.36s-0.39,3.1-.52,4.31-0.37,3.06-.54,4.1-0.45,3-.63,4.42a34.33,34.33,0,0,1-1.5,7.15l-0.51,1.47,0.64,0.57A1.38,1.38,0,0,0,73,154,3,3,0,0,0,73.74,152.77ZM71.1,151a37.83,37.83,0,0,0,1.48-6.95c0.06-.46.25-1.93,0.42-3.26,0.29-2.18.44-3.37,1.16-8.63,0.91-6.71,1.14-9.23.88-9.55a1.5,1.5,0,0,0-1.91.37,21.91,21.91,0,0,0-.41,3c-0.13,1.39-.37,3.71-0.54,5.15s-0.41,3.53-.53,4.63a125.56,125.56,0,0,1-2.47,14.91c-0.34,1.08-.33,1.14.05,1.42C70.09,152.75,70.52,152.5,71.1,151Zm-2.86-.57a38.29,38.29,0,0,0,1.4-6.79c0.2-1.39.5-3.42,0.66-4.52,0.34-2.29,1.07-7.93,1.34-10.41,0.1-.93.21-2.63,0.25-3.79l0.07-2.1H71.14c-1,0-1,0-1.36,3.47-0.13,1.1-.42,3.56-0.65,5.47s-0.61,5.18-.84,7.26c-0.58,5.23-1.16,8.65-1.7,10.06-0.45,1.16-.45,1.21-0.07,1.62A1,1,0,0,0,68.24,150.47Zm-2.82-1.17c0.76-1.48,1.3-4.22,1.91-9.73,0.16-1.45.39-3.24,0.51-4s0.32-2.41.46-3.68,0.42-3.58.64-5.12,0.4-3,.4-3.29c0-.61-0.4-0.77-1.33-0.51-0.65.18-.76,0.31-1,1.2a23.63,23.63,0,0,0-.34,2.47c-0.07.81-.36,3.65-0.64,6.31-0.93,8.71-1.45,12.15-2.21,14.62l-0.42,1.37L64,149.41C64.7,150,65.06,150,65.42,149.31Zm-2.7-.9c0.6-1,1.25-4.65,1.88-10.62,0.18-1.74.47-4.29,0.64-5.68,0.39-3.17.71-6.41,0.79-7.78l0.06-1.05-0.8,0a2,2,0,0,0-1,.23,8.65,8.65,0,0,0-.4,2.29c-0.1,1.14-.29,2.65-0.41,3.34s-0.5,3.39-.84,6c-1.12,8.61-1.28,9.63-1.66,11s-0.35,1.73.51,2.19A1,1,0,0,0,62.72,148.41Zm-2.56-2.77c0.19-.73.53-2.69,0.77-4.37s0.47-3.24.53-3.47,0.18-1.32.29-2.42,0.4-3.42.64-5.15c0.85-6.13.81-6.77-.41-6.49a1.36,1.36,0,0,0-1.05,1.61c0,0.45-.14,1.78-0.31,3s-0.45,3.22-.63,4.55c-0.66,5-1,7.13-1.6,10.1-0.34,1.68-.62,3.16-0.62,3.29a1.52,1.52,0,0,0,.67.67C59.38,147.5,59.75,147.23,60.16,145.63ZM57,144.92c0.61-1.05,1.6-7,2.27-13.65,0.12-1.16.36-3,.54-4.07,0.39-2.28.29-3-.39-3a1,1,0,0,0-1.06.69c-0.14.39-.56,3-1.1,6.88-0.3,2.19-.64,4.33-1.23,7.8-0.17,1-.47,2.37-0.66,3.05-0.53,1.87-.51,2.44.11,2.76A0.94,0.94,0,0,0,57,144.92Zm76-19.72c0.38-.28.37-0.33-0.26-1.27a35.71,35.71,0,0,1-2.9-7.28c-1.36-4.29-2.08-6.16-2.85-7.36-0.94-1.46-2-2.74-2.38-2.74a1.4,1.4,0,0,0-.64.67l-0.39.67,0.56,0.45c0.7,0.56.7,0.64-.07,1-1,.41-0.79.88,0.74,1.64a4,4,0,0,1,1.37.89,1,1,0,0,1-.89.16c-1.38-.09-1.28.45,0.24,1.32a5.4,5.4,0,0,1,1.27.87,1,1,0,0,1-.68.21c-1.12.11-1,.66,0.35,1.46s1.41,1,.7,1.06-0.67.72,0.35,1.47,1.14,0.92.55,1.08-0.32.66,1,1.53c1,0.65,1.11.81,0.88,1.09s-0.1.48,0.87,1.35c1.26,1.13,1.1,1.28-.66.61a3.69,3.69,0,0,0-1.55-.3c-0.4.1-.51,0-0.8-0.88-0.56-1.66-1.33-2.21-1.86-1.35-0.41.65-.51,0.52-0.65-0.82s-0.71-3-1.1-3a1.2,1.2,0,0,0-.63.66c-0.26.51-.38,0.59-0.53,0.37a2.19,2.19,0,0,1-.19-0.92c0-1-.41-2.21-0.73-2.21a1.05,1.05,0,0,0-.53.74c-0.27.83-.63,1-0.63,0.26s-0.24-1.42-.5-1.42a2.19,2.19,0,0,0-.76,1l-0.52,1,0.52,1a26.26,26.26,0,0,0,5.57,5.63C127.61,125.12,131.94,126,133,125.19ZM121.44,222c-0.18-.64-0.41-1.44-0.53-1.79-0.29-.89-0.88-3.33-1.19-4.94a14.35,14.35,0,0,0-.5-2,3.79,3.79,0,0,1-.24-1.16,5.33,5.33,0,0,0-.31-1.41,6.76,6.76,0,0,1-.31-1.85,4.08,4.08,0,0,0-.24-1.45,4.61,4.61,0,0,1-.31-1.41c0-.53-0.17-1.68-0.28-2.55s-0.3-2.34-.42-3.28-0.27-1.94-.35-2.24a1.8,1.8,0,0,1,.17-1.14,1.23,1.23,0,0,0,.1-1.13,14.4,14.4,0,0,1-.32-2.64c-0.1-1.89-.07-2.2.35-3l0.47-.91-0.53-.55c-0.52-.55-0.53-0.61-0.49-3.64,0-2.88.07-3.12,0.51-3.59a1.21,1.21,0,0,0,.05-1.84c-0.41-.58-0.48-1.16-0.34-2.84,0-.46.08-1.38,0.1-2a2.36,2.36,0,0,1,.66-1.92c0.7-.8.79-1.3,0.32-1.82s-0.08-4.73.55-5.4c0.35-.38.39-0.49,0.14-0.49a1.24,1.24,0,0,1-.7-0.42,1.28,1.28,0,0,0-.77-0.42,1.43,1.43,0,0,1-.81-0.42,1.39,1.39,0,0,0-.72-0.42,19.68,19.68,0,0,1-3.9-1.76,4.29,4.29,0,0,0-1.21-.52,2.8,2.8,0,0,1-1-.43,6.6,6.6,0,0,1,.61-1.87A41.1,41.1,0,0,0,112.8,148c0.13-1.05.16-1.11,0.44-.74a6.23,6.23,0,0,1,.61,1.44,7.39,7.39,0,0,0,.59,1.48,20.65,20.65,0,0,1,1,2c0.37,0.87,1,2.17,1.29,2.9a8.24,8.24,0,0,1,.62,1.6,2.12,2.12,0,0,0,.45.86c0.43,0.55.52,0.57,1.67,0.44,2.62-.3,4.41,1.33,4.09,3.71a5.4,5.4,0,0,1-.63,1.82,3.32,3.32,0,0,1-2.08,1.48,0.57,0.57,0,0,0-.48.41,19,19,0,0,0,2.35,1.3,8.37,8.37,0,0,1,2.44,1.56c0.2,0.44.58,0.7,2.7,1.84a11.67,11.67,0,0,1,1.36.82,1.57,1.57,0,0,0,.84.19,7.61,7.61,0,0,1,2.27.85c1.46,0.76,1.63.92,1.63,1.46a1.05,1.05,0,0,1-.21.74c-0.12.07-.21,0-0.21-0.06a3.74,3.74,0,0,0-1.91-1.26c-0.42.14-1.23,2.71-1.48,4.69a27.56,27.56,0,0,0,.88,10.14c0.49,1.59.69,1.82,1.33,1.52,0.37-.18.39-0.17,0.1,0.07m-7.45,5.1c-5,2.4-6.44,3.13-6.6,3.45a31.42,31.42,0,0,0,.57,6.38c0.11,0.62.37,2.07,0.57,3.22,0.4,2.33,1.58,8.28,2.06,10.41m-0.7-16.94v-1.6m1.2-5a7.63,7.63,0,0,0,2.09-1.47c0.2-.31,1-1.43,1.8-2.5a11.49,11.49,0,0,0,1.44-2.25,5.1,5.1,0,0,0-1.68-1.33,5.31,5.31,0,0,1-1.68-1.31,7.7,7.7,0,0,1,1.47-1.82,5.31,5.31,0,0,0,1.47-2,7.78,7.78,0,0,0-1.37-2.22,12.1,12.1,0,0,1-1.37-2,7,7,0,0,1,1.58-1.39,4,4,0,0,0,1.58-1.57,11.17,11.17,0,0,0-1.33-2.46c-0.73-1.13-1.55-2.45-1.82-2.94a3.89,3.89,0,0,0-1.91-1.63,9.37,9.37,0,0,0-1.65-.74c-0.44,0-.23.62,0.66,2,2.7,4.14,3,4.64,2.74,5a11.29,11.29,0,0,1-1.64,1.43,5.31,5.31,0,0,0-1.53,1.55c-0.06.43,0.87,1.81,2.31,3.39a3.66,3.66,0,0,1,.8,1.16,12.93,12.93,0,0,1-1.91,2.21,9.11,9.11,0,0,0-1.83,2.21,9.73,9.73,0,0,0,1.86,1.49,5.57,5.57,0,0,1,1.84,1.64c0,0.28-.5,1.12-1.59,2.47-2,2.49-2.81,3.63-2.65,3.88S120.12,195.35,122.08,194.31ZM120.69,192a16.12,16.12,0,0,0,2-2.89,5.37,5.37,0,0,0-1.89-1.62,7.28,7.28,0,0,1-2-1.65c-0.05-.26.55-1,1.84-2.34a10.58,10.58,0,0,0,1.91-2.31,10.28,10.28,0,0,0-1.47-2.28,14,14,0,0,1-1.47-2.14c0-.43.37-0.79,1.81-1.78a4.47,4.47,0,0,0,1.51-1.42,23.38,23.38,0,0,0-3.27-5.27c-0.48-.37-0.63-0.19-0.9,1.11a2,2,0,0,0,.41,2.17,5.8,5.8,0,0,1,.65,1.2,3.27,3.27,0,0,1-.83.93l-0.84.74L118,176.75l-0.14,2.35,0.87,1a5.19,5.19,0,0,1,.87,1.18,5.4,5.4,0,0,1-.95,1.2l-0.95,1v4.67l0.84,0.68a3,3,0,0,1,.84.87,3.54,3.54,0,0,1-.62,1c-0.94,1.19-1.14,1.76-1,2.84,0.23,1.52.64,1.29,2.88-1.57h0Zm1.11-28a2.7,2.7,0,0,0,1.1-1.41,2,2,0,0,0,.07-1.83,2.57,2.57,0,0,0-3.79-1.42,1.53,1.53,0,0,1-1,.26,34.2,34.2,0,0,1-2.87-5.93c-0.87-2.23-1.61-3.65-1.92-3.66s-0.47,1-.5,2.83,0.51,3.53,2.19,7C117.09,164,119.44,165.46,121.81,164Zm-7-2.17a1.65,1.65,0,0,0-.3-0.7,21.81,21.81,0,0,1-1.13-2.52,6.43,6.43,0,0,0-1.14-2.15c-0.37-.07-0.81.88-0.83,1.8a6,6,0,0,0,.46,1.83,2.55,2.55,0,0,0,1.24,1.59C114,162.13,114.78,162.21,114.78,161.82ZM134,187.76c-0.13.13-.34-0.47-0.57-1.61m-0.53-8.7c0-.29,0-0.41.11-0.26m0.28-2a0.45,0.45,0,0,1,.21-0.33c0.12-.07.15,0,0.08,0.2C133.44,175.38,133.29,175.45,133.29,175.14ZM74.81,164a5.86,5.86,0,0,1,.84-0.93,3.65,3.65,0,0,1,.84-0.72,5.86,5.86,0,0,1-.84.93A3.65,3.65,0,0,1,74.81,164Zm2.64-3.41c0.08-.21.2-0.32,0.26-0.26a0.34,0.34,0,0,1-.14.38C77.36,160.88,77.34,160.85,77.45,160.55Zm40.8-10c-1.09-.51-2.11-1.64-3.3-3.6-1.57-2.6-1.85-4.27-1.55-9.31,0-.55.07-1.71,0.09-2.58a4.11,4.11,0,0,1,.18-1.58c0.35,0,1.77,2.91,2.5,5.11,1.7,5.16,1.88,5.41,3.84,5.35,1.66-.06,2.24.28,3.06,1.76a1.88,1.88,0,0,1,.2,2.1,5,5,0,0,1-1.72,2.68A4.47,4.47,0,0,1,118.25,150.54Zm3.81-1.13c2.07-2.26.29-5.3-2.55-4.36a1,1,0,0,1-1.07,0c-0.6-.5-1.82-3.21-2.63-5.85-1.27-4.14-1.62-4-1.7.51,0,2.64,0,3.34.34,4.31,0.93,2.72,2.28,4.82,3.67,5.72a2.61,2.61,0,0,0,2.11.54A2.1,2.1,0,0,0,122.06,149.41Zm-65.3-34.92c-2.77-5-3.4-6.05-4.77-8.36-0.72-1.21-1.61-2.75-2-3.42l-0.68-1.21H52.4l0.86,1.63c0.47,0.9,1.53,2.81,2.34,4.26L58.19,112c0.61,1.1,1.35,2.32,1.64,2.71l0.53,0.71,1.71-.14A20.21,20.21,0,0,0,64.5,115a19.82,19.82,0,0,1,2.54-.32,9.16,9.16,0,0,0,2.09-.31c0.41-.25.12-1.68-1.36-6.73-0.66-2.26-1.33-4.55-1.48-5.1l-0.28-1h2.63l0.45,1.74c0.25,1,.84,3.2,1.31,5,1.55,5.87,1.86,7.18,1.76,7.44s-3.3.77-4.93,0.77c-0.52,0-2.56.24-4.52,0.52s-3.73.52-3.93,0.52S57.87,116.48,56.76,114.49Zm54.66,2.67c-1-.15-3.54-0.49-5.68-0.74a23.85,23.85,0,0,1-4.16-.71c-0.29-.26.09-3.24,1-7.79,0.23-1.16.47-2.62,0.55-3.26s0.23-1.61.35-2.16l0.22-1h1.14a2.15,2.15,0,0,1,1.13.16c0,0.27-.77,4.45-1.38,7.63a37.1,37.1,0,0,0-.6,4c0,0.86,0,.94.62,1.1s6.9,1,7.52,1c0.44,0,.94-1,2.58-4.94l2.26-5.47,1.23-3c0.16-.41.34-0.47,1.35-0.47a2.88,2.88,0,0,1,1.16.12c0,0.15-1,2.58-1.9,4.51-0.74,1.64-2,4.59-3.25,7.47s-1.76,3.9-2.06,3.87Zm-35.65-2c-0.15-.54-1.13-4.69-1.28-5.48-0.08-.4-0.5-2.06-0.93-3.68s-0.85-3.3-.93-3.73l-0.14-.79h1.27c1.12,0,1.27,0,1.27.41s0.46,2.33,1,4.68,1.15,4.82,1.3,5.49a3.81,3.81,0,0,0,.46,1.34c0.33,0.2,17.41.14,17.61-.06a51.15,51.15,0,0,0,1.05-7.66c0.12-1.33.27-2.82,0.33-3.31l0.11-.89h2.63L99,105.65c-0.31,2.29-.69,5.22-0.84,6.53a16.13,16.13,0,0,1-.5,2.83l-0.23.45H86.64C77.13,115.5,75.85,115.46,75.77,115.18Z" transform="translate(0.5 3.12)"/></svg>