<svg xmlns="http://www.w3.org/2000/svg" viewBox="0 0 167.59 246.04"><defs><style>.a{fill:#fff;stroke:#000;}.b{font-size:100px;font-family:Arial;font-weight:700;}.c{fill:#e2d200;}.d{fill:#6194bb;}.e{fill:#1156a1;}.f{fill:#df0000;}</style></defs><title>KC</title><path class="a" d="M166.59,235.55a6.89,6.89,0,0,1-6.87,6.87H6.86A6.88,6.88,0,0,1,0,235.55V7.12A6.89,6.89,0,0,1,6.86.25H159.72a6.89,6.89,0,0,1,6.87,6.87V235.55Z" transform="translate(0.5 3.12)"/><path d="M122.6,44.85s6.64-5.35,6.64-12.76a12.73,12.73,0,0,0-25.36,0c0,7.41,6.64,12.76,6.64,12.76C103.15,39.07,90,43,90,54.57a12.23,12.23,0,0,0,12.07,12.15c8.85,0,12.68-9.72,12.68-9.72s1.12,11.08-5.43,17h14.49c-6.56-5.93-5.43-17-5.43-17s3.83,9.72,12.68,9.72a12.23,12.23,0,0,0,12.07-12.15C143.13,43,130,39.07,122.6,44.85Z" transform="translate(0.5 3.12)"/><text class="b" transform="translate(1.75 85.79) scale(0.92 1)">K</text><path class="c" d="M40,186.31a1.4,1.4,0,0,0-.66-1.28m-0.25-11.87c1.21-.65,3.09-1.61,4.18-2.13C46,169.71,46,169.76,46,168.13c0-3.19,2.48-5.44,6-5.5a5,5,0,0,1,3.8,1.81L57,165.6l0.93-.56c3.09-1.86,4.3-3.94,3.48-6a1.33,1.33,0,0,1,.15-1.37c0.39-.75.39-0.76-0.12-1.22s-0.5-.58-0.37-2c0.16-1.76.26-1.63-2.19-2.68-2.76-1.18-3.38-2-2.81-3.69a6.81,6.81,0,0,1,.65-1.43,83.85,83.85,0,0,0,4.41-9.8c0.35-1.15.19-2.47-.57-4.79a14.79,14.79,0,0,1-.5-3.15,6.17,6.17,0,0,0-.56-2.77A4.38,4.38,0,0,1,59,125a3.2,3.2,0,0,0-1-1,3.85,3.85,0,0,1-1.86-3.5c0-1.25,0-1.31-3.29-6.84-1.81-3.07-4-6.78-4.94-8.25l-1.65-2.68,23.66,0c13,0,34.32,0,47.34,0l23.68,0-0.52.86c-1,1.65-5,7.77-7,10.8l-2.48,3.73c-0.24.37-.74,1.14-1.1,1.72s-1,1.61-1.48,2.29L126.51,125l-1,1.58,0.34,0.86a2.23,2.23,0,0,1-.12,2.48,4.23,4.23,0,0,0-.5,2.22c0,1.64-.3,2-1.75,2.67a1.45,1.45,0,0,0-.83.65,52.36,52.36,0,0,0,2.18,6.59l1.86,4.68c0.54,1.37,1.5,3.56,2.11,4.87s1.27,2.82,1.44,3.35c1.56,4.69,1.59,8.47.08,10.69-0.33.49-.37,0.69-0.17,0.79s2.3,0.16,10.83,0M59.43,224.54a81.84,81.84,0,0,0-2.62-20.6,83.79,83.79,0,0,0-2.88-8.5,63.71,63.71,0,0,0-4.51-9.86,71.79,71.79,0,0,0-5.28-7.92c-0.62-.84-1.4-1.93-1.72-2.41-0.63-1-1-1.19-1.65-1a4.76,4.76,0,0,0-1.82,1.06,9.47,9.47,0,0,0,1,1.53c1.76,2.29,3.78,5.25,7.35,10.79,0.72,1.12,3.08,5.62,3.87,7.4a62.73,62.73,0,0,1,5.26,18m67.26-29.53A161.71,161.71,0,0,1,135.8,170c1.23-1.2,1.57-1.65,1.37-1.82s-42.26-.38-43.33-0.1c-0.58.16-.93,0.53-2,2.16a32.81,32.81,0,0,1-2.2,2.94,39.65,39.65,0,0,1-8.12,6.37,34.45,34.45,0,0,1-8.17,3.7c-2.07.65-2.17,0.76-1.78,2,0.24,0.78.27,0.8,1,.69a8.66,8.66,0,0,0,1.69-.48c0.5-.21,1.46-0.57,2.13-0.81a13.25,13.25,0,0,0,1.8-.78,2.85,2.85,0,0,1,.74-0.35,40.88,40.88,0,0,0,5.3-2.9,31.71,31.71,0,0,0,9.33-8.87L94.68,170l18.47,0c14.22,0,18.56,0,18.84.21s0.29,0.32-.46,1.18c-0.46.52-1.43,1.55-2.17,2.3a73.31,73.31,0,0,0-5,5.5,41.73,41.73,0,0,0-3,3.9,1.12,1.12,0,0,1-.3.42,85.36,85.36,0,0,0-5.72,9.78M68.4,229.14c0.24-.26.43-1.35,0.61-3.67a10.85,10.85,0,0,1,.2-1.63c0-.06.25-1.66,0.46-3.55a57.37,57.37,0,0,0,.26-8.6,94.66,94.66,0,0,0-3.56-24.59c-1.08-3.65-3.65-10.39-4.13-10.81a5.75,5.75,0,0,0-3.36-.44c-0.47.34-.43,0.51,0.66,2.64a102.53,102.53,0,0,1,4.39,11.12c0.56,1.84,2.07,8.17,2.65,11.11,0.3,1.52.81,5.42,1.13,8.58,0.21,2.15.13,12.81-.11,14.29m-2.83,1a5.79,5.79,0,0,0,.82-1.24,4.56,4.56,0,0,0-2-2,2.79,2.79,0,0,0-1.8,1.59c-0.4.68-.41,0.77-0.09,1.15l0.84,1C63.25,226,63.77,225.87,64.76,224.6Zm-0.37-6.26a6.53,6.53,0,0,0,1-1.21c0.4-.66.4-0.7,0-1.24-0.58-.81-2.14-2.05-2.39-1.92a8.5,8.5,0,0,0-1.58,2.48,8.59,8.59,0,0,0,1.86,2.27C63.64,218.94,63.78,218.89,64.39,218.34Zm-0.51-6.69a10.77,10.77,0,0,0,1-1.53l0.69-1.19-1.33-1.15a6.23,6.23,0,0,0-1.64-1.15c-0.36,0-1.87,2.26-1.87,2.79A8.56,8.56,0,0,0,63.34,212,1.11,1.11,0,0,0,63.88,211.65Zm-0.78-8.46a6.35,6.35,0,0,0,.72-1.62c0-.48-2.66-2.38-3.36-2.39a11,11,0,0,0-1.69,3.13,1.12,1.12,0,0,0,.56.63c0.31,0.19,1,.62,1.49,1a3,3,0,0,0,1.25.57A3.47,3.47,0,0,0,63.1,203.19Zm-2-8.11a7.36,7.36,0,0,0,.68-1.67,13.85,13.85,0,0,0-1.81-1.3c-1.89-1.23-2.17-1.25-2.45-.14a6.18,6.18,0,0,1-.56,1.32c-0.71,1.22-.59,1.52,1.07,2.51a5.86,5.86,0,0,0,1.91.84C60.25,196.61,60.59,196.15,61.12,195.08Zm-3.16-7c0.1-.47.31-1.41,0.47-2.09a4.76,4.76,0,0,0,.2-1.43,13.84,13.84,0,0,0-4-1.64c-0.34,0-.5.12-0.5,0.37a15.21,15.21,0,0,1-.46,2c-0.39,1.42-.41,1.71-0.15,1.93A15.85,15.85,0,0,0,57.44,189,1.1,1.1,0,0,0,58,188.08Zm-4.23-8a14.09,14.09,0,0,0,.57-3.68,6.76,6.76,0,0,0-2.07-.89c-3.12-1-2.77-1.13-3.32,1.35a7.76,7.76,0,0,0-.31,2.31,27.48,27.48,0,0,0,4.65,1.61A0.91,0.91,0,0,0,53.73,180.06Zm10.75-5.87a11.08,11.08,0,0,0,4.34-2.67,34.39,34.39,0,0,0,5.28-6.6c1.2-2.1,1.62-2.56,2.16-2.38s0.39,0.72-.69,2.52a42.78,42.78,0,0,1-6.16,7.65A9.79,9.79,0,0,0,68.24,174a0.57,0.57,0,0,0,.48.12,5.79,5.79,0,0,0,3.25-2c0.48-.55,1.37-1.55,2-2.24a33.07,33.07,0,0,0,5.11-7.6c0.39-.87,1-1.23,1.3-0.79s0.08,1-1.13,3.19a36.7,36.7,0,0,1-4.58,6.49,7.68,7.68,0,0,0-1.27,1.73c0.18,0.15,1.21-.49,2.52-1.56a30.53,30.53,0,0,0,6.2-8.19c0.63-1.33,1.17-1.82,1.62-1.5,0.26,0.19.27,0.35,0,1.08a34.12,34.12,0,0,1-3.13,5.31,3.06,3.06,0,0,0-.64,1.22c0.18,0.16,2-1.23,3.87-2.91,1.53-1.39,1.6-1.5,1.47-2.16-0.42-2.12-.4-3.2.1-4.2a6.05,6.05,0,0,1,4.67-3,4,4,0,0,1,2.5.46c0.8,0.33,1.5.59,1.55,0.59a5.45,5.45,0,0,0-.14-2.39c-0.12-.42-0.46-1.71-0.75-2.87A58.48,58.48,0,0,0,91.18,147c-0.84-2.05-1.75-4.42-2-5.26s-0.63-1.92-.79-2.39c-0.69-2-2.15-7.1-2.52-8.76a8,8,0,0,0-.61-2c-0.34-.29-4.13-1-7.34-1.46a56.08,56.08,0,0,0-12.12-.34c-3.86.36-4.24,0.51-4.33,1.71a22,22,0,0,0,1.08,5.39,8.75,8.75,0,0,1,.26,2.1c0,1.43-.4,2.61-2,5.83-2.14,4.21-2.89,6-2.82,6.55s0.23,0.69,1.36,1.19a9.34,9.34,0,0,1,2.11,1.34,2.44,2.44,0,0,1,1,2.08,8.77,8.77,0,0,0,.21,1.37,9.24,9.24,0,0,0,1.16.28,21.8,21.8,0,0,1,4.11,1.16c1.21,0.46,1.58.52,2.07,0.35,0.79-.26,1.2.07,1.72,1.39,0.71,1.81.09,2.65-1.09,1.5-0.68-.66-1.32-0.87-3.51-1.17a6.61,6.61,0,0,0-3.75.27c-0.36.23-.37,0.36-0.14,1.39a2.63,2.63,0,0,1-.08,2,14.63,14.63,0,0,1-4.93,5.17c-0.91.54-1.76,2.1-1.14,2.1a9.18,9.18,0,0,0,1.54-.68,16,16,0,0,0,4.54-3.57c1.27-1.65,2.22-2.26,2.63-1.69s-1.59,3-3.61,4.55A18.35,18.35,0,0,1,54.22,171a7.58,7.58,0,0,1-4-1c-2-1.3-2.08-3.86-.15-5a4.67,4.67,0,0,1,3.16-.08,2.59,2.59,0,0,1,.88,3.72c-0.56.62-.38,0.89,0.27,0.38a2.73,2.73,0,0,0,1.08-2.27c0-1.54-1.74-2.78-3.92-2.78s-4.47,2.6-4,4.65a4.73,4.73,0,0,0,2.93,3,6.1,6.1,0,0,0,3,.41,8.82,8.82,0,0,0,4.09-.71,22.09,22.09,0,0,0,8.51-5.73L68,163.48a1.7,1.7,0,0,1,1.1-.77c0.89,0.16-.16,1.85-2.82,4.51a22.17,22.17,0,0,1-6.52,4.71,26.18,26.18,0,0,1-5.44,1.64,2,2,0,0,0-.8.17c-0.52.29,0.46,0.59,1.91,0.59a13.14,13.14,0,0,0,5.77-1.27c1.88-.8,2.36-1.12,4.76-3.2A22.51,22.51,0,0,0,71,164.13c0.47-.8,1.36-1.52,1.67-1.35s0.17,1.06-.65,2.43a26.12,26.12,0,0,1-7.44,7.55,10.07,10.07,0,0,0-2.29,1.65C62.29,174.63,63.52,174.51,64.48,174.19Zm9.26-17.77a13.78,13.78,0,0,1-3.19-1,21,21,0,0,0-3.5-.92,13.24,13.24,0,0,1-2.37-.55,1.8,1.8,0,0,1,.14-2c0.39-.37.38-0.39-0.45-0.69a12.9,12.9,0,0,1-1.81-.88,2.6,2.6,0,0,0-1.37-.48c-1,.23-1.51-0.92-0.79-1.87s1.7-.67,3.76.57c1.85,1.12,2.66,1.29,3.28.7s0.44-1.19-.33-1.87-0.74-1.22,0-1.22a2.2,2.2,0,0,1,2.22,2.32A2.75,2.75,0,0,1,67.69,151c-0.85.46-.75,0.76,0.24,0.76a11.36,11.36,0,0,1,4,1.64c2.2,1.31,3.53,1.49,4.48.6s0.33-2.15-1.27-2.63c-1.34-.41-1.17-1.33.24-1.33a2.57,2.57,0,0,1,2.5,1.24c1,1.54.87,3.18-.32,4.15A4.23,4.23,0,0,1,73.74,156.42Zm-3-11.44a12.13,12.13,0,0,1-2.11-1.24,7,7,0,0,0-1.82-1c-1.2-.35-1.41-0.75-0.87-1.61s1.07-1.19,1.89-.78,1.37,0.44,1.18-.1a3.36,3.36,0,0,0-.92-1.48,3.54,3.54,0,0,0-.86.6c-1,.83-1.4.65-1.4-0.63a4,4,0,0,0-.43-1.77c-1.07-1.94-.71-2.46,1-1.47a5.86,5.86,0,0,0,1.27.6l3,0.07a11,11,0,0,1,6.48,1.61l2.79,1.42c1.47,0.73,1.66,1,1.2,1.59-0.33.44-.48,0.48-1.29,0.38-3-.37-3.05-0.37-5.44.32a28.36,28.36,0,0,1-3.46.8,2.32,2.32,0,0,0-1.16.3,4.39,4.39,0,0,0,1.16.91c1.43,0.92,1.79,1.29,1.63,1.66S72,145.53,70.72,145Zm1.84-5.79c0.13-.56.09-0.63-0.26-0.57a2.51,2.51,0,0,0-1,1.95C71.46,140.85,72.4,139.84,72.56,139.18Zm2,0.91c0.8-.24.91-0.66,0.21-0.85a0.78,0.78,0,0,0-.88.3C73.21,140.29,73.4,140.45,74.59,140.09Zm5-1.93c-3.9-2.15-6.19-2.76-9.79-2.59-2.24.11-2.65,0-2.65-.65s0.81-.76,3.39-0.76a8.3,8.3,0,0,1,4.12.61c4,1.53,7.68,3.45,7.68,4S81.45,139.19,79.58,138.16ZM81.34,136a33,33,0,0,0-6.47-2.69c-1.72-.51-2.94-0.56-8.92-0.38-1.17,0-1.34,0-1.74-.47-0.72-.83-0.39-1.43,1.11-2,3.89-1.57,10.89,0,16.12,3.7,1.64,1.15,2,1.53,2,2.17S82.62,136.75,81.34,136ZM47.49,171.8a0.78,0.78,0,0,0-1.1-.38c-0.23.2-.22,0.28,0,0.42C46.9,172.1,47.59,172.07,47.49,171.8Zm5.32-3.72c0.89-1,.38-1.88-1.09-1.88-1,0-1.54.4-1.54,1.26C50.18,168.62,51.94,169,52.8,168.09Zm61.89-1.69c1-.43,2.09-2.39,2.44-4.19,0.48-2.51,0-5-1.71-9.39C112,144,110.6,140.35,109.54,137c-0.56-1.76-1.1-2.31-2-2-0.22.07-.24,0.28-0.1,0.83l0.76,2.93c0.31,1.21,1.22,3.88,2,5.93s1.53,4,1.62,4.3,0.58,1.52,1.08,2.68a48.62,48.62,0,0,1,1.69,4.78,10.73,10.73,0,0,1,.68,4.78,6.24,6.24,0,0,1-.9,3.61,12.91,12.91,0,0,0-.8,1.67C113.6,166.76,114,166.71,114.69,166.4Zm4.07-.7c1.37-1.41,1.55-2,1.53-4.66,0-3.36-.69-5.83-3.08-11.43-2.27-5.32-3.81-9.28-4.53-11.62-0.59-1.92-.8-2.35-1.22-2.52a0.93,0.93,0,0,0-.64-0.09c-0.36.31,3.5,11.54,5.53,16.1a29.08,29.08,0,0,1,2.19,6.47c0.57,3.05.45,4.06-.84,7.09a4.25,4.25,0,0,0-.45,1.48C117.42,166.75,118.1,166.39,118.76,165.7Zm-21,.31a6.44,6.44,0,0,0,2.46-3.06c1.11-2.82.5-6.24-2.58-14.53-0.78-2.1-1.69-4.68-2-5.73s-0.74-2.24-.91-2.65c-0.32-.73-1-2.91-2.32-7.29a15.63,15.63,0,0,0-.9-2.53,1.51,1.51,0,0,0-1.27-.17c0,0.08,1.4,5.21,1.86,6.81,0.74,2.56,1.36,4.38,2.82,8.22,0.86,2.26,1.74,4.67,1.95,5.35s0.48,1.47.61,1.75a33.77,33.77,0,0,1,1.57,8.09,6.26,6.26,0,0,1-2.12,5,7.56,7.56,0,0,0-1,1.1C96,166.66,97.06,166.44,97.79,166Zm3.27,0.19c1.4-.63,2.68-2.82,3-5.06,0.25-2-.23-3.86-3.08-11.85-0.17-.47-0.5-1.42-0.73-2.1-1.64-4.78-2.18-6.35-3-8.89a44.87,44.87,0,0,1-1.84-6.4c0-.43-0.37-0.7-1.19-0.88l-0.63-.14,0.15,0.74A152.85,152.85,0,0,0,99.18,149c2.42,6.29,3.44,10.87,2.95,13.24a10.87,10.87,0,0,1-2.1,3.82c-0.33.4-.33,0.43,0,0.43A3.33,3.33,0,0,0,101.06,166.19Zm20.47-.09c1.83-1.13,2.64-4.17,1.94-7.34-0.59-2.72-1.6-5.49-4.42-12.15-1.07-2.52-2.39-6-3.3-8.7-0.73-2.16-.75-2.2-1.49-2.2-0.49,0-.66.09-0.66,0.33a31.28,31.28,0,0,0,1.53,4.92c2.07,4.92,5.61,13.94,6.06,15.44a20.15,20.15,0,0,1,.74,5.66,5.86,5.86,0,0,1-.89,2.74C120.08,166.57,120.21,166.92,121.53,166.1Zm2.94,0.17a5.45,5.45,0,0,0,2.43-3.56,19.32,19.32,0,0,0-.61-5.4c-0.43-1.38-1.61-4.43-3-7.74-0.62-1.47-1.61-3.88-2.2-5.35s-1.29-3.19-1.56-3.82-0.69-1.87-.95-2.75c-0.48-1.63-.87-2.1-1.57-1.86-0.32.11-.36,0.27-0.24,0.94,0.16,0.89,3.93,10.77,5,13.11,3.53,7.67,4.21,12,2.42,15.21C123.41,166.45,123.46,166.67,124.47,166.27Zm3.71-.31c1.21-1.11,1.57-2.05,1.67-4.33a9.62,9.62,0,0,0-.7-4.6c-0.92-2.91-1.69-5-3.11-8.41-1.84-4.45-3.83-9.69-4.33-11.4s-0.75-2-1.55-1.77c-0.38.1-.41,0.24-0.28,1.2a42.35,42.35,0,0,0,2.63,7.39c0.45,1.05,1.23,2.94,1.75,4.21l1.65,4c2.08,5,2.54,6.66,2.54,9.08a5.06,5.06,0,0,1-.83,3.51c-0.45.83-.83,1.54-0.83,1.58C126.81,166.69,127.71,166.4,128.18,166Zm-34.77-.05A7.55,7.55,0,0,0,97,163c0.58-.95.69-4.33,0.21-6.58a73.43,73.43,0,0,0-2.87-9.36c-0.43-1.05-1.44-3.93-2.24-6.4s-1.8-5.39-2.21-6.5a22.47,22.47,0,0,1-1-3.33c-0.25-1.55-.46-1.83-1.36-1.83H86.9L87,129.93c0.19,1.24,2.25,8.33,2.76,9.51,0.23,0.53.88,2.25,1.45,3.82s1.52,4.16,2.11,5.73c2.11,5.62,2.79,8.71,2.57,11.55A4.48,4.48,0,0,1,94.3,164c-2.85,2.29-6.74,1.07-6.72-2.11,0-2.57,4.3-3.44,5.67-1.16a1,1,0,0,1,.09,1.16c-0.37.77-1,.73-1.26-0.07a1.42,1.42,0,0,0-1.89-.89c-1.26.31-1.61,1.29-.81,2.27a2.83,2.83,0,0,0,4.09,0,1.66,1.66,0,0,0,.65-1.61c0-3-4.37-4.05-6.74-1.57a3.27,3.27,0,0,0-.55,3.23,4.69,4.69,0,0,0,.73,1.41,9.17,9.17,0,0,0,2.26,1.47A7.55,7.55,0,0,0,93.42,165.91Zm11.63,0c1.53-1,2.6-4.48,2.15-6.9a43.21,43.21,0,0,0-1.79-6.31c-0.24-.58-0.72-1.87-1.07-2.87s-1.43-3.88-2.42-6.4-2.18-6-2.65-7.65c-0.66-2.35-1-3.14-1.34-3.4a0.71,0.71,0,0,0-.67-0.18c-0.52.45,3,11.55,6.65,21.07a31,31,0,0,1,1.75,6.94,9.72,9.72,0,0,1-1.44,4.78,11.91,11.91,0,0,0-.76,1.19C103.47,166.45,104.58,166.25,105,165.93Zm3.53,0a7.83,7.83,0,0,0,2.14-3.65c0.22-.94.18-1.38-0.42-4a35.43,35.43,0,0,0-1.12-4c-0.25-.6-0.58-1.53-0.74-2.05-0.33-1.1-2.87-7.89-3.32-8.89a65.2,65.2,0,0,1-2.33-7c-0.38-1.36-.74-2.58-0.8-2.71a2.87,2.87,0,0,0-1.74-.6c-0.22.19,1.33,5.38,3,10,1.45,4,3,8.25,3.66,9.84,2.33,5.75,2.45,9.4.44,12.77-0.36.6-.36,0.61,0.16,0.61A2.28,2.28,0,0,0,108.58,165.93Zm3.49-.34c2.59-2.56,2.43-6.88-.51-13.92-2.25-5.39-3.88-9.8-5.12-13.85-1-3.26-1.23-3.64-2.27-3.64-0.49,0-.52.05-0.37,0.62,0.09,0.34.24,1,.33,1.39a109.54,109.54,0,0,0,4.29,12.33,70.63,70.63,0,0,1,3.76,11.56,8.67,8.67,0,0,1-1,4.66c-0.36.77-.66,1.44-0.66,1.48a0.64,0.64,0,0,0,.42.08A2.4,2.4,0,0,0,112.07,165.59Z" transform="translate(0.5 3.12)"/><path class="d" d="M40,186.31a1.4,1.4,0,0,0-.66-1.28m-0.25-11.87c1.21-.65,3.09-1.61,4.18-2.13C46,169.71,46,169.76,46,168.13c0-3.19,2.48-5.44,6-5.5a5,5,0,0,1,3.8,1.81L57,165.6l0.93-.56c3.09-1.86,4.3-3.94,3.48-6a1.33,1.33,0,0,1,.15-1.37c0.39-.75.39-0.76-0.12-1.22s-0.5-.58-0.37-2c0.16-1.76.26-1.63-2.19-2.68-2.76-1.18-3.38-2-2.81-3.69a6.81,6.81,0,0,1,.65-1.43,83.85,83.85,0,0,0,4.41-9.8c0.35-1.15.19-2.47-.57-4.79a14.79,14.79,0,0,1-.5-3.15,6.17,6.17,0,0,0-.56-2.77A4.38,4.38,0,0,1,59,125a3.2,3.2,0,0,0-1-1,3.85,3.85,0,0,1-1.86-3.5c0-1.25,0-1.32-3.33-6.94-1.83-3.12-3.4-5.76-3.49-5.86s-0.82-1.29-1.64-2.63l-1.48-2.44h1.59a3.51,3.51,0,0,1,1.44.13,31.14,31.14,0,0,0,2.65,4.65,5.75,5.75,0,0,0,1.35.1c1.87,0,2.7.65,3.42,2.63,0.1,0.27.38,0.33,1.47,0.33,1.63,0,2.42.41,2.92,1.51s0.17,1.92-1,2.79c-0.79.59-.87,0.72-0.6,0.94,0.89,0.72,4.55.74,6.11,0,0.79-.35.93-0.69,0.3-0.69a3.57,3.57,0,0,1-1.36-.73,1.89,1.89,0,0,1-1-1.86c-0.15-1.84.52-2.68,2.33-2.94l0.81-.11-0.07-1.07A2.56,2.56,0,0,1,68,105.61c2.65-1.56,6.14.67,5.28,3.38-0.15.49-.1,0.53,0.77,0.74,2,0.47,2.88,1.61,2.38,3.2a3,3,0,0,1-2.76,1.76c-1.93,0,.14,1.22,3.25,1.92,1.74,0.39,5.49-.05,5.1-0.6a3,3,0,0,0-.83-0.45A2.4,2.4,0,0,1,80,112.11c0.39-.81,1-1.12,2.55-1.25,1.18-.1,1.21-0.12,1.14-0.64-0.15-1.26,1-2.6,2.64-3a5.74,5.74,0,0,1,3.22.51,2.42,2.42,0,0,1,.9,3.5c-0.51.73-.52,0.71,0.89,1.39a2,2,0,0,1,1.12,2.1,1.53,1.53,0,0,1-.8,1.43,4,4,0,0,1-1.44.76c-0.94.16-.94,0.35,0,1a9.63,9.63,0,0,0,4.06,1.47c1.06,0.08,3-.19,3-0.42a2.07,2.07,0,0,0-.7-0.51A2.52,2.52,0,0,1,95,116.07a2.59,2.59,0,0,1,2.67-2.78c0.95,0,1.15-.16,1.15-1.07,0-1.34,1.36-2.42,3.33-2.65a4.31,4.31,0,0,1,3.61,1.61,3,3,0,0,1-.45,3.82c-0.33.39-.32,0.43,0.25,0.67A2.34,2.34,0,0,1,107.1,118a2.59,2.59,0,0,1-2,2.56,1.48,1.48,0,0,0-.89.53c0.13,0.4,3.05,1.5,4.21,1.58s3.66-.27,3.66-0.56a1.26,1.26,0,0,0-.72-0.45c-1.89-.69-2.7-1.79-2.39-3.25a2.66,2.66,0,0,1,3-2.12l0.74,0.12v-0.92a3.4,3.4,0,0,1,3.86-3.22c2.31,0.3,3.69,2.72,2.6,4.55-0.29.48-.3,0.62-0.07,0.69a2.92,2.92,0,0,1,1.55,1.72,2.59,2.59,0,0,1-2.17,3.41,1.86,1.86,0,0,0-.94.25c0,0.25,1.86.79,3.1,0.9a4.21,4.21,0,0,0,2.48-.41,8.58,8.58,0,0,0,1.25-.58,6.47,6.47,0,0,0-.77-0.73,1.62,1.62,0,0,1-.77-1.6,2.39,2.39,0,0,1,2.84-2.51c0.74,0.06.78,0,1.05-.8a3.77,3.77,0,0,1,2.56-2.5c1.24-.29,1.31-0.35,2.5-2.25,0.57-.91,1.71-2.67,2.54-3.91s1.51-2.3,1.51-2.35a16.05,16.05,0,0,1,.9-1.47,7.88,7.88,0,0,0,.93-1.71c0-.29.26-0.34,1.63-0.34h1.6l-0.23.53a10.07,10.07,0,0,1-.84,1.39c-0.34.47-1.29,1.94-2.12,3.25-1.25,2-3,4.68-6.76,10.32-0.24.37-.74,1.14-1.1,1.72s-1,1.61-1.48,2.29L126.51,125l-1,1.58,0.34,0.86a2.23,2.23,0,0,1-.12,2.48,4.23,4.23,0,0,0-.5,2.22c0,1.64-.3,2-1.75,2.67a1.45,1.45,0,0,0-.83.65,52.36,52.36,0,0,0,2.18,6.59l1.86,4.68c0.54,1.37,1.5,3.56,2.11,4.87s1.27,2.82,1.44,3.35c1.56,4.69,1.59,8.47.08,10.69-0.33.49-.37,0.69-0.17,0.79s2.3,0.16,10.83,0M55.84,221.59a59.66,59.66,0,0,0-1.14-11.14c-0.17-.79-0.37-1.82-0.44-2.29a66.06,66.06,0,0,0-2.61-8.7A88.61,88.61,0,0,0,39,177.81c-1-1.34-1.3-1.58-1.81-1.58a2.48,2.48,0,0,0-1.76.95c0,0.08,1,1.45,2.2,3s2.2,3,2.2,3a3.22,3.22,0,0,0,.52.82,92.56,92.56,0,0,1,7.73,13m11.34,27.47a81.84,81.84,0,0,0-2.62-20.6,83.79,83.79,0,0,0-2.88-8.5,63.71,63.71,0,0,0-4.51-9.86,71.79,71.79,0,0,0-5.28-7.92c-0.62-.84-1.4-1.93-1.72-2.41-0.63-1-1-1.19-1.65-1a4.76,4.76,0,0,0-1.82,1.06,9.47,9.47,0,0,0,1,1.53c1.76,2.29,3.78,5.25,7.35,10.79,0.72,1.12,3.08,5.62,3.87,7.4a62.73,62.73,0,0,1,5.26,18m67.26-29.53A161.71,161.71,0,0,1,135.8,170c1.23-1.2,1.57-1.65,1.37-1.82s-42.26-.38-43.33-0.1c-0.58.16-.93,0.53-2,2.16a32.81,32.81,0,0,1-2.2,2.94,39.65,39.65,0,0,1-8.12,6.37,34.45,34.45,0,0,1-8.17,3.7c-2.07.65-2.17,0.76-1.78,2,0.24,0.78.27,0.8,1,.69a8.66,8.66,0,0,0,1.69-.48c0.5-.21,1.46-0.57,2.13-0.81a13.25,13.25,0,0,0,1.8-.78,2.85,2.85,0,0,1,.74-0.35,40.88,40.88,0,0,0,5.3-2.9,31.71,31.71,0,0,0,9.33-8.87L94.68,170l18.47,0c14.22,0,18.56,0,18.84.21s0.29,0.32-.46,1.18c-0.46.52-1.43,1.55-2.17,2.3a73.32,73.32,0,0,0-5,5.5,41.73,41.73,0,0,0-3,3.9,1.12,1.12,0,0,1-.3.42,85.36,85.36,0,0,0-5.72,9.78m-17.9,21.42,44.7-45.21c1.94-1.48,1.93-1.75-.06-1.59a15.05,15.05,0,0,0-1.82.22c-0.41.14-6.72,6-8.2,7.64-2.51,2.76-6.22,7.09-7.11,8.3M68.4,229.14c0.24-.26.43-1.35,0.61-3.67a10.85,10.85,0,0,1,.2-1.63c0-.06.25-1.66,0.46-3.55a57.37,57.37,0,0,0,.26-8.6,94.66,94.66,0,0,0-3.56-24.59c-1.08-3.65-3.65-10.39-4.13-10.81a5.75,5.75,0,0,0-3.36-.44c-0.47.34-.43,0.51,0.66,2.64a102.53,102.53,0,0,1,4.39,11.12c0.56,1.84,2.07,8.17,2.65,11.11,0.3,1.52.81,5.42,1.13,8.58,0.21,2.15.13,12.81-.11,14.29m4,5.45c0.84-2.56,1.9-12.8,1.9-18.4a124.38,124.38,0,0,0-2.34-20.74c-0.18-.74-0.51-2.2-0.74-3.25a55.53,55.53,0,0,0-3.24-9.89c-0.56-1.09-.57-1.1-1.51-1.1-1.79,0-1.93.22-1.21,1.94,0.89,2.13,3.13,8.66,3.75,10.93a112,112,0,0,1,3.4,20.79A100.54,100.54,0,0,1,71,222.59a45.27,45.27,0,0,1-1.09,6.21c-0.25.35,0.11,0.58,0.87,0.58A0.77,0.77,0,0,0,71.62,229Zm22.6-6.91a12.11,12.11,0,0,0,.15-2.58c-0.1-.23-0.35-0.28-1.08-0.2a16.73,16.73,0,0,1-2.6-.05L89,219.15l-0.12-2.05a6,6,0,0,0-.39-2.29c-0.39-.34-7.19-0.47-7.64-0.15-0.25.18-.33,0.68-0.33,2.11a11.46,11.46,0,0,1-.13,2.17c-0.11.25-.6,0.3-3.08,0.3-3.37,0-3-.21-3.26,2.1-0.06.68-.18,1.65-0.26,2.15l-0.15.91h3a18.89,18.89,0,0,1,3.44.2c0.38,0.18.43,0.42,0.43,2.26m1.54-2.4a1.32,1.32,0,0,1-.71-0.31c-0.3-.41-0.2-4.45.12-4.68a25.54,25.54,0,0,1,6.35,0c0.37,0.17.41,0.44,0.41,2.44M64.76,224.6a5.79,5.79,0,0,0,.82-1.24,4.56,4.56,0,0,0-2-2,2.79,2.79,0,0,0-1.8,1.59c-0.4.68-.41,0.77-0.09,1.15l0.84,1C63.25,226,63.77,225.87,64.76,224.6Zm-0.37-6.26a6.53,6.53,0,0,0,1-1.21c0.4-.66.4-0.7,0-1.24-0.58-.81-2.14-2.05-2.39-1.92a8.5,8.5,0,0,0-1.58,2.48,8.59,8.59,0,0,0,1.86,2.27C63.64,218.94,63.78,218.89,64.39,218.34Zm-0.51-6.69a10.77,10.77,0,0,0,1-1.53l0.69-1.19-1.33-1.15a6.23,6.23,0,0,0-1.64-1.15c-0.36,0-1.87,2.26-1.87,2.79A8.56,8.56,0,0,0,63.34,212,1.11,1.11,0,0,0,63.88,211.65Zm45.41-5.88c0-.56,0-0.58-1.19-0.7a17.62,17.62,0,0,0-4.6,0c-0.24.13-.13,0.38,0.55,1.19m-41-3.09a6.35,6.35,0,0,0,.72-1.62c0-.48-2.66-2.38-3.36-2.39a11,11,0,0,0-1.69,3.13,1.12,1.12,0,0,0,.56.63c0.31,0.19,1,.62,1.49,1a3,3,0,0,0,1.25.57A3.47,3.47,0,0,0,63.1,203.19Zm46.15,0.23a1,1,0,0,0,.94-0.73c0.41-.84.43-1.41,0.06-1.41a5.67,5.67,0,0,0-1.4.65c-1.73,1-1.94,1-3.51-.3s-1.65-1.64.73-2.85a3.49,3.49,0,0,0,1.16-.76,2.61,2.61,0,0,0-1.32-.18c-1.54,0-1.49,0-2.64,2.8-0.87,2.17-.84,2.61.21,2.74C104.19,203.47,107.91,203.49,109.25,203.41Zm2-4.14a2.64,2.64,0,0,0,.21-1.24c-0.21-.29-3.19-0.25-3.19,0a10.08,10.08,0,0,0,2.46,2.25A2.46,2.46,0,0,0,111.3,199.27Zm-50.18-4.19a7.36,7.36,0,0,0,.68-1.67,13.85,13.85,0,0,0-1.81-1.3c-1.89-1.23-2.17-1.25-2.45-.14a6.18,6.18,0,0,1-.56,1.32c-0.71,1.22-.59,1.52,1.07,2.51a5.86,5.86,0,0,0,1.91.84C60.25,196.61,60.59,196.15,61.12,195.08ZM112.51,196a2.69,2.69,0,0,0,.21-0.88c0-.35-0.14-0.32-1.67.39-0.92.43-1.72,0.78-1.77,0.78a10.92,10.92,0,0,1-1.3-1c-1.62-1.33-1.59-1.63.23-2.56a5.52,5.52,0,0,0,1.43-.89c0-.27-2.13-0.18-2.4.1a25.45,25.45,0,0,0-2,4.26c0,0.2.73,0.26,3.53,0.26h3.53Zm-37-2.16a88.41,88.41,0,0,0,9.69-4.22,56.1,56.1,0,0,0,13.13-9.8l1.43-1.48,7.17-.05,7.17-.05,1.55-2.1c2.13-2.89,3-4.31,2.89-4.51s-5-.17-11.52-0.17H95.62l-0.44.43a9.66,9.66,0,0,0-1,1.3,31.46,31.46,0,0,1-8.5,8,59.78,59.78,0,0,1-10,5.08c-3.27,1.17-3.41,1.23-3.41,1.54a46.3,46.3,0,0,0,1.37,6.36C73.84,194.45,73.57,194.49,75.51,193.84Zm-0.73-1.73c-1.8-.9-1.86-1-1.32-2.16l0.73-1.63c0.35-.79.7-0.78,2.2,0.1,1.18,0.69,1.21.74,1.28,1.7,0.09,1.3-.5,2.44-1.28,2.49A4.39,4.39,0,0,1,74.77,192.12Zm5.57-2.47-1-.33,0-1.48a8.71,8.71,0,0,1,.3-2.16C80,185,80,185,80.86,185.11a10.32,10.32,0,0,1,1.88.5l1,0.37-0.12,1.67a10.51,10.51,0,0,1-.27,2C83.11,190.11,81.69,190.1,80.35,189.64Zm6.17-3.39c-1.52-.41-1.6-0.54-1.24-2,0.53-2.22,1-2.62,2.66-2.19,1.4,0.37,1.66.6,1.66,1.48a6.35,6.35,0,0,1-.72,2.79C88.61,186.62,87.79,186.6,86.52,186.25Zm5.73-4.11c-1.49-.25-1.62-0.45-1.58-2.48a5.39,5.39,0,0,1,.28-2c0.59-.62,3.41-0.11,3.87.7a6.9,6.9,0,0,1,.06,3.64C94.62,182.39,93.94,182.43,92.25,182.14Zm5.31-4.8a5.24,5.24,0,0,1-1.78-1.19,9.5,9.5,0,0,1,.41-3.56c0.31-.54,1.19-0.4,2.61.39,1.74,1,1.93,1.35,1.58,3.23s-0.4,1.93-.85,1.91A10,10,0,0,1,97.56,177.35Zm5.78-.76c-1.52-1.25-1.55-1.64-.19-3l1.32-1.37a1,1,0,0,1,.51-0.33,10.42,10.42,0,0,1,2.89,3.2c0,0.64-2.1,2.53-2.8,2.53A3.76,3.76,0,0,1,103.35,176.59Zm8.24,0.74a6,6,0,0,1-2-2.48c0-.82,2.19-3,3-3a2.54,2.54,0,0,1,1.33.84c1.12,1.11,1.48,1.72,1.32,2.26a12,12,0,0,1-3.21,2.64A1.29,1.29,0,0,1,111.59,177.33Zm2.2,15.75a10.81,10.81,0,0,0,.47-1.24,6.42,6.42,0,0,0-1.76-.12,8.33,8.33,0,0,0-1.76.09,9.06,9.06,0,0,0,1.1,1.07,5.7,5.7,0,0,1,1.1,1.15,0.18,0.18,0,0,0,.19.17A2.77,2.77,0,0,0,113.79,193.09Zm2.63-5a10,10,0,0,0,1.25-2.48c-0.19-.27-3.19-0.24-3.19,0a2.42,2.42,0,0,0,.55.85,5.58,5.58,0,0,1,.77,1.14c0.2,0.45.14,0.58-.51,1.12a9.88,9.88,0,0,1-1.77,1.08l-1,.47-0.8-.76a5.79,5.79,0,0,1-1.62-2.12,4.91,4.91,0,0,1,1.44-1,3,3,0,0,0,1.31-1,2.51,2.51,0,0,0-1.83,0,21.2,21.2,0,0,0-2.68,4.64c0,0.33.23,0.35,3.36,0.35H115Zm-58.46,0c0.1-.47.31-1.41,0.47-2.09a4.76,4.76,0,0,0,.2-1.43,13.84,13.84,0,0,0-4-1.64c-0.34,0-.5.12-0.5,0.37a15.21,15.21,0,0,1-.46,2c-0.39,1.42-.41,1.71-0.15,1.93A15.85,15.85,0,0,0,57.44,189,1.1,1.1,0,0,0,58,188.08ZM115.63,184c0.32-.09.27-0.22-0.37-0.95a6,6,0,0,1-.9-1.27c-0.16-.43-0.09-0.51,1.41-1.49l0.59-.39-1,0-1,0-1.17,1.72c-1.22,1.79-1.35,2.12-.9,2.25A15.29,15.29,0,0,0,115.63,184Zm4.58-1.85a7.69,7.69,0,0,0,1.27-2.05c-0.08-.35-2.61-0.42-2.75-0.07a1.35,1.35,0,0,0,.48.79c0.77,0.79.71,1.27-.23,1.9-1.92,1.3-1.84,1.19-.92,1.2S118.92,183.83,120.21,182.11Zm-47.87,0c0.72-.26.78-0.34,0.68-0.91a38.11,38.11,0,0,0-2-5.65,1,1,0,0,0-.91-0.13c-1.3.23-1.45,0.3-1.45,0.75a54,54,0,0,0,2.09,6C70.89,182.43,71.38,182.42,72.34,182.07ZM76,180.85l0.5-.35-1.17-2.92a13,13,0,0,0-1.48-3c-0.51-.17-1.44.3-1.29,0.65,0.08,0.17.34,1,.59,1.76a23.6,23.6,0,0,0,1.33,3.89A1,1,0,0,0,76,180.85Zm-22.22-.8a14.09,14.09,0,0,0,.57-3.68,6.76,6.76,0,0,0-2.07-.89c-3.12-1-2.77-1.13-3.32,1.35a7.76,7.76,0,0,0-.31,2.31,27.48,27.48,0,0,0,4.65,1.61A0.91,0.91,0,0,0,53.73,180.06ZM123.25,178a10.4,10.4,0,0,0,1.29-1.41c0.46-.59,1.67-1.91,2.67-2.92a8.24,8.24,0,0,0,1.69-2,21.54,21.54,0,0,0-4-.18c-3.58,0-3.87,0-4.29.39A47.85,47.85,0,0,0,116,178c0,0.28.39,0.32,3.39,0.32S122.86,178.29,123.25,178Zm-3.7-1.26a0.61,0.61,0,0,1-.48-0.62,17.57,17.57,0,0,1,2.92-3.78c0.54-.29,3.29,0,3.45.39s-0.68,1.74-2.07,3.08c-1.17,1.12-1.27,1.18-2.25,1.17A4.85,4.85,0,0,1,119.55,176.75Zm-55.06-2.56a11.08,11.08,0,0,0,4.34-2.67,34.39,34.39,0,0,0,5.28-6.6c1.2-2.1,1.62-2.56,2.16-2.38s0.39,0.72-.69,2.52a42.78,42.78,0,0,1-6.16,7.65A9.79,9.79,0,0,0,68.24,174a0.57,0.57,0,0,0,.48.12,5.79,5.79,0,0,0,3.25-2c0.48-.55,1.37-1.55,2-2.24a33.07,33.07,0,0,0,5.11-7.6c0.39-.87,1-1.23,1.3-0.79s0.08,1-1.13,3.19a36.7,36.7,0,0,1-4.58,6.49,7.68,7.68,0,0,0-1.27,1.73c0.18,0.15,1.21-.49,2.52-1.56a30.53,30.53,0,0,0,6.2-8.19c0.63-1.33,1.17-1.82,1.62-1.5,0.26,0.19.27,0.35,0,1.08a34.12,34.12,0,0,1-3.13,5.31,3.06,3.06,0,0,0-.64,1.22c0.18,0.16,2-1.23,3.87-2.91,1.53-1.39,1.6-1.5,1.47-2.16-0.42-2.12-.4-3.2.1-4.2a6.05,6.05,0,0,1,4.67-3,4,4,0,0,1,2.5.46c0.8,0.33,1.5.59,1.55,0.59a5.45,5.45,0,0,0-.14-2.39c-0.12-.42-0.46-1.71-0.75-2.87A58.48,58.48,0,0,0,91.18,147c-0.84-2.05-1.75-4.42-2-5.26s-0.63-1.92-.79-2.39c-0.69-2-2.15-7.1-2.52-8.76a8,8,0,0,0-.61-2c-0.34-.29-4.13-1-7.34-1.46a56.08,56.08,0,0,0-12.12-.34c-3.86.36-4.24,0.51-4.33,1.71a22,22,0,0,0,1.08,5.39,8.75,8.75,0,0,1,.26,2.1c0,1.43-.4,2.61-2,5.83-2.14,4.21-2.89,6-2.82,6.55s0.23,0.69,1.36,1.19a9.34,9.34,0,0,1,2.11,1.34,2.44,2.44,0,0,1,1,2.08,8.77,8.77,0,0,0,.21,1.37,9.24,9.24,0,0,0,1.16.28,21.8,21.8,0,0,1,4.11,1.16c1.21,0.46,1.58.52,2.07,0.35,0.79-.26,1.2.07,1.72,1.39,0.71,1.81.09,2.65-1.09,1.5-0.68-.66-1.32-0.87-3.51-1.17a6.61,6.61,0,0,0-3.75.27c-0.36.23-.37,0.36-0.14,1.39a2.63,2.63,0,0,1-.08,2,14.63,14.63,0,0,1-4.93,5.17c-0.91.54-1.76,2.1-1.14,2.1a9.18,9.18,0,0,0,1.54-.68,16,16,0,0,0,4.54-3.57c1.27-1.65,2.22-2.26,2.63-1.69s-1.59,3-3.61,4.55A18.35,18.35,0,0,1,54.22,171a7.58,7.58,0,0,1-4-1c-2-1.3-2.08-3.86-.15-5a4.67,4.67,0,0,1,3.16-.08,2.59,2.59,0,0,1,.88,3.72c-0.56.62-.38,0.89,0.27,0.38a2.73,2.73,0,0,0,1.08-2.27c0-1.54-1.74-2.78-3.92-2.78s-4.47,2.6-4,4.65a4.73,4.73,0,0,0,2.93,3,6.1,6.1,0,0,0,3,.41,8.82,8.82,0,0,0,4.09-.71,22.09,22.09,0,0,0,8.51-5.73L68,163.48a1.7,1.7,0,0,1,1.1-.77c0.89,0.16-.16,1.85-2.82,4.51a22.17,22.17,0,0,1-6.52,4.71,26.18,26.18,0,0,1-5.44,1.64,2,2,0,0,0-.8.17c-0.52.29,0.46,0.59,1.91,0.59a13.14,13.14,0,0,0,5.77-1.27c1.88-.8,2.36-1.12,4.76-3.2A22.51,22.51,0,0,0,71,164.13c0.47-.8,1.36-1.52,1.67-1.35s0.17,1.06-.65,2.43a26.12,26.12,0,0,1-7.44,7.55,10.07,10.07,0,0,0-2.29,1.65C62.29,174.63,63.52,174.51,64.48,174.19Zm9.26-17.77a13.78,13.78,0,0,1-3.19-1,21,21,0,0,0-3.5-.92,13.24,13.24,0,0,1-2.37-.55,1.8,1.8,0,0,1,.14-2c0.39-.37.38-0.39-0.45-0.69a12.9,12.9,0,0,1-1.81-.88,2.6,2.6,0,0,0-1.37-.48c-1,.23-1.51-0.92-0.79-1.87s1.7-.67,3.76.57c1.85,1.12,2.66,1.29,3.28.7s0.44-1.19-.33-1.87-0.74-1.22,0-1.22a2.2,2.2,0,0,1,2.22,2.32A2.75,2.75,0,0,1,67.69,151c-0.85.46-.75,0.76,0.24,0.76a11.36,11.36,0,0,1,4,1.64c2.2,1.31,3.53,1.49,4.48.6s0.33-2.15-1.27-2.63c-1.34-.41-1.17-1.33.24-1.33a2.57,2.57,0,0,1,2.5,1.24c1,1.54.87,3.18-.32,4.15A4.23,4.23,0,0,1,73.74,156.42Zm-3-11.44a12.13,12.13,0,0,1-2.11-1.24,7,7,0,0,0-1.82-1c-1.2-.35-1.41-0.75-0.87-1.61s1.07-1.19,1.89-.78,1.37,0.44,1.18-.1a3.36,3.36,0,0,0-.92-1.48,3.54,3.54,0,0,0-.86.6c-1,.83-1.4.65-1.4-0.63a4,4,0,0,0-.43-1.77c-1.07-1.94-.71-2.46,1-1.47a5.86,5.86,0,0,0,1.27.6l3,0.07a11,11,0,0,1,6.48,1.61l2.79,1.42c1.47,0.73,1.66,1,1.2,1.59-0.33.44-.48,0.48-1.29,0.38-3-.37-3.05-0.37-5.44.32a28.36,28.36,0,0,1-3.46.8,2.32,2.32,0,0,0-1.16.3,4.39,4.39,0,0,0,1.16.91c1.43,0.92,1.79,1.29,1.63,1.66S72,145.53,70.72,145Zm1.84-5.79c0.13-.56.09-0.63-0.26-0.57a2.51,2.51,0,0,0-1,1.95C71.46,140.85,72.4,139.84,72.56,139.18Zm2,0.91c0.8-.24.91-0.66,0.21-0.85a0.78,0.78,0,0,0-.88.3C73.21,140.29,73.4,140.45,74.59,140.09Zm5-1.93c-3.9-2.15-6.19-2.76-9.79-2.59-2.24.11-2.65,0-2.65-.65s0.81-.76,3.39-0.76a8.3,8.3,0,0,1,4.12.61c4,1.53,7.68,3.45,7.68,4S81.45,139.19,79.58,138.16ZM81.34,136a33,33,0,0,0-6.47-2.69c-1.72-.51-2.94-0.56-8.92-0.38-1.17,0-1.34,0-1.74-.47-0.72-.83-0.39-1.43,1.11-2,3.89-1.57,10.89,0,16.12,3.7,1.64,1.15,2,1.53,2,2.17S82.62,136.75,81.34,136ZM47.49,171.8a0.78,0.78,0,0,0-1.1-.38c-0.23.2-.22,0.28,0,0.42C46.9,172.1,47.59,172.07,47.49,171.8Zm5.32-3.72c0.89-1,.38-1.88-1.09-1.88-1,0-1.54.4-1.54,1.26C50.18,168.62,51.94,169,52.8,168.09Zm61.89-1.69c1-.43,2.09-2.39,2.44-4.19,0.48-2.51,0-5-1.71-9.39C112,144,110.6,140.35,109.54,137c-0.56-1.76-1.1-2.31-2-2-0.22.07-.24,0.28-0.1,0.83l0.76,2.93c0.31,1.21,1.22,3.88,2,5.93s1.53,4,1.62,4.3,0.58,1.52,1.08,2.68a48.62,48.62,0,0,1,1.69,4.78,10.73,10.73,0,0,1,.68,4.78,6.24,6.24,0,0,1-.9,3.61,12.91,12.91,0,0,0-.8,1.67C113.6,166.76,114,166.71,114.69,166.4Zm4.07-.7c1.37-1.41,1.55-2,1.53-4.66,0-3.36-.69-5.83-3.08-11.43-2.27-5.32-3.81-9.28-4.53-11.62-0.59-1.92-.8-2.35-1.22-2.52a0.93,0.93,0,0,0-.64-0.09c-0.36.31,3.5,11.54,5.53,16.1a29.08,29.08,0,0,1,2.19,6.47c0.57,3.05.45,4.06-.84,7.09a4.25,4.25,0,0,0-.45,1.48C117.42,166.75,118.1,166.39,118.76,165.7Zm-21,.31a6.44,6.44,0,0,0,2.46-3.06c1.11-2.82.5-6.24-2.58-14.53-0.78-2.1-1.69-4.68-2-5.73s-0.74-2.24-.91-2.65c-0.32-.73-1-2.91-2.32-7.29a15.63,15.63,0,0,0-.9-2.53,1.51,1.51,0,0,0-1.27-.17c0,0.08,1.4,5.21,1.86,6.81,0.74,2.56,1.36,4.38,2.82,8.22,0.86,2.26,1.74,4.67,1.95,5.35s0.48,1.47.61,1.75a33.77,33.77,0,0,1,1.57,8.09,6.26,6.26,0,0,1-2.12,5,7.56,7.56,0,0,0-1,1.1C96,166.66,97.06,166.44,97.79,166Zm3.27,0.19c1.4-.63,2.68-2.82,3-5.06,0.25-2-.23-3.86-3.08-11.85-0.17-.47-0.5-1.42-0.73-2.1-1.64-4.78-2.18-6.35-3-8.89a44.87,44.87,0,0,1-1.84-6.4c0-.43-0.37-0.7-1.19-0.88l-0.63-.14,0.15,0.74A152.85,152.85,0,0,0,99.18,149c2.42,6.29,3.44,10.87,2.95,13.24a10.87,10.87,0,0,1-2.1,3.82c-0.33.4-.33,0.43,0,0.43A3.33,3.33,0,0,0,101.06,166.19Zm20.47-.09c1.83-1.13,2.64-4.17,1.94-7.34-0.59-2.72-1.6-5.49-4.42-12.15-1.07-2.52-2.39-6-3.3-8.7-0.73-2.16-.75-2.2-1.49-2.2-0.49,0-.66.09-0.66,0.33a31.28,31.28,0,0,0,1.53,4.92c2.07,4.92,5.61,13.94,6.06,15.44a20.15,20.15,0,0,1,.74,5.66,5.86,5.86,0,0,1-.89,2.74C120.08,166.57,120.21,166.92,121.53,166.1Zm2.94,0.17a5.45,5.45,0,0,0,2.43-3.56,19.32,19.32,0,0,0-.61-5.4c-0.43-1.38-1.61-4.43-3-7.74-0.62-1.47-1.61-3.88-2.2-5.35s-1.29-3.19-1.56-3.82-0.69-1.87-.95-2.75c-0.48-1.63-.87-2.1-1.57-1.86-0.32.11-.36,0.27-0.24,0.94,0.16,0.89,3.93,10.77,5,13.11,3.53,7.67,4.21,12,2.42,15.21C123.41,166.45,123.46,166.67,124.47,166.27Zm3.71-.31c1.21-1.11,1.57-2.05,1.67-4.33a9.62,9.62,0,0,0-.7-4.6c-0.92-2.91-1.69-5-3.11-8.41-1.84-4.45-3.83-9.69-4.33-11.4s-0.75-2-1.55-1.77c-0.38.1-.41,0.24-0.28,1.2a42.35,42.35,0,0,0,2.63,7.39c0.45,1.05,1.23,2.94,1.75,4.21l1.65,4c2.08,5,2.54,6.66,2.54,9.08a5.06,5.06,0,0,1-.83,3.51c-0.45.83-.83,1.54-0.83,1.58C126.81,166.69,127.71,166.4,128.18,166Zm-34.77-.05A7.55,7.55,0,0,0,97,163c0.58-.95.69-4.33,0.21-6.58a73.43,73.43,0,0,0-2.87-9.36c-0.43-1.05-1.44-3.93-2.24-6.4s-1.8-5.39-2.21-6.5a22.47,22.47,0,0,1-1-3.33c-0.25-1.55-.46-1.83-1.36-1.83H86.9L87,129.93c0.19,1.24,2.25,8.33,2.76,9.51,0.23,0.53.88,2.25,1.45,3.82s1.52,4.16,2.11,5.73c2.11,5.62,2.79,8.71,2.57,11.55A4.48,4.48,0,0,1,94.3,164c-2.85,2.29-6.74,1.07-6.72-2.11,0-2.57,4.3-3.44,5.67-1.16a1,1,0,0,1,.09,1.16c-0.37.77-1,.73-1.26-0.07a1.42,1.42,0,0,0-1.89-.89c-1.26.31-1.61,1.29-.81,2.27a2.83,2.83,0,0,0,4.09,0,1.66,1.66,0,0,0,.65-1.61c0-3-4.37-4.05-6.74-1.57a3.27,3.27,0,0,0-.55,3.23,4.69,4.69,0,0,0,.73,1.41,9.17,9.17,0,0,0,2.26,1.47A7.55,7.55,0,0,0,93.42,165.91Zm11.63,0c1.53-1,2.6-4.48,2.15-6.9a43.21,43.21,0,0,0-1.79-6.31c-0.24-.58-0.72-1.87-1.07-2.87s-1.43-3.88-2.42-6.4-2.18-6-2.65-7.65c-0.66-2.35-1-3.14-1.34-3.4a0.71,0.71,0,0,0-.67-0.18c-0.52.45,3,11.55,6.65,21.07a31,31,0,0,1,1.75,6.94,9.72,9.72,0,0,1-1.44,4.78,11.91,11.91,0,0,0-.76,1.19C103.47,166.45,104.58,166.25,105,165.93Zm3.53,0a7.83,7.83,0,0,0,2.14-3.65c0.22-.94.18-1.38-0.42-4a35.43,35.43,0,0,0-1.12-4c-0.25-.6-0.58-1.53-0.74-2.05-0.33-1.1-2.87-7.89-3.32-8.89a65.2,65.2,0,0,1-2.33-7c-0.38-1.36-.74-2.58-0.8-2.71a2.87,2.87,0,0,0-1.74-.6c-0.22.19,1.33,5.38,3,10,1.45,4,3,8.25,3.66,9.84,2.33,5.75,2.45,9.4.44,12.77-0.36.6-.36,0.61,0.16,0.61A2.28,2.28,0,0,0,108.58,165.93Zm3.49-.34c2.59-2.56,2.43-6.88-.51-13.92-2.25-5.39-3.88-9.8-5.12-13.85-1-3.26-1.23-3.64-2.27-3.64-0.49,0-.52.05-0.37,0.62,0.09,0.34.24,1,.33,1.39a109.54,109.54,0,0,0,4.29,12.33,70.63,70.63,0,0,1,3.76,11.56,8.67,8.67,0,0,1-1,4.66c-0.36.77-.66,1.44-0.66,1.48a0.64,0.64,0,0,0,.42.08A2.4,2.4,0,0,0,112.07,165.59Zm3.18-39.73c-1-.75-1.54-0.8-3-0.3-1.86.65-1.34,0.85,2.52,0.93l1.32,0Zm7,0.1c0.88-.18,1.92-1,1.45-1.11a3.83,3.83,0,0,0-1.23.26c-2.74.91-7.6-.91-7.6-2.85a4.2,4.2,0,0,1,1.22-2.76c1-.79.6-1.76-0.69-1.76-1,0-1.28.38-1.09,1.45a6.12,6.12,0,0,1-.61,3.3,3,3,0,0,1-1.14.86c-0.76.35-1.25,0.41-3.43,0.41-2.5,0-2.57,0-4.23-.72-2.17-.93-4.06-2.4-4.26-3.32a3.14,3.14,0,0,1,1.25-2.94c1-.82,1-1,0.52-1.41a2.5,2.5,0,0,0-2.22-.06,4.47,4.47,0,0,0-.19,1.48,3.86,3.86,0,0,1-3.29,3.8,10.84,10.84,0,0,1-4.64-.1,12.1,12.1,0,0,1-4.69-3.37,2.1,2.1,0,0,1-.64-2,3,3,0,0,1,.58-1.59,2,2,0,0,0,.48-0.85c0-.66-1.88-0.93-2.53-0.37-0.37.32-.36,0.47,0.13,1.51,0.36,0.77.16,1.38-.71,2.16a10.7,10.7,0,0,1-7.65,1.94c-2.25-.34-5.41-1.93-6.09-3.07a4.28,4.28,0,0,1,.06-3.35c0.38-.69.37-0.7-0.13-1.06a1.37,1.37,0,0,0-1.82,0c-0.49.34-.5,0.41-0.22,1a13.87,13.87,0,0,1,.52,1.36c0.47,1.48-.78,3-3.43,4.25-2,.89-5.69.8-7.26-0.17l-1-.61c-0.45-.28-0.5-0.28-0.5,0a2.29,2.29,0,0,0,.66,1c0.91,0.9,3,1.35,5.68,1.23a9.76,9.76,0,0,0,5.27-1.61,5.21,5.21,0,0,1,1.3-.65,6.39,6.39,0,0,1,1.43.67,15.78,15.78,0,0,0,5.24,1.75,12.68,12.68,0,0,0,7.56-1l0.83-.32,1.53,1.34c2.26,2,3.42,2.42,6.94,2.69a10.87,10.87,0,0,0,3.52-.12c2.57-.56,2.17-0.66,3.73.95a9.6,9.6,0,0,0,7.26,2.8,11.77,11.77,0,0,0,4.92-1.05c0.92-.33,1-0.33,1.43,0a9.16,9.16,0,0,0,1.48.83l1.58,0.71A8.86,8.86,0,0,0,122.3,126ZM100,123a1.72,1.72,0,0,0-1-.65c-0.79,0-1.48.23-1.4,0.45a7.65,7.65,0,0,0,2.86.94A1,1,0,0,0,100,123Zm-13.87-3.54a1.41,1.41,0,0,0-1.65-.55c-0.87.4-.11,0.86,1.53,0.93C86.58,119.84,86.58,119.84,86.17,119.45Zm-14.63-1.12c0-.36-1.08-0.81-1.65-0.69-0.74.16-.7,0.64,0.05,0.74C71.09,118.52,71.54,118.51,71.54,118.32Zm-15.64-6c-1-.7-1.16.05-0.27,1.24l0.61,0.81,0.07-.86A1,1,0,0,0,55.9,112.35Zm71.2-9.63a0.5,0.5,0,0,1,.42,0c0.18,0.06.12,0.11-.13,0.12S127,102.78,127.09,102.72Z" transform="translate(0.5 3.12)"/><path class="e" d="M40.2,185.5a1.11,1.11,0,0,0-.76-0.66M40,173.07c1.78-1,3.72-1.94,4.31-2.19a8.7,8.7,0,0,0,1.6-.89c0.48-.39.52-0.53,0.39-1.49a3.47,3.47,0,0,1,.48-2.41,4.81,4.81,0,0,1,3.46-2.9c2.45-.67,3.61-0.26,5.94,2.12a2.43,2.43,0,0,0,.8.62,17,17,0,0,0,3.37-2.22,8.23,8.23,0,0,0,1.18-1.57c0.6-1,.64-1.67.21-3.41a1.11,1.11,0,0,1,.2-1c0.48-.59.45-0.8-0.21-1.48s-0.55-.63-0.32-1.74a4.29,4.29,0,0,0,.11-1.53,4,4,0,0,0-1.61-1c-3.31-1.39-4.08-2.17-3.58-3.66a7.46,7.46,0,0,1,.72-1.47,21.17,21.17,0,0,0,1.18-2.29c0.4-.89,1-2.23,1.37-3a35.56,35.56,0,0,0,2-5.13,14.75,14.75,0,0,0-1-5.19,9.32,9.32,0,0,1-.34-2.64,4.32,4.32,0,0,0-.44-2.43,3.16,3.16,0,0,1-.44-1.13,0.87,0.87,0,0,0-.37-0.63c-2-1.36-2.78-2.6-2.57-4.19,0.12-.84,0-1.13-2.91-6-1.67-2.83-3.35-5.65-3.74-6.29L48.09,105A19.53,19.53,0,0,0,46.7,103c-0.31-.31-0.24-0.33,1.17-0.33a3.07,3.07,0,0,1,1.36.13,31.14,31.14,0,0,0,2.65,4.65,5.75,5.75,0,0,0,1.35.1c1.87,0,2.7.65,3.42,2.63,0.1,0.27.38,0.33,1.47,0.33,1.63,0,2.42.41,2.92,1.51s0.17,1.92-1,2.79c-0.79.59-.87,0.72-0.6,0.94,0.89,0.72,4.55.74,6.11,0,0.79-.35.93-0.69,0.3-0.69a3.57,3.57,0,0,1-1.36-.73,1.89,1.89,0,0,1-1-1.86c-0.15-1.84.52-2.68,2.33-2.94l0.81-.11-0.07-1.07A2.56,2.56,0,0,1,68,105.61c2.65-1.56,6.14.67,5.28,3.38-0.15.49-.1,0.53,0.77,0.74,2,0.47,2.88,1.61,2.38,3.2a3,3,0,0,1-2.76,1.76c-1.93,0,.14,1.22,3.25,1.92,1.74,0.39,5.49-.05,5.1-0.6a3,3,0,0,0-.83-0.45A2.4,2.4,0,0,1,80,112.11c0.39-.81,1-1.12,2.55-1.25,1.18-.1,1.21-0.12,1.14-0.64-0.15-1.26,1-2.6,2.64-3a5.74,5.74,0,0,1,3.22.51,2.42,2.42,0,0,1,.9,3.5c-0.51.73-.52,0.71,0.89,1.39a2,2,0,0,1,1.12,2.1,1.53,1.53,0,0,1-.8,1.43,4,4,0,0,1-1.44.76c-0.94.16-.94,0.35,0,1a9.63,9.63,0,0,0,4.06,1.47c1.06,0.08,3-.19,3-0.42a2.07,2.07,0,0,0-.7-0.51A2.52,2.52,0,0,1,95,116.07a2.59,2.59,0,0,1,2.67-2.78c0.95,0,1.15-.16,1.15-1.07,0-1.34,1.36-2.42,3.33-2.65a4.31,4.31,0,0,1,3.61,1.61,3,3,0,0,1-.45,3.82c-0.33.39-.32,0.43,0.25,0.67A2.34,2.34,0,0,1,107.1,118a2.59,2.59,0,0,1-2,2.56,1.48,1.48,0,0,0-.89.53c0.13,0.4,3.05,1.5,4.21,1.58s3.66-.27,3.66-0.56a1.26,1.26,0,0,0-.72-0.45c-1.89-.69-2.7-1.79-2.39-3.25a2.66,2.66,0,0,1,3-2.12l0.74,0.12v-0.92a3.4,3.4,0,0,1,3.86-3.22c2.31,0.3,3.69,2.72,2.6,4.55-0.29.48-.3,0.62-0.07,0.69a2.92,2.92,0,0,1,1.55,1.72,2.59,2.59,0,0,1-2.17,3.41,1.86,1.86,0,0,0-.94.25c0,0.25,1.86.79,3.1,0.9a4.21,4.21,0,0,0,2.48-.41,8.58,8.58,0,0,0,1.25-.58,6.47,6.47,0,0,0-.77-0.73,1.62,1.62,0,0,1-.77-1.6,2.39,2.39,0,0,1,2.84-2.51c0.74,0.06.78,0,1.05-.8a3.77,3.77,0,0,1,2.56-2.5c1.24-.29,1.31-0.35,2.5-2.25,0.57-.91,1.71-2.67,2.54-3.91s1.51-2.3,1.51-2.35a16.05,16.05,0,0,1,.9-1.47,7.88,7.88,0,0,0,.93-1.71c0-.29.25-0.34,1.51-0.34h1.48l-1.49,2.25c-0.82,1.24-1.86,2.85-2.32,3.58-0.82,1.32-2.34,3.64-6.66,10.23-1.21,1.84-2.58,3.95-3,4.68s-1.08,1.67-1.37,2.08a1.56,1.56,0,0,0-.39,1.43c0.39,1.94.39,2.31-.05,3a3.37,3.37,0,0,0-.45,2,5.07,5.07,0,0,1-.24,1.73,4.72,4.72,0,0,1-1.33,1,4.41,4.41,0,0,0-1.1.71c0,0.07.29,1.08,0.65,2.25,0.58,1.9,1,3.14,3.2,8.62,0.33,0.84,1,2.48,1.55,3.63a47,47,0,0,1,2.7,6.58,12.72,12.72,0,0,1,.58,4.71v2.88l-0.72,1.21c-0.51.86-.65,1.27-0.48,1.42s7.73,0.18,14.09,0m-84.23,57c0-8.09-.33-11.26-1.79-17.49-0.46-2-2-6.87-2.65-8.6-3.59-9.17-5.45-12.82-9.16-17.93l-2.34-3.25c-1.53-2.15-1.73-2.34-2.43-2.34a5.69,5.69,0,0,0-2.65,1.29,10,10,0,0,0,1,1.49c0.54,0.73,1.45,2,2,2.86s1.26,1.79,1.52,2.1a97.57,97.57,0,0,1,6.77,11.18,78.27,78.27,0,0,1,4.46,11.28c0.16,0.68.44,1.8,0.61,2.49a88.91,88.91,0,0,1,1.6,8.79c0.27,2.07-.2,4.07-0.2,9.27m-0.43-3.11a59.66,59.66,0,0,0-1.14-11.14c-0.17-.79-0.37-1.82-0.44-2.29a66.06,66.06,0,0,0-2.61-8.7A88.61,88.61,0,0,0,39,177.81c-1-1.34-1.3-1.58-1.81-1.58a2.48,2.48,0,0,0-1.76.95c0,0.08,1,1.45,2.2,3s2.2,3,2.2,3a3.22,3.22,0,0,0,.52.82,92.56,92.56,0,0,1,7.73,13m88.36-27.26c1.44-1.41,1.65-1.85,1-2.07-0.21-.07-10.14-0.12-22.06-0.11-17.87,0-21.76.06-22.13,0.28a14.77,14.77,0,0,0-2,2.53A21,21,0,0,1,87,175.15a28.42,28.42,0,0,1-5.84,4.23,35.66,35.66,0,0,1-8.37,3.71c-1.18.35-1.78,0.63-1.83,0.85a4.19,4.19,0,0,0,.28,1.38c0.44,1.3.67,1.33,3.25,0.38,9.38-3.44,15.83-8.18,20.13-14.81l0.43-.66,18.27,0.05c10,0,18.34.12,18.43,0.19a7.08,7.08,0,0,1-1.54,1.86,75.37,75.37,0,0,0-14.76,19.87c-0.24.53-.78,1.69-1.21,2.59s-0.88,1.93-1,2.29-0.53,1.52-.92,2.57m-14.9,15,44.7-45.21c1.94-1.48,1.93-1.75-.06-1.59a15.05,15.05,0,0,0-1.82.22c-0.41.14-6.72,6-8.2,7.64-2.51,2.76-6.22,7.09-7.11,8.3M68.76,229.41c0.1-.15.43-2.44,1.37-9.69a46.21,46.21,0,0,0,.22-7.74c-0.29-11.64-2-21.3-5.56-30.68-1.86-4.94-2-5.28-2.94-5.56a6.7,6.7,0,0,0-3.48,0c-0.35.3-.33,0.63,0.05,1.37a79.36,79.36,0,0,1,6.16,16.47c0.19,0.84.58,2.56,0.88,3.82,0.57,2.47,1.31,6.32,1.3,6.79,0,0.16.14,1.23,0.31,2.39M71.62,229c0.84-2.56,1.9-12.8,1.9-18.4a124.38,124.38,0,0,0-2.34-20.74c-0.18-.74-0.51-2.2-0.74-3.25a55.53,55.53,0,0,0-3.24-9.89c-0.56-1.09-.57-1.1-1.51-1.1-1.79,0-1.93.22-1.21,1.94,0.89,2.13,3.13,8.66,3.75,10.93a112,112,0,0,1,3.4,20.79A100.54,100.54,0,0,1,71,222.59a45.27,45.27,0,0,1-1.09,6.21c-0.25.35,0.11,0.58,0.87,0.58A0.77,0.77,0,0,0,71.62,229Zm22.6-6.91a12.11,12.11,0,0,0,.15-2.58c-0.1-.23-0.35-0.28-1.08-0.2a16.73,16.73,0,0,1-2.6-.05L89,219.15l-0.12-2.05a6,6,0,0,0-.39-2.29c-0.39-.34-7.19-0.47-7.64-0.15-0.25.18-.33,0.68-0.33,2.11a11.46,11.46,0,0,1-.13,2.17c-0.11.25-.6,0.3-3.08,0.3-3.37,0-3-.21-3.26,2.1-0.06.68-.18,1.65-0.26,2.15l-0.15.91h3a18.89,18.89,0,0,1,3.44.2c0.38,0.18.43,0.42,0.43,2.26m1.54-2.4a1.32,1.32,0,0,1-.71-0.31c-0.3-.41-0.2-4.45.12-4.68a25.54,25.54,0,0,1,6.35,0c0.37,0.17.41,0.44,0.41,2.44m-23.73,3.47A10.12,10.12,0,0,0,65.7,224l0.4-.65-1-1.12c-0.8-.92-1.1-1.12-1.62-1.12s-0.79.18-1.48,1a3.84,3.84,0,0,0-.83,1.49c0,0.59,1.7,2.54,2.21,2.54A2.55,2.55,0,0,0,64.55,225.36ZM64.2,219a5.47,5.47,0,0,0,1.83-2.5,4.39,4.39,0,0,0-1.14-1.59c-1.51-1.55-2-1.57-3-.09-1.1,1.63-1.11,1.85-.16,2.9a5.51,5.51,0,0,0,1.84,1.57A2.12,2.12,0,0,0,64.2,219ZM64,212.11a19.15,19.15,0,0,0,1.14-1.75l0.9-1.5-1.25-1.1A11.82,11.82,0,0,0,63,206.42a0.65,0.65,0,0,0-.94.12,9.33,9.33,0,0,0-1.78,2.91,9.31,9.31,0,0,0,3.08,2.9A1,1,0,0,0,64,212.11Zm45.27-6.34c0-.56,0-0.58-1.19-0.7a17.62,17.62,0,0,0-4.6,0c-0.24.13-.13,0.38,0.55,1.19m-40.83-2.51a15.32,15.32,0,0,0,.86-1.77,0.82,0.82,0,0,0-.27-1.22,17.15,17.15,0,0,0-3.27-2c-0.51,0-2.21,2.81-2.21,3.64a2.08,2.08,0,0,0,1.16,1c0.64,0.36,1.4.83,1.71,1C62.05,205.13,62.54,204.95,63.22,203.76Zm46-.35a1,1,0,0,0,.94-0.73c0.41-.84.43-1.41,0.06-1.41a5.67,5.67,0,0,0-1.4.65c-1.73,1-1.94,1-3.51-.3s-1.65-1.64.73-2.85a3.49,3.49,0,0,0,1.16-.76,2.61,2.61,0,0,0-1.32-.18c-1.54,0-1.49,0-2.64,2.8-0.87,2.17-.84,2.61.21,2.74C104.19,203.47,107.91,203.49,109.25,203.41Zm2-4.14a2.64,2.64,0,0,0,.21-1.24c-0.21-.29-3.19-0.25-3.19,0a10.08,10.08,0,0,0,2.46,2.25A2.46,2.46,0,0,0,111.3,199.27Zm-49.84-4a5.74,5.74,0,0,0,.71-2,9.34,9.34,0,0,0-1.87-1.41c-2.31-1.47-2.52-1.44-3.36.54-1,2.38-1,2.47.94,3.67C60.17,197.49,60.39,197.44,61.45,195.26ZM112.51,196a2.69,2.69,0,0,0,.21-0.88c0-.35-0.14-0.32-1.67.39-0.92.43-1.72,0.78-1.77,0.78a10.92,10.92,0,0,1-1.3-1c-1.62-1.33-1.59-1.63.23-2.56a5.52,5.52,0,0,0,1.43-.89c0-.27-2.13-0.18-2.4.1a25.45,25.45,0,0,0-2,4.26c0,0.2.73,0.26,3.53,0.26h3.53Zm-37-2.16a88.41,88.41,0,0,0,9.69-4.22,56.1,56.1,0,0,0,13.13-9.8l1.43-1.48,7.17-.05,7.17-.05,1.55-2.1c2.13-2.89,3-4.31,2.89-4.51s-5-.17-11.52-0.17H95.62l-0.44.43a9.66,9.66,0,0,0-1,1.3,31.46,31.46,0,0,1-8.5,8,59.78,59.78,0,0,1-10,5.08c-3.27,1.17-3.41,1.23-3.41,1.54a46.3,46.3,0,0,0,1.37,6.36C73.84,194.45,73.57,194.49,75.51,193.84Zm-0.73-1.73c-1.8-.9-1.86-1-1.32-2.16l0.73-1.63c0.35-.79.7-0.78,2.2,0.1,1.18,0.69,1.21.74,1.28,1.7,0.09,1.3-.5,2.44-1.28,2.49A4.39,4.39,0,0,1,74.77,192.12Zm5.57-2.47-1-.33,0-1.48a8.71,8.71,0,0,1,.3-2.16C80,185,80,185,80.86,185.11a10.32,10.32,0,0,1,1.88.5l1,0.37-0.12,1.67a10.51,10.51,0,0,1-.27,2C83.11,190.11,81.69,190.1,80.35,189.64Zm6.17-3.39c-1.52-.41-1.6-0.54-1.24-2,0.53-2.22,1-2.62,2.66-2.19,1.4,0.37,1.66.6,1.66,1.48a6.35,6.35,0,0,1-.72,2.79C88.61,186.62,87.79,186.6,86.52,186.25Zm5.73-4.11c-1.49-.25-1.62-0.45-1.58-2.48a5.39,5.39,0,0,1,.28-2c0.59-.62,3.41-0.11,3.87.7a6.9,6.9,0,0,1,.06,3.64C94.62,182.39,93.94,182.43,92.25,182.14Zm5.31-4.8a5.24,5.24,0,0,1-1.78-1.19,9.5,9.5,0,0,1,.41-3.56c0.31-.54,1.19-0.4,2.61.39,1.74,1,1.93,1.35,1.58,3.23s-0.4,1.93-.85,1.91A10,10,0,0,1,97.56,177.35Zm5.78-.76c-1.52-1.25-1.55-1.64-.19-3l1.32-1.37a1,1,0,0,1,.51-0.33,10.42,10.42,0,0,1,2.89,3.2c0,0.64-2.1,2.53-2.8,2.53A3.76,3.76,0,0,1,103.35,176.59Zm8.24,0.74a6,6,0,0,1-2-2.48c0-.82,2.19-3,3-3a2.54,2.54,0,0,1,1.33.84c1.12,1.11,1.48,1.72,1.32,2.26a12,12,0,0,1-3.21,2.64A1.29,1.29,0,0,1,111.59,177.33Zm2.2,15.75a10.81,10.81,0,0,0,.47-1.24,6.42,6.42,0,0,0-1.76-.12,8.33,8.33,0,0,0-1.76.09,9.06,9.06,0,0,0,1.1,1.07,5.7,5.7,0,0,1,1.1,1.15,0.18,0.18,0,0,0,.19.17A2.77,2.77,0,0,0,113.79,193.09Zm2.63-5a10,10,0,0,0,1.25-2.48c-0.19-.27-3.19-0.24-3.19,0a2.42,2.42,0,0,0,.55.85,5.58,5.58,0,0,1,.77,1.14c0.2,0.45.14,0.58-.51,1.12a9.88,9.88,0,0,1-1.77,1.08l-1,.47-0.8-.76a5.79,5.79,0,0,1-1.62-2.12,4.91,4.91,0,0,1,1.44-1,3,3,0,0,0,1.31-1,2.51,2.51,0,0,0-1.83,0,21.2,21.2,0,0,0-2.68,4.64c0,0.33.23,0.35,3.36,0.35H115Zm-58.14.1c0.16-.63.43-1.7,0.61-2.38,0.38-1.47.45-1.38-2-2.47s-3.18-1-3.18.29a11.75,11.75,0,0,1-.46,2c-0.39,1.29-.41,1.59-0.17,1.79a22.54,22.54,0,0,0,4.59,1.95A1.6,1.6,0,0,0,58.28,188.18ZM115.63,184c0.32-.09.27-0.22-0.37-0.95a6,6,0,0,1-.9-1.27c-0.16-.43-0.09-0.51,1.41-1.49l0.59-.39-1,0-1,0-1.17,1.72c-1.22,1.79-1.35,2.12-.9,2.25A15.29,15.29,0,0,0,115.63,184Zm4.58-1.85a7.69,7.69,0,0,0,1.27-2.05c-0.08-.35-2.61-0.42-2.75-0.07a1.35,1.35,0,0,0,.48.79c0.77,0.79.71,1.27-.23,1.9-1.92,1.3-1.84,1.19-.92,1.2S118.92,183.83,120.21,182.11Zm-47.87,0c0.72-.26.78-0.34,0.68-0.91a38.11,38.11,0,0,0-2-5.65,1,1,0,0,0-.91-0.13c-1.3.23-1.45,0.3-1.45,0.75a54,54,0,0,0,2.09,6C70.89,182.43,71.38,182.42,72.34,182.07Zm-18.43-1.29a20.38,20.38,0,0,0,.81-4.63,1.91,1.91,0,0,0-1-.49c-0.46-.13-1.61-0.49-2.54-0.81-1.33-.45-1.77-0.53-2-0.35a4.16,4.16,0,0,0-.56,1.73,20,20,0,0,1-.45,2.11,1.62,1.62,0,0,0-.09.86,6.47,6.47,0,0,0,1.92.87c1,0.34,2,.73,2.35.87C53.19,181.31,53.69,181.26,53.91,180.78Zm22,0.08,0.5-.35-1.17-2.92a13,13,0,0,0-1.48-3c-0.51-.17-1.44.3-1.29,0.65,0.08,0.17.34,1,.59,1.76a23.6,23.6,0,0,0,1.33,3.89A1,1,0,0,0,76,180.85ZM123.25,178a10.4,10.4,0,0,0,1.29-1.41c0.46-.59,1.67-1.91,2.67-2.92a8.24,8.24,0,0,0,1.69-2,21.54,21.54,0,0,0-4-.18c-3.58,0-3.87,0-4.29.39A47.85,47.85,0,0,0,116,178c0,0.28.39,0.32,3.39,0.32S122.86,178.29,123.25,178Zm-3.7-1.26a0.61,0.61,0,0,1-.48-0.62,17.57,17.57,0,0,1,2.92-3.78c0.54-.29,3.29,0,3.45.39s-0.68,1.74-2.07,3.08c-1.17,1.12-1.27,1.18-2.25,1.17A4.85,4.85,0,0,1,119.55,176.75Zm-55-2.26a11.52,11.52,0,0,0,4.62-2.76A33.36,33.36,0,0,0,74.49,165c1.13-2,1.68-2.58,1.68-1.9,0,1.11-4.54,7.12-7.21,9.55a4.83,4.83,0,0,0-1.33,1.53c0.17,0.45,1.46.39,2.48-.13s4.08-3.58,6-6.1a47.58,47.58,0,0,0,3.26-5.43,1.87,1.87,0,0,1,.57-0.81c1,0-2.59,5.86-5.81,9.61-1.41,1.64-1.6,2.16-.73,2,2.26-.49,6-4.45,8.63-9.24,1.15-2.06,1.78-2.75,1.48-1.62-0.12.44-3.05,5.39-3.87,6.53a0.76,0.76,0,0,0-.11.67c0.13,0.29.2,0.29,0.75,0,1-.45,5.32-4.26,5.47-4.79a2,2,0,0,0-.1-1.09,6.53,6.53,0,0,1,.06-3.68,5.82,5.82,0,0,1,2.64-2.29,5,5,0,0,1,4.77.25c1.36,0.79,1.61.63,1.42-.92a42.51,42.51,0,0,0-2.53-9,102.36,102.36,0,0,1-4.51-13c-0.64-2.14-1.23-4.29-1.31-4.78-0.3-1.84-.48-2.09-1.73-2.4s-3.13-.65-6.54-1.19a48.37,48.37,0,0,0-7.6-.34c-5.9,0-8.2.22-8.95,0.87-0.57.49-.53,1.57,0.17,4.3,1,3.9,1.06,4.54.68,5.9a13.22,13.22,0,0,1-.8,2.08,6.68,6.68,0,0,0-.45,1,11.48,11.48,0,0,1-.64,1.3,49.8,49.8,0,0,0-2.66,5.66c-0.36,1.18-.15,1.71.83,2.06a7.86,7.86,0,0,1,3.14,2.08,2.78,2.78,0,0,1,.43,1.66,2,2,0,0,0,.28,1.25,6.11,6.11,0,0,0,1.57.4,20.6,20.6,0,0,1,3.14.89,6.6,6.6,0,0,0,2.76.62l0.91-.06,0.53,1.22c0.66,1.53.42,1.92-.65,1-1.61-1.35-7.43-1.71-8-.49a4.23,4.23,0,0,0,.13,1.5,2.27,2.27,0,0,1-.34,2.27,18.44,18.44,0,0,1-4.65,4.52,2.24,2.24,0,0,0-1.2,1.41c-0.49,1.52,0,1.61,2.24.45a15.78,15.78,0,0,0,4.93-4.08c0.7-1,1.41-1.45,1.41-.82,0,0.78-3.18,3.83-5.42,5.19-3.31,2-6.13,2.5-8.52,1.5a2.93,2.93,0,0,1-2.09-2.61,1.5,1.5,0,0,1,.65-1.7,2.59,2.59,0,0,1,4.27.54,1.62,1.62,0,0,1,.11,1.54,2,2,0,0,1-.68.92c-0.57.31-.55,0.9,0,0.9,1.19,0,2.4-1.51,2.4-3s-1.25-2.59-3.19-3a4.34,4.34,0,0,0-4,1c-2.69,2.15-1.95,5.65,1.51,7.12a6.52,6.52,0,0,0,3.23.5,9.39,9.39,0,0,0,4.22-.76,15.11,15.11,0,0,0,4.54-2.27c0.21-.18.86-0.66,1.45-1.07a37.77,37.77,0,0,0,4.79-4.76c0.92-1,.7-0.31-0.29,1a28.2,28.2,0,0,1-8.06,6.89,29.18,29.18,0,0,1-6.32,1.92c-1.33.15-1.46,0.54-.33,1,1.87,0.81,5.81.12,9.2-1.6a34.23,34.23,0,0,0,6.61-5.61,18.73,18.73,0,0,0,1.59-2.2c0.6-1,1.43-1.88,1.66-1.68s-1.62,3.16-2.29,3.85c-0.32.33-1,1.09-1.53,1.68a22,22,0,0,1-4.44,3.74c-2.07,1.34-2.73,1.89-2.56,2.13S62.92,174.95,64.5,174.48Zm8.36-18.61a18.52,18.52,0,0,1-2.09-.75,21,21,0,0,0-3.39-.91c-2.42-.46-2.83-0.7-2.59-1.52s0.92-.9,2.35-0.72a10.49,10.49,0,0,1,4.38,1.62,7.05,7.05,0,0,0,4,1.31,2.66,2.66,0,0,0,1.22-.68c1-1.08.54-2.41-1.17-3-1.18-.44-1.14-0.86.08-0.79A2.65,2.65,0,0,1,78,152.45a2,2,0,0,1,0,1.69C77.31,156,75.47,156.57,72.86,155.87ZM64.66,151a10.93,10.93,0,0,1-2-.94,2.12,2.12,0,0,0-1.4-.49c-1.09.24-1.26-1.3-.18-1.66,0.78-.26.73-0.27,2.74,0.92,1.45,0.86,2,1.09,2.69,1.09,1.66,0,2.26-1.53,1-2.6-0.81-.7-0.82-0.78-0.06-0.7a1.9,1.9,0,0,1,1.5,2.16,3.63,3.63,0,0,1-2.29,2.31C65.82,151.44,65.94,151.45,64.66,151Zm5.77-6.53a12.38,12.38,0,0,1-2-1.23,4.48,4.48,0,0,0-1.54-.8c-0.92-.2-1.11-0.76-0.51-1.47a1,1,0,0,1,1.49-.2,1.26,1.26,0,0,0,1.58,0,2.77,2.77,0,0,0-.44-1.34c-0.66-1.24-1.18-1.37-1.94-.48s-0.95.63-.88-0.4a3,3,0,0,0-.5-1.79,4.57,4.57,0,0,1-.56-1.19c0-.35.54-0.32,0.89,0,0.63,0.66,1.5.87,3.25,0.78a14.6,14.6,0,0,1,6.28,1c4,1.91,5.33,2.7,5.33,3s-0.15.35-1,.31c-3.45-.16-3.81-0.13-6.15.59a15.88,15.88,0,0,1-3.24.7c-1.7,0-1.57.71,0.35,1.88S72.59,145.54,70.44,144.48Zm2.12-4.29a2.45,2.45,0,0,0,.39-1.19c0-.66,0-0.71-0.62-0.71s-0.69.11-1.16,1.15-0.48,1.17-.15,1.38S72,140.87,72.56,140.19Zm2.64,0.1c0.64-.21.68-0.77,0.1-1.23a1.33,1.33,0,0,0-1.92.49C72.52,140.63,73.26,140.93,75.2,140.29Zm3.64-2.86c-3.48-1.81-4.83-2.16-8.47-2.18-2.38,0-2.9-.07-2.9-0.3a0.66,0.66,0,0,1,.55-0.41,20.23,20.23,0,0,1,5,0,39.74,39.74,0,0,1,6.73,2.79C83,139.18,82.28,139.22,78.83,137.43Zm2.38-1.92a35.12,35.12,0,0,0-7.63-2.87,19.16,19.16,0,0,0-6.14-.09c-2.32.32-2.84,0.22-3.08-.6-0.31-1.08,1.58-1.79,4.74-1.79,2.87,0,4.91.51,8.61,2.17a16.38,16.38,0,0,1,4.14,2.5C83.87,136.45,83.51,136.84,81.21,135.51ZM48.1,172.21c0.19-.27-1-1.32-1.46-1.32a0.75,0.75,0,0,0-.79.86C46.09,172.29,47.79,172.63,48.1,172.21Zm4.5-3.52a1.77,1.77,0,0,0,.89-1,0.89,0.89,0,0,0-.17-1.2A1.68,1.68,0,0,0,51.9,166c-1.22-.07-1.86.34-2.06,1.34a1,1,0,0,0,.42,1.19A2,2,0,0,0,52.59,168.69Zm62.55-2.19a6.68,6.68,0,0,0,2.34-4.14,8.07,8.07,0,0,0,.09-3.52c-0.37-2.56-.76-3.8-2.49-7.93-1.86-4.45-2.74-6.74-3.79-9.84-1.9-5.67-2.06-6-2.66-6.28-1.25-.49-2-0.11-1.65.84,0.11,0.31.51,1.76,0.89,3.22a55.28,55.28,0,0,0,1.78,5.45c0.61,1.53,1.25,3.22,1.44,3.74,0.28,0.79,1,2.66,2.29,5.64A42.49,42.49,0,0,1,115,159.8a9.83,9.83,0,0,1-1.09,5.13,8.68,8.68,0,0,0-.77,1.66C113.16,167.14,114.18,167.09,115.14,166.5Zm3.25,0a5,5,0,0,0,1.64-1.86c0.69-1.22.72-1.36,0.71-3.48,0-3.5-1-6.85-4.39-14.53a89.72,89.72,0,0,1-3.31-8.7,13.12,13.12,0,0,0-.88-2.32,1.2,1.2,0,0,0-1.54-.38c-0.32.2-.3,0.4,0.22,2.13l0.81,2.67c0.13,0.42.46,1.37,0.74,2.1s0.73,2,1,2.77c0.78,2.31,1.42,4,2.52,6.5,2,4.67,2.27,5.58,2.46,8.51a6.21,6.21,0,0,1-.54,3.82c-0.37.95-.8,2-1,2.35-0.24.54-.24,0.66,0,0.81C117.37,167.13,117.38,167.13,118.4,166.47Zm-20.51-.15a6.38,6.38,0,0,0,3.12-5.66c0.17-3.12-.62-6.25-3.47-13.68-0.22-.58-0.77-2.17-1.22-3.54s-1.05-3.13-1.33-3.92c-0.76-2.1-2-6-2.42-7.63s-1-2.31-1.94-2.31c-0.73,0-.84.36-0.47,1.56,0.17,0.56.76,2.65,1.31,4.65s1.14,4,1.31,4.49l1.85,5c2.51,6.73,3.18,8.95,3.89,12.89,0.57,3.17,0,5.14-1.9,6.91-1.07,1-1.31,1.49-.79,1.68A2.27,2.27,0,0,0,97.89,166.32Zm3.07,0.3a5.23,5.23,0,0,0,2.41-2.39c1.18-2,1.35-3.88.65-6.84-0.29-1.22-.73-2.75-1-3.4-1.13-3-4.3-12.1-5.91-16.95-0.6-1.8-1.14-3.7-1.48-5.21a2.42,2.42,0,0,0-1.93-1.28c-0.3,0-.39.16-0.39,0.72a67.24,67.24,0,0,0,2.54,9.51c0.44,1.26,1,2.9,1.23,3.63,0.59,1.82,1.68,4.76,2.18,5.93a53.08,53.08,0,0,1,2.31,7.92c0.61,3.21.22,5-1.57,7.13a2.33,2.33,0,0,0-.67,1.22A1.36,1.36,0,0,0,101,166.62Zm20.33,0a4.82,4.82,0,0,0,2.36-2.73,9,9,0,0,0,.23-3.68,13.33,13.33,0,0,0-1.1-5.26c-1-2.84-1.84-4.86-3.68-9.18-1.16-2.73-3.12-8.06-3.41-9.27a1.17,1.17,0,0,0-1.44-1.15c-0.62,0-.87.09-1,0.35a28.12,28.12,0,0,0,1.76,6.09c0.63,1.29,5,12.34,5.53,14a29.16,29.16,0,0,1,.85,3.9c0.29,2,.29,2.39,0,3.42a9.93,9.93,0,0,1-1,2.12c-0.48.74-.58,1.06-0.42,1.32C120.28,166.94,120.49,167,121.29,166.59Zm7.25-.43c1.82-1.88,2.27-4.85,1.26-8.28-0.32-1.1-.79-2.56-1-3.24s-0.53-1.5-.63-1.82-0.79-2-1.53-3.82c-2-4.81-4.33-11-4.65-12.25a5.13,5.13,0,0,0-.49-1.37,2,2,0,0,0-1.9,0c-0.38.4,0,2.35,1.06,4.93s2,4.87,2.22,5.41c0.79,1.63,4,9.84,4.66,11.76a10.66,10.66,0,0,1,.52,3.82c0,2.16,0,2.22-.83,3.6a7.63,7.63,0,0,0-.83,1.7C126.37,167.12,127.93,166.79,128.54,166.16Zm-35.46.21a8.16,8.16,0,0,0,4.27-3.3c0.45-.8.5-1.14,0.48-3.46a15.54,15.54,0,0,0-.59-4.68,69.07,69.07,0,0,0-2.57-8c-0.49-1.25-1.09-2.88-1.34-3.63-0.86-2.68-2.6-7.9-3.26-9.78a20.27,20.27,0,0,1-.82-3c-0.17-1.27-.46-1.6-1.56-1.78-1.41-.23-1.44.26-0.28,4.22,0.37,1.26.81,2.83,1,3.48s0.59,1.94.95,2.87,1,2.63,1.42,3.79c2.07,5.62,3.47,9.46,3.78,10.34a21.55,21.55,0,0,1,1,6.32c0,1.75-.07,2.1-0.56,2.94a4.68,4.68,0,0,1-3.36,2.21,2.94,2.94,0,0,1-2-.32,2.87,2.87,0,0,1-1.73-2.4c-0.25-1.32,1.61-2.71,3.24-2.43,0.82,0.14,2,1.29,1.94,1.84s-0.62.7-.62,0.28a1.74,1.74,0,0,0-.46-0.78,2.11,2.11,0,0,0-2.86.06,1.38,1.38,0,0,0-.06,2.26c1.23,1.4,3.06,1.41,4.61,0a1.76,1.76,0,0,0,.85-1.65c0-3.91-6.14-4.8-7.91-1.13-1,2.13.14,4.5,2.76,5.62A5,5,0,0,0,93.08,166.37Zm12.25-.27a6.45,6.45,0,0,0,2.13-4c0.55-3.14-.19-5.94-4.58-17.11-1.45-3.69-2.86-7.75-3.37-9.65-0.74-2.81-.87-3.07-1.61-3.35-1.3-.48-1.36-0.15-0.58,2.88,0.38,1.47.94,3.4,1.24,4.29s0.63,1.88.73,2.2c0.94,3,2.08,6.26,3,8.51,1.94,5,3,8.59,3,10.29a8.7,8.7,0,0,1-1.38,4.81c-1,1.49-1,1.73,0,1.73A2.4,2.4,0,0,0,105.33,166.09Zm3.14,0.34c1.24-.6,2.51-2.86,2.66-4.71a25.94,25.94,0,0,0-1.71-8l-2.19-5.93c-0.85-2.31-1.64-4.38-1.75-4.59-0.33-.63-1.66-4.63-2.31-7-0.34-1.21-.66-2.36-0.72-2.55a3.27,3.27,0,0,0-2.38-1c-0.27.09-.33,0.25-0.22,0.62s0.33,1.23.55,2.12,0.91,3.09,1.54,4.87,1.24,3.55,1.35,3.92,0.64,1.79,1.16,3.15c3.4,9,3.92,10.6,4,12.57a6.6,6.6,0,0,1-.49,3.35,10.08,10.08,0,0,1-1,2.21,1.08,1.08,0,0,0-.32.81C106.79,166.74,107.81,166.75,108.46,166.43Zm3.77-.4a7.62,7.62,0,0,0,2-4.1,6.93,6.93,0,0,0,.13-1.62,18.13,18.13,0,0,1-.31-1.79,30.82,30.82,0,0,0-2.42-7.7,142,142,0,0,1-5.1-13.94c-0.73-2.47-.78-2.57-1.46-2.82-0.85-.31-1.53-0.33-1.72-0.06-0.39.55,2.08,8,6.51,19.49a32.76,32.76,0,0,1,1.9,6.73,8.1,8.1,0,0,1-.59,3.68,4.87,4.87,0,0,0-.43,1,3.49,3.49,0,0,1-.47.95,0.82,0.82,0,0,0-.19.53c0,0.26.17,0.34,0.75,0.34A1.74,1.74,0,0,0,112.23,166Zm13,0.19a6.49,6.49,0,0,0,1.28-1.48,4.58,4.58,0,0,0,.73-2.87,15.89,15.89,0,0,0-.17-3.15,80.6,80.6,0,0,0-3.64-9.82c-0.56-1.31-1.36-3.25-1.76-4.3s-1.1-2.77-1.54-3.82a34.45,34.45,0,0,1-1.21-3.39,11.74,11.74,0,0,0-.55-1.67,2.15,2.15,0,0,0-1.12-.2c-0.87,0-1,0-1,.43,0,1,2,6.42,5,13.52a65.68,65.68,0,0,1,3,8,9.51,9.51,0,0,1-.53,7.64,3.4,3.4,0,0,0-.47,1.19C123.29,166.85,124.4,166.81,125.21,166.22Zm-10-40.35c-1-.75-1.54-0.8-3-0.3-1.86.65-1.34,0.85,2.52,0.93l1.32,0Zm7,0.1c0.88-.18,1.92-1,1.45-1.11a3.83,3.83,0,0,0-1.23.26c-2.74.91-7.6-.91-7.6-2.85a4.2,4.2,0,0,1,1.22-2.76c1-.79.6-1.76-0.69-1.76-1,0-1.28.38-1.09,1.45a6.12,6.12,0,0,1-.61,3.3,3,3,0,0,1-1.14.86c-0.76.35-1.25,0.41-3.43,0.41-2.5,0-2.57,0-4.23-.72-2.17-.93-4.06-2.4-4.26-3.32a3.14,3.14,0,0,1,1.25-2.94c1-.82,1-1,0.52-1.41a2.5,2.5,0,0,0-2.22-.06,4.47,4.47,0,0,0-.19,1.48,3.86,3.86,0,0,1-3.29,3.8,10.84,10.84,0,0,1-4.64-.1,12.1,12.1,0,0,1-4.69-3.37,2.1,2.1,0,0,1-.64-2,3,3,0,0,1,.58-1.59,2,2,0,0,0,.48-0.85c0-.66-1.88-0.93-2.53-0.37-0.37.32-.36,0.47,0.13,1.51,0.36,0.77.16,1.38-.71,2.16a10.7,10.7,0,0,1-7.65,1.94c-2.25-.34-5.41-1.93-6.09-3.07a4.28,4.28,0,0,1,.06-3.35c0.38-.69.37-0.7-0.13-1.06a1.37,1.37,0,0,0-1.82,0c-0.49.34-.5,0.41-0.22,1a13.87,13.87,0,0,1,.52,1.36c0.47,1.48-.78,3-3.43,4.25-2,.89-5.69.8-7.26-0.17l-1-.61c-0.45-.28-0.5-0.28-0.5,0a2.29,2.29,0,0,0,.66,1c0.91,0.9,3,1.35,5.68,1.23a9.76,9.76,0,0,0,5.27-1.61,5.21,5.21,0,0,1,1.3-.65,6.39,6.39,0,0,1,1.43.67,15.78,15.78,0,0,0,5.24,1.75,12.68,12.68,0,0,0,7.56-1l0.83-.32,1.53,1.34c2.26,2,3.42,2.42,6.94,2.69a10.87,10.87,0,0,0,3.52-.12c2.57-.56,2.17-0.66,3.73.95a9.6,9.6,0,0,0,7.26,2.8,11.77,11.77,0,0,0,4.92-1.05c0.92-.33,1-0.33,1.43,0a9.16,9.16,0,0,0,1.48.83l1.58,0.71A8.86,8.86,0,0,0,122.3,126ZM100,123a1.72,1.72,0,0,0-1-.65c-0.79,0-1.48.23-1.4,0.45a7.65,7.65,0,0,0,2.86.94A1,1,0,0,0,100,123Zm-13.87-3.54a1.41,1.41,0,0,0-1.65-.55c-0.87.4-.11,0.86,1.53,0.93C86.58,119.84,86.58,119.84,86.17,119.45Zm-14.63-1.12c0-.36-1.08-0.81-1.65-0.69-0.74.16-.7,0.64,0.05,0.74C71.09,118.52,71.54,118.51,71.54,118.32Zm-15.64-6c-1-.7-1.16.05-0.27,1.24l0.61,0.81,0.07-.86A1,1,0,0,0,55.9,112.35Zm71.2-9.63a0.5,0.5,0,0,1,.42,0c0.18,0.06.12,0.11-.13,0.12S127,102.78,127.09,102.72Z" transform="translate(0.5 3.12)"/><path class="f" d="M41.15,186.53a5,5,0,0,0-1.54-1.78m-6.8-7.53a6.78,6.78,0,0,1,1.57-.6,7,7,0,0,0,1.57-.57,6.53,6.53,0,0,1,1.64-.57c0.49,0,1.06.52,2.08,1.91l2.24,3.06c3.66,5,8.29,13.08,9.91,17.3l0.81,2.1a62.77,62.77,0,0,1,3.62,14.81m-8.51-17.59,1,2.39m7.54,25.23a46.78,46.78,0,0,0-.36-8.32c-0.26-2.16-.56-4.39-0.67-5l-0.54-2.77a74.05,74.05,0,0,0-2-7.17c-0.18-.58-0.64-1.78-1-2.68l-1.23-2.91a99.89,99.89,0,0,0-5.68-10.37c-2.14-3.26-2.13-3.24-3.64-5.35-2.26-3.14-3.28-4.3-3.79-4.3A4.23,4.23,0,0,0,35.1,177a13,13,0,0,0,2,3.08c1.82,2.42,4.95,6.87,4.95,7s0.42,0.68.94,1.45m5.45,11.62c-0.26-.58-0.65-1.52-0.88-2.1s-0.72-1.64-1.09-2.36c-0.78-1.5-1-1.5-1.69,0m24.92,29.79a87.16,87.16,0,0,0-.79-30.23l-0.76-3.62c-0.18-.83-0.48-2-0.67-2.68s-0.44-1.6-.56-2.12c-0.19-.89-2.58-7.51-3.53-9.8a8.24,8.24,0,0,1-.42-1.16,2.38,2.38,0,0,1,.94-0.52,6.66,6.66,0,0,1,2.88-.33,14.31,14.31,0,0,0,4.07-.46C72,174.3,73.26,174,73.61,174a3.79,3.79,0,0,0,1.43-.73,14.86,14.86,0,0,1,3.68-2,4.35,4.35,0,0,0,1.33-.84,4.1,4.1,0,0,1,1.14-.79,23.14,23.14,0,0,0,3-2.32,16.69,16.69,0,0,1,2.6-2,1.36,1.36,0,0,1,.69.39A7.19,7.19,0,0,0,91.19,167c1.82,0.15,1.9.33,0.88,2a31,31,0,0,1-7.87,8.37,41.8,41.8,0,0,1-11.71,5.76,4.86,4.86,0,0,0-1.7.69,7.89,7.89,0,0,0,.68,3c0.17,0.15,1.52-.22,4.21-1.15a43.71,43.71,0,0,0,7.88-3.76l2-1.21a13.77,13.77,0,0,0,1.63-1.16,9.1,9.1,0,0,1,1-.77,28.69,28.69,0,0,0,3.74-3.59c0.29-.39.82-1.05,1.17-1.48s0.9-1.17,1.23-1.66a2.39,2.39,0,0,1,1.32-1.09c0.49-.14,4.33-0.18,12.15-0.12l16.28,0.1c4.91,0,6.51.14,6.65,0.5a18.44,18.44,0,0,1-2.41,2.77,74.58,74.58,0,0,0-5.5,6.3l-1,1.3a5,5,0,0,0-.67.95,3.67,3.67,0,0,1-.52.81,63.37,63.37,0,0,0-5,8.14,3.72,3.72,0,0,1-.45,1,46.4,46.4,0,0,0-3.45,8.59M97.56,214.5l-1,.06-0.27,1.15c-0.15.63-.38,2-0.52,3.06M72,229.14a79,79,0,0,0,1.38-8.84,153.11,153.11,0,0,0,0-18.64c-0.16-1.42-.32-2.88-0.36-3.25-0.07-.62-0.18-1.36-0.77-5.16-0.82-5.22-3.41-14.32-4.8-16.82l-0.58-1.05H65.54a2.62,2.62,0,0,0-1.63.33c-0.39.34-.41,0.29,1.7,5.88A84.07,84.07,0,0,1,70,198.31a74.88,74.88,0,0,1,1.33,11.8c0,3.21-.4,10.64-0.68,12.67a54.55,54.55,0,0,1-.89,5.49,2.19,2.19,0,0,0-.09,1.1,2.16,2.16,0,0,0,1.13.2c0.82,0,1-.07,1.17-0.43h0Zm22.79-9.41,0-.57-2.59,0a19.91,19.91,0,0,1-2.81-.16,5.4,5.4,0,0,1-.23-2.07,7.73,7.73,0,0,0-.21-2.23c-0.17-.24-0.91-0.29-4.35-0.29H80.46l-0.05,1.91c-0.09,3,.23,2.75-3.3,2.81l-3,.05-0.16.57a16.18,16.18,0,0,0-.36,4.82c0.15,0.16,1.23.25,3.44,0.29l3.23,0.05L80.3,227m2.64-2.72-1.27-.07v-4.58l3.14,0.05,3.14,0.05L88,221.8a5.25,5.25,0,0,1-.19,2.34C87.56,224.41,86.17,224.44,82.94,224.27Zm26.79-19.06c-0.12-.28-2.17-0.48-4.88-0.49-1.41,0-1.85.06-1.95,0.28s1,1.71,3.09,3.92m4-5.5a7,7,0,0,0,1.13-2.55c0.73-2.35.82-2.95,0.47-3.13a31.72,31.72,0,0,0-3.54-.17c-2.8-.05-3.39,0-3.74.25a17.71,17.71,0,0,0-2.19,5.11c0,0.69.6,0.81,4.21,0.83C109.13,203.76,109.65,203.71,110,203.43Zm-4.53-2a5.68,5.68,0,0,1-1.15-1.2,9.81,9.81,0,0,1,2.77-1.67l0.68-.3,1.25,1.09a6.28,6.28,0,0,1,1.25,1.29,10.05,10.05,0,0,1-3.27,1.8A4.56,4.56,0,0,1,105.5,201.41Zm6.95-4.77a22.76,22.76,0,0,0,1.24-2.51c0.8-1.77,1-2.33.76-2.54s-1-.26-3.68-0.21l-3.43.05-0.48.62a16.69,16.69,0,0,0-1.29,2.44c-0.66,1.47-.76,1.88-0.55,2.11C105.38,197,112.1,197,112.45,196.64ZM108,195l-1.09-1,0.59-.42c0.32-.23,1.05-0.67,1.62-1,0.93-.5,1.08-0.53,1.52-0.29,0.76,0.42,2.15,1.86,2,2.07a16.1,16.1,0,0,1-3.32,1.55A5.34,5.34,0,0,1,108,195Zm-33.11-.58c1.08-.31,8-3.17,9.32-3.85a55.6,55.6,0,0,0,8.05-5,66,66,0,0,0,6.91-6.05l0.62-.72h7c7,0,7,0,7.55-.43a55.87,55.87,0,0,0,4.39-6c0.69-1.17,1.1-1.13-11.5-1.18l-11.45,0-0.78.59a2.32,2.32,0,0,0-.78.81c0,0.34-1.45,2.14-3.12,3.88a38,38,0,0,1-10.43,7.32A43.5,43.5,0,0,1,73,186.85,1.34,1.34,0,0,0,71.86,188c0,0.12.18,0.82,0.32,1.56a36.4,36.4,0,0,0,1,4.89C73.37,194.65,74,194.63,74.86,194.37Zm0-2.53a3.29,3.29,0,0,1-1.28-.92,2.61,2.61,0,0,1,.35-1.14,9.07,9.07,0,0,0,.57-1.35,0.74,0.74,0,0,1,.3-0.52,9.31,9.31,0,0,1,1.37.72c1.06,0.62,1.22.8,1.28,1.42,0.08,0.82-.66,2.45-1.1,2.42A7.81,7.81,0,0,1,74.84,191.84Zm5.88-2.36c-1.27-.37-1.38-0.63-1-2.45s0.45-1.88,2.2-1.37l1.43,0.42-0.07,1.53a12.88,12.88,0,0,1-.18,1.86Q82.87,190.1,80.73,189.48ZM87,186.09a5.1,5.1,0,0,1-1.4-.45c-0.31-.27.23-2.64,0.73-3.17,0.35-.37.44-0.38,1.44-0.15,1.63,0.38,1.75.54,1.43,2.07-0.28,1.31-.58,2-0.86,2Zm5.51-4.2a5.17,5.17,0,0,1-1.4-.45,4.12,4.12,0,0,1-.15-1.85c0.09-1.89.26-2.09,1.62-1.91,1.64,0.22,2,.45,2.15,1.58a6.53,6.53,0,0,1,0,1.91c-0.2,1-.4,1.1-2.22.71h0Zm5.25-4.77-1.65-.81,0.06-1.47q0.1-2.42.76-2.42a8.83,8.83,0,0,1,1.8.88l1.51,0.88-0.15,1.65a5,5,0,0,1-.41,1.88C99.46,177.88,99,177.75,97.75,177.12Zm5.77-.77c-1.43-1.19-1.42-1.28.15-2.86a4.72,4.72,0,0,0,.9-1.09c0-.49.7,0,1.84,1.16,0.9,1,1.23,1.44,1.14,1.7a8.08,8.08,0,0,1-2.55,2.12A6.31,6.31,0,0,1,103.52,176.35Zm7.25-.24c-0.67-.79-0.88-1.19-0.78-1.48a9.62,9.62,0,0,1,2.47-2.55c0.6-.2,2.82,2.28,2.56,2.87a11.26,11.26,0,0,1-3,2.25A3.7,3.7,0,0,1,110.77,176.11ZM115,190.64c0.48-.16,3-4.58,2.94-5.11-0.06-.36-0.23-0.42-1.39-0.47-1.51-.07-2.75.09-2.75,0.35a5.55,5.55,0,0,0,.88,1.19,4,4,0,0,1,.88,1.34c0,0.36-1.79,1.6-2.59,1.79a1.17,1.17,0,0,1-.86-0.14,6.06,6.06,0,0,1-1.61-2,4.83,4.83,0,0,1,1.54-1.14,6.64,6.64,0,0,0,1.54-1c0-.31-1.67-0.62-2.34-0.43-0.51.14-.86,0.56-1.78,2.08-1.46,2.41-1.8,3.3-1.37,3.54A41.68,41.68,0,0,0,115,190.64ZM119.2,184a6.79,6.79,0,0,0,.8-1c0.27-.4.84-1.16,1.25-1.71,1.14-1.47,1-1.68-1.21-1.75-1.66-.05-1.81,0-1.81.31a2.49,2.49,0,0,0,.66,1.08c0.53,0.58.61,0.79,0.43,1.09a8.86,8.86,0,0,1-2.82,1.69,5.32,5.32,0,0,1-1.78-2.08,2.62,2.62,0,0,1,1.11-1,2.32,2.32,0,0,0,1-.86,1.9,1.9,0,0,0-1.08-.26c-1.32-.08-1.82.32-3.15,2.5s-1.43,2.25,2.9,2.22C118.08,184.23,119,184.17,119.2,184Zm-46.39-1.72c0.84-.3.87-0.53,0.3-2.1-0.23-.62-0.64-1.82-0.91-2.67-0.81-2.5-.77-2.45-2.16-2.33s-1.68.31-1.61,1.21,2,5.86,2.4,6.14S71.53,182.7,72.81,182.24Zm3-1a2.15,2.15,0,0,0,.87-0.56,39.57,39.57,0,0,0-2.3-6c-0.42-.69-2.19-0.39-2.19.37a37.74,37.74,0,0,0,2.14,6.26C74.74,181.66,74.88,181.66,75.82,181.27Zm47.56-2.91a15.88,15.88,0,0,0,1.54-1.72,40.61,40.61,0,0,1,2.86-3.07c1.62-1.55,1.91-2,1.49-2.2a57.27,57.27,0,0,0-8.38-.11c-0.73.34-5.3,6.33-5.3,6.94a0.46,0.46,0,0,0,.28.4,36,36,0,0,0,3.72.06C122.08,178.63,123.11,178.55,123.37,178.36Zm-4-2c-0.15-.34,2.19-3.44,2.81-3.73a6.28,6.28,0,0,1,3,.22c0.18,0.25-.43,1.11-1.76,2.51l-1.23,1.29h-1.32C119.87,176.62,119.5,176.54,119.4,176.32ZM121,188.46a13.65,13.65,0,0,0,1-1.43c0-.22,3.89-5.24,5.37-6.92l2-2.3c0.72-.84,4.39-4.67,5.2-5.43l2.18-2.1c0.79-.77,1.91-1.78,2.49-2.25l1.06-.85,3.19,0m-1.36,2.72c2.12-1.8,2.2-1.89,1.78-2.16a3.24,3.24,0,0,0-2-.15,10.14,10.14,0,0,0-1.89.28,117.2,117.2,0,0,0-9.28,8.89,90.9,90.9,0,0,0-9.35,11.74M113,134.9a2.27,2.27,0,0,0-.92,0,19.81,19.81,0,0,1-4.6-.7,15.35,15.35,0,0,0-2.14-.36,4,4,0,0,1-1-.17c-0.28-.09-1.1-0.32-1.83-0.51-1.39-.36-6.64-2.09-8.7-2.86a78.78,78.78,0,0,0-19.69-3.9,114.91,114.91,0,0,0-11.73.27c-1.27.13-1.4,0.1-1.93-.36a1.48,1.48,0,0,1-.57-1.35c0-.78-0.09-0.92-1-1.55-1.19-.85-1.33-1.18-1-2.37l0.25-.92-2.07-3.42c-1.14-1.88-2.5-4.15-3-5-1.64-2.79-3.65-6.16-4.49-7.49a13,13,0,0,1-.8-1.39,0.67,0.67,0,0,1,.5-0.09c0.41,0,.74.44,1.93,2.53l1.43,2.52,1.43,0.1c2,0.14,2.55.51,3.19,2.29l0.24,0.67,1.23-.06c1.49-.08,2.44.29,2.95,1.15a2.18,2.18,0,0,1-1.4,3c-0.94.32-.43,1.06,1,1.49a10.61,10.61,0,0,0,2.26.22,6.7,6.7,0,0,0,2.94-.56c1.45-.57,1.92-1.16.93-1.16a3.13,3.13,0,0,1-2.81-2.73c0-1.39.73-2.08,2.51-2.33l0.85-.12-0.14-1A2.5,2.5,0,0,1,68,105.9c2-1.26,4.74-.19,5,2a2.33,2.33,0,0,1-.11,1.18c-0.3.5-.11,0.84,0.46,0.84A4.48,4.48,0,0,1,75.94,111c0.95,1.53-.57,3.45-2.73,3.45-0.51,0-.8.09-0.8,0.25,0,1.05,4.6,2.56,7,2.31,1.35-.14,3.08-0.72,3.08-1a2.07,2.07,0,0,0-1-.61,2.42,2.42,0,0,1-1.68-1.86,3.86,3.86,0,0,1,.36-1.17c0.45-1,1.28-1.37,2.68-1.3l1,0.06,0-.67a2.51,2.51,0,0,1,1.14-2.39,2.82,2.82,0,0,1,2.18-.55c2,0,3,.74,3.29,2.21a1.52,1.52,0,0,1-.45,1.37,3.21,3.21,0,0,0-.57.92,2.21,2.21,0,0,0,1,.58c2.46,0.94,1.9,3.64-.85,4.12-0.89.16-.95,0.4-0.24,1a9.36,9.36,0,0,0,7.23,1.66c1-.31,1.29-0.85.46-1a3.33,3.33,0,0,1-1.25-.8,1.62,1.62,0,0,1-.59-1.8,2,2,0,0,1,2.24-2.18c1.29,0,1.46-.16,1.46-1,0-1.58,1.43-2.68,3.5-2.68,2.46,0,4.19,2.32,3.05,4.11-1,1.54-1,1.48-.5,1.7a6.8,6.8,0,0,1,1,.72,1.45,1.45,0,0,1,.61,1.41,2.44,2.44,0,0,1-2,2.52c-1.3.4-1.32,0.69-.09,1.41a8.83,8.83,0,0,0,5.14,1.08c1.92-.11,2.74-0.39,2.64-0.87a1.22,1.22,0,0,0-.83-0.5,4.92,4.92,0,0,1-1.62-.94,1.49,1.49,0,0,1-.76-1.8,1.75,1.75,0,0,1,.85-1.62,2,2,0,0,1,1.89-.47c1.25,0.11,1.48,0,1.1-.78-0.52-1,.86-2.92,2.34-3.26a3.13,3.13,0,0,1,3.34,1.3,2.52,2.52,0,0,1,.13,2.7c-0.5.83-.44,1.06,0.31,1.31,1.06,0.35,1.56,2.32.89,3.45a2.62,2.62,0,0,1-2.31,1.13c-1.44.15-1.32,0.41,0.44,1a6.74,6.74,0,0,0,3.32.59c1.06-.13,3.09-1,3.23-1.36a0.85,0.85,0,0,0-.59-0.57,2.2,2.2,0,0,1-.26-3.56,3.54,3.54,0,0,1,2.38-.23c0.26,0.22.73-.31,0.73-0.82a5.88,5.88,0,0,1,1.37-2.31l1.25-.35,1.19-.34,3.6-5.62c2-3.09,3.6-5.77,3.6-6s0.18-.34.88-0.34h0.88l-0.68,1-0.87,1.29c-0.11.16-.78,1.23-1.5,2.39l-1.85,3-1.21,1.91c-0.36.58-.87,1.35-1.12,1.72a6.46,6.46,0,0,0-.69,1.46,13.13,13.13,0,0,1-2.66,4.11,8.4,8.4,0,0,0-1.2,1.46,8.21,8.21,0,0,1-.68,1,2.61,2.61,0,0,0-.42.76,2.5,2.5,0,0,1-.43.76,5.55,5.55,0,0,0-.65,1.14,8.18,8.18,0,0,1-1,1.61c-0.62.73-.63,0.77-0.28,1.24a2.19,2.19,0,0,1,0,2.47c-0.37.36-.38,0.43-0.06,1a2.44,2.44,0,0,1-1.08,3.42,7.77,7.77,0,0,1-3.25.62A37.13,37.13,0,0,1,113,134.9Zm3.11-8.1a0.47,0.47,0,0,0,.35-0.35c0-.35-1.94-1.49-2.52-1.49-0.86,0-3.42.83-3.42,1.1s0.4,0.53,2.4.67C115.75,126.93,115.74,126.93,116.12,126.8Zm7.33-1a2.28,2.28,0,0,0,.75-0.8c0.26-.61-0.29-0.74-1.37-0.31-2.29.9-6.35-.12-7.38-1.86a2.74,2.74,0,0,1,.93-3.13c1.18-1,.86-2-0.74-2.3a1.23,1.23,0,0,0-1.25.37,1,1,0,0,0-.36,1.51,4,4,0,0,1-1,3.41c-0.83.65-3.07,1-5.07,0.82-2.61-.24-6.62-2.49-6.94-3.89a3.08,3.08,0,0,1,1.3-2.79c1.24-.82.91-1.86-0.68-2.12a1.87,1.87,0,0,0-1.3.18c-0.47.27-.53,0.44-0.51,1.5A3.67,3.67,0,0,1,98,119.79c-0.74.49-1,.54-3.06,0.6a7,7,0,0,1-3.21-.31c-2-.79-4.81-3.44-4.81-4.54a4.3,4.3,0,0,1,.93-2.2,0.9,0.9,0,0,0,.27-0.82,2.34,2.34,0,0,0-2.19-.81c-1,.16-1.29.53-1.11,1.3,0.48,2,.45,2.11-0.59,2.95-1.52,1.21-3.11,1.67-5.89,1.68-2.11,0-2.42,0-3.48-.53-3.7-1.68-4.76-3.26-3.55-5.31,0.56-1,.41-1.43-0.58-1.79-1.16-.42-2.29.1-2.29,1.05a1,1,0,0,1-.5.81c-0.46.27-.47,0.3-0.09,0.43a0.49,0.49,0,0,0,.58-0.1c0.26-.36.66,0.39,0.66,1.24,0,1.25-.75,2.09-2.81,3.13a8.28,8.28,0,0,1-5.58.69c-2.48-.53-4.34-2.18-4-3.57a1.48,1.48,0,0,0-1.8-1.8c-0.51.17-.39,0.69,0.44,1.94,0.42,0.63,1.05,1.67,1.4,2.3a6,6,0,0,0,1.32,1.66,9.38,9.38,0,0,0,4.88,1,9.76,9.76,0,0,0,5.62-1.44l1.61-.94,1,0.58a15.86,15.86,0,0,0,5.65,1.93c2.63,0.46,3.66.37,6.64-.64l1.69-.57L86.58,119c2.09,1.85,3.64,2.43,7,2.64a11.75,11.75,0,0,0,5.28-.51,1.25,1.25,0,0,1,1.1.59c2,1.94,2.77,2.46,4.5,3a9,9,0,0,0,3.72.56,9.21,9.21,0,0,0,3.82-.66c1.49-.52,1.91-0.6,2.2-0.41a7.93,7.93,0,0,0,.91.46c0.3,0.13,1,.47,1.58.77a8.24,8.24,0,0,0,4.55.83A4.31,4.31,0,0,0,123.45,125.84Zm-22.51-1.78c0.18-.25-0.38-1.15-1.08-1.72s-0.63-.46-1.62-0.23c-1.94.45-1.84,0.71,0.63,1.55C100.74,124.3,100.76,124.3,100.93,124.06ZM87,120a3.39,3.39,0,0,0-1.79-1.49,1.6,1.6,0,0,0-1.51.79c0,0.24.27,0.4,0.94,0.55l1.16,0.28A1.16,1.16,0,0,0,87,120ZM72.2,118.44a4,4,0,0,0-2.06-1.27,2,2,0,0,0-1.4,1C68.92,118.66,72.2,118.9,72.2,118.44Z" transform="translate(0.5 3.12)"/><path d="M45.12,194.63,42,190a1.35,1.35,0,0,1,1.14-.68m0.16,1.39M69,229.63c2.81,0,2.84,0,3.26-.45a6.82,6.82,0,0,0,.8-2.39l0.37-1.9H80l0.11,2.25M82,224.08c-0.35-.08-0.39-0.31-0.33-2.22l0.06-2.14h5.95L87.79,222l0.06,2.25-2.7,0C83.66,224.18,82.26,224.13,82,224.08Zm14.58-9.61c-0.31.17-.81,2.22-0.85,3.44,0,0.71-.47,1.45-0.74,1.21a16.53,16.53,0,0,0-2.86-.15h-2.7l-0.16-2.18c-0.1-1.44-.25-2.24-0.44-2.34-0.59-.33-8.34-0.24-8.6.1a2.48,2.48,0,0,0-.15,1.08c0,0.47,0,1.4,0,2.05l0,1.19H77.19a30.26,30.26,0,0,1-3-.08,15.91,15.91,0,0,1,.11-2.44c0.19-2.19.22-8.71,0-10.67a18.63,18.63,0,0,0-.33-2,70.3,70.3,0,0,1-1-8.05c0.11-.26.91-0.6,3.26-1.42,1-.34,2.21-0.82,2.75-1.07s1.64-.73,2.42-1a56.45,56.45,0,0,0,17.45-12l1-1,6.77,0c3.72,0,6.94,0,7.14.14s0.24,0.35-.71,1.75c-3.17,4.67-8,13.4-8.61,15.49a6.71,6.71,0,0,1-.57,1.34,30,30,0,0,0-2,5.09,1.72,1.72,0,0,0,.21,1.28,4.3,4.3,0,0,1,.46,1,4.6,4.6,0,0,0,1,1.36c0.46,0.49,1.58,1.72,2.48,2.74m-5.22-6.08a10.43,10.43,0,0,0,1.14-2.68,38.32,38.32,0,0,1,1.47-3.82c0.37-.75.85-1.81,1.06-2.35a12.31,12.31,0,0,1,.62-1.34c0.12-.2.94-1.7,1.81-3.33a92.75,92.75,0,0,1,5-8.28,2.1,2.1,0,0,0,.46-1.15c-0.07-.42-0.09-0.42-6.2-0.47l-6.13-.05-0.69.72c-0.38.4-2,1.87-3.67,3.27A59.2,59.2,0,0,1,86.84,190a112,112,0,0,1-11,4.94,9.36,9.36,0,0,0-1.94.82c-0.3.37,0.52,6.85,0.92,7.26S100.41,203.45,100.9,203.13Zm4.67-1.79-1.28-1.09,0.58-.4a15.87,15.87,0,0,1,1.8-1l1.22-.57,1.09,1a4.61,4.61,0,0,1,1.09,1.26,10.35,10.35,0,0,1-3,1.84A8.09,8.09,0,0,1,105.57,201.34ZM34.05,177c0.47,0,.79.27,1.48,1.26,0.24,0.35,1.2,1.6,2.12,2.79,1.74,2.24,2.17,2.88,2.17,3.17a1.2,1.2,0,0,1-.72.38m67.38,12.54a1.45,1.45,0,0,1,.66,0c0.21,0,.09.09-0.27,0.1S106.35,197.19,106.49,197.14Zm2.86,0a1.45,1.45,0,0,1,.66,0c0.21,0,.09.09-0.27,0.1S109.21,197.19,109.36,197.14Zm-1.12-2.05a3.36,3.36,0,0,1-1-1.13,1.81,1.81,0,0,1,.94-0.75c0.51-.25,1.21-0.61,1.55-0.81l0.61-.35,1.1,1a4.81,4.81,0,0,1,1.1,1.16,14.4,14.4,0,0,1-3.14,1.76A9.3,9.3,0,0,1,108.24,195.08Zm-33.33-3.32a3.59,3.59,0,0,1-1.26-.75,1.77,1.77,0,0,1,.3-1,6.93,6.93,0,0,0,.57-1.33,0.79,0.79,0,0,1,.32-0.57,6.71,6.71,0,0,1,1.25.62c1,0.58,1.08.68,1.14,1.52s-0.42,2.08-.9,2A9.12,9.12,0,0,1,74.91,191.76Zm34.23-.76a9.47,9.47,0,0,1,1.54,0c0.46,0,.14.08-0.71,0.08s-1.22,0-.83-0.08h0ZM81.78,189.6c-1.72-.28-2.09-0.49-2.09-1.17a11.73,11.73,0,0,1,.53-3,6.61,6.61,0,0,1,2.77.69c0.4,0.29.41,0.43,0.2,1.84a6.16,6.16,0,0,1-.38,1.64A2.57,2.57,0,0,1,81.78,189.6Zm29.66-.87a6.87,6.87,0,0,1-.92-1.23,3.91,3.91,0,0,1,1.16-.75c0.64-.33,1.34-0.7,1.56-0.83s0.51-.12,1.27.63a3,3,0,0,1,.86,1.27c0,0.52-2.07,2-2.81,2A4.74,4.74,0,0,1,111.44,188.73Zm-25-2.83c-0.72-.2-0.88-0.33-0.85-0.7a6.3,6.3,0,0,1,.74-2.56,2.29,2.29,0,0,1,2.22,0c0.59,0.26.65,0.38,0.63,1.19a5.21,5.21,0,0,1-.29,1.57C88.53,186.18,87.89,186.31,86.4,185.9Zm29.47-2.83a8.9,8.9,0,0,1-.85-1c-0.39-.54-0.39-0.54.25-1a7.17,7.17,0,0,1,1.36-.75,1.31,1.31,0,0,0,.72-0.47c0-.42.44-0.14,1.19,0.77a5.53,5.53,0,0,1,.79,1.11,6.71,6.71,0,0,1-2.84,1.75A1.68,1.68,0,0,1,115.87,183.07Zm-23.6-1.28c-1.17-.25-1.24-0.4-1.17-2.82l0-1.19H92c1.37,0,2.46.35,2.6,0.82a9.09,9.09,0,0,1,.06,1.86l-0.07,1.43-0.77,0A7.3,7.3,0,0,1,92.27,181.78Zm-15-1a2,2,0,0,0-.29-0.72c-0.16-.26-0.77-1.7-1.36-3.19-0.91-2.31-1-2.79-.82-3.19a8,8,0,0,1,2.52-1.61,34.72,34.72,0,0,0,3.32-1.87,62.65,62.65,0,0,0,5.07-4,2.21,2.21,0,0,1,.93-0.62,4.67,4.67,0,0,1,1.29.58,8,8,0,0,0,3.93,1.09c0.94-.12,1,0.22.07,1.66a30.18,30.18,0,0,1-10.74,10.29l-2.25,1.26C77.78,181.05,77.27,181.17,77.26,180.78Zm3.54-2.18a32.9,32.9,0,0,0,9.63-8.52c1.18-1.65,1.2-2.14.1-2.45a18.09,18.09,0,0,1-2.21-.88,8.37,8.37,0,0,0-1.69-.65,5.18,5.18,0,0,0-1.48,1.08,38.69,38.69,0,0,1-7.68,5.15c-1.38.65-2,1.07-2.11,1.36a4.11,4.11,0,0,0,.42,1.72c0.3,0.71.77,1.9,1,2.63,0.56,1.51,1,2,1.51,1.87C78.53,179.86,79.65,179.27,80.81,178.6ZM97.69,177a4.88,4.88,0,0,1-1.61-1,2.13,2.13,0,0,1,.11-1.05,5.75,5.75,0,0,0,.23-1.45c0-1,.43-1.07,1.9-0.3,1.64,0.85,1.93,1.26,1.75,2.41-0.29,1.79-.4,2.15-0.64,2.13A12,12,0,0,1,97.69,177Zm5.94-.72a3.14,3.14,0,0,1-1-1.24,4.32,4.32,0,0,1,1.13-1.47l1.22-1.18c0.17-.18,2.48,2.21,2.49,2.58a5.43,5.43,0,0,1-2.42,2.19A4.4,4.4,0,0,1,103.64,176.32Zm7.33-.1a3.53,3.53,0,0,1-.89-1.39,2.71,2.71,0,0,1,.83-1.21c0.45-.44,1-0.93,1.11-1.1,0.47-.5,1-0.33,1.87.62,1.35,1.45,1.33,1.64-.3,2.92a11.43,11.43,0,0,1-1.57,1.12A4.74,4.74,0,0,1,111,176.22Zm9,0.27c-0.61-.14-0.47-0.46.9-2.18l1.29-1.61h1.38a4.62,4.62,0,0,1,1.48.14c0.18,0.25-.8,1.67-1.79,2.58a5.85,5.85,0,0,0-1,1.05A5.43,5.43,0,0,1,119.93,176.49Zm-6.44-41.65a33.52,33.52,0,0,1-6.35-.83,4.42,4.42,0,0,0-1.16-.21,50.12,50.12,0,0,1-8.8-2.48c-4-1.4-7.86-2.62-9.13-2.87-0.42-.08-1.51-0.32-2.42-0.54-7.26-1.7-13.57-2.11-22.61-1.49l-2.24.15-0.46-.65a1.46,1.46,0,0,1-.34-1.22c0.11-.51,0-0.67-1-1.46l-1.16-.89,0.28-1.46c0.28-1.43.27-1.48-.28-2.34-0.7-1.09-.72-1.41-0.07-0.87,0.84,0.69,2.09,1,4.33,1.13a10.4,10.4,0,0,0,7-1.61c1-.59,1.2-0.64,1.51-0.42a16.52,16.52,0,0,0,5.82,2.13,11.94,11.94,0,0,0,6.76-.42c1.8-.63,2.49-0.71,2.49-0.3,0,0.17-.15.23-0.41,0.17-0.68-.16-1.83.47-1.75,0.95s0.35,0.48,1.5.75c1.78,0.41,2.2.42,2.2,0.06s0.27-.36.95,0.1a10.65,10.65,0,0,0,5.41,1.51,9.4,9.4,0,0,0,4.09-.2l1.58-.4,1.53,1.38c3.39,3.05,7.48,3.7,12.06,1.91,0.93-.36,1.11-0.38,1.43-0.14a20.55,20.55,0,0,0,2.08,1.06,8.71,8.71,0,0,0,3.5,1c2.29,0.21,3.7,0,4.36-.77,0.45-.49,1.1-0.71,1.1-0.37a3,3,0,0,1-.55.8c-0.63.74-.7,1.29-0.23,1.83a1.71,1.71,0,0,1,0,2c-0.32.31-.34,0.47-0.11,1.21,0.49,1.59.16,2.59-1,3.18a13.76,13.76,0,0,1-3.66.69c-0.24,0-1,0-1.76.08S115.19,135,113.49,134.84Zm8.24-.74c1.5-.28,2.2-0.78,2.21-1.56s-0.47-.9-2.58-0.57a40,40,0,0,1-5.87.31,34.34,34.34,0,0,1-6.94-.49,55.08,55.08,0,0,1-9.71-2.39c-4.81-1.6-6.77-2.19-10.46-3.12-2.05-.52-3.22-0.74-8.26-1.55a62.06,62.06,0,0,0-13.27-1c-4.38.05-5.32,0.11-5.78,0.38a0.86,0.86,0,0,0-.16,1.51c0.35,0.27.72,0.29,3.25,0.1a86.38,86.38,0,0,1,19,1A104.92,104.92,0,0,1,95,130a66.2,66.2,0,0,0,15.85,4.11A59.55,59.55,0,0,0,121.73,134.1ZM120,130.34c3.15-.38,3.74-0.65,3.74-1.69,0-.49-0.37-0.5-2.24-0.09a27.5,27.5,0,0,1-5.25.33,28.74,28.74,0,0,1-6.94-.52c-1.79-.32-5-1.11-7.6-1.88l-5.51-1.62c-0.55-.16-1.75-0.53-2.69-0.84a14.63,14.63,0,0,0-2-.56,15,15,0,0,1-1.94-.49c-2.67-.79-4.05-1-10.88-1.89a99.33,99.33,0,0,0-11.41-.68c-5.1-.13-7.58-0.12-7.87,0-0.53.25-.54,0.78,0,1.34s0.09,0.47,6.1.28a53.21,53.21,0,0,1,7,.11c1.45,0.14,3.09.26,3.63,0.27s1.49,0.09,2.09.17l3.84,0.53c1.51,0.21,2.81.42,2.9,0.46a17.08,17.08,0,0,0,1.77.35,75.86,75.86,0,0,1,9.88,2.87,75.22,75.22,0,0,0,9.52,2.9,44.81,44.81,0,0,0,4.51.8A62.37,62.37,0,0,0,120,130.34Zm-3.35-3.81c0.08-.36-2.09-1.71-2.74-1.71a11.1,11.1,0,0,0-2,.48l-1.57.48c-0.19,0,0,.58.22,0.7a15.9,15.9,0,0,0,4.35.37C116.22,126.83,116.58,126.76,116.63,126.52ZM101.22,124a4.85,4.85,0,0,0-1.92-2.09c-0.53-.18-2.55.45-2.55,0.79s3.74,1.76,4.18,1.65A0.47,0.47,0,0,0,101.22,124Zm-28.84-5.54a2.14,2.14,0,0,0-1.1-1c-1-.52-1.07-0.53-1.67-0.27-0.89.4-1.28,0.84-1,1.11a6.76,6.76,0,0,0,2.87.51C72.36,118.89,72.44,118.85,72.38,118.47Zm46.38,6.25c-2-.55-3.39-1.58-3.39-2.53a3.1,3.1,0,0,1,1-2.29,1.94,1.94,0,0,0,.84-1.83,2.83,2.83,0,0,0-2.28-.72c-0.77.18-1.45,1.2-1.13,1.71s0.3,1,0,2.29-1.14,1.8-3.26,2.11a10.87,10.87,0,0,1-8.54-2.73c-1.36-1.28-1.22-2.39.45-3.76,1-.79,1-1.07.38-1.77a1.59,1.59,0,0,0-1.51-.5c-1.4,0-1.88.43-1.68,1.5a3.74,3.74,0,0,1-2.85,4,11.81,11.81,0,0,1-5.08-.24,15.13,15.13,0,0,1-3.9-3,1.92,1.92,0,0,1-.53-1.85,2.29,2.29,0,0,1,.56-1.45,1,1,0,0,0,.29-1.37A2.74,2.74,0,0,0,85,112a1,1,0,0,0-.11,1.53,2.2,2.2,0,0,1,.32,1c0,1.77-5,3.61-8.27,3a10.86,10.86,0,0,1-3.54-1.36c-0.54-.39-0.14-0.39.73,0a11.51,11.51,0,0,0,7.73.5c1.17-.42,1.22-0.87.13-1.22-1.67-.52-2.24-1.68-1.54-3.13,0.37-.78,1-1.07,2.57-1.14l1.21-.05,0-1.13c0-1,.09-1.18.66-1.59a3.69,3.69,0,0,1,3.1-.83c2.07,0.34,3.18,2.21,2.06,3.45-0.7.78-.56,1.19,0.61,1.72s1.7,1.41,1.32,2.35a3.94,3.94,0,0,1-2.42,1.58,1.59,1.59,0,0,0-.74.31c-0.24.33,1.1,1.32,2.69,2a6.44,6.44,0,0,0,3.26.65c2,0,3.29-.38,3.18-0.9a0.63,0.63,0,0,0-.54-0.4,3.16,3.16,0,0,1-1.21-.73,1.53,1.53,0,0,1-.7-1.64A2.17,2.17,0,0,1,98,113.7c0.93,0,1.38-.41,1.17-1.16-0.3-1.06,1.65-2.63,3.27-2.63a3.65,3.65,0,0,1,3,1.6c0.7,1.25.55,2-.7,3.63-0.23.3-.21,0.39,0.14,0.57,1.22,0.64,1.66,1.12,1.8,1.94a1.65,1.65,0,0,1-.34,1.53,3,3,0,0,1-2.2,1.25c-0.61,0-.81.5-0.36,0.93a10.13,10.13,0,0,0,4.06,1.57,7.51,7.51,0,0,0,2.92,0c2.28-.37,2.62-1.08.78-1.62a4.18,4.18,0,0,1-2.15-1.47,2.41,2.41,0,0,1,.72-2.48,2.15,2.15,0,0,1,2.17-.58c0.93,0.3,1.09.12,1-1.08a1.8,1.8,0,0,1,.55-1.89,3,3,0,0,1,4.76,0,2.66,2.66,0,0,1,.22,2.88c-0.49.56-.39,1,0.28,1.29a2.27,2.27,0,0,1,1,1.17,1.56,1.56,0,0,1,.12,1.71,2.51,2.51,0,0,1-2.37,1.58c-0.66-.14-1.36,0-1.36.36s2.68,1.28,4.13,1.39a5,5,0,0,0,2.49-.33c1.6-.58,2.15-1,1.76-1.42a1,1,0,0,0-.58-0.3c-1,0-1.29-2.48-.33-3.31a2.19,2.19,0,0,1,1.79-.38c1.1,0,1.31,0,1.32-.29a3.92,3.92,0,0,1,1.06-2.3c0.78-.81,2.86-1.33,3.41-0.85,0.29,0.26.24,0.44-.46,1.65-1.24,2.15-1.5,2.42-2.39,2.42-1.58,0-2.5.84-1.87,1.7,0.28,0.39-.07,1.24-0.86,2.1a6.4,6.4,0,0,1-2.43,1.44A6.62,6.62,0,0,1,118.76,124.72Zm-58.34-7.62a5.13,5.13,0,0,1-2.48-1.25,2.62,2.62,0,0,1-1.07-2,2.46,2.46,0,0,0-.11-1.14c-0.26-.81-0.89-1.12-2.15-1-0.78.05-.8,0-1.84-1.64a6.87,6.87,0,0,1-1-1.84,3.11,3.11,0,0,1,1.13-.27c1.72-.2,2.34.29,3.4,2.68,0.17,0.38.3,0.4,1.48,0.31,1.57-.12,2.1.09,2.68,1.07,0.7,1.19.13,2.37-1.37,2.87-1,.31-0.78.87,0.42,1.37a10,10,0,0,0,6.21-.11,5.43,5.43,0,0,0,1.39-.71c0.25-.34-0.24-0.71-0.94-0.71a3.17,3.17,0,0,1-2.36-1.79,2.67,2.67,0,0,1,.59-2.48,2.94,2.94,0,0,1,1.51-.51l1.05-.1v-3l0.88-.66a2.36,2.36,0,0,1,2.19-.59,2.23,2.23,0,0,1,2,.78c0.89,0.89,1.11,1.81.64,2.61s-0.16,1.12.74,1.1a2.69,2.69,0,0,1,2.57,1.59c0.35,1.39-1,2.66-2.78,2.66-1,0-1.33.37-.85,0.87a0.35,0.35,0,0,1,.14.41c-0.2.17-.78-0.3-1.15-0.92s-0.42-2.57-.08-2.76a1.26,1.26,0,0,0,.41-0.54c0.48-1.12-1.31-2.07-2.7-1.43a1.07,1.07,0,0,0-.81,1.14,0.54,0.54,0,0,1-.44.6,0.52,0.52,0,0,0-.44.53c0,0.38.08,0.41,0.75,0.32s1,0.07,1,.94c0,1.08-1.1,2.16-3.19,3.13a6.45,6.45,0,0,1-3,.69A9.13,9.13,0,0,1,60.42,117.11Z" transform="translate(0.5 3.12)"/></svg>