<svg xmlns="http://www.w3.org/2000/svg" xmlns:xlink="http://www.w3.org/1999/xlink" viewBox="0 0 167.7 243.1"><defs><style>.a{isolation:isolate;}.b,.g{fill:#fff;}.b{stroke:#000;}.c{stroke-miterlimit:10;fill:url(#a);stroke:url(#b);}.d{fill:#994105;}.e{fill:#ffe85f;}.f{fill:#f99635;mix-blend-mode:multiply;}.h{fill:#493f02;}.i{fill:#ffe471;}</style><linearGradient id="a" x1="-357.75" y1="342.9" x2="-357.75" y2="114.9" gradientTransform="matrix(-1, 0, 0, 1, -274.7, -108.5)" gradientUnits="userSpaceOnUse"><stop offset="0" stop-color="#ffd0b2"/><stop offset="0" stop-color="#f1beaa"/><stop offset="0" stop-color="#e4ada2"/><stop offset="0" stop-color="#dba29d"/><stop offset="0" stop-color="#d59b9a"/><stop offset="0" stop-color="#d49999"/><stop offset="0" stop-color="#bf8787"/><stop offset="0" stop-color="#ae7878"/><stop offset="0" stop-color="#a36e6e"/><stop offset="0" stop-color="#9c6868"/><stop offset="0" stop-color="#9a6666"/><stop offset="0" stop-color="#aa6656"/><stop offset="0.01" stop-color="#c4653b"/><stop offset="0.01" stop-color="#da6425"/><stop offset="0.02" stop-color="#eb6414"/><stop offset="0.03" stop-color="#f66309"/><stop offset="0.04" stop-color="#fd6302"/><stop offset="0.07" stop-color="#ff6300"/><stop offset="0.16" stop-color="#962626"/><stop offset="0.16" stop-color="#962525"/><stop offset="0.18" stop-color="#951414"/><stop offset="0.2" stop-color="#940909"/><stop offset="0.23" stop-color="#940202"/><stop offset="0.32" stop-color="#940000"/><stop offset="0.33" stop-color="#920000"/><stop offset="0.36" stop-color="#7c0000"/><stop offset="0.39" stop-color="#6b0000"/><stop offset="0.44" stop-color="#600000"/><stop offset="0.5" stop-color="#590000"/><stop offset="0.68" stop-color="#570000"/></linearGradient><radialGradient id="b" cx="-357.75" cy="228.9" r="97.83" gradientTransform="matrix(-1, 0, 0, 1, -274.7, -108.5)" gradientUnits="userSpaceOnUse"><stop offset="0" stop-color="#ffebab"/><stop offset="0.05" stop-color="#fbd693" stop-opacity="0.89"/><stop offset="0.15" stop-color="#f1a155" stop-opacity="0.6"/><stop offset="0.29" stop-color="#e35900" stop-opacity="0.2"/><stop offset="0.3" stop-color="#e45e08" stop-opacity="0.26"/><stop offset="0.33" stop-color="#e66b1c" stop-opacity="0.42"/><stop offset="0.36" stop-color="#e9803c" stop-opacity="0.67"/><stop offset="0.4" stop-color="#ee9b66"/><stop offset="0.49" stop-color="#ef9b63"/><stop offset="0.55" stop-color="#f09959"/><stop offset="0.62" stop-color="#f39748"/><stop offset="0.68" stop-color="#f79530"/><stop offset="0.74" stop-color="#fc9111"/><stop offset="0.76" stop-color="#ff8f00"/><stop offset="0.83" stop-color="#ff9300"/><stop offset="0.9" stop-color="#ffa000"/><stop offset="0.97" stop-color="#ffb600"/><stop offset="1" stop-color="#ffc200"/></radialGradient></defs><title>MD_card_blank_1</title><g class="a"><path class="b" d="M166.8,235.5a6.9,6.9,0,0,1-6.9,6.9H7.1a6.9,6.9,0,0,1-6.9-6.9V7.1A6.9,6.9,0,0,1,7.1.3H160a6.9,6.9,0,0,1,6.9,6.9V235.5h-0.1Z" transform="translate(0.3 0.2)"/><rect class="c" x="5.9" y="6.4" width="154.3" height="228" rx="6" ry="6"/><path class="d" d="M149.38,165.05a27.65,27.65,0,0,1-1.47,8.94q-0.23.88-.5,1.75c-6.27,20.14-28.87,39.89-39.76,48.49-3.62,2.86-5.95,4.49-5.95,4.49a192.39,192.39,0,0,1-24.62-21.09l0,0s0-16.57,0-16.57L56.62,178.56a40.3,40.3,0,0,1-2.2-7.73h0.05A27.7,27.7,0,0,1,101.63,146,27.7,27.7,0,0,1,149.38,165.05Z" transform="translate(0.3 0.2)"/><path class="e" d="M147.38,163.05a27.65,27.65,0,0,1-1.47,8.94q-0.23.88-.5,1.75c-6.27,20.14-28.87,39.89-39.76,48.49-3.62,2.86-5.95,4.49-5.95,4.49a192.39,192.39,0,0,1-24.62-21.09l0,0s0-16.57,0-16.57L54.62,176.56a40.3,40.3,0,0,1-2.2-7.73h0.05A27.7,27.7,0,0,1,99.63,144,27.7,27.7,0,0,1,147.38,163.05Z" transform="translate(0.3 0.2)"/><path class="f" d="M144.4,175.74c-6.27,20.14-28.87,39.89-39.76,48.49l-30.57-16.6,20.8-22.13,6.29-34.72Z" transform="translate(0.3 0.2)"/><path class="g" d="M117.73,188.44c0.41,0.89,1.83,2.62,1.23,4.44-0.69,2.1-2.91,2.38-2.91,3.41,0,0.51.31,2.53,0,3.35-0.75,1.77-3.42,3.44-6.54,3.74-4.45.43-11.71,1.22-28.18-1.76-0.12,0-.59,0-2.11.06-0.94,0,.51,3.88.51,3.88l-4.88.06c-7.94-8.12-16.76-20.72-21-30.94a0.86,0.86,0,0,1,.8-1.19c6.85,0.09,17.88.55,23.44,0.42,0,0-.62,1.53.65,1.5,3.68-.09,2.69.09,3,0,1.26-.2,1.43.68,3.08-3.08,3.09-7.07,5-8.16,7.64-9.93,1.38-.92,2-2.29,3-4.58a20.45,20.45,0,0,0,2.14-8c0-.6.62-2.46,1.33-2.61,1.74-.37,4.8.18,6.19,4.64a13.52,13.52,0,0,1-.17,7.1,43,43,0,0,1-3.17,6.79c-2.12,3.19.42,4,.76,4h13.08a4.39,4.39,0,0,1,2.73.72,5.68,5.68,0,0,1,2.24,4.17c-0.06,2.88-2.46,3.88-2.46,4.83,0,0.48,2.54,2.23,2.46,4.37S117.3,187.49,117.73,188.44Z" transform="translate(0.3 0.2)"/><path class="h" d="M39.15,229.46l-3.11-.4-10.8-1-7.12-.49q0-3,0-4.65,0-1.4,0-4.28,1.33-.21,2-0.35t2.68-.71q2-.57,3.45-0.91t5-1q-2.42-.71-4.16-1.29t-4-1.45q-2.22-.87-2.91-1.1t-2.1-.63q0-2.41,0-4.72,0-1.57,0-4.37,5.19,0.3,8.92.4,7.31,0.21,10,.21l2.07,0q0,2.12,0,3,0,1.23,0,3-1.39-.13-6.6-0.33t-6.67-.2l-1.76,0,6.27,2.11,8.75,3q0,2.09,0,2.87,0,1,0,3l-8.48,2-4.52,1.16-0.65.14-1.36.26,4.27,0.4,8.75,0.53,2,0q0,2.21,0,2.82Q39.12,227.41,39.15,229.46Z" transform="translate(0.3 0.2)"/><path class="h" d="M18.11,197.87q0-2.5,0-3.53,0-1.28,0-3.42l6.55,0.48q1.85,0.14,3.47.21t2.23,0.07a9.16,9.16,0,0,0,2-.18,3.07,3.07,0,0,0,1.33-.64,2.83,2.83,0,0,0,.82-1.29,5.37,5.37,0,0,0,.28-1.72,5,5,0,0,0-.2-1.44,3.36,3.36,0,0,0-.46-0.95,3.11,3.11,0,0,0-.64-0.64,4.46,4.46,0,0,0-1.1-.59,6.51,6.51,0,0,0-1.62-.38q-1-.15-4.59-0.39-3-.21-5.58-0.32a14.31,14.31,0,0,1-2.46-.18v-7.08l10.94,0.78,0.51,0a22,22,0,0,1,4.52.41,5.87,5.87,0,0,1,2.29,1.15,7.2,7.2,0,0,1,1.75,2.34,12.08,12.08,0,0,1,1.1,3.5,24.26,24.26,0,0,1,.32,4,23.76,23.76,0,0,1-.25,3.47,14.05,14.05,0,0,1-.72,2.78,10.08,10.08,0,0,1-1.1,2.15,5.51,5.51,0,0,1-1.19,1.28,4.73,4.73,0,0,1-1.46.71,7.05,7.05,0,0,1-2,.29l-1.12,0q-0.75,0-2.15-.15L27,198.33q-1-.08-2.85-0.18Z" transform="translate(0.3 0.2)"/><path class="h" d="M39.15,173.45q-3.64-.4-5.93-0.58-4.19-.34-8.33-0.51t-6.77-.17q0-2.18,0-3.86,0-1.14,0-3.27l5.58,0.39,8.72,0.48L34.55,166q0-2.76,0-3.6,0-4.22-.11-6.39l4.65,0.35q0,4.22,0,8Q39.12,169.56,39.15,173.45Z" transform="translate(0.3 0.2)"/><path class="h" d="M39.15,149.15q-7.49-.8-16.49-1L22.82,155l-1.71-.08q-1.37-.06-3-0.1,0-4.56,0-10.62l0-4v-3.85l0-2.08,1.51,0.1,2,0.09,1.2,0q-0.17,3.43-.17,5.66v1.12q2.72,0.24,5,.37,3.31,0.18,6.42.28t5,0.1q0,2.63,0,3.4T39.15,149.15Z" transform="translate(0.3 0.2)"/><path class="h" d="M39.15,133.1q-12.38-.92-19.05-0.92l-2,0q0-2.81,0-3.76,0-.43,0-3.45,3.47,0.29,6.57.47,4.32,0.23,8.07.32t6.4,0.1l0,3.29Q39.12,130.12,39.15,133.1Z" transform="translate(0.3 0.2)"/><path class="h" d="M39.15,121.9q-3.51-.35-5.63-0.48-3.14-.19-8.14-0.39-3.82-.15-5.47-0.15h-1.8q0-1.88,0-3.24t-0.07-3.45q-0.07-2.13-.07-4a25.32,25.32,0,0,1,.25-3.77,9.08,9.08,0,0,1,1-3,7.37,7.37,0,0,1,2-2.35,9.07,9.07,0,0,1,2.92-1.44,12,12,0,0,1,3.44-.5,14.36,14.36,0,0,1,3.35.39,12.18,12.18,0,0,1,2.91,1.08,9.48,9.48,0,0,1,2.23,1.61,9.36,9.36,0,0,1,1.6,2.11,9.23,9.23,0,0,1,.77,1.78,13.68,13.68,0,0,1,.45,2.46,37.32,37.32,0,0,1,.19,3.93l0,6.48Q39.1,119.85,39.15,121.9ZM34.51,115q0.08-.88.08-1.84a13.88,13.88,0,0,0-.28-2.92A4.69,4.69,0,0,0,33.12,108a5.45,5.45,0,0,0-2.34-1.44,9.37,9.37,0,0,0-2.92-.46,6.35,6.35,0,0,0-3.09.69A3.81,3.81,0,0,0,23,108.58a8.07,8.07,0,0,0-.49,3.12q0,1.16.09,2.73Z" transform="translate(0.3 0.2)"/><path class="h" d="M39.15,96.55q-2.71-.31-4.89-0.48t-5-.31q-2.87-.13-6-0.19t-5.06-.06q0-2,0-3.24t-0.07-3.13Q18,87.29,18,85.54q0-2.05.15-3.66a9.3,9.3,0,0,1,.45-2.19A6.38,6.38,0,0,1,19.44,78a5.11,5.11,0,0,1,1.09-1.12,4.58,4.58,0,0,1,1.41-.7A5.88,5.88,0,0,1,23.67,76a6.65,6.65,0,0,1,1.93.27,5.57,5.57,0,0,1,3.07,2.33,13.27,13.27,0,0,1,1.18,2.5l2-.83q0.82-.35,1.67-0.75L38,77.33l1.16-.51q0,2.65,0,3.56,0,1.15,0,3.78l-3,.93q-0.91.27-1.4,0.47-1.09.39-3.07,1.14l-4.36,1.65a9.67,9.67,0,0,0,.15-1.7,6.3,6.3,0,0,0-.34-2.13,2.84,2.84,0,0,0-1-1.44,2.59,2.59,0,0,0-1.5-.49,1.91,1.91,0,0,0-1.16.37,2.2,2.2,0,0,0-.75,1.16,8.9,8.9,0,0,0-.25,2.45q0,0.56,0,1.16t0,1.4q3.16,0.21,7.71.36t8.92,0.21q0,2.68,0,3.49T39.15,96.55Z" transform="translate(0.3 0.2)"/><path class="h" d="M39.15,76.36L36.93,75l-15-8.3-1.68-.88-2.13-1.08q0-2.82,0-4.12,0-2.26,0-4.19l6.43-2.34L36.9,49.36l2.25-.93q0,2.78,0,3.37,0,1.35,0,4-2.54.7-6,2v8.08q2.71,1.4,6,2.89,0,3,0,3.66Q39.12,73.65,39.15,76.36ZM28.68,63.94V59l-6,2Q25,62,26.4,62.79Z" transform="translate(0.3 0.2)"/><path class="h" d="M39.15,42.42L36.31,43q-1,.19-2.81.59L22,46.18l-3.88.95q0-2,0-3.28,0-1.41,0-3.28,2.51-.43,3.68-0.69L28,38.54q2-.42,4.89-0.93l-2.16-.53-7.12-1.91-5.5-1.31q0-2.2,0-3.72t0-3.71l6.49-1L32.86,24l-2.27-.63L29.4,23,27,22.22l-5.92-2-3-.91q0-1.94,0-3.21,0-1.43,0-3.19L36,19.17l3.13,1q0,2.41,0,4.2t0,4.19L37,28.93l-7.35,1.41-1.36.2-2.18.25,2.39,0.56,1.62,0.43,9,2.58q0,2.42,0,4T39.15,42.42Z" transform="translate(0.3 0.2)"/><path class="i" d="M37.15,227.46l-3.11-.4-10.8-1-7.12-.49q0-3,0-4.65,0-1.4,0-4.28,1.33-.21,2-0.35t2.68-.71q2-.57,3.45-0.91t5-1q-2.42-.71-4.16-1.29t-4-1.45q-2.22-.87-2.91-1.1t-2.1-.63q0-2.41,0-4.72,0-1.57,0-4.37,5.19,0.3,8.92.4,7.31,0.21,10,.21l2.07,0q0,2.12,0,3,0,1.23,0,3-1.39-.13-6.6-0.33t-6.67-.2l-1.76,0,6.27,2.11,8.75,3q0,2.09,0,2.87,0,1,0,3l-8.48,2-4.52,1.16-0.65.14-1.36.26,4.27,0.4,8.75,0.53,2,0q0,2.21,0,2.82Q37.12,225.41,37.15,227.46Z" transform="translate(0.3 0.2)"/><path class="i" d="M16.11,195.87q0-2.5,0-3.53,0-1.28,0-3.42l6.55,0.48q1.85,0.14,3.47.21t2.23,0.07a9.16,9.16,0,0,0,2-.18,3.07,3.07,0,0,0,1.33-.64,2.83,2.83,0,0,0,.82-1.29,5.37,5.37,0,0,0,.28-1.72,5,5,0,0,0-.2-1.44,3.36,3.36,0,0,0-.46-0.95,3.11,3.11,0,0,0-.64-0.64,4.46,4.46,0,0,0-1.1-.59,6.51,6.51,0,0,0-1.62-.38q-1-.15-4.59-0.39-3-.21-5.58-0.32a14.31,14.31,0,0,1-2.46-.18v-7.08l10.94,0.78,0.51,0a22,22,0,0,1,4.52.41,5.87,5.87,0,0,1,2.29,1.15,7.2,7.2,0,0,1,1.75,2.34,12.08,12.08,0,0,1,1.1,3.5,24.26,24.26,0,0,1,.32,4,23.76,23.76,0,0,1-.25,3.47,14.05,14.05,0,0,1-.72,2.78,10.08,10.08,0,0,1-1.1,2.15,5.51,5.51,0,0,1-1.19,1.28,4.73,4.73,0,0,1-1.46.71,7.05,7.05,0,0,1-2,.29l-1.12,0q-0.75,0-2.15-.15L25,196.33q-1-.08-2.85-0.18Z" transform="translate(0.3 0.2)"/><path class="i" d="M37.15,171.45q-3.64-.4-5.93-0.58-4.19-.34-8.33-0.51t-6.77-.17q0-2.18,0-3.86,0-1.14,0-3.27l5.58,0.39,8.72,0.48L32.55,164q0-2.76,0-3.6,0-4.22-.11-6.39l4.65,0.35q0,4.22,0,8Q37.12,167.56,37.15,171.45Z" transform="translate(0.3 0.2)"/><path class="i" d="M37.15,147.15q-7.49-.8-16.49-1L20.82,153l-1.71-.08q-1.37-.06-3-0.1,0-4.56,0-10.62l0-4v-3.85l0-2.08,1.51,0.1,2,0.09,1.2,0q-0.17,3.43-.17,5.66v1.12q2.72,0.24,5,.37,3.31,0.18,6.42.28t5,0.1q0,2.63,0,3.4T37.15,147.15Z" transform="translate(0.3 0.2)"/><path class="i" d="M37.15,131.1q-12.38-.92-19.05-0.92l-2,0q0-2.81,0-3.76,0-.43,0-3.45,3.47,0.29,6.57.47,4.32,0.23,8.07.32t6.4,0.1l0,3.29Q37.12,128.12,37.15,131.1Z" transform="translate(0.3 0.2)"/><path class="i" d="M37.15,119.9q-3.51-.35-5.63-0.48-3.14-.19-8.14-0.39-3.82-.15-5.47-0.15h-1.8q0-1.88,0-3.24t-0.07-3.45q-0.07-2.13-.07-4a25.32,25.32,0,0,1,.25-3.77,9.08,9.08,0,0,1,1-3,7.37,7.37,0,0,1,2-2.35,9.07,9.07,0,0,1,2.92-1.44,12,12,0,0,1,3.44-.5,14.36,14.36,0,0,1,3.35.39,12.18,12.18,0,0,1,2.91,1.08,9.48,9.48,0,0,1,2.23,1.61,9.36,9.36,0,0,1,1.6,2.11,9.23,9.23,0,0,1,.77,1.78,13.68,13.68,0,0,1,.45,2.46,37.32,37.32,0,0,1,.19,3.93l0,6.48Q37.1,117.85,37.15,119.9ZM32.51,113q0.08-.88.08-1.84a13.88,13.88,0,0,0-.28-2.92A4.69,4.69,0,0,0,31.12,106a5.45,5.45,0,0,0-2.34-1.44,9.37,9.37,0,0,0-2.92-.46,6.35,6.35,0,0,0-3.09.69A3.81,3.81,0,0,0,21,106.58a8.07,8.07,0,0,0-.49,3.12q0,1.16.09,2.73Z" transform="translate(0.3 0.2)"/><path class="i" d="M37.15,94.55q-2.71-.31-4.89-0.48t-5-.31q-2.87-.13-6-0.19t-5.06-.06q0-2,0-3.24t-0.07-3.13Q16,85.29,16,83.54q0-2.05.15-3.66a9.3,9.3,0,0,1,.45-2.19A6.38,6.38,0,0,1,17.44,76a5.11,5.11,0,0,1,1.09-1.12,4.58,4.58,0,0,1,1.41-.7A5.88,5.88,0,0,1,21.67,74a6.65,6.65,0,0,1,1.93.27,5.57,5.57,0,0,1,3.07,2.33,13.27,13.27,0,0,1,1.18,2.5l2-.83q0.82-.35,1.67-0.75L36,75.33l1.16-.51q0,2.65,0,3.56,0,1.15,0,3.78l-3,.93q-0.91.27-1.4,0.47-1.09.39-3.07,1.14l-4.36,1.65a9.67,9.67,0,0,0,.15-1.7,6.3,6.3,0,0,0-.34-2.13,2.84,2.84,0,0,0-1-1.44,2.59,2.59,0,0,0-1.5-.49,1.91,1.91,0,0,0-1.16.37,2.2,2.2,0,0,0-.75,1.16,8.9,8.9,0,0,0-.25,2.45q0,0.56,0,1.16t0,1.4q3.16,0.21,7.71.36t8.92,0.21q0,2.68,0,3.49T37.15,94.55Z" transform="translate(0.3 0.2)"/><path class="i" d="M37.15,74.36L34.93,73l-15-8.3-1.68-.88-2.13-1.08q0-2.82,0-4.12,0-2.26,0-4.19l6.43-2.34L34.9,47.36l2.25-.93q0,2.78,0,3.37,0,1.35,0,4-2.54.7-6,2v8.08q2.71,1.4,6,2.89,0,3,0,3.66Q37.12,71.65,37.15,74.36ZM26.68,61.94V57l-6,2Q23,60,24.4,60.79Z" transform="translate(0.3 0.2)"/><path class="i" d="M37.15,40.42L34.31,41q-1,.19-2.81.59L20,44.18l-3.88.95q0-2,0-3.28,0-1.41,0-3.28,2.51-.43,3.68-0.69L26,36.54q2-.42,4.89-0.93l-2.16-.53-7.12-1.91-5.5-1.31q0-2.2,0-3.72t0-3.71l6.49-1L30.86,22l-2.27-.63L27.4,21,25,20.22l-5.92-2-3-.91q0-1.94,0-3.21,0-1.43,0-3.19L34,17.17l3.13,1q0,2.41,0,4.2t0,4.19L35,26.93l-7.35,1.41-1.36.2-2.18.25,2.39,0.56,1.62,0.43,9,2.58q0,2.42,0,4T37.15,40.42Z" transform="translate(0.3 0.2)"/></g></svg>