<svg xmlns="http://www.w3.org/2000/svg" viewBox="0 0 167.59 246.04"><defs><style>.a{fill:#fff;stroke:#000;}.b{fill:#df0000;}.c{font-size:100px;fill:#e50000;font-family:Arial;font-weight:700;}.d{fill:#e2d200;}.e{fill:#1156a1;}</style></defs><title>QH</title><path class="a" d="M166.59,235.55a6.89,6.89,0,0,1-6.87,6.87H6.86A6.88,6.88,0,0,1,0,235.55V7.12A6.89,6.89,0,0,1,6.86.25H159.72a6.89,6.89,0,0,1,6.87,6.87V235.55Z" transform="translate(0.5 3.12)"/><path class="b" d="M129.17,26.5c-11,0-12.48,11.05-12.48,11.05S115.22,26.5,104.21,26.5c-7.71,0-14.68,5-14.68,14.3,0,12.35,22.34,24.77,27.17,42.91,4.59-18.12,27.17-30.56,27.17-42.91C143.86,31.45,136.88,26.5,129.17,26.5Z" transform="translate(0.5 3.12)"/><text class="c" transform="translate(2.63 85.79) scale(0.83 1)">Q</text><path class="d" d="M29.77,202.75c0.65-.56,2.28-2.14,3.64-3.5s-2.29,0-1-1.18l-6.23-3.83v-5.74a77.48,77.48,0,0,1,1.67-17.83A86.21,86.21,0,0,1,40.92,140a72.69,72.69,0,0,1,5.76-7.6c2.12-2.37,2.13-2.4,2.2-5.33,0.09-3.64.2-9.27,0.27-13.4a36.34,36.34,0,0,1,.18-3.82,0.92,0.92,0,0,1,.8-0.32h0.68v1.65a3.91,3.91,0,0,0,.18,1.63,9.17,9.17,0,0,0,1.36-1.59c1-1.3,1.31-1.59,1.94-1.65,0.44,0,.76,0,0.76.19,0,0.42-1.6,2.81-3.09,4.61-1.12,1.36-1.38,1.83-1.38,2.53a1,1,0,0,0,.25.86c0.52,0,3.81-4.09,5.09-6.33a13.42,13.42,0,0,1,1-1.5c0.38-.45,1.92-0.58,1.92-0.15,0,0.78-4.43,6.72-6.94,9.31-1.13,1.16-1.51,1.73-1.51,2.22,0,1.4.75,1.09,3.14-1.27,2.93-2.9,6.24-7.5,6.94-9.64,0.27-.81.36-0.88,1.15-0.87s0.93,0.11,2.72,2.72a32.66,32.66,0,0,0,10.15,9.93,40.17,40.17,0,0,0,11.3,5.22c1.71,0.47,2.64.59,2.64,0.34a4.27,4.27,0,0,0-.58-0.9,4.14,4.14,0,0,0-2.17-1.3,50.16,50.16,0,0,1-6.41-2.61,6.13,6.13,0,0,0-1-.54,45.48,45.48,0,0,1-6.39-4.44c-2.51-2.21-6.92-7.43-6.92-8.18a0.79,0.79,0,0,1,.76-0.24c0.68,0,.92.21,2.17,1.9A37.65,37.65,0,0,0,79,121c2.64,1.44,6.17,2.89,6.43,2.64s-0.94-1.8-1.8-2.14a53.58,53.58,0,0,1-6.95-3.62,33.7,33.7,0,0,1-6.41-5.94c-1.67-2.07-1.81-2.43-.92-2.43,0.55,0,.9.28,1.85,1.47a21.82,21.82,0,0,0,5.11,4.72c2.88,2.16,5.5,3.66,5.5,3.15a8.69,8.69,0,0,0-2.58-2.72,53.12,53.12,0,0,1-5.89-4.91c-1.49-1.58-1.54-1.72-.74-1.72,0.51,0,1.27.51,3.13,2.12,2.26,2,2.81,2.34,2.81,2a5.34,5.34,0,0,0-.67-1c-0.37-.48-1-1.35-1.42-1.93L75.7,109.6l30.82-.06c17,0,30.85,0,30.88,0s-0.1,1.28-.3,2.77a81.44,81.44,0,0,0,.12,16.94c1.08,8.38,2.74,14.65,5.46,20.65a9.45,9.45,0,0,1,.45,1.1c0,0.06.48,1.12,1.06,2.36a23.39,23.39,0,0,1,1.06,2.46c0,0.51-.86.74-4.47,1.2-5.14.65-12.24,2.09-12.75,2.58-0.2.19,0.46,1.08,5.25,7.09,1.49,1.87,2.92,3.67,3.17,4s2.1,2.7,4.11,5.24-1.39,2.29-1.07,2.72l1.94,2.55,1.35,1.76v38.57M39.37,212.2a9.63,9.63,0,0,0-1.79-.6M137,195.78c0-.25-1.08-1.84-4.64-6.84-1.74-2.45-3-4-3-3.74a48.74,48.74,0,0,0,2.88,7.34,4.7,4.7,0,0,0,2.93,2.92C136.6,196.14,137,196.22,137,195.78Zm-6.34-2.9c0-.08-0.62-1.69-1.37-3.59s-1.66-4.56-2-5.91a9.49,9.49,0,0,0-1.74-3.94c-1.71-2.32-1.78-2.1-.72,2.11a71.36,71.36,0,0,0,2.8,9.15,4.31,4.31,0,0,0,1.48,1.66C130.05,193,130.69,193.18,130.69,192.88Zm-4.94-3.1c0-.1-0.48-1.76-1.06-3.71-1.14-3.81-1.93-6.86-2.59-10-0.44-2.06-1.72-4.51-2.35-4.51-0.42,0-.42,0,0.12,2.49,0.25,1.16.58,2.68,0.73,3.4s0.68,2.72,1.17,4.47,1,3.55,1.07,4c0.32,1.54,1.21,3.24,1.91,3.62S125.76,190,125.75,189.78Zm-4.22-3.45c0-.05-0.42-1.72-0.94-3.71-1.59-6.1-2.12-8.69-2.27-11.17-0.14-2.24-.2-2.46-1-3.62a2.93,2.93,0,0,0-1.08-1.15c-0.42.15,0.17,6.41,0.82,8.67,0.13,0.45.35,1.46,0.49,2.24,0.46,2.54,2.29,7.72,2.94,8.3S121.53,186.59,121.53,186.33Zm-4-3.82a56.32,56.32,0,0,1-2.82-15.15,19.34,19.34,0,0,0-.2-2.76c-0.22-1.14-1.15-2.65-1.64-2.65-0.28,0-.31.63-0.18,3.82a52.15,52.15,0,0,0,1.57,11.41c0.86,3.55,1.12,4.2,2.19,5.33s1.47,1,1.09,0h0Zm-35.93-4.69a74.06,74.06,0,0,0,12-2.1c4.64-1.2,11.69-3.8,11.69-4.31a1.84,1.84,0,0,0-1.1-1.23,39,39,0,0,0-3.8,1.19,86.32,86.32,0,0,1-16.95,4.33,21.73,21.73,0,0,0-5.5,1.37c-2.06.79-2.45,1-2,1.12a4.17,4.17,0,0,0,1.27.06Zm31.48,0.28a4.46,4.46,0,0,0-.22-1c-0.58-1.75-1.47-10-1.51-13.89s0-4-.66-4.82c-1-1.27-1.2-.77-1.32,3.11-0.14,4.52.75,12.58,1.62,14.54C111.67,177.63,113.07,179,113.07,178.11Zm-42.74-.5a29.45,29.45,0,0,0,12.55-5.12c6.17-4.12,11.75-9.93,13.9-14.47l0.8-1.69-0.59-2a65.61,65.61,0,0,1-2.36-9,63.73,63.73,0,0,1-1-8.25l-0.18-2.84-1.08-1.52c-1.67-2.35-1.89-2.49-5-3.28A40.65,40.65,0,0,1,66,116.72a12.25,12.25,0,0,0-1.79-1.82,7.86,7.86,0,0,0-1.32,1.68A50.64,50.64,0,0,1,52.64,127.3l-2.06,1.53v1.72a4.43,4.43,0,0,0,.24,1.87,3.28,3.28,0,0,0,1.47-.28,9.74,9.74,0,0,1,3.22-.42,6.13,6.13,0,0,1,3.33.66,6.89,6.89,0,0,1,3.39,3.56c2,4.36,1.64,8.84-1.21,15.57-0.94,2.23-1,2.81-.3,3.55s1.37,0.72,1.37.09a2.1,2.1,0,0,1,1.85-1.43,9.27,9.27,0,0,1,2.61,1.18c2.16,1.27,2.5,1.35,3.51.83,1.25-.65,1.07-2.33-0.35-3.09-0.85-.46-1.08-1.18-0.44-1.43,1-.39,2.32,1.25,2.6,3.29a3,3,0,0,1-1.79,3.31,3.63,3.63,0,0,1-3.49-.21c-1.49-.7-2.62-0.78-2.62-0.19a3.44,3.44,0,0,0,.61,1.28c0.94,1.36.12,2-.95,0.73a12.79,12.79,0,0,0-2.55-1.78,16.22,16.22,0,0,1-2.26-1.43c-0.45-.54-0.36-2.35.16-3.46,0.91-1.92,1.68-4.09,1.51-4.26a2.91,2.91,0,0,0-1.43.63c-1.2.76-1.92,0.86-1.91,0.27a5.51,5.51,0,0,1,1.29-1.4,4.77,4.77,0,0,0,1.29-1.47c0-.42-0.17-0.42-1.38,0a10.92,10.92,0,0,1-5.77.26,4.73,4.73,0,0,0-1.69-.27c-0.41.16-.46,6.72-0.08,9.79a75.94,75.94,0,0,0,1.33,8.12c1.39,5.25,5.7,10.71,9.61,12.2C65.43,178,66.71,178.16,70.34,177.62Zm-6.65-8c-2.72-1-2.79-2.48-.08-1.66a8.1,8.1,0,0,0,5-.13c1.28-.58,1.68-0.59,1.68,0C70.32,169.45,66.28,170.55,63.68,169.62Zm-5.82-2.37a1.36,1.36,0,0,1,0-1.35,23,23,0,0,0,.45-2.29l0.18-1.29,0.95,0.07a3.25,3.25,0,0,0,2-.53,3.35,3.35,0,0,1,3.16-.32,1.11,1.11,0,0,0,1.28-.12c0.89-.52,1.25-0.5,3.44.19s2.62,0.73,3.43,0,1.11-.57,1.51,1.92c0.46,2.89.08,3.41-1.87,2.59-1.15-.48-2.27-0.44-4.33.14l-1.74.49-2.3-.52c-2.66-.6-3.23-0.53-4.4.61C58.65,167.69,58.3,167.78,57.86,167.25Zm18.51-16.91A18.54,18.54,0,0,1,71.57,146a12.21,12.21,0,0,0-1.73-1.94c-0.29,0-.55-1-0.49-1.78a6.37,6.37,0,0,0-.67-2.3,4.49,4.49,0,0,1-.57-1.83,1.41,1.41,0,0,1,1.14-.11c0.86,0.13,1.27,0,3.13-.91,3.39-1.68,4.82-2.09,6.75-1.95a11.14,11.14,0,0,1,5.9,2.26c1.84,1.3,4.78,4.47,4.78,5.14s-0.82,1.24-3,1.69c-1.14.24-2.93,0.7-4,1a15.75,15.75,0,0,1-7.29.87,5.11,5.11,0,0,0-1.67-.15,22.54,22.54,0,0,0,3.51,3.87C78.58,150.91,77.73,151.26,76.38,150.34Zm4.17-6.11c0.85-.85,1.25-1.93.87-2.31-0.17-.17-0.42.12-0.8,0.9-0.71,1.45-2,2.21-2.93,1.71a2.54,2.54,0,0,1-1.24-2.09c-0.15-.93-0.82-1.25-1.06-0.51a3.74,3.74,0,0,0,1.13,2.75,3.9,3.9,0,0,0,1.87.35A2.22,2.22,0,0,0,80.54,144.23Zm-5.77-.09a7.59,7.59,0,0,0-.41-1.18c-0.35-.85-0.5-1-1-0.94-0.94.11-.91,1.11,0.05,1.77C74.18,144.31,74.78,144.46,74.78,144.14Zm9.7-.69c0.78-.4.67-0.69-0.35-0.91a1,1,0,0,0-1.37,1.13C82.77,144.15,83.21,144.09,84.48,143.45ZM85.23,139a10.12,10.12,0,0,0-10.72-1.57c-2.57,1.17-2.28,1.58.61,0.88a14.58,14.58,0,0,1,9,.84C85.94,140.06,86.37,140,85.23,139ZM89.7,138a25.2,25.2,0,0,0-7-3.34,14.58,14.58,0,0,0-10.61.67c-2.32,1-2.93,1-3.39.18-0.61-1.14,1.32-3.27,3.84-4.23a9.67,9.67,0,0,1,4.29-.55,14.14,14.14,0,0,1,5.4.79,16.87,16.87,0,0,1,7.08,3.82c2.15,1.79,2.9,2.64,2.9,3.29S91.48,139.21,89.7,138ZM57.87,176.43c0-.36-2.1-1.38-4.38-2.12-2.49-.81-4-1-4-0.47,0,0.29,2.3,1.12,5.52,2C57.81,176.58,57.87,176.59,57.87,176.43Zm27.26-2.24a0.48,0.48,0,0,0-.16-0.94,2.35,2.35,0,0,0-1.49,1C83.47,174.5,84.57,174.48,85.12,174.19Zm3-.69c0.3-.19.29-0.33-0.05-1.06a1.72,1.72,0,0,0-.62-0.84,1,1,0,0,0-.8,1.12C87,173.68,87.49,173.92,88.16,173.5ZM108.87,172a76.58,76.58,0,0,1-.5-13.53c0.28-3,.23-3.3-0.67-4.11-0.39-.35-0.51-0.37-0.59-0.12l-0.42,1.27c-0.68,2.06-.24,14.17.57,15.77A7.34,7.34,0,0,0,109,173.4,4.74,4.74,0,0,0,108.87,172Zm-54.29.78a3.26,3.26,0,0,0-.81-1.07c-0.73-.73-0.87-0.78-1.35-0.53a1.42,1.42,0,0,0-.89,1,7.09,7.09,0,0,0,2.64.87A0.35,0.35,0,0,0,54.58,172.76Zm37.09-.11a4,4,0,0,0-.61-1.47c-0.77-1.39-1.4-1.76-1.93-1.13-0.24.29-.18,0.6,0.31,1.69,0.59,1.29.63,1.33,1.35,1.18A2.87,2.87,0,0,0,91.67,172.65Zm2.8-1.09c0.11-.57-1.84-4.66-2.22-4.66a1.54,1.54,0,0,0-.78.47c-0.55.55-.45,0.91,0.85,3.25,0.73,1.3.9,1.48,1.45,1.41A0.76,0.76,0,0,0,94.47,171.56Zm2.52-.47c0.71-.33.76-0.11-0.78-3.84-1.25-3-1.66-3.44-2.28-2.25-0.36.7-.34,0.79,0.58,3s1.53,3.36,1.76,3.36A4.39,4.39,0,0,0,97,171.09Zm3-1.19c0.34-.26.3-0.45-0.35-1.82-0.4-.84-1.16-2.54-1.7-3.76-0.74-1.71-1.08-2.24-1.42-2.24-0.73,0-.66.85,0.26,3.34,1.19,3.2,2,4.78,2.56,4.78A1.36,1.36,0,0,0,100,169.9Zm3.24-1.42c0-.36-4.33-9.27-4.7-9.67s-1,1-.87,1.56c0.06,0.29.67,1.75,1.35,3.24s1.45,3.24,1.72,3.88c0.64,1.54.95,1.79,1.82,1.49A1,1,0,0,0,103.2,168.48Zm2-3a29.94,29.94,0,0,1,.29-9.22c0.65-4,.65-4.47,0-5.23a1,1,0,0,0-.82-0.52c-0.71.44-1.55,7.21-1.43,11.45,0.08,2.91.1,3,1,4.55a2.94,2.94,0,0,0,1.1,1.41A7.65,7.65,0,0,0,105.17,165.49ZM102,159.77a60.66,60.66,0,0,1,1-8.49c0.19-.79.38-1.72,0.41-2.06,0.08-.78-0.5-1.89-0.95-1.8s-1.45,3.59-1.84,7.48l-0.37,3.65,0.61,1.37a2,2,0,0,0,.85,1.22A2.59,2.59,0,0,0,102,159.77Zm-2.58-5a37.52,37.52,0,0,1,1.29-6.71l0.72-2.07a2.24,2.24,0,0,0-1.07-1.64C100,144.31,98,150,98,151.37c0,0.81.92,3.53,1.2,3.53A0.2,0.2,0,0,0,99.45,154.72Zm-1.12-9a20.94,20.94,0,0,0,.88-3A2.63,2.63,0,0,0,98,141c-0.29,0-1.41,3.78-1.41,4.74s0.42,2.55.66,2.55A12.87,12.87,0,0,0,98.33,145.75ZM57.25,144.7c1.15-.88,1.76-3,0.76-2.6a2,2,0,0,0-.59,1,2,2,0,0,1-2.15,1.64,1.77,1.77,0,0,1-1.95-1.52c-0.36-1.06-.76-1.31-1-0.62a2.9,2.9,0,0,0,1.26,2.5A3.79,3.79,0,0,0,57.25,144.7Zm-5.26.07a2.07,2.07,0,0,0-1.08-1.4c-0.47,0-.4,1.11.09,1.39S52,145.08,52,144.77Zm8.79-.69c1.17-.5,1.33-0.8.61-1.18a1.37,1.37,0,0,0-1.85.61C59,144.69,59.19,144.77,60.78,144.08Zm35.82-3.17c0.38-1.51.33-1.91-.32-2.65l-0.58-.66v1.8C95.68,142.11,96.12,142.83,96.6,140.91ZM53.17,138.5a6.46,6.46,0,0,1,3.36-.45,14,14,0,0,1,2.94.64,17.25,17.25,0,0,0,1.92.6L62,139.4l-0.59-.48a11.18,11.18,0,0,0-2.47-1.13,11,11,0,0,0-6.93-.15c-1.12.38-1.3,0.53-1.37,1.12s0,0.65.35,0.51S52.2,138.83,53.17,138.5Zm7.75-1.43a12.21,12.21,0,0,0-2.77-1.93,9.73,9.73,0,0,0-4.66-.69c-1.84.33-2.9,0.9-2.9,1.54s0.44,0.71,1.88.2a10,10,0,0,1,6,.22,13.25,13.25,0,0,1,1.72.71C60.36,137.31,60.92,137.28,60.92,137.07Zm-8.57-11.44A42.59,42.59,0,0,0,61.17,116c1.65-2.5,1.78-2.85,1.29-3.6s-0.73-.73-1.22.07A45.44,45.44,0,0,1,51.46,124c-0.91.81-1.11,1.13-1.11,1.78C50.35,127.15,50.47,127.14,52.34,125.63Z" transform="translate(0.5 3.12)"/><path class="e" d="M29.77,202.75c0.65-.56,2.28-2.14,3.64-3.5s-2.29,0-1-1.18l-6.23-3.83v-5.74a77.48,77.48,0,0,1,1.67-17.83A86.21,86.21,0,0,1,40.92,140a72.69,72.69,0,0,1,5.76-7.6c2.12-2.37,2.13-2.4,2.2-5.33,0.09-3.64.2-9.27,0.27-13.4a36.34,36.34,0,0,1,.18-3.82,0.92,0.92,0,0,1,.8-0.32h0.68v1.65a3.91,3.91,0,0,0,.18,1.63,9.17,9.17,0,0,0,1.36-1.59c1-1.3,1.31-1.59,1.94-1.65,0.44,0,.76,0,0.76.19,0,0.42-1.6,2.81-3.09,4.61-1.12,1.36-1.38,1.83-1.38,2.53a1,1,0,0,0,.25.86c0.52,0,3.81-4.09,5.09-6.33a13.42,13.42,0,0,1,1-1.5c0.38-.45,1.92-0.58,1.92-0.15,0,0.78-4.43,6.72-6.94,9.31-1.13,1.16-1.51,1.73-1.51,2.22,0,1.4.75,1.09,3.14-1.27,2.93-2.9,6.24-7.5,6.94-9.64,0.27-.81.36-0.88,1.15-0.87s0.93,0.11,2.72,2.72a32.66,32.66,0,0,0,10.15,9.93,40.17,40.17,0,0,0,11.3,5.22c1.71,0.47,2.64.59,2.64,0.34a4.27,4.27,0,0,0-.58-0.9,4.14,4.14,0,0,0-2.17-1.3,50.16,50.16,0,0,1-6.41-2.61,6.13,6.13,0,0,0-1-.54,45.48,45.48,0,0,1-6.39-4.44c-2.51-2.21-6.92-7.43-6.92-8.18a0.79,0.79,0,0,1,.76-0.24c0.68,0,.92.21,2.17,1.9A37.65,37.65,0,0,0,79,121c2.64,1.44,6.17,2.89,6.43,2.64s-0.94-1.8-1.8-2.14a53.58,53.58,0,0,1-6.95-3.62,33.7,33.7,0,0,1-6.41-5.94c-1.67-2.07-1.81-2.43-.92-2.43,0.55,0,.9.28,1.85,1.47a21.82,21.82,0,0,0,5.11,4.72c2.88,2.16,5.5,3.66,5.5,3.15a8.69,8.69,0,0,0-2.58-2.72,53.12,53.12,0,0,1-5.89-4.91c-1.49-1.58-1.54-1.72-.74-1.72,0.51,0,1.27.51,3.13,2.12,2.26,2,2.81,2.34,2.81,2a5.34,5.34,0,0,0-.67-1c-0.37-.48-1-1.35-1.42-1.93L75.7,109.6l9.23-.07,9.23-.07,0.7,0.79c0.39,0.43,1.44,1.77,2.35,3s2.87,3.75,4.36,5.66,4.37,5.63,6.38,8.27,3.94,5.06,4.29,5.38l0.63,0.59-0.17-.71a24.42,24.42,0,0,0-.85-2.35A13.58,13.58,0,0,1,111,127c-0.2-1.9-.35-2.12-1.91-2.87a26.15,26.15,0,0,1-6.13-4.91,21,21,0,0,1-3.88-7.11c-0.7-2.26-.74-2.64-0.26-2.64a0.41,0.41,0,0,1,.35.45,24.68,24.68,0,0,0,2.43,6.43,16.42,16.42,0,0,0,7.7,6.86c1.2,0.45,1.51.67,1.57,1.12s0.33,1.59.64,2.85a19.17,19.17,0,0,0,5.48,9.53,21.78,21.78,0,0,0,5.65,3.48c2.17,0.77,2.08.69,2.37,2.15,0.15,0.75.43,1.95,0.63,2.66,1.26,4.58,5.73,10.59,7.85,10.59a1.2,1.2,0,0,0,.77-0.19,7,7,0,0,0-1.53-1.82,18.36,18.36,0,0,1-4.18-5.69,15.62,15.62,0,0,1-1.66-6.41c0-1.35-.33-1.76-1.57-2a21,21,0,0,1-6.47-3.35,17.67,17.67,0,0,1-6-11.3l-0.16-1.22-2.5-1.22a13.15,13.15,0,0,1-4.64-3.37,12.63,12.63,0,0,1-3.1-4.15,25.9,25.9,0,0,1-1.41-3.71l-0.45-1.71h4.78l0.73,1a2.27,2.27,0,0,1,.61,1.94,10.5,10.5,0,0,0,1.22,4.92,8.6,8.6,0,0,0,3.34,3.08c1.11,0.46,1.21.26,0.35-.73a3.76,3.76,0,0,1,.13-5.37,2.09,2.09,0,0,1,2-.88,3,3,0,0,1,2.22.85l1.11,0.85,0.58-.74a4.33,4.33,0,0,1,5.28-1.2,3.94,3.94,0,0,1,2,3.79,2.91,2.91,0,0,1-.72,2.48,6.25,6.25,0,0,1-1.41,1.28,0.87,0.87,0,0,0-.61.95c0.4,3.06-.56,4.9-2.77,5.27a3.38,3.38,0,0,1-3.65-2.39l-0.23-1.14a0.61,0.61,0,0,0-.59-0.59c-1.2,0-.05,3.41,1.84,5.45a6.15,6.15,0,0,0,1.56,1.37c0.48,0,1,.75,1.42,2.12a18.77,18.77,0,0,0,.86,2.19c0.85,1.7,3.12,3.46,4.45,3.46,0.63,0,.54-0.43-0.15-0.75a4.62,4.62,0,0,1-2-3.31c0-2.55,2.43-4.53,4.53-3.68a5.76,5.76,0,0,1,1.61,1.23l0.85,0.92,0.77-.43,1.27-.73a4.23,4.23,0,0,1,1.65-.29h1.15l-0.16-1.82a100.85,100.85,0,0,1-.18-13.47c0.14-2.52.33-4.83,0.41-5.12,0.13-.47.3-0.53,1.43-0.53s1.28,0,1.16.65c-0.86,4.36-.94,13.21-0.19,19.12,1.07,8.36,2.74,14.65,5.46,20.65a9.45,9.45,0,0,1,.45,1.1c0,0.06.48,1.12,1.06,2.36a23.39,23.39,0,0,1,1.06,2.46c0,0.51-.86.74-4.47,1.2-5.14.65-12.24,2.09-12.75,2.58-0.2.19,0.46,1.08,5.25,7.09,1.49,1.87,2.92,3.67,3.17,4s2.1,2.7,4.11,5.24-1.39,2.29-1.07,2.72l1.94,2.55,1.35,1.76v27.62m-73.92,2.67-8.88-.4c0-.56-0.75-0.72-2-0.43m-18.62-.22a9.63,9.63,0,0,0-1.79-.6m43.86-.12a135.77,135.77,0,0,0,15.07-2.22c0.39-.12,1.55-0.38,2.58-0.6,2-.42,7.75-2.11,10.81-3.19,6.87-2.43,16.91-7.38,20.2-10,0.46-.36.46-0.38-0.23-1-1.12-.94-1.68-1-3.16-0.21-0.72.38-1.82,1-2.45,1.47a16.83,16.83,0,0,1-2,1.18,12.49,12.49,0,0,0-1.44.78c-1.44,1-9.46,4.36-13.51,5.72a108.62,108.62,0,0,1-23.06,4.72c-15,1.21-27.6,0-40.37-3.92a75.93,75.93,0,0,1-16.36-6.95,6.41,6.41,0,0,0-1.68-.8c-0.19,0,7.78,2.11,7.31,2.64-1,1.15-1,1.24,1.24,2.5,8,4.54,11.14,6.76,22.17,8.61a84.54,84.54,0,0,0,14.21,1.3A88,88,0,0,0,81.44,211.49Zm2.13-4.41c0.41-.22.43-0.44,0.28-3.2a25.61,25.61,0,0,0-.27-3.08,29.92,29.92,0,0,0-5.86.22,15.08,15.08,0,0,1-1.64.28l-0.7.06L75.3,204c-0.1,3.86-.33,3.66,4.14,3.46A24.89,24.89,0,0,0,83.56,207.08Zm-16.76-.55a14.52,14.52,0,0,0,.23-3v-2.44l-1.35-.14c-0.74-.08-2.39-0.29-3.66-0.47-2.54-.37-2.93-0.31-3.09.43A21.17,21.17,0,0,0,58.5,206a42.68,42.68,0,0,0,7.06,1.12C66.44,207.13,66.6,207.06,66.8,206.53Zm5.1-.34a1.36,1.36,0,0,0,.77-1.65c-0.17-1.21-2.44-1.68-3.16-.65a1.85,1.85,0,0,0,.1,2.3C70.21,206.79,70.93,206.79,71.9,206.2Zm26.25-1.34a16.34,16.34,0,0,0,2.9-.86c0.37-.3.22-1.92-0.31-3.42a13.15,13.15,0,0,1-.49-2c-0.21-1.41-.56-1.49-3.11-0.78l-3.62,1a3.69,3.69,0,0,0-1.7.75,3.37,3.37,0,0,0,.08,1.33c0.12,0.54.35,1.67,0.5,2.51,0.44,2.35.51,2.44,1.94,2.25C95,205.54,96.73,205.2,98.15,204.86ZM89,205a2.45,2.45,0,0,0,1-.82,1.08,1.08,0,0,0,.11-1.27,2.12,2.12,0,0,0-1.87-1.21,1.89,1.89,0,0,0-1.67,1.76A1.74,1.74,0,0,0,89,205Zm-33.25-.78a1.58,1.58,0,0,0-.22-2.65c-1.48-.77-2.8-0.17-2.8,1.28A1.8,1.8,0,0,0,55.72,204.25Zm-5.59-.87a25.08,25.08,0,0,0,.89-4.59c-0.06-.29-0.59-0.53-1.84-0.85-1-.24-2.58-0.73-3.59-1.09-1.3-.46-1.93-0.58-2.19-0.41a9.75,9.75,0,0,0-1.17,2.7c-0.62,1.93-.74,2.53-0.51,2.73a16.21,16.21,0,0,0,2.75,1l3.05,1A5.13,5.13,0,0,0,49,204C49.8,204,50,203.86,50.13,203.37Zm55.28-1.91a1.67,1.67,0,0,0,.1-3,2.76,2.76,0,0,0-2.48.61,1.79,1.79,0,0,0,1,2.44A1.24,1.24,0,0,0,105.41,201.46Zm7.88-1.63a25.37,25.37,0,0,0,3.59-1.62l0.52-.42-0.61-1.5c-0.34-.83-0.84-2.1-1.13-2.84a3.51,3.51,0,0,0-.88-1.47,9.06,9.06,0,0,0-2.74,1c-1.31.63-2.78,1.28-3.28,1.44a1.94,1.94,0,0,0-1,.63c-0.25.65,1.35,5.6,1.88,5.82S110.14,201.05,113.28,199.82ZM75,200.55c0.28-.18.37-0.9,0.44-3.45,0.07-2.89,0-3.26-.34-3.54s-7-.45-7.24-0.12a29,29,0,0,0-.38,3.21c-0.19,2.18-.19,3.09,0,3.28a11.16,11.16,0,0,0,2.89.52C73.9,200.8,74.6,200.82,75,200.55Zm13.33-1.1a13.8,13.8,0,0,0,3-.64c0.3-.23.3-0.53,0-2.38-0.42-2.78-.81-4.28-1.19-4.6a1.5,1.5,0,0,0-1.32,0,24.24,24.24,0,0,1-3.17.46,14.1,14.1,0,0,0-2.39.33,7,7,0,0,0-.12,2.67c0.15,3.18.27,4,.67,4.36S84.3,200,88.34,199.45Zm-49-.36a1.55,1.55,0,0,0-.21-2.29,1.85,1.85,0,0,0-2.59.11,1.52,1.52,0,0,0,0,2.19A1.91,1.91,0,0,0,39.37,199.09Zm20.54-3.24c0.39-2.43.45-3.24,0.24-3.44a8.17,8.17,0,0,0-2.16-.67c-1-.22-2.44-0.57-3.12-0.78-1.63-.5-1.72-0.39-2.49,2.95-0.83,3.6-.82,3.75.27,4a33.21,33.21,0,0,0,5.93,1.13l0.82,0Zm-25.73.53a12.21,12.21,0,0,0,1-2.76c0-.65-0.1-0.77-1.77-1.62s-1.83-.91-2.35-0.55c-1.15.8-4.23,3.9-4.14,4.17A16.55,16.55,0,0,0,31.08,198C33,198.75,33.1,198.68,34.17,196.37Zm46.41,1.55a1.86,1.86,0,0,0,0-2.65,2.15,2.15,0,0,0-2.66.21c-0.74.74-.73,1.32,0,2.23A1.69,1.69,0,0,0,80.58,197.92Zm-15.49-.58a1.31,1.31,0,0,0,0-2.1,1.68,1.68,0,1,0-1.89,2.68A1.54,1.54,0,0,0,65.09,197.34Zm38.21-1.72c3.79-1.24,3.66-1.17,3.67-1.75,0-1.47-2-6.09-2.65-6.23s-6.31,1.65-6.45,2a35.92,35.92,0,0,0,1.61,6.47C99.78,196.71,100.09,196.67,103.3,195.62ZM137,195.78c0-.25-1.08-1.84-4.64-6.84-1.74-2.45-3-4-3-3.74a48.74,48.74,0,0,0,2.88,7.34,4.7,4.7,0,0,0,2.93,2.92C136.6,196.14,137,196.22,137,195.78Zm-41.72-.17a2.45,2.45,0,0,0,1-.82,1.09,1.09,0,0,0,.1-1.31,1.81,1.81,0,0,0-3-.65,1.48,1.48,0,0,0,.18,2.41C94.4,195.92,94.48,195.93,95.31,195.62Zm-51.47-.79a27.23,27.23,0,0,0,1.81-5.88c0-.75.08-0.71-3.73-2.24-2.59-1-3.19-1.21-3.43-.95A35.06,35.06,0,0,0,36,192a0.88,0.88,0,0,0,.29.68A57.29,57.29,0,0,0,43,195.35,1.13,1.13,0,0,0,43.84,194.83Zm77.53,0a1.75,1.75,0,1,0-1.92-2.9,1.55,1.55,0,0,0-.12,2.55A1.5,1.5,0,0,0,121.37,194.86Zm-71.27-.58a2.35,2.35,0,0,0,.49-1.19c0-.71-1.06-1.82-1.56-1.63a2.72,2.72,0,0,1-.81.14,1.69,1.69,0,0,0-1.39,1.6A1.86,1.86,0,0,0,50.1,194.28Zm76.15-1a0.83,0.83,0,0,0,.45-0.46,5.89,5.89,0,0,0-2.45-1.65c-0.46,0-.46.08,0,1C125,193.56,125.31,193.75,126.24,193.25Zm-44.49-.59a0.76,0.76,0,0,0,.59-0.64,36.92,36.92,0,0,0-.47-5.35l-0.17-1.06-2.58.08A13.92,13.92,0,0,0,76,186c-0.58.27-.59,0.32-0.52,2.62,0.09,3.17.24,4.07,0.69,4.16A45.42,45.42,0,0,0,81.75,192.66Zm48.94,0.22c0-.08-0.62-1.69-1.37-3.59s-1.66-4.56-2-5.91a9.49,9.49,0,0,0-1.74-3.94c-1.71-2.32-1.78-2.1-.72,2.11a71.36,71.36,0,0,0,2.8,9.15,4.31,4.31,0,0,0,1.48,1.66C130.05,193,130.69,193.18,130.69,192.88ZM68,190.43c0.25-2.69.14-4.26-.3-4.48a20,20,0,0,0-5.59-.67c-0.63.24-.59,0.1-1.1,3.35-0.3,1.88-.33,2.63-0.14,2.82,0.36,0.37,4.33,1.06,5.76,1l1.17,0Zm25.77,0a16.23,16.23,0,0,0,3-1c0.25-.23.17-0.78-0.43-3a15,15,0,0,0-1-3c-0.26-.27-0.71-0.22-2.86.29a9.63,9.63,0,0,0-2.81,1,2,2,0,0,0-.05,1.47c0.12,0.61.31,1.89,0.44,2.84,0.24,1.87.35,2.16,0.77,2.16C91,191.14,92.32,190.81,93.81,190.4Zm24-.58c1.59-.8,2.57-1.43,2.52-1.62a20.76,20.76,0,0,0-2.6-2.56c-1.9-1.7-2.63-2.21-2.94-2.08a10.4,10.4,0,0,0-2.53,1.48,1.87,1.87,0,0,0,.2,1.12c1.45,3.53,2.16,5,2.44,5A21,21,0,0,0,117.79,189.82Zm-6.83.55a1.56,1.56,0,0,0-.27-2.36,1.63,1.63,0,0,0-2.27,2.34A1.77,1.77,0,0,0,111,190.37Zm-37.83-.46c1.56-1.68-1.08-3.83-2.7-2.2a1.36,1.36,0,0,0,0,2.23A2,2,0,0,0,73.13,189.92Zm-20-.25c0.41-.55,1.29-5.6,1-5.92s-0.87-.51-4-1.47c-1.51-.46-2.1-0.41-2.36.21a27.13,27.13,0,0,0-1.34,5.45,3.21,3.21,0,0,0,1.49.74c0.75,0.22,1.95.59,2.66,0.82C52.15,190,52.8,190.05,53.1,189.67Zm34.55-.36a1.68,1.68,0,0,0-1.3-2.83,1.29,1.29,0,0,0-1.44.56c-1.13,1.44-.1,3.09,1.74,2.8A1.79,1.79,0,0,0,87.65,189.31Zm38.1,0.47c0-.1-0.48-1.76-1.06-3.71-1.14-3.81-1.93-6.86-2.59-10-0.44-2.06-1.72-4.51-2.35-4.51-0.42,0-.42,0,0.12,2.49,0.25,1.16.58,2.68,0.73,3.4s0.68,2.72,1.17,4.47,1,3.55,1.07,4c0.32,1.54,1.21,3.24,1.91,3.62S125.76,190,125.75,189.78Zm-67-1a1.79,1.79,0,0,0,.37-2,2.71,2.71,0,0,0-2-1.07,1.67,1.67,0,0,0-1.42,1.75A1.81,1.81,0,0,0,58.76,188.77Zm51.65-4a4.42,4.42,0,0,0,1.13-.73,5.42,5.42,0,0,0-.65-1.94c-0.44-.94-1-2.11-1.18-2.6a2.27,2.27,0,0,0-.77-1c-0.85-.33-6.2,1.84-6.2,2.51a25,25,0,0,0,1.94,5.71A26.15,26.15,0,0,0,110.41,184.82Zm-9.16,1.1a1.62,1.62,0,0,0-1.31-2.78A1.78,1.78,0,1,0,101.25,185.92Zm20.28,0.41c0-.05-0.42-1.72-0.94-3.71-1.59-6.1-2.12-8.69-2.27-11.17-0.14-2.24-.2-2.46-1-3.62a2.93,2.93,0,0,0-1.08-1.15c-0.42.15,0.17,6.41,0.82,8.67,0.13,0.45.35,1.46,0.49,2.24,0.46,2.54,2.29,7.72,2.94,8.3S121.53,186.59,121.53,186.33ZM80.3,184.55c0.78-.12,2.31-0.29,3.41-0.37a21.48,21.48,0,0,0,2.7-.33c0.39-.1,1.5-0.32,2.47-0.48a79.27,79.27,0,0,0,11.43-2.95c4.26-1.43,8.29-3.15,8.63-3.69,0.16-.25,0-0.59-0.43-1.21-0.7-.92-1.16-1-1.89-0.53a56.76,56.76,0,0,1-7.63,3.1c-12.17,4.2-25,5.08-38.88,2.67a53.75,53.75,0,0,1-11-2.75l-3.25-1.09-0.8.87c-0.9,1-1,1.3-.39,1.51,0.23,0.08.83,0.33,1.35,0.56a72.79,72.79,0,0,0,14.11,3.85C66.61,184.83,76,185.22,80.3,184.55ZM44.6,184a1.46,1.46,0,0,0-.74-2.62,1,1,0,0,0-1.23.5,1.55,1.55,0,0,0,1,2.7A1.91,1.91,0,0,0,44.6,184Zm72.92-1.45a56.32,56.32,0,0,1-2.82-15.15,19.34,19.34,0,0,0-.2-2.76c-0.22-1.14-1.15-2.65-1.64-2.65-0.28,0-.31.63-0.18,3.82a52.15,52.15,0,0,0,1.57,11.41c0.86,3.55,1.12,4.2,2.19,5.33s1.47,1,1.09,0h0Zm-35.93-4.69a74.06,74.06,0,0,0,12-2.1c4.64-1.2,11.69-3.8,11.69-4.31a1.84,1.84,0,0,0-1.1-1.23,39,39,0,0,0-3.8,1.19,86.32,86.32,0,0,1-16.95,4.33,21.73,21.73,0,0,0-5.5,1.37c-2.06.79-2.45,1-2,1.12a4.17,4.17,0,0,0,1.27.06Zm31.48,0.28a4.46,4.46,0,0,0-.22-1c-0.58-1.75-1.47-10-1.51-13.89s0-4-.66-4.82c-1-1.27-1.2-.77-1.32,3.11-0.14,4.52.75,12.58,1.62,14.54C111.67,177.63,113.07,179,113.07,178.11Zm-42.74-.5a29.45,29.45,0,0,0,12.55-5.12c6.17-4.12,11.75-9.93,13.9-14.47l0.8-1.69-0.59-2a65.61,65.61,0,0,1-2.36-9,63.73,63.73,0,0,1-1-8.25l-0.18-2.84-1.08-1.52c-1.67-2.35-1.89-2.49-5-3.28A40.65,40.65,0,0,1,66,116.72a12.25,12.25,0,0,0-1.79-1.82,7.86,7.86,0,0,0-1.32,1.68A50.64,50.64,0,0,1,52.64,127.3l-2.06,1.53v1.72a4.43,4.43,0,0,0,.24,1.87,3.28,3.28,0,0,0,1.47-.28,9.74,9.74,0,0,1,3.22-.42,6.13,6.13,0,0,1,3.33.66,6.89,6.89,0,0,1,3.39,3.56c2,4.36,1.64,8.84-1.21,15.57-0.94,2.23-1,2.81-.3,3.55s1.37,0.72,1.37.09a2.1,2.1,0,0,1,1.85-1.43,9.27,9.27,0,0,1,2.61,1.18c2.16,1.27,2.5,1.35,3.51.83,1.25-.65,1.07-2.33-0.35-3.09-0.85-.46-1.08-1.18-0.44-1.43,1-.39,2.32,1.25,2.6,3.29a3,3,0,0,1-1.79,3.31,3.63,3.63,0,0,1-3.49-.21c-1.49-.7-2.62-0.78-2.62-0.19a3.44,3.44,0,0,0,.61,1.28c0.94,1.36.12,2-.95,0.73a12.79,12.79,0,0,0-2.55-1.78,16.22,16.22,0,0,1-2.26-1.43c-0.45-.54-0.36-2.35.16-3.46,0.91-1.92,1.68-4.09,1.51-4.26a2.91,2.91,0,0,0-1.43.63c-1.2.76-1.92,0.86-1.91,0.27a5.51,5.51,0,0,1,1.29-1.4,4.77,4.77,0,0,0,1.29-1.47c0-.42-0.17-0.42-1.38,0a10.92,10.92,0,0,1-5.77.26,4.73,4.73,0,0,0-1.69-.27c-0.41.16-.46,6.72-0.08,9.79a75.94,75.94,0,0,0,1.33,8.12c1.39,5.25,5.7,10.71,9.61,12.2C65.43,178,66.71,178.16,70.34,177.62Zm-6.65-8c-2.72-1-2.79-2.48-.08-1.66a8.1,8.1,0,0,0,5-.13c1.28-.58,1.68-0.59,1.68,0C70.32,169.45,66.28,170.55,63.68,169.62Zm-5.82-2.37a1.36,1.36,0,0,1,0-1.35,23,23,0,0,0,.45-2.29l0.18-1.29,0.95,0.07a3.25,3.25,0,0,0,2-.53,3.35,3.35,0,0,1,3.16-.32,1.11,1.11,0,0,0,1.28-.12c0.89-.52,1.25-0.5,3.44.19s2.62,0.73,3.43,0,1.11-.57,1.51,1.92c0.46,2.89.08,3.41-1.87,2.59-1.15-.48-2.27-0.44-4.33.14l-1.74.49-2.3-.52c-2.66-.6-3.23-0.53-4.4.61C58.65,167.69,58.3,167.78,57.86,167.25Zm18.51-16.91A18.54,18.54,0,0,1,71.57,146a12.21,12.21,0,0,0-1.73-1.94c-0.29,0-.55-1-0.49-1.78a6.37,6.37,0,0,0-.67-2.3,4.49,4.49,0,0,1-.57-1.83,1.41,1.41,0,0,1,1.14-.11c0.86,0.13,1.27,0,3.13-.91,3.39-1.68,4.82-2.09,6.75-1.95a11.14,11.14,0,0,1,5.9,2.26c1.84,1.3,4.78,4.47,4.78,5.14s-0.82,1.24-3,1.69c-1.14.24-2.93,0.7-4,1a15.75,15.75,0,0,1-7.29.87,5.11,5.11,0,0,0-1.67-.15,22.54,22.54,0,0,0,3.51,3.87C78.58,150.91,77.73,151.26,76.38,150.34Zm4.17-6.11c0.85-.85,1.25-1.93.87-2.31-0.17-.17-0.42.12-0.8,0.9-0.71,1.45-2,2.21-2.93,1.71a2.54,2.54,0,0,1-1.24-2.09c-0.15-.93-0.82-1.25-1.06-0.51a3.74,3.74,0,0,0,1.13,2.75,3.9,3.9,0,0,0,1.87.35A2.22,2.22,0,0,0,80.54,144.23Zm-5.77-.09a7.59,7.59,0,0,0-.41-1.18c-0.35-.85-0.5-1-1-0.94-0.94.11-.91,1.11,0.05,1.77C74.18,144.31,74.78,144.46,74.78,144.14Zm9.7-.69c0.78-.4.67-0.69-0.35-0.91a1,1,0,0,0-1.37,1.13C82.77,144.15,83.21,144.09,84.48,143.45ZM85.23,139a10.12,10.12,0,0,0-10.72-1.57c-2.57,1.17-2.28,1.58.61,0.88a14.58,14.58,0,0,1,9,.84C85.94,140.06,86.37,140,85.23,139ZM89.7,138a25.2,25.2,0,0,0-7-3.34,14.58,14.58,0,0,0-10.61.67c-2.32,1-2.93,1-3.39.18-0.61-1.14,1.32-3.27,3.84-4.23a9.67,9.67,0,0,1,4.29-.55,14.14,14.14,0,0,1,5.4.79,16.87,16.87,0,0,1,7.08,3.82c2.15,1.79,2.9,2.64,2.9,3.29S91.48,139.21,89.7,138ZM57.87,176.43c0-.36-2.1-1.38-4.38-2.12-2.49-.81-4-1-4-0.47,0,0.29,2.3,1.12,5.52,2C57.81,176.58,57.87,176.59,57.87,176.43Zm27.26-2.24a0.48,0.48,0,0,0-.16-0.94,2.35,2.35,0,0,0-1.49,1C83.47,174.5,84.57,174.48,85.12,174.19Zm3-.69c0.3-.19.29-0.33-0.05-1.06a1.72,1.72,0,0,0-.62-0.84,1,1,0,0,0-.8,1.12C87,173.68,87.49,173.92,88.16,173.5ZM108.87,172a76.58,76.58,0,0,1-.5-13.53c0.28-3,.23-3.3-0.67-4.11-0.39-.35-0.51-0.37-0.59-0.12l-0.42,1.27c-0.68,2.06-.24,14.17.57,15.77A7.34,7.34,0,0,0,109,173.4,4.74,4.74,0,0,0,108.87,172Zm-54.29.78a3.26,3.26,0,0,0-.81-1.07c-0.73-.73-0.87-0.78-1.35-0.53a1.42,1.42,0,0,0-.89,1,7.09,7.09,0,0,0,2.64.87A0.35,0.35,0,0,0,54.58,172.76Zm37.09-.11a4,4,0,0,0-.61-1.47c-0.77-1.39-1.4-1.76-1.93-1.13-0.24.29-.18,0.6,0.31,1.69,0.59,1.29.63,1.33,1.35,1.18A2.87,2.87,0,0,0,91.67,172.65Zm2.8-1.09c0.11-.57-1.84-4.66-2.22-4.66a1.54,1.54,0,0,0-.78.47c-0.55.55-.45,0.91,0.85,3.25,0.73,1.3.9,1.48,1.45,1.41A0.76,0.76,0,0,0,94.47,171.56Zm2.52-.47c0.71-.33.76-0.11-0.78-3.84-1.25-3-1.66-3.44-2.28-2.25-0.36.7-.34,0.79,0.58,3s1.53,3.36,1.76,3.36A4.39,4.39,0,0,0,97,171.09Zm3-1.19c0.34-.26.3-0.45-0.35-1.82-0.4-.84-1.16-2.54-1.7-3.76-0.74-1.71-1.08-2.24-1.42-2.24-0.73,0-.66.85,0.26,3.34,1.19,3.2,2,4.78,2.56,4.78A1.36,1.36,0,0,0,100,169.9Zm3.24-1.42c0-.36-4.33-9.27-4.7-9.67s-1,1-.87,1.56c0.06,0.29.67,1.75,1.35,3.24s1.45,3.24,1.72,3.88c0.64,1.54.95,1.79,1.82,1.49A1,1,0,0,0,103.2,168.48Zm2-3a29.94,29.94,0,0,1,.29-9.22c0.65-4,.65-4.47,0-5.23a1,1,0,0,0-.82-0.52c-0.71.44-1.55,7.21-1.43,11.45,0.08,2.91.1,3,1,4.55a2.94,2.94,0,0,0,1.1,1.41A7.65,7.65,0,0,0,105.17,165.49ZM102,159.77a60.66,60.66,0,0,1,1-8.49c0.19-.79.38-1.72,0.41-2.06,0.08-.78-0.5-1.89-0.95-1.8s-1.45,3.59-1.84,7.48l-0.37,3.65,0.61,1.37a2,2,0,0,0,.85,1.22A2.59,2.59,0,0,0,102,159.77ZM131.46,156a3.82,3.82,0,0,0-1.18-1.58,21.24,21.24,0,0,1-5.46-10.17,9.75,9.75,0,0,0-.8-2.48,15.42,15.42,0,0,0-1.55-.76,24.71,24.71,0,0,1-5-3c-1.55-1.18-2.09-1.32-1.47-.37,0.34,0.52,7,9.33,11.81,15.56Q131,157.3,131.46,156Zm-32-1.28a37.52,37.52,0,0,1,1.29-6.71l0.72-2.07a2.24,2.24,0,0,0-1.07-1.64C100,144.31,98,150,98,151.37c0,0.81.92,3.53,1.2,3.53A0.2,0.2,0,0,0,99.45,154.72Zm41.8-.4c0.23-.28.08-0.86-0.77-3a73.29,73.29,0,0,1-3.35-10.07c-0.7-3-.92-3.53-1.39-3.53s-0.69.65-.32,1.35a5.13,5.13,0,0,1-.13,3.72,3.34,3.34,0,0,1-4.65.93,3.16,3.16,0,0,1-1.57-2.58c-0.17-1.21-.8-1.3-0.91-0.13-0.24,2.48,1.63,5.35,4.31,6.63a8.53,8.53,0,0,0,1.71.68,0.57,0.57,0,0,1,.44.41c1.12,3.32,3.58,5.9,5.63,5.93a1.49,1.49,0,0,0,1-.33h0Zm-42.92-8.57a20.94,20.94,0,0,0,.88-3A2.63,2.63,0,0,0,98,141c-0.29,0-1.41,3.78-1.41,4.74s0.42,2.55.66,2.55A12.87,12.87,0,0,0,98.33,145.75ZM57.25,144.7c1.15-.88,1.76-3,0.76-2.6a2,2,0,0,0-.59,1,2,2,0,0,1-2.15,1.64,1.77,1.77,0,0,1-1.95-1.52c-0.36-1.06-.76-1.31-1-0.62a2.9,2.9,0,0,0,1.26,2.5A3.79,3.79,0,0,0,57.25,144.7Zm-5.26.07a2.07,2.07,0,0,0-1.08-1.4c-0.47,0-.4,1.11.09,1.39S52,145.08,52,144.77Zm8.79-.69c1.17-.5,1.33-0.8.61-1.18a1.37,1.37,0,0,0-1.85.61C59,144.69,59.19,144.77,60.78,144.08Zm35.82-3.17c0.38-1.51.33-1.91-.32-2.65l-0.58-.66v1.8C95.68,142.11,96.12,142.83,96.6,140.91ZM53.17,138.5a6.46,6.46,0,0,1,3.36-.45,14,14,0,0,1,2.94.64,17.25,17.25,0,0,0,1.92.6L62,139.4l-0.59-.48a11.18,11.18,0,0,0-2.47-1.13,11,11,0,0,0-6.93-.15c-1.12.38-1.3,0.53-1.37,1.12s0,0.65.35,0.51S52.2,138.83,53.17,138.5Zm77.86-.22a2.72,2.72,0,0,0,1.07-1.92c0-.74-1-1.52-2.08-1.55a1.61,1.61,0,0,0-1.91,1.66A2.08,2.08,0,0,0,131,138.28Zm-70.11-1.21a12.21,12.21,0,0,0-2.77-1.93,9.73,9.73,0,0,0-4.66-.69c-1.84.33-2.9,0.9-2.9,1.54s0.44,0.71,1.88.2a10,10,0,0,1,6,.22,13.25,13.25,0,0,1,1.72.71C60.36,137.31,60.92,137.28,60.92,137.07Zm-8.57-11.44A42.59,42.59,0,0,0,61.17,116c1.65-2.5,1.78-2.85,1.29-3.6s-0.73-.73-1.22.07A45.44,45.44,0,0,1,51.46,124c-0.91.81-1.11,1.13-1.11,1.78C50.35,127.15,50.47,127.14,52.34,125.63Zm66.05-5a1.69,1.69,0,0,0-.36-2.93,2,2,0,0,0-2.46.75,1,1,0,0,0-.16,1.34,2.31,2.31,0,0,0,.68.95A2.56,2.56,0,0,0,118.39,120.67Z" transform="translate(0.5 3.12)"/><path class="b" d="M84.06,217.23m28.65-10.82c-0.13-.4-0.3-0.47-0.9-0.38m-73.08,5.6c-1.58-.61-1.66-0.68-1.63-1.37a7.45,7.45,0,0,1,.64-2.05l0.6-1.32-0.72-.44a8.22,8.22,0,0,0-1.81-.72,20.3,20.3,0,0,1-2.74-1.06c-7.56-3.55-1.46-3.26-1.46-4.06a3.88,3.88,0,0,1,1.06-1.45c0.58-.58-7.21-3.16-6.89-3.69,0.57-.95.57-1.05,0.68-8a76,76,0,0,1,1.46-15.75A93,93,0,0,1,32,157.6l1.19-2.94A97.6,97.6,0,0,1,38.15,145a87.12,87.12,0,0,1,9.14-12.78,15.11,15.11,0,0,0,2-2.73,1.38,1.38,0,0,1,.47-0.75c0.35-.09.7,4.13,0.59,7.23,0,0.52,0,1.18,0,1.47,0,1.72,0,2.24.05,2.82,0,0.36,0,1.49,0,2.53s0,2.25,0,2.71,0,2.89,0,5.41a46.25,46.25,0,0,0,2.33,16.24,14.41,14.41,0,0,1,.72,2.39,2,2,0,0,1-1,1A5.07,5.07,0,0,0,51,171.95,2.92,2.92,0,0,1,49.89,173c-0.7.29-1.1,0.9-.78,1.18,0.77,0.67,8.62,2.82,10.28,2.82a19.12,19.12,0,0,1,3.7.64c2.23,0.59,2.71.64,6.29,0.59a23.43,23.43,0,0,1,4.76.22c0.83,0.26,2.57.18,8.75-.39a83.77,83.77,0,0,0,9.89-1.77c6-1.57,12.62-4,13.09-4.82a0.64,0.64,0,0,1,.47-0.34c0.4,0,1.76,1.71,2.19,2.74a6.76,6.76,0,0,0,1.22,1.74c0.47,0.48,1.27,1.37,1.76,2a9.34,9.34,0,0,0,1.78,1.66,7.92,7.92,0,0,1,2,2.3,14.57,14.57,0,0,0,3.38,3.69,28.35,28.35,0,0,0,3.12,2.37,4.75,4.75,0,0,1,1.37,1.18,15.42,15.42,0,0,0,4.63,3.18,3.67,3.67,0,0,1,1.36.93,2.23,2.23,0,0,0,.91.74c1.27,0.65,2.54,1.75,2.54,2.21a1.24,1.24,0,0,1-.81.81,3.32,3.32,0,0,0-.94.59,22.54,22.54,0,0,1-2.77,1.54c-1.45.73-2.8,1.42-3,1.54s-0.51.27-.7,0.35c-1.28.54-2.7,1.5-2.7,1.82,0,0.49-.46,0,14,14.42m-66.74-3.65-8.88-.4c0-.56-0.75-0.72-2-0.43m23.45-.93a135.77,135.77,0,0,0,15.07-2.22c0.39-.12,1.55-0.38,2.58-0.6,2-.42,7.75-2.11,10.81-3.19,6.87-2.43,16.91-7.38,20.2-10,0.46-.36.46-0.38-0.23-1-1.12-.94-1.68-1-3.16-0.21-0.72.38-1.82,1-2.45,1.47a16.83,16.83,0,0,1-2,1.18,12.49,12.49,0,0,0-1.44.78c-1.44,1-9.46,4.36-13.51,5.72a108.62,108.62,0,0,1-23.06,4.72,136.89,136.89,0,0,1-21,0,102.3,102.3,0,0,1-28.07-7c-1.23-.5-6.15-3-8.3-4.18l-1.25-.7L33.23,199c-1.1,1.16-1,1.37.65,2.38,7.48,4.46,11.48,7,22.7,8.91a84.54,84.54,0,0,0,14.21,1.3A88,88,0,0,0,81.44,211.49Zm2.13-4.41c0.41-.22.43-0.44,0.28-3.2a25.61,25.61,0,0,0-.27-3.08,29.92,29.92,0,0,0-5.86.22,15.08,15.08,0,0,1-1.64.28l-0.7.06L75.3,204c-0.1,3.86-.33,3.66,4.14,3.46A24.89,24.89,0,0,0,83.56,207.08Zm-16.76-.55a14.52,14.52,0,0,0,.23-3v-2.44l-1.35-.14c-0.74-.08-2.39-0.29-3.66-0.47-2.54-.37-2.93-0.31-3.09.43A21.17,21.17,0,0,0,58.5,206a42.68,42.68,0,0,0,7.06,1.12C66.44,207.13,66.6,207.06,66.8,206.53Zm5.1-.34a1.36,1.36,0,0,0,.77-1.65c-0.17-1.21-2.44-1.68-3.16-.65a1.85,1.85,0,0,0,.1,2.3C70.21,206.79,70.93,206.79,71.9,206.2Zm26.25-1.34a16.34,16.34,0,0,0,2.9-.86c0.37-.3.22-1.92-0.31-3.42a13.15,13.15,0,0,1-.49-2c-0.21-1.41-.56-1.49-3.11-0.78l-3.62,1a3.69,3.69,0,0,0-1.7.75,3.37,3.37,0,0,0,.08,1.33c0.12,0.54.35,1.67,0.5,2.51,0.44,2.35.51,2.44,1.94,2.25C95,205.54,96.73,205.2,98.15,204.86ZM89,205a2.45,2.45,0,0,0,1-.82,1.08,1.08,0,0,0,.11-1.27,2.12,2.12,0,0,0-1.87-1.21,1.89,1.89,0,0,0-1.67,1.76A1.74,1.74,0,0,0,89,205Zm-33.25-.78a1.58,1.58,0,0,0-.22-2.65c-1.48-.77-2.8-0.17-2.8,1.28A1.8,1.8,0,0,0,55.72,204.25Zm-5.59-.87a25.08,25.08,0,0,0,.89-4.59c-0.06-.29-0.59-0.53-1.84-0.85-1-.24-2.58-0.73-3.59-1.09-1.3-.46-1.93-0.58-2.19-0.41a9.75,9.75,0,0,0-1.17,2.7c-0.62,1.93-.74,2.53-0.51,2.73a16.21,16.21,0,0,0,2.75,1l3.05,1A5.13,5.13,0,0,0,49,204C49.8,204,50,203.86,50.13,203.37Zm55.28-1.91a1.67,1.67,0,0,0,.1-3,2.76,2.76,0,0,0-2.48.61,1.79,1.79,0,0,0,1,2.44A1.24,1.24,0,0,0,105.41,201.46Zm7.88-1.63a25.37,25.37,0,0,0,3.59-1.62l0.52-.42-0.61-1.5c-0.34-.83-0.84-2.1-1.13-2.84a3.51,3.51,0,0,0-.88-1.47,9.06,9.06,0,0,0-2.74,1c-1.31.63-2.78,1.28-3.28,1.44a1.94,1.94,0,0,0-1,.63c-0.25.65,1.35,5.6,1.88,5.82S110.14,201.05,113.28,199.82ZM75,200.55c0.28-.18.37-0.9,0.44-3.45,0.07-2.89,0-3.26-.34-3.54s-7-.45-7.24-0.12a29,29,0,0,0-.38,3.21c-0.19,2.18-.19,3.09,0,3.28a11.16,11.16,0,0,0,2.89.52C73.9,200.8,74.6,200.82,75,200.55Zm13.33-1.1a13.8,13.8,0,0,0,3-.64c0.3-.23.3-0.53,0-2.38-0.42-2.78-.81-4.28-1.19-4.6a1.5,1.5,0,0,0-1.32,0,24.24,24.24,0,0,1-3.17.46,14.1,14.1,0,0,0-2.39.33,7,7,0,0,0-.12,2.67c0.15,3.18.27,4,.67,4.36S84.3,200,88.34,199.45Zm-49-.36a1.55,1.55,0,0,0-.21-2.29,1.85,1.85,0,0,0-2.59.11,1.52,1.52,0,0,0,0,2.19A1.91,1.91,0,0,0,39.37,199.09Zm20.54-3.24c0.39-2.43.45-3.24,0.24-3.44a8.17,8.17,0,0,0-2.16-.67c-1-.22-2.44-0.57-3.12-0.78-1.63-.5-1.72-0.39-2.49,2.95-0.83,3.6-.82,3.75.27,4a33.21,33.21,0,0,0,5.93,1.13l0.82,0Zm-25.73.53a12.21,12.21,0,0,0,1-2.76c0-.65-0.1-0.77-1.77-1.62s-1.83-.91-2.35-0.55c-1.15.8-4.23,3.9-4.14,4.17A16.55,16.55,0,0,0,31.08,198C33,198.75,33.1,198.68,34.17,196.37Zm46.41,1.55a1.86,1.86,0,0,0,0-2.65,2.15,2.15,0,0,0-2.66.21c-0.74.74-.73,1.32,0,2.23A1.69,1.69,0,0,0,80.58,197.92Zm-15.49-.58a1.31,1.31,0,0,0,0-2.1,1.68,1.68,0,1,0-1.89,2.68A1.54,1.54,0,0,0,65.09,197.34Zm38.21-1.72c3.79-1.24,3.66-1.17,3.67-1.75,0-1.47-2-6.09-2.65-6.23s-6.31,1.65-6.45,2a35.92,35.92,0,0,0,1.61,6.47C99.78,196.71,100.09,196.67,103.3,195.62Zm-8,0a2.45,2.45,0,0,0,1-.82,1.09,1.09,0,0,0,.1-1.31,1.81,1.81,0,0,0-3-.65,1.48,1.48,0,0,0,.18,2.41C94.4,195.92,94.48,195.93,95.31,195.62Zm-51.47-.79a27.23,27.23,0,0,0,1.81-5.88c0-.75.08-0.71-3.73-2.24-2.59-1-3.19-1.21-3.43-.95A35.06,35.06,0,0,0,36,192a0.88,0.88,0,0,0,.29.68A57.29,57.29,0,0,0,43,195.35,1.13,1.13,0,0,0,43.84,194.83Zm77.53,0a1.75,1.75,0,1,0-1.92-2.9,1.55,1.55,0,0,0-.12,2.55A1.5,1.5,0,0,0,121.37,194.86Zm-71.27-.58a2.35,2.35,0,0,0,.49-1.19c0-.71-1.06-1.82-1.56-1.63a2.72,2.72,0,0,1-.81.14,1.69,1.69,0,0,0-1.39,1.6A1.86,1.86,0,0,0,50.1,194.28Zm76.15-1a0.83,0.83,0,0,0,.45-0.46,5.89,5.89,0,0,0-2.45-1.65c-0.46,0-.46.08,0,1C125,193.56,125.31,193.75,126.24,193.25Zm-44.49-.59a0.76,0.76,0,0,0,.59-0.64,36.92,36.92,0,0,0-.47-5.35l-0.17-1.06-2.58.08A13.92,13.92,0,0,0,76,186c-0.58.27-.59,0.32-0.52,2.62,0.09,3.17.24,4.07,0.69,4.16A45.42,45.42,0,0,0,81.75,192.66ZM68,190.43c0.25-2.69.14-4.26-.3-4.48a20,20,0,0,0-5.59-.67c-0.63.24-.59,0.1-1.1,3.35-0.3,1.88-.33,2.63-0.14,2.82,0.36,0.37,4.33,1.06,5.76,1l1.17,0Zm25.77,0a16.23,16.23,0,0,0,3-1c0.25-.23.17-0.78-0.43-3a15,15,0,0,0-1-3c-0.26-.27-0.71-0.22-2.86.29a9.63,9.63,0,0,0-2.81,1,2,2,0,0,0-.05,1.47c0.12,0.61.31,1.89,0.44,2.84,0.24,1.87.35,2.16,0.77,2.16C91,191.14,92.32,190.81,93.81,190.4Zm24-.58c1.59-.8,2.57-1.43,2.52-1.62a20.76,20.76,0,0,0-2.6-2.56c-1.9-1.7-2.63-2.21-2.94-2.08a10.4,10.4,0,0,0-2.53,1.48,1.87,1.87,0,0,0,.2,1.12c1.45,3.53,2.16,5,2.44,5A21,21,0,0,0,117.79,189.82Zm-6.83.55a1.56,1.56,0,0,0-.27-2.36,1.63,1.63,0,0,0-2.27,2.34A1.77,1.77,0,0,0,111,190.37Zm-37.83-.46c1.56-1.68-1.08-3.83-2.7-2.2a1.36,1.36,0,0,0,0,2.23A2,2,0,0,0,73.13,189.92Zm-20-.25c0.41-.55,1.29-5.6,1-5.92s-0.87-.51-4-1.47c-1.51-.46-2.1-0.41-2.36.21a27.13,27.13,0,0,0-1.34,5.45,3.21,3.21,0,0,0,1.49.74c0.75,0.22,1.95.59,2.66,0.82C52.15,190,52.8,190.05,53.1,189.67Zm34.55-.36a1.68,1.68,0,0,0-1.3-2.83,1.29,1.29,0,0,0-1.44.56c-1.13,1.44-.1,3.09,1.74,2.8A1.79,1.79,0,0,0,87.65,189.31Zm-28.89-.54a1.79,1.79,0,0,0,.37-2,2.71,2.71,0,0,0-2-1.07,1.67,1.67,0,0,0-1.42,1.75A1.81,1.81,0,0,0,58.76,188.77Zm51.65-4a4.42,4.42,0,0,0,1.13-.73,5.42,5.42,0,0,0-.65-1.94c-0.44-.94-1-2.11-1.18-2.6a2.27,2.27,0,0,0-.77-1c-0.85-.33-6.2,1.84-6.2,2.51a25,25,0,0,0,1.94,5.71A26.15,26.15,0,0,0,110.41,184.82Zm-9.16,1.1a1.62,1.62,0,0,0-1.31-2.78A1.78,1.78,0,1,0,101.25,185.92Zm-21-1.37c0.78-.12,2.31-0.29,3.41-0.37a21.48,21.48,0,0,0,2.7-.33c0.39-.1,1.5-0.32,2.47-0.48a79.27,79.27,0,0,0,11.43-2.95c4.26-1.43,8.29-3.15,8.63-3.69,0.16-.25,0-0.59-0.43-1.21-0.7-.92-1.16-1-1.89-0.53a56.76,56.76,0,0,1-7.63,3.1c-12.17,4.2-25,5.08-38.88,2.67a53.75,53.75,0,0,1-11-2.75l-3.25-1.09-0.8.87c-0.9,1-1,1.3-.39,1.51,0.23,0.08.83,0.33,1.35,0.56a72.79,72.79,0,0,0,14.11,3.85C66.61,184.83,76,185.22,80.3,184.55ZM44.6,184a1.46,1.46,0,0,0-.74-2.62,1,1,0,0,0-1.23.5,1.55,1.55,0,0,0,1,2.7A1.91,1.91,0,0,0,44.6,184Zm97.67,22.68c-0.21-.24-1.09-1.48-2-2.76s-2.09-3-2.72-3.83a23.25,23.25,0,0,1-1.43-2,20,20,0,0,0-1.38-1.93c-0.61-.78,3.65.48,3-0.49s-1.61-2.35-2.13-3.06-1.52-2.14-2.24-3.18c-2.37-3.45-2.59-3.76-3.67-5.18-0.59-.77-1.69-2.31-2.45-3.41s-2.15-3-3.09-4.3-1.87-2.59-2.05-2.94a19.66,19.66,0,0,0-1.35-2c-0.56-.74-1.55-2.1-2.2-3s-1.49-2.08-1.88-2.58-1.39-1.93-2.23-3.18-2.32-3.36-3.29-4.69c-2.95-4.06-7-9.72-9.1-12.79a11.46,11.46,0,0,0-1.23-1.58A12.35,12.35,0,0,1,99.57,142c-1.78-2.67-3-4.37-3.49-4.93-0.27-.29-1.39-1.84-2.49-3.44s-2.51-3.58-3.12-4.41-1.48-2-1.94-2.68c-2.76-3.89-3.83-5.38-4.35-6.08-2.57-3.46-5-6.93-6.49-9.09a9.74,9.74,0,0,0-1.24-1.58c-0.3-.23,1.5-0.29,8.7-0.3h9.08l0.67,0.79c0.37,0.43,1.41,1.77,2.31,3s2.87,3.74,4.36,5.65,4.37,5.63,6.38,8.27,3.94,5.06,4.29,5.38l0.63,0.59-0.17-.71a24.42,24.42,0,0,0-.85-2.35A13.58,13.58,0,0,1,111,127c-0.2-1.9-.35-2.12-1.91-2.87a26.15,26.15,0,0,1-6.13-4.91,21,21,0,0,1-3.88-7.11c-0.7-2.26-.74-2.64-0.26-2.64a0.41,0.41,0,0,1,.35.45,24.68,24.68,0,0,0,2.43,6.43,16.42,16.42,0,0,0,7.7,6.86c1.2,0.45,1.51.67,1.57,1.12s0.33,1.59.64,2.85a19.17,19.17,0,0,0,5.48,9.53,21.78,21.78,0,0,0,5.65,3.48c2.17,0.77,2.08.69,2.37,2.15,0.15,0.75.43,1.95,0.63,2.66,1.26,4.58,5.73,10.59,7.85,10.59a1.2,1.2,0,0,0,.77-0.19,7,7,0,0,0-1.53-1.82,18.36,18.36,0,0,1-4.18-5.69,15.62,15.62,0,0,1-1.66-6.41c0-1.35-.33-1.76-1.57-2a21,21,0,0,1-6.47-3.35,17.67,17.67,0,0,1-6-11.3l-0.16-1.22-2.5-1.22a13.15,13.15,0,0,1-4.64-3.37,12.63,12.63,0,0,1-3.1-4.15,25.9,25.9,0,0,1-1.41-3.71l-0.45-1.71h4.78l0.73,1a2.27,2.27,0,0,1,.61,1.94,10.5,10.5,0,0,0,1.22,4.92,8.6,8.6,0,0,0,3.34,3.08c1.11,0.46,1.21.26,0.35-.73a3.76,3.76,0,0,1,.13-5.37,2.09,2.09,0,0,1,2-.88,3,3,0,0,1,2.22.85l1.11,0.85,0.58-.74a4.33,4.33,0,0,1,5.28-1.2,3.94,3.94,0,0,1,2,3.79,2.91,2.91,0,0,1-.72,2.48,6.25,6.25,0,0,1-1.41,1.28,0.87,0.87,0,0,0-.61.95c0.4,3.06-.56,4.9-2.77,5.27a3.37,3.37,0,0,1-3.67-2.45l-0.23-1.14a0.58,0.58,0,0,0-.57-0.53c-1.2,0-.05,3.41,1.84,5.45a6.15,6.15,0,0,0,1.56,1.37c0.48,0,1,.75,1.42,2.12a18.77,18.77,0,0,0,.86,2.19c0.85,1.7,3.12,3.46,4.45,3.46,0.63,0,.54-0.43-0.15-0.75a4.62,4.62,0,0,1-2-3.31c0-2.55,2.43-4.53,4.53-3.68a5.76,5.76,0,0,1,1.61,1.23l0.85,0.92,0.77-.43,1.27-.73a4.23,4.23,0,0,1,1.65-.29h1.15l-0.16-1.82a100.85,100.85,0,0,1-.18-13.47c0.31-5.53.34-5.65,1.22-5.65,0.6,0,.65.06,0.47,0.53-0.38,1-.79,8.3-0.66,11.71,0.15,3.85.69,8.47,1.11,9.53a14.62,14.62,0,0,1,.93,4.76,8.78,8.78,0,0,0,.6,3,54.43,54.43,0,0,1,2,7.45,27.82,27.82,0,0,0,2.39,5.92,11.76,11.76,0,0,1,1.08,2.7c-0.07.38-.16,0.4-3.94,1.17l-3.52.72-4.42.94a34.12,34.12,0,0,0-3.82,1c-0.8.43-.63,0.8,1.78,3.74,0.78,0.95,2.08,2.58,2.89,3.63s1.7,2.16,2,2.47,0.81,1,1.22,1.53,1.53,2,2.5,3.19c1.86,2.35-1,2.81,1.48,6.07,0.82,1.08,1.86,2.34,2.29,2.8l0.79,0.84-0.06,12C142.66,206.26,142.63,207.06,142.27,206.65ZM131.46,156a3.82,3.82,0,0,0-1.18-1.58,21.24,21.24,0,0,1-5.46-10.17,9.75,9.75,0,0,0-.8-2.48,15.42,15.42,0,0,0-1.55-.76,24.71,24.71,0,0,1-5-3c-1.55-1.18-2.09-1.32-1.47-.37,0.34,0.52,7,9.33,11.81,15.56Q131,157.3,131.46,156Zm9.79-1.68c0.23-.28.08-0.86-0.77-3a73.29,73.29,0,0,1-3.35-10.07c-0.7-3-.92-3.53-1.39-3.53s-0.69.65-.32,1.35a5.13,5.13,0,0,1-.13,3.72,3.34,3.34,0,0,1-4.65.93,3.16,3.16,0,0,1-1.57-2.58c-0.17-1.21-.8-1.3-0.91-0.13-0.24,2.48,1.63,5.35,4.31,6.63a8.53,8.53,0,0,0,1.71.68,0.57,0.57,0,0,1,.44.41c1.12,3.32,3.58,5.9,5.63,5.93a1.49,1.49,0,0,0,1-.33h0Zm-10.22-16a2.72,2.72,0,0,0,1.07-1.92c0-.74-1-1.52-2.08-1.55a1.61,1.61,0,0,0-1.91,1.66A2.08,2.08,0,0,0,131,138.28Zm-12.64-17.61a1.69,1.69,0,0,0-.36-2.93,2,2,0,0,0-2.46.75,1,1,0,0,0-.16,1.34,2.31,2.31,0,0,0,.68.95A2.56,2.56,0,0,0,118.39,120.67Z" transform="translate(0.5 3.12)"/><path d="M84.06,217.23m28.65-10.82c-0.13-.4-0.3-0.47-0.9-0.38m-73.08,5.6c-1.58-.61-1.66-0.68-1.63-1.37a7.45,7.45,0,0,1,.64-2.05l0.6-1.32-0.72-.44a8.22,8.22,0,0,0-1.81-.72,20.3,20.3,0,0,1-2.74-1.06c-7.56-3.55-1.46-3.26-1.46-4.06a3.88,3.88,0,0,1,1.06-1.45c0.58-.58-7.21-3.16-6.89-3.69,0.57-.95.57-1.05,0.68-8a76,76,0,0,1,1.46-15.75A93,93,0,0,1,32,157.6l1.19-2.94A97.6,97.6,0,0,1,38.15,145a87.12,87.12,0,0,1,9.14-12.78,15.11,15.11,0,0,0,2-2.73,1.38,1.38,0,0,1,.47-0.75c0.35-.09.7,4.13,0.59,7.23,0,0.52,0,1.18,0,1.47,0,1.72,0,2.24.05,2.82,0,0.36,0,1.49,0,2.53s0,2.25,0,2.71,0,2.89,0,5.41a46.25,46.25,0,0,0,2.33,16.24,14.41,14.41,0,0,1,.72,2.39,2,2,0,0,1-1,1A5.07,5.07,0,0,0,51,171.95,2.92,2.92,0,0,1,49.89,173c-0.7.29-1.1,0.9-.78,1.18,0.77,0.67,8.62,2.82,10.28,2.82a19.12,19.12,0,0,1,3.7.64c2.23,0.59,2.71.64,6.29,0.59a23.43,23.43,0,0,1,4.76.22c0.83,0.26,2.57.18,8.75-.39a83.77,83.77,0,0,0,9.89-1.77c6-1.57,12.62-4,13.09-4.82a0.64,0.64,0,0,1,.47-0.34c0.4,0,1.76,1.71,2.19,2.74a6.76,6.76,0,0,0,1.22,1.74c0.47,0.48,1.27,1.37,1.76,2a9.34,9.34,0,0,0,1.78,1.66,7.92,7.92,0,0,1,2,2.3,14.57,14.57,0,0,0,3.38,3.69,28.35,28.35,0,0,0,3.12,2.37,4.75,4.75,0,0,1,1.37,1.18,15.42,15.42,0,0,0,4.63,3.18,3.67,3.67,0,0,1,1.36.93,2.23,2.23,0,0,0,.91.74c1.27,0.65,2.54,1.75,2.54,2.21a1.24,1.24,0,0,1-.81.81,3.32,3.32,0,0,0-.94.59,22.54,22.54,0,0,1-2.77,1.54c-1.45.73-2.8,1.42-3,1.54s-0.51.27-.7,0.35c-1.28.54-2.7,1.5-2.7,1.82,0,0.49-.46,0,14,14.42m-66.74-3.65-8.88-.4c0-.56-0.75-0.72-2-0.43m23.45-.93a135.77,135.77,0,0,0,15.07-2.22c0.39-.12,1.55-0.38,2.58-0.6,2-.42,7.75-2.11,10.81-3.19,6.87-2.43,16.91-7.38,20.2-10,0.46-.36.46-0.38-0.23-1-1.12-.94-1.68-1-3.16-0.21-0.72.38-1.82,1-2.45,1.47a16.83,16.83,0,0,1-2,1.18,12.49,12.49,0,0,0-1.44.78c-1.44,1-9.46,4.36-13.51,5.72a108.62,108.62,0,0,1-23.06,4.72,136.89,136.89,0,0,1-21,0,102.3,102.3,0,0,1-28.07-7c-1.23-.5-6.15-3-8.3-4.18l-1.25-.7L33.23,199c-1.1,1.16-1,1.37.65,2.38,7.48,4.46,11.48,7,22.7,8.91a84.54,84.54,0,0,0,14.21,1.3A88,88,0,0,0,81.44,211.49Zm2.13-4.41c0.41-.22.43-0.44,0.28-3.2a25.61,25.61,0,0,0-.27-3.08,29.92,29.92,0,0,0-5.86.22,15.08,15.08,0,0,1-1.64.28l-0.7.06L75.3,204c-0.1,3.86-.33,3.66,4.14,3.46A24.89,24.89,0,0,0,83.56,207.08Zm-16.76-.55a14.52,14.52,0,0,0,.23-3v-2.44l-1.35-.14c-0.74-.08-2.39-0.29-3.66-0.47-2.54-.37-2.93-0.31-3.09.43A21.17,21.17,0,0,0,58.5,206a42.68,42.68,0,0,0,7.06,1.12C66.44,207.13,66.6,207.06,66.8,206.53Zm5.1-.34a1.36,1.36,0,0,0,.77-1.65c-0.17-1.21-2.44-1.68-3.16-.65a1.85,1.85,0,0,0,.1,2.3C70.21,206.79,70.93,206.79,71.9,206.2Zm26.25-1.34a16.34,16.34,0,0,0,2.9-.86c0.37-.3.22-1.92-0.31-3.42a13.15,13.15,0,0,1-.49-2c-0.21-1.41-.56-1.49-3.11-0.78l-3.62,1a3.69,3.69,0,0,0-1.7.75,3.37,3.37,0,0,0,.08,1.33c0.12,0.54.35,1.67,0.5,2.51,0.44,2.35.51,2.44,1.94,2.25C95,205.54,96.73,205.2,98.15,204.86ZM89,205a2.45,2.45,0,0,0,1-.82,1.08,1.08,0,0,0,.11-1.27,2.12,2.12,0,0,0-1.87-1.21,1.89,1.89,0,0,0-1.67,1.76A1.74,1.74,0,0,0,89,205Zm-33.25-.78a1.58,1.58,0,0,0-.22-2.65c-1.48-.77-2.8-0.17-2.8,1.28A1.8,1.8,0,0,0,55.72,204.25Zm-5.59-.87a25.08,25.08,0,0,0,.89-4.59c-0.06-.29-0.59-0.53-1.84-0.85-1-.24-2.58-0.73-3.59-1.09-1.3-.46-1.93-0.58-2.19-0.41a9.75,9.75,0,0,0-1.17,2.7c-0.62,1.93-.74,2.53-0.51,2.73a16.21,16.21,0,0,0,2.75,1l3.05,1A5.13,5.13,0,0,0,49,204C49.8,204,50,203.86,50.13,203.37Zm55.28-1.91a1.67,1.67,0,0,0,.1-3,2.76,2.76,0,0,0-2.48.61,1.79,1.79,0,0,0,1,2.44A1.24,1.24,0,0,0,105.41,201.46Zm7.88-1.63a25.37,25.37,0,0,0,3.59-1.62l0.52-.42-0.61-1.5c-0.34-.83-0.84-2.1-1.13-2.84a3.51,3.51,0,0,0-.88-1.47,9.06,9.06,0,0,0-2.74,1c-1.31.63-2.78,1.28-3.28,1.44a1.94,1.94,0,0,0-1,.63c-0.25.65,1.35,5.6,1.88,5.82S110.14,201.05,113.28,199.82ZM75,200.55c0.28-.18.37-0.9,0.44-3.45,0.07-2.89,0-3.26-.34-3.54s-7-.45-7.24-0.12a29,29,0,0,0-.38,3.21c-0.19,2.18-.19,3.09,0,3.28a11.16,11.16,0,0,0,2.89.52C73.9,200.8,74.6,200.82,75,200.55Zm13.33-1.1a13.8,13.8,0,0,0,3-.64c0.3-.23.3-0.53,0-2.38-0.42-2.78-.81-4.28-1.19-4.6a1.5,1.5,0,0,0-1.32,0,24.24,24.24,0,0,1-3.17.46,14.1,14.1,0,0,0-2.39.33,7,7,0,0,0-.12,2.67c0.15,3.18.27,4,.67,4.36S84.3,200,88.34,199.45Zm-49-.36a1.55,1.55,0,0,0-.21-2.29,1.85,1.85,0,0,0-2.59.11,1.52,1.52,0,0,0,0,2.19A1.91,1.91,0,0,0,39.37,199.09Zm20.54-3.24c0.39-2.43.45-3.24,0.24-3.44a8.17,8.17,0,0,0-2.16-.67c-1-.22-2.44-0.57-3.12-0.78-1.63-.5-1.72-0.39-2.49,2.95-0.83,3.6-.82,3.75.27,4a33.21,33.21,0,0,0,5.93,1.13l0.82,0Zm-25.73.53a12.21,12.21,0,0,0,1-2.76c0-.65-0.1-0.77-1.77-1.62s-1.83-.91-2.35-0.55c-1.15.8-4.23,3.9-4.14,4.17A16.55,16.55,0,0,0,31.08,198C33,198.75,33.1,198.68,34.17,196.37Zm46.41,1.55a1.86,1.86,0,0,0,0-2.65,2.15,2.15,0,0,0-2.66.21c-0.74.74-.73,1.32,0,2.23A1.69,1.69,0,0,0,80.58,197.92Zm-15.49-.58a1.31,1.31,0,0,0,0-2.1,1.68,1.68,0,1,0-1.89,2.68A1.54,1.54,0,0,0,65.09,197.34Zm38.21-1.72c3.79-1.24,3.66-1.17,3.67-1.75,0-1.47-2-6.09-2.65-6.23s-6.31,1.65-6.45,2a35.92,35.92,0,0,0,1.61,6.47C99.78,196.71,100.09,196.67,103.3,195.62Zm-8,0a2.45,2.45,0,0,0,1-.82,1.09,1.09,0,0,0,.1-1.31,1.81,1.81,0,0,0-3-.65,1.48,1.48,0,0,0,.18,2.41C94.4,195.92,94.48,195.93,95.31,195.62Zm-51.47-.79a27.23,27.23,0,0,0,1.81-5.88c0-.75.08-0.71-3.73-2.24-2.59-1-3.19-1.21-3.43-.95A35.06,35.06,0,0,0,36,192a0.88,0.88,0,0,0,.29.68A57.29,57.29,0,0,0,43,195.35,1.13,1.13,0,0,0,43.84,194.83Zm77.53,0a1.75,1.75,0,1,0-1.92-2.9,1.55,1.55,0,0,0-.12,2.55A1.5,1.5,0,0,0,121.37,194.86Zm-71.27-.58a2.35,2.35,0,0,0,.49-1.19c0-.71-1.06-1.82-1.56-1.63a2.72,2.72,0,0,1-.81.14,1.69,1.69,0,0,0-1.39,1.6A1.86,1.86,0,0,0,50.1,194.28Zm76.15-1a0.83,0.83,0,0,0,.45-0.46,5.89,5.89,0,0,0-2.45-1.65c-0.46,0-.46.08,0,1C125,193.56,125.31,193.75,126.24,193.25Zm-44.49-.59a0.76,0.76,0,0,0,.59-0.64,36.92,36.92,0,0,0-.47-5.35l-0.17-1.06-2.58.08A13.92,13.92,0,0,0,76,186c-0.58.27-.59,0.32-0.52,2.62,0.09,3.17.24,4.07,0.69,4.16A45.42,45.42,0,0,0,81.75,192.66ZM68,190.43c0.25-2.69.14-4.26-.3-4.48a20,20,0,0,0-5.59-.67c-0.63.24-.59,0.1-1.1,3.35-0.3,1.88-.33,2.63-0.14,2.82,0.36,0.37,4.33,1.06,5.76,1l1.17,0Zm25.77,0a16.23,16.23,0,0,0,3-1c0.25-.23.17-0.78-0.43-3a15,15,0,0,0-1-3c-0.26-.27-0.71-0.22-2.86.29a9.63,9.63,0,0,0-2.81,1,2,2,0,0,0-.05,1.47c0.12,0.61.31,1.89,0.44,2.84,0.24,1.87.35,2.16,0.77,2.16C91,191.14,92.32,190.81,93.81,190.4Zm24-.58c1.59-.8,2.57-1.43,2.52-1.62a20.76,20.76,0,0,0-2.6-2.56c-1.9-1.7-2.63-2.21-2.94-2.08a10.4,10.4,0,0,0-2.53,1.48,1.87,1.87,0,0,0,.2,1.12c1.45,3.53,2.16,5,2.44,5A21,21,0,0,0,117.79,189.82Zm-6.83.55a1.56,1.56,0,0,0-.27-2.36,1.63,1.63,0,0,0-2.27,2.34A1.77,1.77,0,0,0,111,190.37Zm-37.83-.46c1.56-1.68-1.08-3.83-2.7-2.2a1.36,1.36,0,0,0,0,2.23A2,2,0,0,0,73.13,189.92Zm-20-.25c0.41-.55,1.29-5.6,1-5.92s-0.87-.51-4-1.47c-1.51-.46-2.1-0.41-2.36.21a27.13,27.13,0,0,0-1.34,5.45,3.21,3.21,0,0,0,1.49.74c0.75,0.22,1.95.59,2.66,0.82C52.15,190,52.8,190.05,53.1,189.67Zm34.55-.36a1.68,1.68,0,0,0-1.3-2.83,1.29,1.29,0,0,0-1.44.56c-1.13,1.44-.1,3.09,1.74,2.8A1.79,1.79,0,0,0,87.65,189.31Zm-28.89-.54a1.79,1.79,0,0,0,.37-2,2.71,2.71,0,0,0-2-1.07,1.67,1.67,0,0,0-1.42,1.75A1.81,1.81,0,0,0,58.76,188.77Zm51.65-4a4.42,4.42,0,0,0,1.13-.73,5.42,5.42,0,0,0-.65-1.94c-0.44-.94-1-2.11-1.18-2.6a2.27,2.27,0,0,0-.77-1c-0.85-.33-6.2,1.84-6.2,2.51a25,25,0,0,0,1.94,5.71A26.15,26.15,0,0,0,110.41,184.82Zm-9.16,1.1a1.62,1.62,0,0,0-1.31-2.78A1.78,1.78,0,1,0,101.25,185.92Zm-21-1.37c0.78-.12,2.31-0.29,3.41-0.37a21.48,21.48,0,0,0,2.7-.33c0.39-.1,1.5-0.32,2.47-0.48a79.27,79.27,0,0,0,11.43-2.95c4.26-1.43,8.29-3.15,8.63-3.69,0.16-.25,0-0.59-0.43-1.21-0.7-.92-1.16-1-1.89-0.53a56.76,56.76,0,0,1-7.63,3.1c-12.17,4.2-25,5.08-38.88,2.67a53.75,53.75,0,0,1-11-2.75l-3.25-1.09-0.8.87c-0.9,1-1,1.3-.39,1.51,0.23,0.08.83,0.33,1.35,0.56a72.79,72.79,0,0,0,14.11,3.85C66.61,184.83,76,185.22,80.3,184.55ZM44.6,184a1.46,1.46,0,0,0-.74-2.62,1,1,0,0,0-1.23.5,1.55,1.55,0,0,0,1,2.7A1.91,1.91,0,0,0,44.6,184Zm3.28-10.43c1-1,2.45-2.46,3.15-3.19L52.3,169l-0.61-2.42c-0.88-3.47-1.76-7.77-2-9.94a13.09,13.09,0,0,0-.34-2c-0.28-.28-0.81.56-2.25,3.57a60.17,60.17,0,0,0-4.33,12.5c-1.61,7.31-1.76,8.28-1.38,8.66C41.5,179.6,44.7,176.71,47.88,173.54Zm94.39,33.11c-0.21-.24-1.09-1.49-2-2.76s-2.09-3-2.72-3.83a23.25,23.25,0,0,1-1.43-2,20,20,0,0,0-1.38-1.93c-0.61-.78,3.65.48,3-0.49s-1.61-2.35-2.13-3.06-1.52-2.14-2.24-3.18c-2.37-3.45-2.59-3.76-3.67-5.18-0.59-.77-1.69-2.31-2.45-3.41s-2.15-3-3.09-4.3-1.87-2.59-2.05-2.94a19.66,19.66,0,0,0-1.35-2c-0.56-.74-1.55-2.1-2.2-3s-1.49-2.08-1.88-2.58-1.39-1.93-2.23-3.18-2.32-3.36-3.29-4.69c-2.95-4.06-7-9.72-9.1-12.79a11.46,11.46,0,0,0-1.23-1.58A12.35,12.35,0,0,1,99.57,142c-1.78-2.67-3-4.37-3.49-4.93-0.27-.29-1.39-1.84-2.49-3.44s-2.51-3.58-3.12-4.41-1.48-2-1.94-2.68c-2.76-3.89-3.83-5.38-4.35-6.08-2.57-3.46-5-6.93-6.49-9.09a9.74,9.74,0,0,0-1.24-1.58c-0.33-.25-0.3-0.29.21-0.29s0.81,0.33,1.64,1.54c0.58,0.85,1.43,2,1.89,2.64,1,1.33,5.6,7.69,6.15,8.51,0.22,0.32,1.31,1.86,2.44,3.41,3.4,4.69,6.47,9,8.08,11.28,2.05,2.93,6.59,9.24,9.71,13.49,1.4,1.91,3.12,4.32,3.84,5.35,1.28,1.86,2,2.88,5.48,7.68,2.88,4,3.11,4.3,4.81,6.71,1.85,2.62,6,8.39,8.16,11.37,0.8,1.1,2,2.86,2.76,3.91s2.41,3.43,3.75,5.29,2.92,4.08,3.51,4.92-3.79-.57-3.26.14c0.91,1.21,1.64,2.22,4.38,6.1s2.81,4,2.74,4.63S142.64,207.08,142.27,206.66ZM141.6,184.1c-0.58-.78-2.11-2.77-3.41-4.44s2.74-.63,2.48-1c-0.39-.54-3.65-4.69-7.87-10l-1.88-2.4q-3.26-4.19-5.17-6.42c-0.72-.84-1.59-2-1.94-2.47s-2.33-3.11-4.4-5.77-5.37-6.89-7.31-9.41-4.33-5.57-5.31-6.76-2.47-3.08-3.33-4.18c-4.85-6.26-6.85-8.81-7.91-10.1s-2.08-2.6-6.21-8l-1.7-2.21-1.11-1.44h7.7l0.67,0.79c0.37,0.43,1.41,1.77,2.31,3s2.87,3.74,4.36,5.65,4.37,5.63,6.38,8.27,3.94,5.06,4.29,5.38l0.63,0.59-0.17-.71a24.42,24.42,0,0,0-.85-2.35A13.58,13.58,0,0,1,111,127c-0.2-1.9-.35-2.12-1.91-2.87a26.15,26.15,0,0,1-6.13-4.91,21,21,0,0,1-3.88-7.11c-0.7-2.26-.74-2.64-0.26-2.64a0.41,0.41,0,0,1,.35.45,24.68,24.68,0,0,0,2.43,6.43,16.42,16.42,0,0,0,7.7,6.86c1.2,0.45,1.51.67,1.57,1.12s0.33,1.59.64,2.85a19.17,19.17,0,0,0,5.48,9.53,21.78,21.78,0,0,0,5.65,3.48c2.17,0.77,2.08.69,2.37,2.15,0.15,0.75.43,1.95,0.63,2.66,1.26,4.58,5.73,10.59,7.85,10.59a1.2,1.2,0,0,0,.77-0.19,7,7,0,0,0-1.53-1.82,18.36,18.36,0,0,1-4.18-5.69,15.62,15.62,0,0,1-1.66-6.41c0-1.35-.33-1.76-1.57-2a21,21,0,0,1-6.47-3.35,17.67,17.67,0,0,1-6-11.3l-0.16-1.22-2.5-1.22a13.15,13.15,0,0,1-4.64-3.37,12.63,12.63,0,0,1-3.1-4.15,25.9,25.9,0,0,1-1.41-3.71l-0.45-1.71h4.78l0.73,1a2.27,2.27,0,0,1,.61,1.94,10.5,10.5,0,0,0,1.22,4.92,8.6,8.6,0,0,0,3.34,3.08c1.11,0.46,1.21.26,0.35-.73a3.76,3.76,0,0,1,.13-5.37,2.09,2.09,0,0,1,2-.88,3,3,0,0,1,2.22.85l1.11,0.85,0.58-.74a4.33,4.33,0,0,1,5.28-1.2,3.94,3.94,0,0,1,2,3.79,2.91,2.91,0,0,1-.72,2.48,6.25,6.25,0,0,1-1.41,1.28,0.87,0.87,0,0,0-.61.95c0.4,3.06-.56,4.9-2.77,5.27a3.4,3.4,0,0,1-3.64-2.33c-0.33-1.67-.38-1.79-0.84-1.79-1.2,0-.05,3.41,1.84,5.45a6.15,6.15,0,0,0,1.56,1.37c0.48,0,1,.75,1.42,2.12a18.77,18.77,0,0,0,.86,2.19c0.85,1.7,3.12,3.46,4.45,3.46,0.63,0,.54-0.43-0.15-0.75a4.62,4.62,0,0,1-2-3.31c0-2.55,2.43-4.53,4.53-3.68a5.76,5.76,0,0,1,1.61,1.23l0.85,0.92,0.77-.43,1.27-.73a4.23,4.23,0,0,1,1.65-.29h1.15l-0.16-1.82a100.85,100.85,0,0,1-.18-13.47c0.31-5.53.34-5.65,1.22-5.65,0.6,0,.65.06,0.47,0.53-0.38,1-.79,8.3-0.66,11.71,0.15,3.85.69,8.47,1.11,9.53a14.62,14.62,0,0,1,.93,4.76,8.78,8.78,0,0,0,.6,3,54.43,54.43,0,0,1,2,7.45,27.82,27.82,0,0,0,2.39,5.92,11.76,11.76,0,0,1,1.08,2.7c-0.07.38-.16,0.4-3.94,1.17l-3.52.72-4.42.94a34.12,34.12,0,0,0-3.82,1c-0.8.43-.63,0.8,1.78,3.74,0.78,0.95,2.08,2.58,2.89,3.63s1.7,2.16,2,2.47,0.81,1,1.22,1.53,1.53,2,2.5,3.19c1.86,2.35-1,2.81,1.48,6.07,0.82,1.08,1.86,2.35,2.3,2.81a2,2,0,0,1,.73,2l-0.07,1.15ZM131.46,156a3.82,3.82,0,0,0-1.18-1.58,21.24,21.24,0,0,1-5.46-10.17,9.75,9.75,0,0,0-.8-2.48,15.42,15.42,0,0,0-1.55-.76,24.71,24.71,0,0,1-5-3c-1.55-1.18-2.09-1.32-1.47-.37,0.34,0.52,7,9.33,11.81,15.56Q131,157.3,131.46,156Zm9.79-1.68c0.23-.28.08-0.86-0.77-3a73.29,73.29,0,0,1-3.35-10.07c-0.7-3-.92-3.53-1.39-3.53s-0.69.65-.32,1.35a5.13,5.13,0,0,1-.13,3.72,3.34,3.34,0,0,1-4.65.93,3.16,3.16,0,0,1-1.57-2.58c-0.17-1.21-.8-1.3-0.91-0.13-0.24,2.48,1.63,5.35,4.31,6.63a8.53,8.53,0,0,0,1.71.68,0.57,0.57,0,0,1,.44.41c1.12,3.32,3.58,5.9,5.63,5.93a1.49,1.49,0,0,0,1-.33h0Zm-10.22-16a2.72,2.72,0,0,0,1.07-1.92c0-.74-1-1.52-2.08-1.55a1.61,1.61,0,0,0-1.91,1.66A2.08,2.08,0,0,0,131,138.28Zm-12.64-17.61a1.69,1.69,0,0,0-.36-2.93,2,2,0,0,0-2.46.75,1,1,0,0,0-.16,1.34,2.31,2.31,0,0,0,.68.95A2.56,2.56,0,0,0,118.39,120.67Z" transform="translate(0.5 3.12)"/></svg>