<svg id="svg2633_copy_5" data-name="svg2633 copy 5" xmlns="http://www.w3.org/2000/svg" xmlns:xlink="http://www.w3.org/1999/xlink" viewBox="0 0 45.25 45.3"><defs><style>.cls-1{fill:#e4e4e4;}.cls-2{fill:#22231e;}.cls-3{opacity:0.75;isolation:isolate;fill:url(#linear-gradient);}.cls-4{fill:#fff;}</style><linearGradient id="linear-gradient" x1="239.5" y1="-87.25" x2="239.5" y2="-116.3" gradientTransform="matrix(0.7, 0, 0, -0.74, -127.03, -54.23)" gradientUnits="userSpaceOnUse"><stop offset="0" stop-color="#fff"/><stop offset="1" stop-color="#fff" stop-opacity="0"/></linearGradient></defs><title>Clear-111</title><g id="layer1"><path id="path3676" class="cls-1" d="M63.62,30a22.62,22.62,0,1,1-45.25,0v0a22.62,22.62,0,1,1,45.25,0v0Z" transform="translate(-18.38 -7.35)"/></g><path id="path3676-2" data-name="path3676" class="cls-2" d="M63.06,30a22.06,22.06,0,1,1-44.12,0v0a22.06,22.06,0,1,1,44.12,0v0Z" transform="translate(-18.38 -7.35)"/><path id="path3678" class="cls-3" d="M56.73,22c0,6.62-7,12-15.73,12S25.27,28.61,25.27,22s7-12,15.73-12S56.73,15.37,56.73,22Z" transform="translate(-18.38 -7.35)"/><path d="M26.52,32.25L28.64,33A5.32,5.32,0,0,1,28,34.84a3.1,3.1,0,0,1-1.14,1.1,3.61,3.61,0,0,1-1.73.37A4.26,4.26,0,0,1,23,35.86a3.67,3.67,0,0,1-1.4-1.59A6.34,6.34,0,0,1,21,31.36a5.64,5.64,0,0,1,1-3.64A3.56,3.56,0,0,1,25,26.45a3.45,3.45,0,0,1,2.33.73,4.39,4.39,0,0,1,1.26,2.24L26.43,30a2.48,2.48,0,0,0-.23-0.64,1.52,1.52,0,0,0-.5-0.52A1.23,1.23,0,0,0,25,28.66a1.37,1.37,0,0,0-1.26.81,4,4,0,0,0-.33,1.88,4.19,4.19,0,0,0,.4,2.17A1.26,1.26,0,0,0,25,34.1a1.23,1.23,0,0,0,1-.48A3.26,3.26,0,0,0,26.52,32.25Z" transform="translate(-18.38 -7.35)"/><path d="M29.81,26.61h2.42V33.8H36v2.35h-6.2V26.61Z" transform="translate(-18.38 -7.35)"/><path d="M37.11,26.61h6.49v2H39.53v1.52H43.3v1.95H39.53V34h4.18v2.16h-6.6V26.61Z" transform="translate(-18.38 -7.35)"/><path d="M49.83,34.58H47.08L46.7,36.15H44.23l2.94-9.54h2.64l2.94,9.54H50.22Zm-0.5-2.06-0.86-3.43-0.86,3.43h1.72Z" transform="translate(-18.38 -7.35)"/><path d="M53.56,36.15V26.61h4a4.87,4.87,0,0,1,1.71.23,1.91,1.91,0,0,1,1,.87,3.07,3.07,0,0,1,.36,1.55,3.12,3.12,0,0,1-.28,1.37,2.48,2.48,0,0,1-.76.93,2.62,2.62,0,0,1-.85.38,2.25,2.25,0,0,1,.63.35,2.81,2.81,0,0,1,.39.5,3.89,3.89,0,0,1,.34.59l1.17,2.76H58.53l-1.29-2.92a2.25,2.25,0,0,0-.44-0.74,0.89,0.89,0,0,0-.59-0.22H56v3.87H53.56ZM56,30.48h1a3.05,3.05,0,0,0,.64-0.13A0.64,0.64,0,0,0,58,30a1,1,0,0,0,.15-0.55A1,1,0,0,0,58,28.79a1.26,1.26,0,0,0-.9-0.25H56v1.94Z" transform="translate(-18.38 -7.35)"/><path class="cls-4" d="M26.52,29.9l2.12,0.78A5.31,5.31,0,0,1,28,32.5a3.1,3.1,0,0,1-1.14,1.1,3.61,3.61,0,0,1-1.73.37A4.26,4.26,0,0,1,23,33.52a3.68,3.68,0,0,1-1.4-1.59A6.34,6.34,0,0,1,21,29a5.64,5.64,0,0,1,1-3.64A3.56,3.56,0,0,1,25,24.1a3.45,3.45,0,0,1,2.33.73,4.39,4.39,0,0,1,1.26,2.24l-2.14.58A2.48,2.48,0,0,0,26.19,27a1.52,1.52,0,0,0-.5-0.52A1.23,1.23,0,0,0,25,26.31a1.37,1.37,0,0,0-1.26.81A4,4,0,0,0,23.44,29a4.19,4.19,0,0,0,.4,2.17,1.26,1.26,0,0,0,1.11.59,1.23,1.23,0,0,0,1-.48A3.26,3.26,0,0,0,26.52,29.9Z" transform="translate(-18.38 -7.35)"/><path class="cls-4" d="M29.81,24.27h2.42v7.19H36v2.35h-6.2V24.27Z" transform="translate(-18.38 -7.35)"/><path class="cls-4" d="M37.11,24.27h6.49v2H39.53v1.52H43.3v1.95H39.53v1.88h4.18v2.16h-6.6V24.27Z" transform="translate(-18.38 -7.35)"/><path class="cls-4" d="M49.83,32.23H47.08L46.7,33.81H44.23l2.94-9.54h2.64l2.94,9.54H50.22Zm-0.5-2.06-0.86-3.43-0.86,3.43h1.72Z" transform="translate(-18.38 -7.35)"/><path class="cls-4" d="M53.56,33.81V24.27h4a4.87,4.87,0,0,1,1.71.23,1.91,1.91,0,0,1,1,.87,3.07,3.07,0,0,1,.36,1.55,3.12,3.12,0,0,1-.28,1.37,2.48,2.48,0,0,1-.76.93,2.64,2.64,0,0,1-.85.38,2.25,2.25,0,0,1,.63.35,2.82,2.82,0,0,1,.39.5,3.86,3.86,0,0,1,.34.59l1.17,2.76H58.53l-1.29-2.92a2.23,2.23,0,0,0-.44-0.74,0.89,0.89,0,0,0-.59-0.22H56v3.87H53.56ZM56,28.13h1A3.05,3.05,0,0,0,57.65,28,0.64,0.64,0,0,0,58,27.7a1,1,0,0,0,.15-0.55A1,1,0,0,0,58,26.44a1.26,1.26,0,0,0-.9-0.25H56v1.94Z" transform="translate(-18.38 -7.35)"/></svg>