<svg id="svg2633_copy_5" data-name="svg2633 copy 5" xmlns="http://www.w3.org/2000/svg" xmlns:xlink="http://www.w3.org/1999/xlink" viewBox="0 0 45.25 45.3"><defs><style>.cls-1{fill:#e4e4e4;}.cls-2{fill:#73d216;}.cls-3{opacity:0.75;isolation:isolate;fill:url(#linear-gradient);}.cls-4{fill:#1e6314;}.cls-5{fill:#fff;}</style><linearGradient id="linear-gradient" x1="239.5" y1="-87.25" x2="239.5" y2="-116.3" gradientTransform="matrix(0.7, 0, 0, -0.74, -127.03, -54.23)" gradientUnits="userSpaceOnUse"><stop offset="0" stop-color="#fff"/><stop offset="1" stop-color="#fff" stop-opacity="0"/></linearGradient></defs><title>Deal-222</title><g id="layer1"><path id="path3676" class="cls-1" d="M63.62,30a22.62,22.62,0,1,1-45.25,0v0a22.62,22.62,0,1,1,45.25,0v0Z" transform="translate(-18.38 -7.35)"/></g><g id="layer1-2" data-name="layer1"><path id="path3676-2" data-name="path3676" class="cls-2" d="M63.06,30a22.06,22.06,0,1,1-44.12,0v0a22.06,22.06,0,1,1,44.12,0v0Z" transform="translate(-18.38 -7.35)"/><path id="path3678" class="cls-3" d="M56.73,22c0,6.62-7,12-15.73,12S25.27,28.61,25.27,22s7-12,15.73-12S56.73,15.37,56.73,22Z" transform="translate(-18.38 -7.35)"/></g><path class="cls-4" d="M21.44,26H26a5.51,5.51,0,0,1,2.2.37,3.57,3.57,0,0,1,1.38,1.06A4.38,4.38,0,0,1,30.42,29,7.46,7.46,0,0,1,30.66,31a6.75,6.75,0,0,1-.37,2.49,4.12,4.12,0,0,1-1,1.48,3.3,3.3,0,0,1-1.39.8A7.17,7.17,0,0,1,26,36h-4.6V26Zm3.1,2.27v5.48H25.3a3.18,3.18,0,0,0,1.38-.22,1.45,1.45,0,0,0,.64-0.75A4.72,4.72,0,0,0,27.55,31,3.38,3.38,0,0,0,27,28.84a2.2,2.2,0,0,0-1.72-.59H24.54Z" transform="translate(-18.38 -7.35)"/><path class="cls-4" d="M32.28,26h8.3v2.14h-5.2v1.59h4.82v2H35.39v2h5.35V36H32.28V26Z" transform="translate(-18.38 -7.35)"/><path class="cls-4" d="M48.56,34.35H45L44.56,36H41.4l3.77-10h3.38l3.77,10H49.06Zm-0.64-2.17-1.11-3.6-1.09,3.6h2.2Z" transform="translate(-18.38 -7.35)"/><path class="cls-4" d="M53.29,26h3.1v7.55h4.83V36H53.29V26Z" transform="translate(-18.38 -7.35)"/><path class="cls-5" d="M21.44,24H26a5.51,5.51,0,0,1,2.2.37,3.57,3.57,0,0,1,1.38,1.06A4.38,4.38,0,0,1,30.42,27,7.46,7.46,0,0,1,30.66,29a6.75,6.75,0,0,1-.37,2.49,4.12,4.12,0,0,1-1,1.48,3.3,3.3,0,0,1-1.39.8A7.17,7.17,0,0,1,26,34h-4.6V24Zm3.1,2.27v5.48H25.3a3.18,3.18,0,0,0,1.38-.22,1.45,1.45,0,0,0,.64-0.75A4.72,4.72,0,0,0,27.55,29,3.38,3.38,0,0,0,27,26.84a2.2,2.2,0,0,0-1.72-.59H24.54Z" transform="translate(-18.38 -7.35)"/><path class="cls-5" d="M32.28,24h8.3v2.14h-5.2v1.59h4.82v2H35.39v2h5.35V34H32.28V24Z" transform="translate(-18.38 -7.35)"/><path class="cls-5" d="M48.56,32.35H45L44.56,34H41.4l3.77-10h3.38l3.77,10H49.06Zm-0.64-2.17-1.11-3.6-1.09,3.6h2.2Z" transform="translate(-18.38 -7.35)"/><path class="cls-5" d="M53.29,24h3.1v7.55h4.83V34H53.29V24Z" transform="translate(-18.38 -7.35)"/></svg>