<svg id="Layer_3" data-name="Layer 3" xmlns="http://www.w3.org/2000/svg" xmlns:xlink="http://www.w3.org/1999/xlink" viewBox="0 0 54.99 54.54"><defs><style>.cls-1{fill:url(#linear-gradient);}.cls-2{fill:#cecece;}</style><linearGradient id="linear-gradient" x1="-1034.71" y1="-478.17" x2="-1056.37" y2="-541.31" gradientTransform="translate(-583.77 -288.56) rotate(180) scale(0.59)" gradientUnits="userSpaceOnUse"><stop offset="0" stop-color="#fff"/><stop offset="1" stop-color="#fff" stop-opacity="0"/></linearGradient></defs><title>FullScreen-1a</title><g id="layer1"><g id="g2071"><rect id="rect3417" width="54.99" height="54.54" rx="14.87" ry="14.87"/><path id="path3423" class="cls-1" d="M54.88,5.38H28.95A12.36,12.36,0,0,0,16.55,17.77v25.1c0.22,5.36,1.08,2,2.7-4,1.89-6.9,8-12.92,15.55-17.44C40.53,18,46.94,15.81,58.6,15.6,65.21,15.48,64.63,7.09,54.88,5.38Z" transform="translate(-14.42 -3.05)"/></g></g><path d="M58.39,11.85H49.49a3,3,0,1,0,0,5.93h1.78L44.45,24.6a2.78,2.78,0,0,0-.89,2.07,2.94,2.94,0,0,0,3,3,2.73,2.73,0,0,0,2.08-.89l6.82-6.82v1.78a3,3,0,0,0,5.93,0V14.81A3,3,0,0,0,58.39,11.85ZM34.67,35.57a2.73,2.73,0,0,0-2.08.89l-6.82,6.82V41.49a3,3,0,1,0-5.93,0v8.89a3,3,0,0,0,3,3h8.89a3,3,0,0,0,0-5.93H29.93l6.82-6.82a2.78,2.78,0,0,0,.89-2.07A2.94,2.94,0,0,0,34.67,35.57Z" transform="translate(-14.42 -3.05)"/><path class="cls-2" d="M58.39,8.85H49.49a3,3,0,1,0,0,5.93h1.78L44.45,21.6a2.78,2.78,0,0,0-.89,2.07,2.94,2.94,0,0,0,3,3,2.73,2.73,0,0,0,2.08-.89l6.82-6.82v1.78a3,3,0,0,0,5.93,0V11.81A3,3,0,0,0,58.39,8.85ZM34.67,32.57a2.73,2.73,0,0,0-2.08.89l-6.82,6.82V38.49a3,3,0,1,0-5.93,0v8.89a3,3,0,0,0,3,3h8.89a3,3,0,0,0,0-5.93H29.93l6.82-6.82a2.78,2.78,0,0,0,.89-2.07A2.94,2.94,0,0,0,34.67,32.57Z" transform="translate(-14.42 -3.05)"/></svg>