<svg id="Layer_3_copy_4" data-name="Layer 3 copy 4" xmlns="http://www.w3.org/2000/svg" xmlns:xlink="http://www.w3.org/1999/xlink" viewBox="0 0 54.99 54.54"><defs><style>.cls-1{fill:#4f4e4e;}.cls-2{fill:url(#linear-gradient);}.cls-3{fill:#fff;}</style><linearGradient id="linear-gradient" x1="-1034.71" y1="-478.17" x2="-1056.37" y2="-541.31" gradientTransform="translate(-583.77 -288.56) rotate(180) scale(0.59)" gradientUnits="userSpaceOnUse"><stop offset="0" stop-color="#fff"/><stop offset="1" stop-color="#fff" stop-opacity="0"/></linearGradient></defs><title>Info-2</title><g id="layer1"><g id="g2071"><rect id="rect3417" class="cls-1" width="54.99" height="54.54" rx="14.87" ry="14.87"/><path id="path3423" class="cls-2" d="M54.88,5.38H28.95A12.36,12.36,0,0,0,16.55,17.77v25.1c0.22,5.36,1.08,2,2.7-4,1.89-6.9,8-12.92,15.55-17.44C40.53,18,46.94,15.81,58.6,15.6,65.21,15.48,64.63,7.09,54.88,5.38Z" transform="translate(-14.42 -3.05)"/></g></g><path d="M48,23.53V50.27H37V23.53H48ZM42.53,11.6A5.63,5.63,0,0,1,46.39,13a4.47,4.47,0,0,1,.09,6.83,5.78,5.78,0,0,1-3.94,1.34,5.78,5.78,0,0,1-3.94-1.34A4.47,4.47,0,0,1,38.68,13,5.63,5.63,0,0,1,42.53,11.6Z" transform="translate(-14.42 -3.05)"/><path class="cls-3" d="M48,19.42V46H37V19.42H48ZM42.53,7.56A5.65,5.65,0,0,1,46.39,9a4.43,4.43,0,0,1,.09,6.79,5.8,5.8,0,0,1-3.94,1.33,5.8,5.8,0,0,1-3.94-1.33A4.43,4.43,0,0,1,38.68,9,5.65,5.65,0,0,1,42.53,7.56Z" transform="translate(-14.42 -3.05)"/></svg>