<svg id="svg2633_copy_5" data-name="svg2633 copy 5" xmlns="http://www.w3.org/2000/svg" xmlns:xlink="http://www.w3.org/1999/xlink" viewBox="0 0 45.25 45.3"><defs><style>.cls-1{fill:#e4e4e4;}.cls-2{fill:#22231e;}.cls-3{opacity:0.75;isolation:isolate;fill:url(#linear-gradient);}.cls-4{fill:#fff;stroke:#020202;stroke-miterlimit:10;}</style><linearGradient id="linear-gradient" x1="239.5" y1="-87.25" x2="239.5" y2="-116.3" gradientTransform="matrix(0.7, 0, 0, -0.74, -127.03, -54.23)" gradientUnits="userSpaceOnUse"><stop offset="0" stop-color="#fff"/><stop offset="1" stop-color="#fff" stop-opacity="0"/></linearGradient></defs><title>Pays-111</title><g id="layer1"><path id="path3676" class="cls-1" d="M63.62,30a22.62,22.62,0,1,1-45.25,0v0a22.62,22.62,0,1,1,45.25,0v0Z" transform="translate(-18.38 -7.35)"/></g><path id="path3676-2" data-name="path3676" class="cls-2" d="M63.06,30a22.06,22.06,0,1,1-44.12,0v0a22.06,22.06,0,1,1,44.12,0v0Z" transform="translate(-18.38 -7.35)"/><path id="path3678" class="cls-3" d="M56.73,22c0,6.62-7,12-15.73,12S25.27,28.61,25.27,22s7-12,15.73-12S56.73,15.37,56.73,22Z" transform="translate(-18.38 -7.35)"/><path class="cls-4" d="M41.06,16.69c-11.35,0-17.17,11.44-17.17,11.44s4.4,11.44,17.17,11.44c11.57,0,17.17-11.39,17.17-11.39S52.59,16.69,41.06,16.69Zm0,18.59a7,7,0,0,1-7.15-7.15,7.15,7.15,0,1,1,14.3,0A7,7,0,0,1,41.09,35.27Zm0-11.44a4.29,4.29,0,1,0,4.29,4.29A4.34,4.34,0,0,0,41.09,23.84Z" transform="translate(-18.38 -7.35)"/></svg>