<svg id="Layer_3" data-name="Layer 3" xmlns="http://www.w3.org/2000/svg" xmlns:xlink="http://www.w3.org/1999/xlink" viewBox="0 0 54.99 54.54"><defs><style>.cls-1{fill:url(#linear-gradient);}.cls-2{fill:#dbdbdb;}</style><linearGradient id="linear-gradient" x1="-1034.71" y1="-478.17" x2="-1056.37" y2="-541.31" gradientTransform="translate(-583.77 -288.56) rotate(180) scale(0.59)" gradientUnits="userSpaceOnUse"><stop offset="0" stop-color="#fff"/><stop offset="1" stop-color="#fff" stop-opacity="0"/></linearGradient></defs><title>PayTable-1a</title><g id="layer1"><g id="g2071"><rect id="rect3417" width="54.99" height="54.54" rx="14.87" ry="14.87"/><path id="path3423" class="cls-1" d="M54.88,5.38H28.95A12.36,12.36,0,0,0,16.55,17.77v25.1c0.22,5.36,1.08,2,2.7-4,1.89-6.9,8-12.92,15.55-17.44C40.53,18,46.94,15.81,58.6,15.6,65.21,15.48,64.63,7.09,54.88,5.38Z" transform="translate(-14.42 -3.05)"/></g></g><path d="M21.26,15.09H29a5.29,5.29,0,0,1,3.78,1.2A4.5,4.5,0,0,1,34,19.71a4.63,4.63,0,0,1-1.37,3.56,5.93,5.93,0,0,1-4.18,1.28H25.92v5.58H21.26v-15Zm4.67,6.41h1.14A2.93,2.93,0,0,0,28.95,21a1.5,1.5,0,0,0,.54-1.19,1.67,1.67,0,0,0-.47-1.2,2.45,2.45,0,0,0-1.77-.49H25.92V21.5Z" transform="translate(-14.42 -3.05)"/><path d="M43.9,27.64H38.63L37.9,30.13H33.15l5.65-15h5.07l5.65,15H44.65Zm-1-3.25L41.28,19l-1.64,5.4h3.3Z" transform="translate(-14.42 -3.05)"/><path d="M47.69,15.09h5.16l3,5.07,3-5.07H64L58.2,23.83v6.3H53.55v-6.3Z" transform="translate(-14.42 -3.05)"/><path d="M17,36.9h9.41v2.47H23.26v7.55h-3.1V39.38H17V36.9Z" transform="translate(-14.42 -3.05)"/><path d="M33,45.27H29.51L29,46.92H25.86l3.77-10H33l3.77,10H33.53ZM32.39,43.1l-1.11-3.6-1.09,3.6h2.2Z" transform="translate(-14.42 -3.05)"/><path d="M37.76,36.9h5.8a3.16,3.16,0,0,1,2.22.72,2.32,2.32,0,0,1,.78,1.78A2.24,2.24,0,0,1,46,40.92a2.47,2.47,0,0,1-1.08.67,2.8,2.8,0,0,1,1.59.89A2.45,2.45,0,0,1,47,44.07a2.74,2.74,0,0,1-.36,1.4,2.67,2.67,0,0,1-1,1,3.27,3.27,0,0,1-1.18.33,13.66,13.66,0,0,1-1.39.14H37.76v-10Zm3.12,3.93h1.35a1.55,1.55,0,0,0,1-.25,0.91,0.91,0,0,0,.28-0.72,0.86,0.86,0,0,0-.28-0.68,1.52,1.52,0,0,0-1-.25H40.89v1.9Zm0,3.94h1.58a1.73,1.73,0,0,0,1.13-.28,1,1,0,0,0,.33-0.76A0.88,0.88,0,0,0,43.6,43a1.82,1.82,0,0,0-1.14-.27H40.89v2Z" transform="translate(-14.42 -3.05)"/><path d="M48.65,36.9h3.1v7.55h4.83v2.47H48.65v-10Z" transform="translate(-14.42 -3.05)"/><path d="M58,36.9h8.3V39h-5.2v1.59H65.9v2H61.08v2h5.35v2.27H58v-10Z" transform="translate(-14.42 -3.05)"/><path class="cls-2" d="M21.26,13.09H29a5.29,5.29,0,0,1,3.78,1.2A4.5,4.5,0,0,1,34,17.71a4.63,4.63,0,0,1-1.37,3.56,5.93,5.93,0,0,1-4.18,1.28H25.93v5.58H21.26v-15Zm4.67,6.41h1.14A2.93,2.93,0,0,0,29,19a1.5,1.5,0,0,0,.54-1.19,1.67,1.67,0,0,0-.47-1.2,2.45,2.45,0,0,0-1.77-.49H25.93V19.5Z" transform="translate(-14.42 -3.05)"/><path class="cls-2" d="M43.9,25.64H38.63L37.9,28.13H33.15l5.65-15h5.07l5.65,15H44.66Zm-1-3.25L41.28,17l-1.64,5.4h3.3Z" transform="translate(-14.42 -3.05)"/><path class="cls-2" d="M47.69,13.09h5.16l3,5.07,3-5.07H64l-5.84,8.74v6.3H53.55v-6.3Z" transform="translate(-14.42 -3.05)"/><path class="cls-2" d="M17,34.9h9.41v2.47H23.26v7.55h-3.1V37.38H17V34.9Z" transform="translate(-14.42 -3.05)"/><path class="cls-2" d="M33,43.27H29.51L29,44.92H25.86l3.77-10H33l3.77,10H33.53ZM32.39,41.1l-1.11-3.6-1.09,3.6h2.2Z" transform="translate(-14.42 -3.05)"/><path class="cls-2" d="M37.76,34.9h5.8a3.16,3.16,0,0,1,2.22.72,2.32,2.32,0,0,1,.78,1.78A2.24,2.24,0,0,1,46,38.92a2.47,2.47,0,0,1-1.08.67,2.8,2.8,0,0,1,1.59.89A2.45,2.45,0,0,1,47,42.07a2.74,2.74,0,0,1-.36,1.4,2.67,2.67,0,0,1-1,1,3.27,3.27,0,0,1-1.18.33,13.66,13.66,0,0,1-1.39.14H37.76v-10Zm3.12,3.93h1.35a1.55,1.55,0,0,0,1-.25,0.91,0.91,0,0,0,.28-0.72,0.86,0.86,0,0,0-.28-0.68,1.52,1.52,0,0,0-1-.25H40.89v1.9Zm0,3.94h1.58a1.73,1.73,0,0,0,1.13-.28,1,1,0,0,0,.33-0.76A0.88,0.88,0,0,0,43.6,41a1.82,1.82,0,0,0-1.14-.27H40.89v2Z" transform="translate(-14.42 -3.05)"/><path class="cls-2" d="M48.65,34.9h3.1v7.55h4.83v2.47H48.65v-10Z" transform="translate(-14.42 -3.05)"/><path class="cls-2" d="M58,34.9h8.3V37h-5.2v1.59H65.9v2H61.08v2h5.35v2.27H58v-10Z" transform="translate(-14.42 -3.05)"/></svg>