<svg id="svg2633_copy_5" data-name="svg2633 copy 5" xmlns="http://www.w3.org/2000/svg" xmlns:xlink="http://www.w3.org/1999/xlink" viewBox="0 0 45.25 45.3"><defs><style>.cls-1{fill:#e4e4e4;}.cls-2{fill:#73d216;}.cls-3{opacity:0.75;isolation:isolate;fill:url(#linear-gradient);}.cls-4{fill:#288406;}.cls-5{fill:#fff;}</style><linearGradient id="linear-gradient" x1="239.5" y1="-87.25" x2="239.5" y2="-116.3" gradientTransform="matrix(0.7, 0, 0, -0.74, -127.03, -54.23)" gradientUnits="userSpaceOnUse"><stop offset="0" stop-color="#fff"/><stop offset="1" stop-color="#fff" stop-opacity="0"/></linearGradient></defs><title>Play-222</title><g id="layer1"><path id="path3676" class="cls-1" d="M63.62,30a22.62,22.62,0,1,1-45.25,0v0a22.62,22.62,0,1,1,45.25,0v0Z" transform="translate(-18.38 -7.35)"/></g><g id="layer1-2" data-name="layer1"><path id="path3676-2" data-name="path3676" class="cls-2" d="M63.06,30a22.06,22.06,0,1,1-44.12,0v0a22.06,22.06,0,1,1,44.12,0v0Z" transform="translate(-18.38 -7.35)"/><path id="path3678" class="cls-3" d="M56.73,22c0,6.62-7,12-15.73,12S25.27,28.61,25.27,22s7-12,15.73-12S56.73,15.37,56.73,22Z" transform="translate(-18.38 -7.35)"/></g><path class="cls-4" d="M21.39,26h5.15a3.52,3.52,0,0,1,2.52.8,3,3,0,0,1,.84,2.28A3.09,3.09,0,0,1,29,31.43a4,4,0,0,1-2.79.85H24.5V36H21.39V26Zm3.11,4.27h0.76a2,2,0,0,0,1.26-.31,1,1,0,0,0,.36-0.8,1.11,1.11,0,0,0-.31-0.8A1.63,1.63,0,0,0,25.38,28H24.5v2.24Z" transform="translate(-18.38 -7.35)"/><path class="cls-4" d="M31.51,26h3.1v7.55h4.83V36H31.51V26Z" transform="translate(-18.38 -7.35)"/><path class="cls-4" d="M47,34.35H43.49L43,36H39.84l3.77-10H47l3.77,10H47.51Zm-0.64-2.17-1.11-3.6-1.09,3.6h2.2Z" transform="translate(-18.38 -7.35)"/><path class="cls-4" d="M49.54,26H53l2,3.38L57,26h3.42l-3.9,5.82V36h-3.1V31.8Z" transform="translate(-18.38 -7.35)"/><path class="cls-5" d="M21.39,24h5.15a3.52,3.52,0,0,1,2.52.8,3,3,0,0,1,.84,2.28A3.09,3.09,0,0,1,29,29.43a4,4,0,0,1-2.79.85H24.5V34H21.39V24Zm3.11,4.27h0.76a2,2,0,0,0,1.26-.31,1,1,0,0,0,.36-0.8,1.11,1.11,0,0,0-.31-0.8A1.63,1.63,0,0,0,25.38,26H24.5v2.24Z" transform="translate(-18.38 -7.35)"/><path class="cls-5" d="M31.51,24h3.1v7.55h4.83V34H31.51V24Z" transform="translate(-18.38 -7.35)"/><path class="cls-5" d="M47,32.35H43.49L43,34H39.84l3.77-10H47l3.77,10H47.51Zm-0.64-2.17-1.11-3.6-1.09,3.6h2.2Z" transform="translate(-18.38 -7.35)"/><path class="cls-5" d="M49.54,24H53l2,3.38L57,24h3.42l-3.9,5.82V34h-3.1V29.8Z" transform="translate(-18.38 -7.35)"/></svg>