<svg id="svg2633_copy_5" data-name="svg2633 copy 5" xmlns="http://www.w3.org/2000/svg" xmlns:xlink="http://www.w3.org/1999/xlink" viewBox="0 0 45.25 45.3"><defs><style>.cls-1{fill:#e4e4e4;}.cls-2{fill:#4ea018;}.cls-3{opacity:0.75;isolation:isolate;fill:url(#linear-gradient);}.cls-4{fill:#288406;}.cls-5{fill:#fff;}</style><linearGradient id="linear-gradient" x1="239.5" y1="-87.25" x2="239.5" y2="-116.3" gradientTransform="matrix(0.7, 0, 0, -0.74, -127.03, -54.23)" gradientUnits="userSpaceOnUse"><stop offset="0" stop-color="#fff"/><stop offset="1" stop-color="#fff" stop-opacity="0"/></linearGradient></defs><title>Rebet&amp;amp;Deal-111</title><g id="layer1"><path id="path3676" class="cls-1" d="M63.62,30a22.62,22.62,0,1,1-45.25,0v0a22.62,22.62,0,1,1,45.25,0v0Z" transform="translate(-18.38 -7.35)"/></g><path id="path3676-2" data-name="path3676" class="cls-2" d="M63.06,30a22.06,22.06,0,1,1-44.12,0v0a22.06,22.06,0,1,1,44.12,0v0Z" transform="translate(-18.38 -7.35)"/><path id="path3678" class="cls-3" d="M56.73,22c0,6.62-7,12-15.73,12S25.27,28.61,25.27,22s7-12,15.73-12S56.73,15.37,56.73,22Z" transform="translate(-18.38 -7.35)"/><path class="cls-4" d="M22.53,28.75V21.59h3.69a5.36,5.36,0,0,1,1.57.18,1.67,1.67,0,0,1,.87.65A2,2,0,0,1,28,25.31a2.68,2.68,0,0,1-.78.28,2.19,2.19,0,0,1,.58.26,2.27,2.27,0,0,1,.35.38,2.82,2.82,0,0,1,.31.44l1.07,2.07h-2.5l-1.18-2.19a1.67,1.67,0,0,0-.4-0.55,0.93,0.93,0,0,0-.54-0.17h-0.2v2.91H22.53Zm2.22-4.26h0.93a3.34,3.34,0,0,0,.59-0.1,0.58,0.58,0,0,0,.36-0.22,0.72,0.72,0,0,0-.08-0.95A1.33,1.33,0,0,0,25.72,23h-1v1.46Z" transform="translate(-18.38 -7.35)"/><path class="cls-4" d="M30.27,21.59H36.2v1.53H32.49v1.14h3.44v1.46H32.49v1.41h3.82v1.62h-6V21.59Z" transform="translate(-18.38 -7.35)"/><path class="cls-4" d="M37.5,21.59h4.14a2.26,2.26,0,0,1,1.59.51,1.66,1.66,0,0,1,.55,1.27,1.6,1.6,0,0,1-.39,1.09,1.77,1.77,0,0,1-.77.48,2,2,0,0,1,1.13.64,1.75,1.75,0,0,1,.36,1.14,2,2,0,0,1-.26,1,1.91,1.91,0,0,1-.71.7,2.33,2.33,0,0,1-.84.23,9.72,9.72,0,0,1-1,.1H37.5V21.59Zm2.23,2.81h1a1.11,1.11,0,0,0,.72-0.18,0.65,0.65,0,0,0,.2-0.52,0.61,0.61,0,0,0-.2-0.49A1.09,1.09,0,0,0,40.71,23h-1V24.4Zm0,2.81h1.13a1.24,1.24,0,0,0,.81-0.2,0.68,0.68,0,0,0,.23-0.54A0.63,0.63,0,0,0,41.67,26a1.3,1.3,0,0,0-.81-0.19H39.73v1.45Z" transform="translate(-18.38 -7.35)"/><path class="cls-4" d="M45.27,21.59H51.2v1.53H47.49v1.14h3.44v1.46H47.49v1.41H51.3v1.62h-6V21.59Z" transform="translate(-18.38 -7.35)"/><path class="cls-4" d="M52,21.59h6.72v1.77H56.46v5.39H54.25V23.36H52V21.59Z" transform="translate(-18.38 -7.35)"/><path class="cls-5" d="M22.53,27.75V20.59h3.69a5.36,5.36,0,0,1,1.57.18,1.67,1.67,0,0,1,.87.65A2,2,0,0,1,28,24.31a2.68,2.68,0,0,1-.78.28,2.19,2.19,0,0,1,.58.26,2.27,2.27,0,0,1,.35.38,2.82,2.82,0,0,1,.31.44l1.07,2.07h-2.5l-1.18-2.19a1.67,1.67,0,0,0-.4-0.55,0.93,0.93,0,0,0-.54-0.17h-0.2v2.91H22.53Zm2.22-4.26h0.93a3.34,3.34,0,0,0,.59-0.1,0.58,0.58,0,0,0,.36-0.22,0.72,0.72,0,0,0-.08-0.95A1.33,1.33,0,0,0,25.72,22h-1v1.46Z" transform="translate(-18.38 -7.35)"/><path class="cls-5" d="M30.27,20.59H36.2v1.53H32.49v1.14h3.44v1.46H32.49v1.41h3.82v1.62h-6V20.59Z" transform="translate(-18.38 -7.35)"/><path class="cls-5" d="M37.5,20.59h4.14a2.26,2.26,0,0,1,1.59.51,1.66,1.66,0,0,1,.55,1.27,1.6,1.6,0,0,1-.39,1.09,1.77,1.77,0,0,1-.77.48,2,2,0,0,1,1.13.64,1.75,1.75,0,0,1,.36,1.14,2,2,0,0,1-.26,1,1.91,1.91,0,0,1-.71.7,2.33,2.33,0,0,1-.84.23,9.72,9.72,0,0,1-1,.1H37.5V20.59Zm2.23,2.81h1a1.11,1.11,0,0,0,.72-0.18,0.65,0.65,0,0,0,.2-0.52,0.61,0.61,0,0,0-.2-0.49A1.09,1.09,0,0,0,40.71,22h-1V23.4Zm0,2.81h1.13a1.24,1.24,0,0,0,.81-0.2,0.68,0.68,0,0,0,.23-0.54A0.63,0.63,0,0,0,41.67,25a1.3,1.3,0,0,0-.81-0.19H39.73v1.45Z" transform="translate(-18.38 -7.35)"/><path class="cls-5" d="M45.27,20.59H51.2v1.53H47.49v1.14h3.44v1.46H47.49v1.41H51.3v1.62h-6V20.59Z" transform="translate(-18.38 -7.35)"/><path class="cls-5" d="M52,20.59h6.72v1.77H56.46v5.39H54.25V22.36H52V20.59Z" transform="translate(-18.38 -7.35)"/><path class="cls-4" d="M25.17,34.46l1.24,0.28a4.58,4.58,0,0,1-.19.55,4.72,4.72,0,0,1-.25.49l0.6,0.41,0.28,0.17-0.86,1-0.49-.29-0.45-.28a3.21,3.21,0,0,1-.83.4,4.53,4.53,0,0,1-1.3.17,2.57,2.57,0,0,1-1.7-.48,1.47,1.47,0,0,1-.56-1.16A1.51,1.51,0,0,1,21,34.79a2.46,2.46,0,0,1,1.07-.74,2.8,2.8,0,0,1-.43-0.66,1.45,1.45,0,0,1-.12-0.57,1.26,1.26,0,0,1,.46-1,2.14,2.14,0,0,1,1.41-.39,2.2,2.2,0,0,1,1.42.38,1.13,1.13,0,0,1,.45.9,1.22,1.22,0,0,1-.14.56,1.42,1.42,0,0,1-.33.44,7.73,7.73,0,0,1-.7.5A10.16,10.16,0,0,0,25,35,3.59,3.59,0,0,0,25.17,34.46Zm-2.39.39a1.72,1.72,0,0,0-.44.39,0.62,0.62,0,0,0-.11.35,0.67,0.67,0,0,0,.25.51,0.92,0.92,0,0,0,.64.22,1.86,1.86,0,0,0,1-.33Q23.57,35.6,22.78,34.85Zm0.57-1.39a1.66,1.66,0,0,0,.48-0.37A0.59,0.59,0,0,0,24,32.72a0.4,0.4,0,0,0-.14-0.31,0.64,0.64,0,0,0-.78,0,0.44,0.44,0,0,0-.15.33A1.29,1.29,0,0,0,23.35,33.46Z" transform="translate(-18.38 -7.35)"/><path class="cls-5" d="M25.17,33.46l1.24,0.28a4.58,4.58,0,0,1-.19.55,4.72,4.72,0,0,1-.25.49l0.6,0.41,0.28,0.17-0.86,1-0.49-.29-0.45-.28a3.21,3.21,0,0,1-.83.4,4.53,4.53,0,0,1-1.3.17,2.57,2.57,0,0,1-1.7-.48,1.47,1.47,0,0,1-.56-1.16A1.51,1.51,0,0,1,21,33.79a2.46,2.46,0,0,1,1.07-.74,2.8,2.8,0,0,1-.43-0.66,1.45,1.45,0,0,1-.12-0.57,1.26,1.26,0,0,1,.46-1,2.14,2.14,0,0,1,1.41-.39,2.2,2.2,0,0,1,1.42.38,1.13,1.13,0,0,1,.45.9,1.22,1.22,0,0,1-.14.56,1.42,1.42,0,0,1-.33.44,7.73,7.73,0,0,1-.7.5A10.16,10.16,0,0,0,25,34,3.59,3.59,0,0,0,25.17,33.46Zm-2.39.39a1.72,1.72,0,0,0-.44.39,0.62,0.62,0,0,0-.11.35,0.67,0.67,0,0,0,.25.51,0.92,0.92,0,0,0,.64.22,1.86,1.86,0,0,0,1-.33Q23.57,34.6,22.78,33.85Zm0.57-1.39a1.66,1.66,0,0,0,.48-0.37A0.59,0.59,0,0,0,24,31.72a0.4,0.4,0,0,0-.14-0.31,0.64,0.64,0,0,0-.78,0,0.44,0.44,0,0,0-.15.33A1.29,1.29,0,0,0,23.35,32.46Z" transform="translate(-18.38 -7.35)"/><path class="cls-4" d="M28.27,31.38h3.61a4.33,4.33,0,0,1,1.73.29,2.81,2.81,0,0,1,1.09.83,3.45,3.45,0,0,1,.62,1.26,5.86,5.86,0,0,1,.19,1.53,5.29,5.29,0,0,1-.29,2,3.23,3.23,0,0,1-.8,1.17,2.6,2.6,0,0,1-1.1.63,5.63,5.63,0,0,1-1.45.21H28.27V31.38Zm2.43,1.78v4.3h0.6a2.5,2.5,0,0,0,1.08-.17,1.14,1.14,0,0,0,.5-0.59,3.71,3.71,0,0,0,.18-1.37,2.65,2.65,0,0,0-.41-1.71,1.73,1.73,0,0,0-1.35-.46H30.7Z" transform="translate(-18.38 -7.35)"/><path class="cls-4" d="M36.79,31.38h6.52v1.68H39.22v1.25H43v1.61H39.22v1.55h4.2v1.78H36.79V31.38Z" transform="translate(-18.38 -7.35)"/><path class="cls-4" d="M49.58,38H46.81l-0.38,1.3H43.95l3-7.87h2.65l3,7.87H50Zm-0.5-1.7L48.2,33.42l-0.86,2.83h1.73Z" transform="translate(-18.38 -7.35)"/><path class="cls-4" d="M53.29,31.38h2.43v5.93h3.8v1.94H53.29V31.38Z" transform="translate(-18.38 -7.35)"/><path class="cls-5" d="M28.27,30.38h3.61a4.33,4.33,0,0,1,1.73.29,2.81,2.81,0,0,1,1.09.83,3.45,3.45,0,0,1,.62,1.26,5.86,5.86,0,0,1,.19,1.53,5.29,5.29,0,0,1-.29,2,3.23,3.23,0,0,1-.8,1.17,2.6,2.6,0,0,1-1.1.63,5.63,5.63,0,0,1-1.45.21H28.27V30.38Zm2.43,1.78v4.3h0.6a2.5,2.5,0,0,0,1.08-.17,1.14,1.14,0,0,0,.5-0.59,3.71,3.71,0,0,0,.18-1.37,2.65,2.65,0,0,0-.41-1.71,1.73,1.73,0,0,0-1.35-.46H30.7Z" transform="translate(-18.38 -7.35)"/><path class="cls-5" d="M36.79,30.38h6.52v1.68H39.22v1.25H43v1.61H39.22v1.55h4.2v1.78H36.79V30.38Z" transform="translate(-18.38 -7.35)"/><path class="cls-5" d="M49.58,37H46.81l-0.38,1.3H43.95l3-7.87h2.65l3,7.87H50Zm-0.5-1.7L48.2,32.42l-0.86,2.83h1.73Z" transform="translate(-18.38 -7.35)"/><path class="cls-5" d="M53.29,30.38h2.43v5.93h3.8v1.94H53.29V30.38Z" transform="translate(-18.38 -7.35)"/></svg>