<svg id="svg2633_copy_5" data-name="svg2633 copy 5" xmlns="http://www.w3.org/2000/svg" xmlns:xlink="http://www.w3.org/1999/xlink" viewBox="0 0 45.25 45.3"><defs><style>.cls-1{fill:#e4e4e4;}.cls-2{fill:#43442e;}.cls-3{opacity:0.75;isolation:isolate;fill:url(#linear-gradient);}.cls-4{fill:#fffffd;}</style><linearGradient id="linear-gradient" x1="239.5" y1="-87.25" x2="239.5" y2="-116.3" gradientTransform="matrix(0.7, 0, 0, -0.74, -127.03, -54.23)" gradientUnits="userSpaceOnUse"><stop offset="0" stop-color="#fff"/><stop offset="1" stop-color="#fff" stop-opacity="0"/></linearGradient></defs><title>Rebet-222</title><g id="layer1"><path id="path3676" class="cls-1" d="M63.62,30a22.62,22.62,0,1,1-45.25,0v0a22.62,22.62,0,1,1,45.25,0v0Z" transform="translate(-18.38 -7.35)"/></g><path id="path3676-2" data-name="path3676" class="cls-2" d="M63.06,30a22.06,22.06,0,1,1-44.12,0v0a22.06,22.06,0,1,1,44.12,0v0Z" transform="translate(-18.38 -7.35)"/><path id="path3678" class="cls-3" d="M56.73,22c0,6.62-7,12-15.73,12S25.27,28.61,25.27,22s7-12,15.73-12S56.73,15.37,56.73,22Z" transform="translate(-18.38 -7.35)"/><path d="M22.45,36V26.61H26.3a4.5,4.5,0,0,1,1.64.23,1.84,1.84,0,0,1,.91.86,3.12,3.12,0,0,1,.35,1.53,3.18,3.18,0,0,1-.27,1.35,2.42,2.42,0,0,1-.73.92,2.46,2.46,0,0,1-.81.37,2.15,2.15,0,0,1,.6.35,2.73,2.73,0,0,1,.37.5,3.84,3.84,0,0,1,.32.58L29.8,36H27.19L26,33.15a2.25,2.25,0,0,0-.42-0.73A0.84,0.84,0,0,0,25,32.21h-0.2V36H22.45Zm2.32-5.61h1a2.82,2.82,0,0,0,.61-0.13,0.61,0.61,0,0,0,.37-0.3,1,1,0,0,0,.15-0.55,1,1,0,0,0-.23-0.7,1.17,1.17,0,0,0-.86-0.24h-1v1.92Z" transform="translate(-18.38 -7.35)"/><path d="M30.53,26.61h6.19v2H32.85v1.5h3.59V32H32.85V33.9h4V36h-6.3V26.61Z" transform="translate(-18.38 -7.35)"/><path d="M38.08,26.61h4.32a2.06,2.06,0,0,1,1.66.68,2.7,2.7,0,0,1,.17,3.11,1.84,1.84,0,0,1-.81.63,2,2,0,0,1,1.19.84,2.73,2.73,0,0,1,.38,1.5,3.1,3.1,0,0,1-.27,1.32,2.31,2.31,0,0,1-.74.93,2.08,2.08,0,0,1-.88.31,8.05,8.05,0,0,1-1,.13h-4V26.61Zm2.33,3.7h1a0.81,0.81,0,0,0,1-.91,0.92,0.92,0,0,0-.21-0.64,1,1,0,0,0-.74-0.23h-1v1.79Zm0,3.7h1.18a1.1,1.1,0,0,0,.84-0.27A1,1,0,0,0,42.68,33a0.93,0.93,0,0,0-.24-0.67,1.14,1.14,0,0,0-.85-0.25H40.41V34Z" transform="translate(-18.38 -7.35)"/><path d="M46.2,26.61h6.19v2H48.51v1.5h3.59V32H48.51V33.9h4V36H46.2V26.61Z" transform="translate(-18.38 -7.35)"/><path d="M53.22,26.61h7v2.33H57.88V36H55.57v-7.1H53.22V26.61Z" transform="translate(-18.38 -7.35)"/><path class="cls-4" d="M22.45,34.11V24.68H26.3a4.5,4.5,0,0,1,1.64.23,1.84,1.84,0,0,1,.91.86,3.12,3.12,0,0,1,.35,1.53,3.18,3.18,0,0,1-.27,1.35,2.42,2.42,0,0,1-.73.92,2.46,2.46,0,0,1-.81.37,2.14,2.14,0,0,1,.6.35,2.76,2.76,0,0,1,.37.5,3.86,3.86,0,0,1,.32.59l1.12,2.73H27.19L26,31.23a2.22,2.22,0,0,0-.42-0.73A0.84,0.84,0,0,0,25,30.28h-0.2v3.83H22.45Zm2.32-5.61h1a2.82,2.82,0,0,0,.61-0.13,0.61,0.61,0,0,0,.37-0.3,1,1,0,0,0,.15-0.55,1,1,0,0,0-.23-0.7,1.17,1.17,0,0,0-.86-0.24h-1V28.5Z" transform="translate(-18.38 -7.35)"/><path class="cls-4" d="M30.53,24.68h6.19v2H32.85v1.5h3.59v1.92H32.85V32h4v2.13h-6.3V24.68Z" transform="translate(-18.38 -7.35)"/><path class="cls-4" d="M38.08,24.68h4.32a2.06,2.06,0,0,1,1.66.68,2.7,2.7,0,0,1,.17,3.11,1.84,1.84,0,0,1-.81.63,2,2,0,0,1,1.19.84,2.73,2.73,0,0,1,.38,1.5,3.1,3.1,0,0,1-.27,1.32,2.31,2.31,0,0,1-.74.93,2.08,2.08,0,0,1-.88.31,8.05,8.05,0,0,1-1,.13h-4V24.68Zm2.33,3.7h1a0.81,0.81,0,0,0,1-.91,0.92,0.92,0,0,0-.21-0.64,1,1,0,0,0-.74-0.23h-1v1.79Zm0,3.7h1.18a1.1,1.1,0,0,0,.84-0.27,1,1,0,0,0,.25-0.72,0.94,0.94,0,0,0-.24-0.67,1.15,1.15,0,0,0-.85-0.25H40.41v1.91Z" transform="translate(-18.38 -7.35)"/><path class="cls-4" d="M46.2,24.68h6.19v2H48.51v1.5h3.59v1.92H48.51V32h4v2.13H46.2V24.68Z" transform="translate(-18.38 -7.35)"/><path class="cls-4" d="M53.22,24.68h7V27H57.88v7.1H55.57V27H53.22V24.68Z" transform="translate(-18.38 -7.35)"/></svg>