<svg xmlns="http://www.w3.org/2000/svg" viewBox="0 0 159.03 34.38"><defs><style>.a{fill:#27aae1;}.b{fill:#231f20;}.c{fill:#ed1c24;}.d{fill:#fbb040;}.e{fill:#ef4136;}.f{fill:#f9ed32;}.g{fill:#fff200;}</style></defs><title>Slide-poker-TWIN-DDB</title><path class="a" d="M63.82,11.47h1.1a0.75,0.75,0,0,1,.54.17,0.64,0.64,0,0,1,.18.49,0.66,0.66,0,0,1-.2.51,0.84,0.84,0,0,1-.6.18H64.48v0.79H63.82V11.47Zm0.66,0.91h0.16a0.42,0.42,0,0,0,.27-0.07A0.21,0.21,0,0,0,65,12.14,0.24,0.24,0,0,0,64.92,12a0.35,0.35,0,0,0-.25-0.07H64.48v0.48Z" transform="translate(-8.28 7.34)"/><path class="a" d="M65.89,12.54A1,1,0,0,1,67,11.43a1.12,1.12,0,0,1,.82.29,1.08,1.08,0,0,1,.29.8,1.32,1.32,0,0,1-.13.62,0.9,0.9,0,0,1-.36.37,1.21,1.21,0,0,1-.6.13,1.37,1.37,0,0,1-.6-0.12A0.9,0.9,0,0,1,66,13.16,1.21,1.21,0,0,1,65.89,12.54Zm0.66,0a0.72,0.72,0,0,0,.12.47,0.46,0.46,0,0,0,.66,0,0.79,0.79,0,0,0,.12-0.5,0.66,0.66,0,0,0-.12-0.44A0.42,0.42,0,0,0,67,11.93a0.4,0.4,0,0,0-.32.14A0.72,0.72,0,0,0,66.56,12.54Z" transform="translate(-8.28 7.34)"/><path class="a" d="M68.2,11.47h0.63l0.23,1.2,0.33-1.2H70l0.33,1.2,0.23-1.2h0.63l-0.47,2.14H70.07L69.7,12.26l-0.37,1.35H68.67Z" transform="translate(-8.28 7.34)"/><path class="a" d="M71.41,11.47h1.77v0.46H72.07v0.34h1V12.7h-1v0.42h1.14v0.48h-1.8V11.47Z" transform="translate(-8.28 7.34)"/><path class="a" d="M73.58,13.61V11.47h1.1a1.61,1.61,0,0,1,.47.05,0.5,0.5,0,0,1,.26.2,0.59,0.59,0,0,1,.1.35,0.57,0.57,0,0,1-.28.52,0.8,0.8,0,0,1-.23.08l0.17,0.08,0.11,0.11L75.36,13l0.32,0.62H74.93L74.58,13a0.5,0.5,0,0,0-.12-0.16,0.28,0.28,0,0,0-.16,0H74.24v0.87H73.58Zm0.66-1.27h0.28l0.17,0a0.18,0.18,0,0,0,.11-0.07,0.22,0.22,0,0,0,0-.28,0.4,0.4,0,0,0-.25-0.06H74.24v0.44Z" transform="translate(-8.28 7.34)"/><path class="a" d="M75.89,11.47h1.77v0.46H76.55v0.34h1V12.7h-1v0.42H77.7v0.48h-1.8V11.47Z" transform="translate(-8.28 7.34)"/><path class="a" d="M78.06,11.47h1a1.18,1.18,0,0,1,.47.08,0.77,0.77,0,0,1,.3.23,0.93,0.93,0,0,1,.17.34,1.58,1.58,0,0,1,.05.41,1.44,1.44,0,0,1-.08.53,0.88,0.88,0,0,1-.22.32,0.71,0.71,0,0,1-.3.17,1.53,1.53,0,0,1-.39.06h-1V11.47ZM78.72,12v1.17h0.16a0.68,0.68,0,0,0,.29,0,0.31,0.31,0,0,0,.14-0.16,1,1,0,0,0,0-.37,0.72,0.72,0,0,0-.11-0.47A0.47,0.47,0,0,0,78.89,12H78.72Z" transform="translate(-8.28 7.34)"/><path class="a" d="M81.38,11.47h1.24a0.67,0.67,0,0,1,.48.15,0.5,0.5,0,0,1,.17.38,0.48,0.48,0,0,1-.12.33,0.53,0.53,0,0,1-.23.14,0.6,0.6,0,0,1,.34.19,0.52,0.52,0,0,1,.11.34,0.59,0.59,0,0,1-.08.3,0.57,0.57,0,0,1-.21.21,0.7,0.7,0,0,1-.25.07l-0.3,0H81.38V11.47ZM82,12.31h0.29a0.33,0.33,0,0,0,.22-0.05,0.19,0.19,0,0,0,.06-0.15A0.18,0.18,0,0,0,82.55,12a0.32,0.32,0,0,0-.21-0.05H82v0.41Zm0,0.84h0.34a0.37,0.37,0,0,0,.24-0.06,0.2,0.2,0,0,0,.07-0.16,0.19,0.19,0,0,0-.07-0.15,0.39,0.39,0,0,0-.24-0.06H82v0.43Z" transform="translate(-8.28 7.34)"/><path class="a" d="M83.48,11.47h0.73l0.43,0.72,0.43-.72h0.73L85,12.71v0.9H84.32v-0.9Z" transform="translate(-8.28 7.34)"/><path class="a" d="M87,13.61V11.47h1.1a1.61,1.61,0,0,1,.47.05,0.5,0.5,0,0,1,.26.2,0.59,0.59,0,0,1,.1.35,0.57,0.57,0,0,1-.28.52,0.8,0.8,0,0,1-.23.08l0.17,0.08,0.11,0.11L88.82,13l0.32,0.62H88.39L88,13a0.5,0.5,0,0,0-.12-0.16,0.28,0.28,0,0,0-.16,0H87.7v0.87H87Zm0.66-1.27H88l0.17,0a0.18,0.18,0,0,0,.11-0.07,0.22,0.22,0,0,0,0-.28A0.4,0.4,0,0,0,88,11.9H87.7v0.44Z" transform="translate(-8.28 7.34)"/><path class="a" d="M89.35,11.47h1.77v0.46H90v0.34h1V12.7H90v0.42h1.14v0.48h-1.8V11.47Z" transform="translate(-8.28 7.34)"/><path class="a" d="M92.83,13.25H92.07l-0.1.35H91.29l0.8-2.14h0.72l0.8,2.14H92.93Zm-0.14-.46L92.45,12l-0.23.77h0.47Z" transform="translate(-8.28 7.34)"/><path class="a" d="M93.84,11.47H94.5v1.61h1v0.53H93.84V11.47Z" transform="translate(-8.28 7.34)"/><path class="a" d="M95.86,11.47h0.66v2.14H95.86V11.47Z" transform="translate(-8.28 7.34)"/><path class="a" d="M96.94,11.47h1.87V11.9l-1.2,1.25h1.24v0.46h-2V13.16L98,11.92H96.94V11.47Z" transform="translate(-8.28 7.34)"/><path class="a" d="M99.15,11.47h1.77v0.46H99.81v0.34h1V12.7h-1v0.42H101v0.48h-1.8V11.47Z" transform="translate(-8.28 7.34)"/><path class="a" d="M103.39,12.83V12.39h1V13.3a2.12,2.12,0,0,1-.52.27,1.78,1.78,0,0,1-.54.07,1.29,1.29,0,0,1-.62-0.13,0.88,0.88,0,0,1-.37-0.39,1.28,1.28,0,0,1-.13-0.59,1.23,1.23,0,0,1,.14-0.61,0.93,0.93,0,0,1,.42-0.39,1.37,1.37,0,0,1,.58-0.1,1.65,1.65,0,0,1,.53.06,0.7,0.7,0,0,1,.29.2,0.9,0.9,0,0,1,.18.34l-0.64.11a0.34,0.34,0,0,0-.13-0.19,0.42,0.42,0,0,0-.24-0.06,0.43,0.43,0,0,0-.35.15,0.73,0.73,0,0,0-.13.48,0.75,0.75,0,0,0,.13.5,0.46,0.46,0,0,0,.36.15,0.69,0.69,0,0,0,.21,0,1.11,1.11,0,0,0,.23-0.11v-0.2h-0.44Z" transform="translate(-8.28 7.34)"/><path class="a" d="M106.12,13.25h-0.75l-0.1.35h-0.68l0.8-2.14h0.72l0.8,2.14h-0.69ZM106,12.79L105.74,12l-0.23.77H106Z" transform="translate(-8.28 7.34)"/><path class="a" d="M107.12,11.47H108l0.34,1.3,0.33-1.3h0.87v2.14H109V12l-0.42,1.63h-0.49L107.66,12v1.63h-0.54V11.47Z" transform="translate(-8.28 7.34)"/><path class="a" d="M110,11.47h0.66v2.14H110V11.47Z" transform="translate(-8.28 7.34)"/><path class="a" d="M111.12,11.47h0.62l0.81,1.18V11.47h0.62v2.14h-0.62l-0.8-1.18v1.18h-0.62V11.47Z" transform="translate(-8.28 7.34)"/><path class="a" d="M114.68,12.83V12.39h1V13.3a2.12,2.12,0,0,1-.52.27,1.78,1.78,0,0,1-.54.07,1.29,1.29,0,0,1-.62-0.13,0.88,0.88,0,0,1-.37-0.39,1.28,1.28,0,0,1-.13-0.59,1.23,1.23,0,0,1,.14-0.61,0.93,0.93,0,0,1,.42-0.39,1.37,1.37,0,0,1,.58-0.1,1.65,1.65,0,0,1,.53.06,0.7,0.7,0,0,1,.29.2,0.9,0.9,0,0,1,.18.34l-0.64.11A0.34,0.34,0,0,0,114.9,12a0.42,0.42,0,0,0-.24-0.06,0.43,0.43,0,0,0-.35.15,0.73,0.73,0,0,0-.13.48,0.75,0.75,0,0,0,.13.5,0.46,0.46,0,0,0,.36.15,0.69,0.69,0,0,0,.21,0,1.11,1.11,0,0,0,.23-0.11v-0.2h-0.44Z" transform="translate(-8.28 7.34)"/><path class="b" d="M29.39,3.27v1.6L25.62,6.56l3.77,1.69V9.83L23.71,7.22V5.88Z" transform="translate(-8.28 7.34)"/><path class="b" d="M37.08,3.27v1.6L33.31,6.56l3.77,1.69V9.83L31.4,7.22V5.88Z" transform="translate(-8.28 7.34)"/><path class="b" d="M44.77,3.27v1.6L41,6.56l3.77,1.69V9.83L39.09,7.22V5.88Z" transform="translate(-8.28 7.34)"/><path class="b" d="M49,8.21l2.49-.4a1.49,1.49,0,0,0,1.61.94q1,0,1-.48a0.43,0.43,0,0,0-.23-0.39,2.71,2.71,0,0,0-.84-0.25,6.12,6.12,0,0,1-3-1,2,2,0,0,1-.65-1.49,2.23,2.23,0,0,1,.94-1.83,4.32,4.32,0,0,1,2.7-.73q2.67,0,3.53,1.91l-2.22.6A1.38,1.38,0,0,0,53,4.29q-0.88,0-.88.48a0.37,0.37,0,0,0,.2.34,2.65,2.65,0,0,0,.77.23,17.85,17.85,0,0,1,2.23.52,2.38,2.38,0,0,1,1.1.78,2,2,0,0,1,.44,1.3,2.22,2.22,0,0,1-1.08,1.91,4.93,4.93,0,0,1-2.82.73Q49.8,10.57,49,8.21Z" transform="translate(-8.28 7.34)"/><path class="b" d="M64,8.55v1.91H57.92V2.68H60.6V8.55H64Z" transform="translate(-8.28 7.34)"/><path class="b" d="M67.66,2.68v7.78H65V2.68h2.68Z" transform="translate(-8.28 7.34)"/><path class="b" d="M69.19,10.46V2.68h3.38a4.33,4.33,0,0,1,3.3,1.16A3.8,3.8,0,0,1,77,6.53a3.69,3.69,0,0,1-1.17,2.83,4.31,4.31,0,0,1-3.05,1.09H69.19Zm2.68-1.79h0.7a1.39,1.39,0,0,0,1.12-.58,2.45,2.45,0,0,0,.46-1.57,2.6,2.6,0,0,0-.41-1.46,1.32,1.32,0,0,0-1.18-.62h-0.7V8.67Z" transform="translate(-8.28 7.34)"/><path class="b" d="M84.67,8.6v1.86H78.1V2.68h6.58V4.47H80.73V5.6h3.19V7.33H80.73V8.6h3.95Z" transform="translate(-8.28 7.34)"/><path class="b" d="M91.74,7.63v2.83H89V2.68h3.73A6.1,6.1,0,0,1,94.87,3,2.53,2.53,0,0,1,96,3.84a2.18,2.18,0,0,1,.43,1.32,2.17,2.17,0,0,1-.87,1.79,3.66,3.66,0,0,1-2.32.68H91.74ZM91.7,6h0.9q1.19,0,1.18-.77t-1.09-.73h-1V6Z" transform="translate(-8.28 7.34)"/><path class="b" d="M101.23,10.57a4.22,4.22,0,0,1-3-1.09,3.8,3.8,0,0,1-1.16-2.91A4,4,0,0,1,98.17,3.7a4.12,4.12,0,0,1,3.08-1.14,4.19,4.19,0,0,1,3,1.07,3.72,3.72,0,0,1,1.15,2.86,3.93,3.93,0,0,1-1.16,3A4.13,4.13,0,0,1,101.23,10.57Zm0-1.77a1,1,0,0,0,1-.53,4.32,4.32,0,0,0,.3-1.93q0-2-1.22-2T99.95,6.64Q99.95,8.81,101.21,8.81Z" transform="translate(-8.28 7.34)"/><path class="b" d="M114.39,10.46h-2.94l-1.51-2.94L109,8.66v1.79h-2.53V2.68H109V5.89l2.41-3.22h2.41l-2.21,2.85Z" transform="translate(-8.28 7.34)"/><path class="b" d="M121.69,8.6v1.86h-6.58V2.68h6.58V4.47h-3.94V5.6h3.19V7.33h-3.19V8.6h3.94Z" transform="translate(-8.28 7.34)"/><path class="b" d="M130.53,10.46h-3l-1.28-3h-0.85v3h-2.68V2.68h4.57a3.84,3.84,0,0,1,2.35.63A2,2,0,0,1,130.5,5a2.27,2.27,0,0,1-.31,1.19,2.53,2.53,0,0,1-1.24.91Zm-5.1-4.64h1.15a1.55,1.55,0,0,0,.81-0.19,0.61,0.61,0,0,0,.31-0.55q0-.75-1-0.75h-1.24V5.82Z" transform="translate(-8.28 7.34)"/><path class="b" d="M135.45,9.84V8.24l3.77-1.69-3.77-1.69V3.27l5.68,2.61V7.22Z" transform="translate(-8.28 7.34)"/><path class="b" d="M143.14,9.84V8.24l3.77-1.69-3.77-1.69V3.27l5.68,2.61V7.22Z" transform="translate(-8.28 7.34)"/><path class="b" d="M150.83,9.84V8.24l3.77-1.69-3.77-1.69V3.27l5.68,2.61V7.22Z" transform="translate(-8.28 7.34)"/><text x="-8.28" y="7.34"/><path class="c" d="M28.47,2.27v1.6L24.7,5.56l3.77,1.69V8.83L22.79,6.22V4.88Z" transform="translate(-8.28 7.34)"/><path class="c" d="M36.17,2.27v1.6L32.39,5.56l3.77,1.69V8.83L30.49,6.22V4.88Z" transform="translate(-8.28 7.34)"/><path class="c" d="M43.86,2.27v1.6L40.08,5.56l3.77,1.69V8.83L38.18,6.22V4.88Z" transform="translate(-8.28 7.34)"/><path class="c" d="M48.13,7.21l2.49-.4a1.49,1.49,0,0,0,1.61.94q1,0,1-.48A0.43,0.43,0,0,0,53,6.88a2.71,2.71,0,0,0-.84-0.25,6.12,6.12,0,0,1-3-1,2,2,0,0,1-.65-1.49,2.23,2.23,0,0,1,.94-1.83,4.32,4.32,0,0,1,2.7-.73q2.67,0,3.53,1.91l-2.22.6a1.38,1.38,0,0,0-1.4-.78q-0.88,0-.88.48a0.37,0.37,0,0,0,.2.34,2.65,2.65,0,0,0,.77.23,17.85,17.85,0,0,1,2.23.52,2.38,2.38,0,0,1,1.1.78A2,2,0,0,1,56,6.93,2.22,2.22,0,0,1,54.9,8.84a4.93,4.93,0,0,1-2.82.73Q48.88,9.57,48.13,7.21Z" transform="translate(-8.28 7.34)"/><path class="c" d="M63.13,7.55V9.46H57V1.68h2.68V7.55h3.45Z" transform="translate(-8.28 7.34)"/><path class="c" d="M66.75,1.68V9.46H64.06V1.68h2.68Z" transform="translate(-8.28 7.34)"/><path class="c" d="M68.27,9.46V1.68h3.38a4.33,4.33,0,0,1,3.3,1.16A3.8,3.8,0,0,1,76,5.53a3.69,3.69,0,0,1-1.17,2.83,4.31,4.31,0,0,1-3.05,1.09H68.27ZM71,7.67h0.7a1.39,1.39,0,0,0,1.12-.58,2.45,2.45,0,0,0,.46-1.57,2.6,2.6,0,0,0-.41-1.46,1.32,1.32,0,0,0-1.18-.62H71V7.67Z" transform="translate(-8.28 7.34)"/><path class="c" d="M83.76,7.6V9.46H77.18V1.68h6.58V3.47H79.81V4.6H83V6.33H79.81V7.6h3.95Z" transform="translate(-8.28 7.34)"/><path class="c" d="M90.82,6.63V9.46H88.1V1.68h3.73A6.1,6.1,0,0,1,94,2a2.53,2.53,0,0,1,1.15.87,2.18,2.18,0,0,1,.43,1.32,2.17,2.17,0,0,1-.87,1.79,3.66,3.66,0,0,1-2.32.68H90.82Zm0-1.67h0.9q1.19,0,1.18-.77t-1.09-.73h-1V5Z" transform="translate(-8.28 7.34)"/><path class="c" d="M100.31,9.57a4.22,4.22,0,0,1-3-1.09,3.8,3.8,0,0,1-1.16-2.91A4,4,0,0,1,97.25,2.7a4.12,4.12,0,0,1,3.08-1.14,4.19,4.19,0,0,1,3,1.07,3.72,3.72,0,0,1,1.15,2.86,3.93,3.93,0,0,1-1.16,3A4.13,4.13,0,0,1,100.31,9.57Zm0-1.77a1,1,0,0,0,1-.53,4.32,4.32,0,0,0,.3-1.93q0-2-1.22-2T99,5.64Q99,7.81,100.3,7.81Z" transform="translate(-8.28 7.34)"/><path class="c" d="M113.48,9.46h-2.94L109,6.52l-0.91,1.14V9.46h-2.53V1.68h2.53V4.89l2.41-3.22h2.41l-2.21,2.85Z" transform="translate(-8.28 7.34)"/><path class="c" d="M120.77,7.6V9.46h-6.58V1.68h6.58V3.47h-3.94V4.6H120V6.33h-3.19V7.6h3.94Z" transform="translate(-8.28 7.34)"/><path class="c" d="M129.62,9.46h-3l-1.28-3h-0.85v3h-2.68V1.68h4.57a3.84,3.84,0,0,1,2.35.63A2,2,0,0,1,129.58,4a2.27,2.27,0,0,1-.31,1.19,2.53,2.53,0,0,1-1.24.91Zm-5.1-4.64h1.15a1.55,1.55,0,0,0,.81-0.19,0.61,0.61,0,0,0,.31-0.55q0-.75-1-0.75h-1.24V4.82Z" transform="translate(-8.28 7.34)"/><path class="c" d="M134.54,8.84V7.24l3.77-1.69-3.77-1.69V2.27l5.68,2.61V6.22Z" transform="translate(-8.28 7.34)"/><path class="c" d="M142.23,8.84V7.24L146,5.55l-3.77-1.69V2.27l5.68,2.61V6.22Z" transform="translate(-8.28 7.34)"/><path class="c" d="M149.92,8.84V7.24l3.77-1.69-3.77-1.69V2.27l5.68,2.61V6.22Z" transform="translate(-8.28 7.34)"/><text x="-8.28" y="7.34"/><path class="d" d="M27.56,1.6v1.6L23.79,4.89l3.77,1.69V8.17L21.88,5.55V4.22Z" transform="translate(-8.28 7.34)"/><path class="d" d="M35.25,1.6v1.6L31.48,4.89l3.77,1.69V8.17L29.57,5.55V4.22Z" transform="translate(-8.28 7.34)"/><path class="d" d="M42.94,1.6v1.6L39.17,4.89l3.77,1.69V8.17L37.26,5.55V4.22Z" transform="translate(-8.28 7.34)"/><path class="d" d="M47.21,6.54l2.49-.4a1.49,1.49,0,0,0,1.61.94q1,0,1-.48a0.43,0.43,0,0,0-.23-0.39A2.71,2.71,0,0,0,51.26,6a6.12,6.12,0,0,1-3-1,2,2,0,0,1-.65-1.49,2.23,2.23,0,0,1,.94-1.83,4.32,4.32,0,0,1,2.7-.73q2.67,0,3.53,1.91l-2.22.6a1.38,1.38,0,0,0-1.4-.78q-0.88,0-.88.48a0.37,0.37,0,0,0,.2.34,2.65,2.65,0,0,0,.77.23,17.85,17.85,0,0,1,2.23.52,2.38,2.38,0,0,1,1.1.78,2,2,0,0,1,.44,1.3A2.22,2.22,0,0,1,54,8.18a4.93,4.93,0,0,1-2.82.73Q48,8.91,47.21,6.54Z" transform="translate(-8.28 7.34)"/><path class="d" d="M62.21,6.88V8.79H56.08V1h2.68V6.88h3.45Z" transform="translate(-8.28 7.34)"/><path class="d" d="M65.83,1V8.79H63.15V1h2.68Z" transform="translate(-8.28 7.34)"/><path class="d" d="M67.35,8.79V1h3.38A4.33,4.33,0,0,1,74,2.17a3.8,3.8,0,0,1,1.09,2.69A3.69,3.69,0,0,1,74,7.7,4.31,4.31,0,0,1,70.9,8.79H67.35ZM70,7h0.7a1.39,1.39,0,0,0,1.12-.58,2.45,2.45,0,0,0,.46-1.57,2.6,2.6,0,0,0-.41-1.46,1.32,1.32,0,0,0-1.18-.62H70V7Z" transform="translate(-8.28 7.34)"/><path class="d" d="M82.84,6.93V8.79H76.26V1h6.58V2.81H78.89V3.94h3.19V5.66H78.89V6.93h3.95Z" transform="translate(-8.28 7.34)"/><path class="d" d="M89.9,6V8.79H87.18V1h3.73A6.1,6.1,0,0,1,93,1.3a2.53,2.53,0,0,1,1.15.87,2.18,2.18,0,0,1,.43,1.32,2.17,2.17,0,0,1-.87,1.79A3.66,3.66,0,0,1,91.42,6H89.9Zm0-1.67h0.9q1.19,0,1.18-.77t-1.09-.73h-1v1.5Z" transform="translate(-8.28 7.34)"/><path class="d" d="M99.39,8.91a4.22,4.22,0,0,1-3-1.09,3.8,3.8,0,0,1-1.16-2.91A4,4,0,0,1,96.34,2,4.12,4.12,0,0,1,99.42.89a4.19,4.19,0,0,1,3,1.07,3.72,3.72,0,0,1,1.15,2.86,3.93,3.93,0,0,1-1.16,3A4.13,4.13,0,0,1,99.39,8.91Zm0-1.77a1,1,0,0,0,1-.53,4.32,4.32,0,0,0,.3-1.93q0-2-1.22-2T98.11,5Q98.11,7.14,99.38,7.14Z" transform="translate(-8.28 7.34)"/><path class="d" d="M112.56,8.79h-2.94l-1.51-2.94L107.21,7V8.79h-2.53V1h2.53V4.23L109.62,1H112l-2.21,2.85Z" transform="translate(-8.28 7.34)"/><path class="d" d="M119.85,6.93V8.79h-6.58V1h6.58V2.81h-3.94V3.94h3.19V5.66h-3.19V6.93h3.94Z" transform="translate(-8.28 7.34)"/><path class="d" d="M128.7,8.79h-3l-1.28-3H123.6v3h-2.68V1h4.57a3.84,3.84,0,0,1,2.35.63,2,2,0,0,1,.83,1.66,2.27,2.27,0,0,1-.31,1.19,2.53,2.53,0,0,1-1.24.91Zm-5.1-4.64h1.15A1.55,1.55,0,0,0,125.56,4a0.61,0.61,0,0,0,.31-0.55q0-.75-1-0.75H123.6V4.15Z" transform="translate(-8.28 7.34)"/><path class="d" d="M133.62,8.17V6.58l3.77-1.69-3.77-1.69V1.6l5.68,2.61V5.56Z" transform="translate(-8.28 7.34)"/><path class="d" d="M141.31,8.17V6.58l3.77-1.69-3.77-1.69V1.6L147,4.21V5.56Z" transform="translate(-8.28 7.34)"/><path class="d" d="M149,8.17V6.58l3.77-1.69L149,3.19V1.6l5.68,2.61V5.56Z" transform="translate(-8.28 7.34)"/><text x="-8.28" y="7.34"/><path class="b" d="M12.12,25.21q0.3-2.6.36-5.73l-2.57.06,0-.59q0-.48,0-1H17.7l0,0.52q0,0.42,0,.7t0,0.42q-1.29-.06-2.13-0.06H15.07q-0.09.95-.14,1.75-0.07,1.15-.1,2.23t0,1.75H12.12Z" transform="translate(-8.28 7.34)"/><path class="b" d="M19.77,25.21l-0.21-1q-0.07-.35-0.22-1l-1-4L18,17.89h2.47q0.16,0.87.26,1.28l0.51,2.16q0.16,0.7.35,1.7l0.2-.75,0.72-2.48L23,17.89h2.8l0.38,2.26L26.7,23l0.24-.79,0.14-.41,0.3-.83,0.74-2.06,0.34-1h2.41l-2.34,6.23-0.37,1.09H25l-0.14-.73-0.53-2.56c0-.15-0.05-0.31-0.08-0.47s-0.05-.42-0.09-0.76l-0.21.83-0.16.56-1,3.13h-3Z" transform="translate(-8.28 7.34)"/><path class="b" d="M31.61,25.21q0.35-4.3.35-6.62V17.89h2.71q-0.11,1.21-.18,2.28-0.08,1.5-.12,2.8t0,2.23H31.61Z" transform="translate(-8.28 7.34)"/><path class="b" d="M35.82,25.21l0.12-1.13,0.24-3.81,0.07-1.54V17.89h3.1l2.58,4.16,0.36,0.61q0.07-.9.14-2.52t0.07-2.25h2.37l-0.15,1.6-0.27,4.44,0,1.28h-3l-0.46-.76-1-1.53q-0.5-.75-0.92-1.44-0.28-.43-0.57-1l-0.13,2.54L38.2,25.21H35.82Z" transform="translate(-8.28 7.34)"/><path class="b" d="M50.9,25.21q0.3-2.6.36-5.73l-2.57.06,0-.59q0-.48,0-1h7.73l0,0.52q0,0.42,0,.7t0,0.42q-1.29-.06-2.13-0.06H53.84q-0.09.95-.14,1.75-0.07,1.15-.1,2.23t0,1.75H50.9Z" transform="translate(-8.28 7.34)"/><path class="b" d="M58.54,25.21l-0.21-1q-0.07-.35-0.22-1l-1-4-0.36-1.35h2.47q0.16,0.87.26,1.28L60,21.33q0.16,0.7.35,1.7l0.2-.75,0.72-2.48,0.49-1.91h2.8l0.38,2.26L65.47,23l0.24-.79,0.14-.41,0.3-.83,0.74-2.06,0.34-1h2.41L67.3,24.12l-0.37,1.09H63.76l-0.14-.73-0.53-2.56c0-.15-0.05-0.31-0.08-0.47S63,21,62.92,20.69l-0.21.83-0.16.56-1,3.13h-3Z" transform="translate(-8.28 7.34)"/><path class="b" d="M70.38,25.21q0.35-4.3.35-6.62V17.89h2.72q-0.11,1.21-.18,2.28-0.08,1.5-.12,2.8t0,2.23H70.38Z" transform="translate(-8.28 7.34)"/><path class="b" d="M74.59,25.21l0.12-1.13,0.24-3.81L75,18.73V17.89h3.1l2.58,4.16,0.36,0.61q0.07-.9.14-2.52t0.07-2.25h2.37l-0.15,1.6-0.27,4.44,0,1.28h-3l-0.46-.76-1-1.53q-0.5-.75-0.92-1.44-0.28-.43-0.57-1L77,23.07,77,25.21H74.59Z" transform="translate(-8.28 7.34)"/><path class="b" d="M87.86,25.21Q88,24,88,23.35q0.06-.92.12-2.53t0.06-2.27q0-.24,0-0.66l1.28,0,1.53,0,1.5,0a10.69,10.69,0,0,1,1.08,0,3,3,0,0,1,.74.17,1.82,1.82,0,0,1,.53.31,1.51,1.51,0,0,1,.37.51,1.8,1.8,0,0,1,.15.73,1.92,1.92,0,0,1-.09.58,1.66,1.66,0,0,1-.25.5,1.63,1.63,0,0,1-.36.36,2,2,0,0,1-.39.22,3.66,3.66,0,0,1-.51.16,3.37,3.37,0,0,1,.51.11,1.89,1.89,0,0,1,.41.2,1.6,1.6,0,0,1,.4.35,1.5,1.5,0,0,1,.26.48,1.76,1.76,0,0,1,.09.56,2,2,0,0,1-.15.77,1.8,1.8,0,0,1-.42.62,2,2,0,0,1-.6.37,3.12,3.12,0,0,1-.76.21q-0.31,0-1.14.06l-1.76,0H87.86Zm2.55-1.47h1.16a3.41,3.41,0,0,0,.68,0,1.16,1.16,0,0,0,.4-0.15,0.67,0.67,0,0,0,.22-0.26A0.83,0.83,0,0,0,93,22.9a0.69,0.69,0,0,0-.07-0.31,0.59,0.59,0,0,0-.2-0.22,0.89,0.89,0,0,0-.33-0.13,3.33,3.33,0,0,0-.6,0H90.49Zm0.14-3h0.86l0.6,0a2,2,0,0,0,.35-0.07,0.72,0.72,0,0,0,.29-0.16,0.64,0.64,0,0,0,.18-0.25A0.8,0.8,0,0,0,92.88,20a0.58,0.58,0,0,0-.45-0.58,2.55,2.55,0,0,0-.72-0.07H90.63Z" transform="translate(-8.28 7.34)"/><path class="b" d="M101.61,17.76a7.45,7.45,0,0,1,1.86.23,4.39,4.39,0,0,1,1.56.74,3.36,3.36,0,0,1,1,1.16,3.33,3.33,0,0,1,.33,1.52,3.73,3.73,0,0,1-.37,1.65,3.53,3.53,0,0,1-1.05,1.28,4.51,4.51,0,0,1-1.64.77,8,8,0,0,1-2,.24,7.91,7.91,0,0,1-2-.24,4.41,4.41,0,0,1-1.63-.77,3.11,3.11,0,0,1-1-1.19,3.77,3.77,0,0,1,.32-3.51,4,4,0,0,1,1.82-1.39A7.05,7.05,0,0,1,101.61,17.76Zm-0.11,1.61a2.6,2.6,0,0,0-1.26.3,2.12,2.12,0,0,0-.86.84,2.33,2.33,0,0,0-.3,1.15,2,2,0,0,0,.27,1,1.85,1.85,0,0,0,.84.74,2.76,2.76,0,0,0,1.19.27,2.58,2.58,0,0,0,1.23-.3,2,2,0,0,0,.85-0.84,2.33,2.33,0,0,0,.29-1.13,2.13,2.13,0,0,0-.27-1.06,1.85,1.85,0,0,0-.8-0.75A2.57,2.57,0,0,0,101.5,19.37Z" transform="translate(-8.28 7.34)"/><path class="b" d="M107.34,25.21l0.12-1.13,0.24-3.81,0.07-1.54V17.89h3.1l2.58,4.16,0.36,0.61q0.07-.9.14-2.52T114,17.89h2.37l-0.15,1.6L116,23.93l0,1.28h-3l-0.46-.76-1-1.53q-0.5-.75-0.92-1.44-0.28-.43-0.57-1l-0.13,2.54-0.06,2.14h-2.38Z" transform="translate(-8.28 7.34)"/><path class="b" d="M117.85,17.89h2.61l-0.18,2.28q-0.05.64-.08,1.21c0,0.38,0,.63,0,0.78a2.93,2.93,0,0,0,.07.68,1,1,0,0,0,.24.46,1.08,1.08,0,0,0,.49.29,2.17,2.17,0,0,0,.65.1,2.06,2.06,0,0,0,.54-0.07,1.36,1.36,0,0,0,.36-0.16,1.12,1.12,0,0,0,.24-0.22,1.5,1.5,0,0,0,.22-0.38,2.14,2.14,0,0,0,.14-0.56q0.05-.35.15-1.59,0.08-1.06.12-1.94a4.59,4.59,0,0,1,.07-0.86h2.66l-0.29,3.8c0,0.07,0,.13,0,0.18a7.07,7.07,0,0,1-.15,1.57,2,2,0,0,1-.43.8,2.7,2.7,0,0,1-.88.61,4.85,4.85,0,0,1-1.32.38,9.93,9.93,0,0,1-1.49.11,9.66,9.66,0,0,1-1.31-.09,5.62,5.62,0,0,1-1-.25,3.88,3.88,0,0,1-.81-0.38,2,2,0,0,1-.48-0.42,1.59,1.59,0,0,1-.27-0.51,2.28,2.28,0,0,1-.11-0.71q0-.13,0-0.39t0.05-.75l0.08-.86q0-.34.07-1Z" transform="translate(-8.28 7.34)"/><path class="b" d="M127,25.09Q127,24,126.85,23.27a7,7,0,0,0,1.21.37,4.87,4.87,0,0,0,.93.1,2.12,2.12,0,0,0,.84-0.14,0.44,0.44,0,0,0,.31-0.4,0.51,0.51,0,0,0,0-.17,0.7,0.7,0,0,0-.12-0.19,1.53,1.53,0,0,0-.24-0.23l-1.14-.88-0.56-.43a3.36,3.36,0,0,1-.5-0.51,1.67,1.67,0,0,1-.26-0.48,1.61,1.61,0,0,1-.08-0.52,1.65,1.65,0,0,1,.13-0.64,1.91,1.91,0,0,1,.39-0.59,2.21,2.21,0,0,1,.69-0.47,3.34,3.34,0,0,1,.92-0.27,6.87,6.87,0,0,1,1-.07,13.08,13.08,0,0,1,2.22.21c0,0.25,0,.47,0,0.68s0.05,0.57.11,1.08a6.08,6.08,0,0,0-1-.28,4.87,4.87,0,0,0-.79-0.08,1.74,1.74,0,0,0-.78.16,0.45,0.45,0,0,0-.31.39,0.48,0.48,0,0,0,0,.21,1,1,0,0,0,.18.24,3,3,0,0,0,.35.3l0.68,0.48,0.44,0.31q0.19,0.14.42,0.34a3.88,3.88,0,0,1,.39.39,2.2,2.2,0,0,1,.25.35,1.42,1.42,0,0,1,.13.32,1.38,1.38,0,0,1,0,.35,1.77,1.77,0,0,1-.26.92,2.05,2.05,0,0,1-.74.72,3.32,3.32,0,0,1-1,.39,6.25,6.25,0,0,1-1.21.11A15.33,15.33,0,0,1,127,25.09Z" transform="translate(-8.28 7.34)"/><path class="e" d="M11.31,24.39q0.3-2.6.36-5.73l-2.57.06,0-.59q0-.48,0-1h7.73l0,0.52q0,0.42,0,.7t0,0.42q-1.29-.06-2.13-0.06H14.26q-0.09.95-.14,1.75Q14,21.56,14,22.64t0,1.75H11.31Z" transform="translate(-8.28 7.34)"/><path class="e" d="M19,24.39l-0.21-1q-0.07-.35-0.22-1l-1-4-0.36-1.35h2.47q0.16,0.87.26,1.28l0.51,2.16q0.16,0.7.35,1.7l0.2-.75L21.68,19l0.49-1.91H25l0.38,2.26,0.53,2.87,0.24-.79L26.26,21l0.3-.83,0.74-2.06,0.34-1H30l-2.34,6.23-0.37,1.09H24.17L24,23.66,23.5,21.11c0-.15-0.05-0.31-0.08-0.47s-0.05-.42-0.09-0.76l-0.21.83L23,21.27l-1,3.13H19Z" transform="translate(-8.28 7.34)"/><path class="e" d="M30.79,24.39q0.35-4.3.35-6.62V17.08h2.71q-0.11,1.21-.18,2.28-0.08,1.5-.12,2.8t0,2.23H30.79Z" transform="translate(-8.28 7.34)"/><path class="e" d="M35,24.39l0.12-1.13,0.24-3.81,0.07-1.54V17.08h3.1l2.58,4.16,0.36,0.61q0.07-.9.14-2.52t0.07-2.25H44l-0.15,1.6-0.27,4.44,0,1.28h-3l-0.46-.76-1-1.53q-0.5-.75-0.92-1.44-0.28-.43-0.57-1l-0.13,2.54-0.06,2.14H35Z" transform="translate(-8.28 7.34)"/><path class="e" d="M50.08,24.39q0.3-2.6.36-5.73l-2.57.06,0-.59q0-.48,0-1h7.73l0,0.52q0,0.42,0,.7t0,0.42q-1.29-.06-2.13-0.06H53q-0.09.95-.14,1.75-0.07,1.15-.1,2.23t0,1.75H50.08Z" transform="translate(-8.28 7.34)"/><path class="e" d="M57.73,24.39l-0.21-1q-0.07-.35-0.22-1l-1-4L56,17.08h2.47q0.16,0.87.26,1.28l0.51,2.16q0.16,0.7.35,1.7l0.2-.75L60.46,19,61,17.08h2.8l0.38,2.26,0.53,2.87,0.24-.79L65,21l0.3-.83,0.74-2.06,0.34-1h2.41l-2.34,6.23-0.37,1.09H62.95l-0.14-.73-0.53-2.56c0-.15-0.05-0.31-0.08-0.47s-0.05-.42-0.09-0.76l-0.21.83-0.16.56-1,3.13h-3Z" transform="translate(-8.28 7.34)"/><path class="e" d="M69.57,24.39q0.35-4.3.35-6.62V17.08h2.72q-0.11,1.21-.18,2.28-0.08,1.5-.12,2.8t0,2.23H69.57Z" transform="translate(-8.28 7.34)"/><path class="e" d="M73.78,24.39l0.12-1.13,0.24-3.81,0.07-1.54V17.08h3.1l2.58,4.16,0.36,0.61q0.07-.9.14-2.52t0.07-2.25h2.37l-0.15,1.6-0.27,4.44,0,1.28h-3l-0.46-.76-1-1.53q-0.5-.75-0.92-1.44-0.28-.43-0.57-1l-0.13,2.54-0.06,2.14H73.78Z" transform="translate(-8.28 7.34)"/><path class="e" d="M87,24.39q0.13-1.18.17-1.85,0.06-.92.12-2.53t0.06-2.27q0-.24,0-0.66l1.28,0,1.53,0,1.5,0a10.69,10.69,0,0,1,1.08,0,3,3,0,0,1,.74.17,1.82,1.82,0,0,1,.53.31,1.51,1.51,0,0,1,.37.51,1.8,1.8,0,0,1,.15.73,1.92,1.92,0,0,1-.09.58,1.66,1.66,0,0,1-.25.5,1.63,1.63,0,0,1-.36.36,2,2,0,0,1-.39.22,3.66,3.66,0,0,1-.51.16,3.37,3.37,0,0,1,.51.11,1.89,1.89,0,0,1,.41.2,1.6,1.6,0,0,1,.4.35,1.5,1.5,0,0,1,.26.48,1.76,1.76,0,0,1,.09.56,2,2,0,0,1-.15.77,1.8,1.8,0,0,1-.42.62,2,2,0,0,1-.6.37,3.12,3.12,0,0,1-.76.21q-0.31,0-1.14.06l-1.76,0H87Zm2.55-1.47h1.16a3.41,3.41,0,0,0,.68,0,1.16,1.16,0,0,0,.4-0.15,0.67,0.67,0,0,0,.22-0.26,0.83,0.83,0,0,0,.08-0.37,0.69,0.69,0,0,0-.07-0.31,0.59,0.59,0,0,0-.2-0.22,0.89,0.89,0,0,0-.33-0.13,3.33,3.33,0,0,0-.6,0H89.67Zm0.14-3H90.6l0.6,0a2,2,0,0,0,.35-0.07,0.72,0.72,0,0,0,.29-0.16A0.64,0.64,0,0,0,92,19.43a0.8,0.8,0,0,0,.05-0.28,0.58,0.58,0,0,0-.45-0.58,2.55,2.55,0,0,0-.72-0.07H89.81Z" transform="translate(-8.28 7.34)"/><path class="e" d="M100.79,16.94a7.45,7.45,0,0,1,1.86.23,4.39,4.39,0,0,1,1.56.74,3.36,3.36,0,0,1,1,1.16,3.33,3.33,0,0,1,.33,1.52,3.73,3.73,0,0,1-.37,1.65,3.53,3.53,0,0,1-1.05,1.28,4.51,4.51,0,0,1-1.64.77,8,8,0,0,1-2,.24,7.91,7.91,0,0,1-2-.24,4.41,4.41,0,0,1-1.63-.77,3.11,3.11,0,0,1-1-1.19,3.77,3.77,0,0,1,.32-3.51,4,4,0,0,1,1.82-1.39A7.05,7.05,0,0,1,100.79,16.94Zm-0.11,1.61a2.6,2.6,0,0,0-1.26.3,2.12,2.12,0,0,0-.86.84,2.33,2.33,0,0,0-.3,1.15,2,2,0,0,0,.27,1,1.85,1.85,0,0,0,.84.74,2.76,2.76,0,0,0,1.19.27,2.58,2.58,0,0,0,1.23-.3,2,2,0,0,0,.85-0.84,2.33,2.33,0,0,0,.29-1.13,2.13,2.13,0,0,0-.27-1.06,1.85,1.85,0,0,0-.8-0.75A2.57,2.57,0,0,0,100.68,18.55Z" transform="translate(-8.28 7.34)"/><path class="e" d="M106.53,24.39l0.12-1.13,0.24-3.81,0.07-1.54V17.08h3.1l2.58,4.16L113,21.85q0.07-.9.14-2.52t0.07-2.25h2.37l-0.15,1.6-0.27,4.44,0,1.28h-3l-0.46-.76-1-1.53q-0.5-.75-0.92-1.44-0.28-.43-0.57-1L109,22.26l-0.06,2.14h-2.38Z" transform="translate(-8.28 7.34)"/><path class="e" d="M117,17.08h2.61l-0.18,2.28q-0.05.64-.08,1.21c0,0.38,0,.63,0,0.78a2.93,2.93,0,0,0,.07.68,1,1,0,0,0,.24.46,1.08,1.08,0,0,0,.49.29,2.17,2.17,0,0,0,.65.1,2.06,2.06,0,0,0,.54-0.07,1.36,1.36,0,0,0,.36-0.16,1.12,1.12,0,0,0,.24-0.22,1.5,1.5,0,0,0,.22-0.38,2.14,2.14,0,0,0,.14-0.56q0.05-.35.15-1.59,0.08-1.06.12-1.94a4.59,4.59,0,0,1,.07-0.86h2.66L125,20.89c0,0.07,0,.13,0,0.18a7.07,7.07,0,0,1-.15,1.57,2,2,0,0,1-.43.8,2.7,2.7,0,0,1-.88.61,4.85,4.85,0,0,1-1.32.38,9.93,9.93,0,0,1-1.49.11,9.66,9.66,0,0,1-1.31-.09,5.62,5.62,0,0,1-1-.25,3.88,3.88,0,0,1-.81-0.38,2,2,0,0,1-.48-0.42,1.59,1.59,0,0,1-.27-0.51,2.28,2.28,0,0,1-.11-0.71q0-.13,0-0.39t0.05-.75l0.08-.86q0-.34.07-1Z" transform="translate(-8.28 7.34)"/><path class="e" d="M126.22,24.28q-0.08-1.14-.18-1.83a7,7,0,0,0,1.21.37,4.87,4.87,0,0,0,.93.1A2.12,2.12,0,0,0,129,22.8a0.44,0.44,0,0,0,.31-0.4,0.51,0.51,0,0,0,0-.17,0.7,0.7,0,0,0-.12-0.19,1.53,1.53,0,0,0-.24-0.23l-1.14-.88-0.56-.43a3.36,3.36,0,0,1-.5-0.51,1.67,1.67,0,0,1-.26-0.48A1.61,1.61,0,0,1,126.4,19a1.65,1.65,0,0,1,.13-0.64,1.91,1.91,0,0,1,.39-0.59,2.21,2.21,0,0,1,.69-0.47,3.34,3.34,0,0,1,.92-0.27,6.87,6.87,0,0,1,1-.07,13.08,13.08,0,0,1,2.22.21c0,0.25,0,.47,0,0.68s0.05,0.57.11,1.08a6.08,6.08,0,0,0-1-.28,4.87,4.87,0,0,0-.79-0.08,1.74,1.74,0,0,0-.78.16,0.45,0.45,0,0,0-.31.39,0.48,0.48,0,0,0,0,.21,1,1,0,0,0,.18.24,3,3,0,0,0,.35.3l0.68,0.48,0.44,0.31q0.19,0.14.42,0.34a3.88,3.88,0,0,1,.39.39,2.2,2.2,0,0,1,.25.35,1.42,1.42,0,0,1,.13.32,1.38,1.38,0,0,1,0,.35,1.77,1.77,0,0,1-.26.92,2.05,2.05,0,0,1-.74.72,3.32,3.32,0,0,1-1,.39,6.25,6.25,0,0,1-1.21.11A15.33,15.33,0,0,1,126.22,24.28Z" transform="translate(-8.28 7.34)"/><path class="f" d="M10.49,23.58q0.3-2.6.36-5.73l-2.57.06,0-.59q0-.48,0-1h7.73l0,0.52q0,0.42,0,.7t0,0.42q-1.29-.06-2.13-0.06H13.44q-0.09.95-.14,1.75-0.07,1.15-.1,2.23t0,1.75H10.49Z" transform="translate(-8.28 7.34)"/><path class="f" d="M18.14,23.58l-0.21-1q-0.07-.35-0.22-1l-1-4-0.36-1.35h2.47q0.16,0.87.26,1.28l0.51,2.16q0.16,0.7.35,1.7l0.2-.75,0.72-2.48,0.49-1.91h2.8l0.38,2.26,0.53,2.87,0.24-.79,0.14-.41,0.3-.83,0.74-2.06,0.34-1h2.41l-2.34,6.23-0.37,1.09H23.36l-0.14-.73-0.53-2.56c0-.15-0.05-0.31-0.08-0.47s-0.05-.42-0.09-0.76l-0.21.83-0.16.56-1,3.13h-3Z" transform="translate(-8.28 7.34)"/><path class="f" d="M30,23.58q0.35-4.3.35-6.62V16.27H33q-0.11,1.21-.18,2.28-0.08,1.5-.12,2.8t0,2.23H30Z" transform="translate(-8.28 7.34)"/><path class="f" d="M34.19,23.58l0.12-1.13,0.24-3.81,0.07-1.54V16.27h3.1l2.58,4.16L40.65,21q0.07-.9.14-2.52t0.07-2.25h2.37l-0.15,1.6L42.82,22.3l0,1.28h-3l-0.46-.76-1-1.53q-0.5-.75-0.92-1.44-0.28-.43-0.57-1l-0.13,2.54-0.06,2.14H34.19Z" transform="translate(-8.28 7.34)"/><path class="f" d="M49.27,23.58q0.3-2.6.36-5.73l-2.57.06,0-.59q0-.48,0-1h7.73l0,0.52q0,0.42,0,.7t0,0.42q-1.29-.06-2.13-0.06H52.22q-0.09.95-.14,1.75Q52,20.75,52,21.83t0,1.75H49.27Z" transform="translate(-8.28 7.34)"/><path class="f" d="M56.92,23.58l-0.21-1q-0.07-.35-0.22-1l-1-4-0.36-1.35h2.47q0.16,0.87.26,1.28l0.51,2.16q0.16,0.7.35,1.7l0.2-.75,0.72-2.48,0.49-1.91h2.8l0.38,2.26,0.53,2.87,0.24-.79,0.14-.41,0.3-.83,0.74-2.06,0.34-1H68l-2.34,6.23L65.3,23.58H62.14L62,22.85l-0.53-2.56c0-.15-0.05-0.31-0.08-0.47s-0.05-.42-0.09-0.76l-0.21.83-0.16.56-1,3.13h-3Z" transform="translate(-8.28 7.34)"/><path class="f" d="M68.75,23.58q0.35-4.3.35-6.62V16.27h2.72q-0.11,1.21-.18,2.28-0.08,1.5-.12,2.8t0,2.23H68.75Z" transform="translate(-8.28 7.34)"/><path class="f" d="M73,23.58l0.12-1.13,0.24-3.81,0.07-1.54V16.27h3.1l2.58,4.16L79.43,21q0.07-.9.14-2.52t0.07-2.25H82l-0.15,1.6L81.59,22.3l0,1.28h-3l-0.46-.76-1-1.53q-0.5-.75-0.92-1.44-0.28-.43-0.57-1l-0.13,2.54-0.06,2.14H73Z" transform="translate(-8.28 7.34)"/><path class="f" d="M86.23,23.58q0.13-1.18.17-1.85,0.06-.92.12-2.53t0.06-2.27q0-.24,0-0.66l1.28,0,1.53,0,1.5,0a10.69,10.69,0,0,1,1.08,0,3,3,0,0,1,.74.17,1.82,1.82,0,0,1,.53.31,1.51,1.51,0,0,1,.37.51,1.8,1.8,0,0,1,.15.73,1.92,1.92,0,0,1-.09.58,1.66,1.66,0,0,1-.25.5,1.63,1.63,0,0,1-.36.36,2,2,0,0,1-.39.22,3.66,3.66,0,0,1-.51.16,3.37,3.37,0,0,1,.51.11,1.89,1.89,0,0,1,.41.2,1.6,1.6,0,0,1,.4.35,1.5,1.5,0,0,1,.26.48,1.76,1.76,0,0,1,.09.56,2,2,0,0,1-.15.77,1.8,1.8,0,0,1-.42.62,2,2,0,0,1-.6.37,3.12,3.12,0,0,1-.76.21q-0.31,0-1.14.06l-1.76,0H86.23Zm2.55-1.47h1.16a3.41,3.41,0,0,0,.68,0,1.16,1.16,0,0,0,.4-0.15,0.67,0.67,0,0,0,.22-0.26,0.83,0.83,0,0,0,.08-0.37A0.69,0.69,0,0,0,91.27,21a0.59,0.59,0,0,0-.2-0.22,0.89,0.89,0,0,0-.33-0.13,3.33,3.33,0,0,0-.6,0H88.86Zm0.14-3h0.86l0.6,0A2,2,0,0,0,90.73,19,0.72,0.72,0,0,0,91,18.87a0.64,0.64,0,0,0,.18-0.25,0.8,0.8,0,0,0,.05-0.28,0.58,0.58,0,0,0-.45-0.58,2.55,2.55,0,0,0-.72-0.07H89Z" transform="translate(-8.28 7.34)"/><path class="f" d="M100,16.13a7.45,7.45,0,0,1,1.86.23,4.39,4.39,0,0,1,1.56.74,3.36,3.36,0,0,1,1,1.16,3.33,3.33,0,0,1,.33,1.52,3.73,3.73,0,0,1-.37,1.65,3.53,3.53,0,0,1-1.05,1.28,4.51,4.51,0,0,1-1.64.77,8,8,0,0,1-2,.24,7.91,7.91,0,0,1-2-.24,4.41,4.41,0,0,1-1.63-.77,3.11,3.11,0,0,1-1-1.19A3.77,3.77,0,0,1,95.44,18a4,4,0,0,1,1.82-1.39A7.05,7.05,0,0,1,100,16.13Zm-0.11,1.61a2.6,2.6,0,0,0-1.26.3,2.12,2.12,0,0,0-.86.84,2.33,2.33,0,0,0-.3,1.15,2,2,0,0,0,.27,1,1.85,1.85,0,0,0,.84.74,2.76,2.76,0,0,0,1.19.27,2.58,2.58,0,0,0,1.23-.3,2,2,0,0,0,.85-0.84,2.33,2.33,0,0,0,.29-1.13,2.13,2.13,0,0,0-.27-1.06,1.85,1.85,0,0,0-.8-0.75A2.57,2.57,0,0,0,99.87,17.74Z" transform="translate(-8.28 7.34)"/><path class="f" d="M105.71,23.58l0.12-1.13,0.24-3.81,0.07-1.54V16.27h3.1l2.58,4.16L112.17,21q0.07-.9.14-2.52t0.07-2.25h2.37l-0.15,1.6-0.27,4.44,0,1.28h-3l-0.46-.76-1-1.53q-0.5-.75-0.92-1.44-0.28-.43-0.57-1l-0.13,2.54-0.06,2.14h-2.38Z" transform="translate(-8.28 7.34)"/><path class="f" d="M116.23,16.27h2.61l-0.18,2.28q-0.05.64-.08,1.21c0,0.38,0,.63,0,0.78a2.93,2.93,0,0,0,.07.68,1,1,0,0,0,.24.46,1.08,1.08,0,0,0,.49.29,2.17,2.17,0,0,0,.65.1,2.06,2.06,0,0,0,.54-0.07,1.36,1.36,0,0,0,.36-0.16,1.12,1.12,0,0,0,.24-0.22,1.5,1.5,0,0,0,.22-0.38,2.14,2.14,0,0,0,.14-0.56q0.05-.35.15-1.59,0.08-1.06.12-1.94a4.59,4.59,0,0,1,.07-0.86h2.66l-0.29,3.8c0,0.07,0,.13,0,0.18a7.07,7.07,0,0,1-.15,1.57,2,2,0,0,1-.43.8,2.7,2.7,0,0,1-.88.61,4.85,4.85,0,0,1-1.32.38,9.93,9.93,0,0,1-1.49.11,9.66,9.66,0,0,1-1.31-.09,5.62,5.62,0,0,1-1-.25,3.88,3.88,0,0,1-.81-0.38,2,2,0,0,1-.48-0.42,1.59,1.59,0,0,1-.27-0.51,2.28,2.28,0,0,1-.11-0.71q0-.13,0-0.39t0.05-.75l0.08-.86q0-.34.07-1Z" transform="translate(-8.28 7.34)"/><path class="f" d="M125.41,23.47q-0.08-1.14-.18-1.83a7,7,0,0,0,1.21.37,4.87,4.87,0,0,0,.93.1A2.12,2.12,0,0,0,128.2,22a0.44,0.44,0,0,0,.31-0.4,0.51,0.51,0,0,0,0-.17,0.7,0.7,0,0,0-.12-0.19,1.53,1.53,0,0,0-.24-0.23L127,20.11l-0.56-.43a3.36,3.36,0,0,1-.5-0.51,1.67,1.67,0,0,1-.26-0.48,1.61,1.61,0,0,1-.08-0.52,1.65,1.65,0,0,1,.13-0.64,1.91,1.91,0,0,1,.39-0.59,2.21,2.21,0,0,1,.69-0.47,3.34,3.34,0,0,1,.92-0.27,6.87,6.87,0,0,1,1-.07,13.08,13.08,0,0,1,2.22.21c0,0.25,0,.47,0,0.68s0.05,0.57.11,1.08a6.08,6.08,0,0,0-1-.28,4.87,4.87,0,0,0-.79-0.08,1.74,1.74,0,0,0-.78.16,0.45,0.45,0,0,0-.31.39,0.48,0.48,0,0,0,0,.21,1,1,0,0,0,.18.24,3,3,0,0,0,.35.3l0.68,0.48,0.44,0.31q0.19,0.14.42,0.34a3.88,3.88,0,0,1,.39.39,2.2,2.2,0,0,1,.25.35,1.42,1.42,0,0,1,.13.32,1.38,1.38,0,0,1,0,.35,1.77,1.77,0,0,1-.26.92,2.05,2.05,0,0,1-.74.72,3.32,3.32,0,0,1-1,.39,6.25,6.25,0,0,1-1.21.11A15.33,15.33,0,0,1,125.41,23.47Z" transform="translate(-8.28 7.34)"/><path class="b" d="M137.18,27a16.83,16.83,0,0,1-.42-1.84,11.29,11.29,0,0,1-.16-1.91,12.68,12.68,0,0,1,.26-2.54,20.41,20.41,0,0,1,.84-2.87h1.68l-0.23.8q-0.1.34-.21,0.82t-0.2,1q-0.09.48-.16,1c0,0.34-.08.68-0.1,1s0,0.69,0,1,0,0.72,0,1,0,0.62.08,0.91,0.07,0.53.11,0.72,0.1,0.48.2,0.87h-1.68Z" transform="translate(-8.28 7.34)"/><path class="b" d="M140.46,24.7q0.12-1.14.16-1.83,0.06-1,.13-2.64,0-1.24,0-1.78V17.87h1.07l1.13,0,1.32,0a8.4,8.4,0,0,1,1.24.08,3,3,0,0,1,1,.33,2.4,2.4,0,0,1,.77.66,2.92,2.92,0,0,1,.48.95A3.87,3.87,0,0,1,148,21a4.58,4.58,0,0,1-.13,1.09,3.89,3.89,0,0,1-.35.94,3.09,3.09,0,0,1-1.81,1.49,4.56,4.56,0,0,1-.81.15,12.45,12.45,0,0,1-1.29.06h-3.11Zm2.28-1.5,0.61,0a4.58,4.58,0,0,0,1-.09,1.55,1.55,0,0,0,.74-0.38,1.76,1.76,0,0,0,.47-0.76,3,3,0,0,0,.15-0.95,2,2,0,0,0-.23-1,1.25,1.25,0,0,0-.6-0.57,2.69,2.69,0,0,0-1-.16l-0.9,0Z" transform="translate(-8.28 7.34)"/><path class="b" d="M148.81,24.7q0.12-1.14.16-1.83,0.06-1,.13-2.64,0-1.24,0-1.78V17.87h1.07l1.13,0,1.32,0a8.4,8.4,0,0,1,1.24.08,3,3,0,0,1,1,.33,2.4,2.4,0,0,1,.77.66,2.92,2.92,0,0,1,.48.95,3.87,3.87,0,0,1,.16,1.12,4.58,4.58,0,0,1-.13,1.09,3.89,3.89,0,0,1-.35.94A3.09,3.09,0,0,1,154,24.49a4.56,4.56,0,0,1-.81.15,12.45,12.45,0,0,1-1.29.06h-3.11Zm2.28-1.5,0.61,0a4.58,4.58,0,0,0,1-.09,1.55,1.55,0,0,0,.74-0.38,1.76,1.76,0,0,0,.47-0.76A3,3,0,0,0,154,21a2,2,0,0,0-.23-1,1.25,1.25,0,0,0-.6-0.57,2.69,2.69,0,0,0-1-.16l-0.9,0Z" transform="translate(-8.28 7.34)"/><path class="b" d="M157.18,24.7q0.11-1.1.15-1.73,0.05-.86.1-2.36t0.05-2.12c0-.15,0-0.35,0-0.62h1.11l1.34,0,1.31,0a8.6,8.6,0,0,1,.94,0,2.46,2.46,0,0,1,.65.16,1.55,1.55,0,0,1,.46.29,1.41,1.41,0,0,1,.32.48,1.78,1.78,0,0,1,.13.69,1.93,1.93,0,0,1-.08.54,1.61,1.61,0,0,1-.22.46,1.5,1.5,0,0,1-.31.34,1.7,1.7,0,0,1-.34.21,3.1,3.1,0,0,1-.45.15,2.67,2.67,0,0,1,.45.1,1.58,1.58,0,0,1,.36.18,1.45,1.45,0,0,1,.58.78,1.77,1.77,0,0,1,.08.52,1.94,1.94,0,0,1-.13.71,1.61,1.61,0,0,1-.89.92,2.6,2.6,0,0,1-.66.2q-0.28,0-1,.06l-1.54,0h-2.41Zm2.23-1.37h1a2.8,2.8,0,0,0,.59,0,1,1,0,0,0,.35-0.15,0.62,0.62,0,0,0,.19-0.24,0.83,0.83,0,0,0,.07-0.35,0.68,0.68,0,0,0-.06-0.29,0.54,0.54,0,0,0-.17-0.21,0.74,0.74,0,0,0-.29-0.12,2.63,2.63,0,0,0-.53,0h-1.11Zm0.12-2.79h0.75l0.53,0,0.3-.06a0.63,0.63,0,0,0,.26-0.15,0.6,0.6,0,0,0,.15-0.23,0.81,0.81,0,0,0,0-.26,0.6,0.6,0,0,0-.09-0.33,0.55,0.55,0,0,0-.3-0.21,2.08,2.08,0,0,0-.63-0.07h-1Z" transform="translate(-8.28 7.34)"/><path class="b" d="M165.09,17.87h1.68a20.88,20.88,0,0,1,.42,2.26,15.1,15.1,0,0,1,.11,1.79,12.34,12.34,0,0,1-.26,2.52,16.71,16.71,0,0,1-.78,2.59h-1.68q0.24-.73.34-1.08,0.14-.52.24-1.08,0.14-.82.22-1.67t0.08-1.59c0-.33,0-0.68,0-1s-0.05-.7-0.09-1-0.08-.64-0.13-0.93Z" transform="translate(-8.28 7.34)"/><path class="c" d="M136.18,26a16.83,16.83,0,0,1-.42-1.84,11.29,11.29,0,0,1-.16-1.91,12.68,12.68,0,0,1,.26-2.54,20.41,20.41,0,0,1,.84-2.87h1.68l-0.23.8q-0.1.34-.21,0.82t-0.2,1q-0.09.48-.16,1c0,0.34-.08.68-0.1,1s0,0.69,0,1,0,0.72,0,1,0,0.62.08,0.91,0.07,0.53.11,0.72,0.1,0.48.2,0.87h-1.68Z" transform="translate(-8.28 7.34)"/><path class="c" d="M139.46,23.7q0.12-1.14.16-1.83,0.06-1,.13-2.64,0-1.24,0-1.78V16.87h1.07l1.13,0,1.32,0a8.4,8.4,0,0,1,1.24.08,3,3,0,0,1,1,.33,2.4,2.4,0,0,1,.77.66,2.92,2.92,0,0,1,.48.95A3.87,3.87,0,0,1,147,20a4.58,4.58,0,0,1-.13,1.09,3.89,3.89,0,0,1-.35.94,3.09,3.09,0,0,1-1.81,1.49,4.56,4.56,0,0,1-.81.15,12.45,12.45,0,0,1-1.29.06h-3.11Zm2.28-1.5,0.61,0a4.58,4.58,0,0,0,1-.09,1.55,1.55,0,0,0,.74-0.38,1.76,1.76,0,0,0,.47-0.76,3,3,0,0,0,.15-0.95,2,2,0,0,0-.23-1,1.25,1.25,0,0,0-.6-0.57,2.69,2.69,0,0,0-1-.16l-0.9,0Z" transform="translate(-8.28 7.34)"/><path class="c" d="M147.81,23.7q0.12-1.14.16-1.83,0.06-1,.13-2.64,0-1.24,0-1.78V16.87h1.07l1.13,0,1.32,0a8.4,8.4,0,0,1,1.24.08,3,3,0,0,1,1,.33,2.4,2.4,0,0,1,.77.66,2.92,2.92,0,0,1,.48.95,3.87,3.87,0,0,1,.16,1.12,4.58,4.58,0,0,1-.13,1.09,3.89,3.89,0,0,1-.35.94A3.09,3.09,0,0,1,153,23.49a4.56,4.56,0,0,1-.81.15,12.45,12.45,0,0,1-1.29.06h-3.11Zm2.28-1.5,0.61,0a4.58,4.58,0,0,0,1-.09,1.55,1.55,0,0,0,.74-0.38,1.76,1.76,0,0,0,.47-0.76A3,3,0,0,0,153,20a2,2,0,0,0-.23-1,1.25,1.25,0,0,0-.6-0.57,2.69,2.69,0,0,0-1-.16l-0.9,0Z" transform="translate(-8.28 7.34)"/><path class="c" d="M156.18,23.7q0.11-1.1.15-1.73,0.05-.86.1-2.36t0.05-2.12c0-.15,0-0.35,0-0.62h1.11l1.34,0,1.31,0a8.6,8.6,0,0,1,.94,0,2.46,2.46,0,0,1,.65.16,1.55,1.55,0,0,1,.46.29,1.41,1.41,0,0,1,.32.48,1.78,1.78,0,0,1,.13.69,1.93,1.93,0,0,1-.08.54,1.61,1.61,0,0,1-.22.46,1.5,1.5,0,0,1-.31.34,1.7,1.7,0,0,1-.34.21,3.1,3.1,0,0,1-.45.15,2.67,2.67,0,0,1,.45.1,1.58,1.58,0,0,1,.36.18,1.45,1.45,0,0,1,.58.78,1.77,1.77,0,0,1,.08.52,1.94,1.94,0,0,1-.13.71,1.61,1.61,0,0,1-.89.92,2.6,2.6,0,0,1-.66.2q-0.28,0-1,.06l-1.54,0h-2.41Zm2.23-1.37h1a2.8,2.8,0,0,0,.59,0,1,1,0,0,0,.35-0.15,0.62,0.62,0,0,0,.19-0.24,0.83,0.83,0,0,0,.07-0.35,0.68,0.68,0,0,0-.06-0.29,0.54,0.54,0,0,0-.17-0.21,0.74,0.74,0,0,0-.29-0.12,2.63,2.63,0,0,0-.53,0h-1.11Zm0.12-2.79h0.75l0.53,0,0.3-.06a0.63,0.63,0,0,0,.26-0.15,0.6,0.6,0,0,0,.15-0.23,0.81,0.81,0,0,0,0-.26,0.6,0.6,0,0,0-.09-0.33,0.55,0.55,0,0,0-.3-0.21,2.08,2.08,0,0,0-.63-0.07h-1Z" transform="translate(-8.28 7.34)"/><path class="c" d="M164.09,16.87h1.68a20.88,20.88,0,0,1,.42,2.26,15.1,15.1,0,0,1,.11,1.79,12.34,12.34,0,0,1-.26,2.52,16.71,16.71,0,0,1-.78,2.59h-1.68q0.24-.73.34-1.08,0.14-.52.24-1.08,0.14-.82.22-1.67t0.08-1.59c0-.33,0-0.68,0-1s-0.05-.7-0.09-1-0.08-.64-0.13-0.93Z" transform="translate(-8.28 7.34)"/><path class="g" d="M135.18,25a16.83,16.83,0,0,1-.42-1.84,11.29,11.29,0,0,1-.16-1.91,12.68,12.68,0,0,1,.26-2.54,20.41,20.41,0,0,1,.84-2.87h1.68l-0.23.8q-0.1.34-.21,0.82t-0.2,1q-0.09.48-.16,1c0,0.34-.08.68-0.1,1s0,0.69,0,1,0,0.72,0,1,0,0.62.08,0.91,0.07,0.53.11,0.72,0.1,0.48.2,0.87h-1.68Z" transform="translate(-8.28 7.34)"/><path class="g" d="M138.46,22.7q0.12-1.14.16-1.83,0.06-1,.13-2.64,0-1.24,0-1.78V15.87h1.07l1.13,0,1.32,0a8.4,8.4,0,0,1,1.24.08,3,3,0,0,1,1,.33,2.4,2.4,0,0,1,.77.66,2.92,2.92,0,0,1,.48.95A3.87,3.87,0,0,1,146,19a4.58,4.58,0,0,1-.13,1.09,3.89,3.89,0,0,1-.35.94,3.09,3.09,0,0,1-1.81,1.49,4.56,4.56,0,0,1-.81.15,12.45,12.45,0,0,1-1.29.06h-3.11Zm2.28-1.5,0.61,0a4.58,4.58,0,0,0,1-.09,1.55,1.55,0,0,0,.74-0.38,1.76,1.76,0,0,0,.47-0.76,3,3,0,0,0,.15-0.95,2,2,0,0,0-.23-1,1.25,1.25,0,0,0-.6-0.57,2.69,2.69,0,0,0-1-.16l-0.9,0Z" transform="translate(-8.28 7.34)"/><path class="g" d="M146.81,22.7q0.12-1.14.16-1.83,0.06-1,.13-2.64,0-1.24,0-1.78V15.87h1.07l1.13,0,1.32,0a8.4,8.4,0,0,1,1.24.08,3,3,0,0,1,1,.33,2.4,2.4,0,0,1,.77.66,2.92,2.92,0,0,1,.48.95,3.87,3.87,0,0,1,.16,1.12,4.58,4.58,0,0,1-.13,1.09,3.89,3.89,0,0,1-.35.94A3.09,3.09,0,0,1,152,22.49a4.56,4.56,0,0,1-.81.15,12.45,12.45,0,0,1-1.29.06h-3.11Zm2.28-1.5,0.61,0a4.58,4.58,0,0,0,1-.09,1.55,1.55,0,0,0,.74-0.38,1.76,1.76,0,0,0,.47-0.76A3,3,0,0,0,152,19a2,2,0,0,0-.23-1,1.25,1.25,0,0,0-.6-0.57,2.69,2.69,0,0,0-1-.16l-0.9,0Z" transform="translate(-8.28 7.34)"/><path class="g" d="M155.18,22.7q0.11-1.1.15-1.73,0.05-.86.1-2.36t0.05-2.12c0-.15,0-0.35,0-0.62h1.11l1.34,0,1.31,0a8.6,8.6,0,0,1,.94,0,2.46,2.46,0,0,1,.65.16,1.55,1.55,0,0,1,.46.29,1.41,1.41,0,0,1,.32.48,1.78,1.78,0,0,1,.13.69,1.93,1.93,0,0,1-.08.54,1.61,1.61,0,0,1-.22.46,1.5,1.5,0,0,1-.31.34,1.7,1.7,0,0,1-.34.21,3.1,3.1,0,0,1-.45.15,2.67,2.67,0,0,1,.45.1,1.58,1.58,0,0,1,.36.18,1.45,1.45,0,0,1,.58.78,1.77,1.77,0,0,1,.08.52,1.94,1.94,0,0,1-.13.71,1.61,1.61,0,0,1-.89.92,2.6,2.6,0,0,1-.66.2q-0.28,0-1,.06l-1.54,0h-2.41Zm2.23-1.37h1a2.8,2.8,0,0,0,.59,0,1,1,0,0,0,.35-0.15,0.62,0.62,0,0,0,.19-0.24,0.83,0.83,0,0,0,.07-0.35,0.68,0.68,0,0,0-.06-0.29,0.54,0.54,0,0,0-.17-0.21,0.74,0.74,0,0,0-.29-0.12,2.63,2.63,0,0,0-.53,0h-1.11Zm0.12-2.79h0.75l0.53,0,0.3-.06a0.63,0.63,0,0,0,.26-0.15,0.6,0.6,0,0,0,.15-0.23,0.81,0.81,0,0,0,0-.26,0.6,0.6,0,0,0-.09-0.33,0.55,0.55,0,0,0-.3-0.21,2.08,2.08,0,0,0-.63-0.07h-1Z" transform="translate(-8.28 7.34)"/><path class="g" d="M163.09,15.87h1.68a20.88,20.88,0,0,1,.42,2.26,15.1,15.1,0,0,1,.11,1.79,12.34,12.34,0,0,1-.26,2.52,16.71,16.71,0,0,1-.78,2.59h-1.68q0.24-.73.34-1.08,0.14-.52.24-1.08,0.14-.82.22-1.67t0.08-1.59c0-.33,0-0.68,0-1s-0.05-.7-0.09-1-0.08-.64-0.13-0.93Z" transform="translate(-8.28 7.34)"/></svg>